<svg id="Movie_Image" data-name="Movie &amp; Image" xmlns="http://www.w3.org/2000/svg" viewBox="0 0 512 512">
  <defs>
    <style>
      .cls-1 {
        fill: transparent;
      }

      .cls-2 {
        fill: #b1d6e8;
      }

      .cls-3 {
        fill: #338cb7;
      }
    </style>
  </defs>
  <rect id="BG" class="cls-1" width="512" height="512"/>
  <g id="Items">
    <g>
      <path class="cls-2" d="M88.05,207.91c-.25-1.64-.48-3.2-.73-4.75-.18-1.16-.38-2.31-.57-3.47a1.82,1.82,0,0,1,.59-1.78c3.48-3.44,6.88-6.95,10.35-10.39a3.36,3.36,0,0,1,1.7-.88c2-.35,3.92-.63,5.9-.8a2.37,2.37,0,0,1,1.66.6q4.88,4.69,9.61,9.51a2.54,2.54,0,0,1,.57,1.7c-.14,3.22-.39,6.44-.59,9.66-.28,4.71-.54,9.42-.85,14.13a1.79,1.79,0,0,1-.43,1c-.76.84-1.59,1.63-2.38,2.44-.54.55-1.07.64-1.63,0a14.53,14.53,0,0,0-1.09-1,3.13,3.13,0,0,1-1.14-3c.43-5.12.64-10.27.91-15.4a3.15,3.15,0,0,0,0-.53c-.77.17-24.18,23.51-24.74,24.68a2.65,2.65,0,0,0,.68.14c5.17-.32,10.33-.61,15.5-1A3,3,0,0,1,104,230c1.92,2.06,2.08,1.72.14,3.69a8,8,0,0,1-1.18,1.22,3.88,3.88,0,0,1-1.77.77c-6.69.47-13.38.88-20.08,1.3a29.74,29.74,0,0,1-3.39.18,3,3,0,0,1-1.76-.74c-2.57-2.46-5.06-5-7.57-7.49a22.82,22.82,0,0,1-2-2.06,2.24,2.24,0,0,1-.43-1.5c.17-1.91.43-3.81.72-5.7a3.09,3.09,0,0,1,.66-1.61c3.57-3.66,7.17-7.29,10.83-10.85a2.69,2.69,0,0,1,1.95-.36c2.43.32,4.83.75,7.25,1.14A3.8,3.8,0,0,0,88.05,207.91Zm26.83-10.68-.21-.36a1.43,1.43,0,0,0-.15-.27c-2.86-2.87-5.71-5.74-8.6-8.58a1.51,1.51,0,0,0-1.06-.26c-1.58.18-3.17.4-4.74.64a2.13,2.13,0,0,0-1.13.48q-5,4.91-9.83,9.91a1.79,1.79,0,0,0-.4,1.3c.4,2.77.88,5.55,1.31,8.32.21,1.45-.2,1.84-1.63,1.61-2.74-.43-5.47-.89-8.22-1.26a2.07,2.07,0,0,0-1.47.47q-4.75,4.67-9.41,9.43a2.56,2.56,0,0,0-.75,1.23c-.28,1.67-.49,3.37-.66,5.07a1.58,1.58,0,0,0,.39,1.11c2.69,2.73,5.43,5.42,8.13,8.14.48.49.82.51,1.3,0,1.48-1.53,3-3,4.51-4.53l23.37-23.48C108.66,203.15,111.79,200.21,114.88,197.23Zm.19,2.73-.33-.18c-1,1.34-2.82,2-2.89,4.17-.19,5.64-.54,11.28-.9,16.92a2,2,0,0,0,1.12,2.07,4,4,0,0,0,2-3.31c.1-3.84.4-7.66.61-11.49Q114.86,204.06,115.07,200Zm-11.95,32a2.07,2.07,0,0,0-2.35-1.12c-5.7.38-11.41.71-17.11,1.06A5.68,5.68,0,0,0,80.15,235c.29,0,.57,0,.85,0,6.19-.39,12.4-.85,18.6-1.14a4.05,4.05,0,0,0,3.52-2Z"/>
      <path class="cls-2" d="M71.78,222.87c.17-1.65.27-3,1.54-4.12,1.92-1.68,3.65-3.57,5.43-5.4a1.81,1.81,0,0,1,1.81-.55c3.36.56,6.73,1,10.09,1.6.4.07,1,.36,1.07.66a1.59,1.59,0,0,1-.4,1.28c-4.08,4.15-8.2,8.25-12.3,12.38a1.07,1.07,0,0,1-1.74,0c-1.67-1.69-3.36-3.37-5-5.07A3.25,3.25,0,0,1,71.78,222.87Zm16.91-6.68a1.53,1.53,0,0,0-.4-.21c-2.52-.4-5-.81-7.57-1.18a1.14,1.14,0,0,0-.85.26c-1.91,1.86-3.83,3.7-5.62,5.67a2,2,0,0,0-.24,1.92c1.19,1.52,2.6,2.86,3.87,4.21Z"/>
      <path class="cls-2" d="M102.52,191.46a5.07,5.07,0,0,1,1.07.57q2.67,2.59,5.29,5.24c.62.62.28,1.14-.21,1.64l-5.76,5.83c-2.14,2.13-4.24,4.29-6.41,6.39a1.83,1.83,0,0,1-1.34.55c-.31-.06-.63-.72-.7-1.15q-.9-5.19-1.68-10.4a1.66,1.66,0,0,1,.4-1.21c2.06-2.15,4.1-4.33,6.32-6.31C100.28,191.93,101.54,191.82,102.52,191.46Zm4.19,6.47a.34.34,0,0,0,0-.14q-1.75-1.78-3.52-3.56a1.76,1.76,0,0,0-2.49-.11l-.06,0q-2.7,2.64-5.33,5.36a1.37,1.37,0,0,0-.43,1c.39,2.6.85,5.18,1.3,7.76,0,0,.11.07.05,0Z"/>
    </g>
    <path class="cls-2" d="M0,160l17.63,13.32,10.59,8c.91.69.89,1.4-.08,2l-14.61,8.9-.36.25c.54,1.43,1.15,2.73,1.53,4.1a6.22,6.22,0,0,1-1.07,5.15c-.54.83-.57,1.3.38,1.85a14.61,14.61,0,0,1,2.7,2.06,3.54,3.54,0,0,1,1,4.1c-1.25,3.09-4.15,4.65-7.18,2.28-2.7-2.12-5.49-4.13-8.18-6.26-.82-.64-1.5-1-2.32-.1v-2.77c.73-.91,1.48-1.79,2.19-2.71,1.28-1.68,2.54-3.37,3.84-5.12l-6-4.55v-2.35q.38.19.72.42c2,1.5,3.93,3,5.86,4.49a1.29,1.29,0,0,0,1.76.14c2.51-1.6,5.08-3.13,7.62-4.69l5.25-3.2c-.33-.28-.53-.47-.75-.64l-15.8-12c-1.52-1.14-3.1-2.21-4.65-3.32v-2.56c1.5,1.12,3,2.23,4.52,3.36l17.93,13.55c.21.15.57.38.72.3,1-.54,2-1.15,3-1.78l-.5-.44L3.41,164.93c-1.1-.82-2.26-1.56-3.38-2.35ZM2.26,203.4l2.61,2c2.41,1.82,4.8,3.66,7.23,5.45,1.16.87,2.23.6,3.27-.72s1-2.4-.08-3.2c-3.11-2.41-6.27-4.76-9.39-7.15-.45-.35-.74-.26-1.05.16C4,201,3.2,202.14,2.26,203.4Zm9.21-1.85a5.49,5.49,0,0,0,1.09-5.88c-.74-1.94-1.12-2-2.84-1a6.45,6.45,0,0,0-1.17.73c-.72.74-1.38,1.54-2.11,2.37l5,3.8Z"/>
    <path class="cls-2" d="M0,5.87C2.16,7.45,4.32,9,6.43,10.64a1.56,1.56,0,0,0,2.13.17c4-2.49,8-4.91,12-7.35A8,8,0,0,0,21.2,3L17.67.22C19.45.08,21-.12,22.24,1.28a1.15,1.15,0,0,0,1.84,0A4.91,4.91,0,0,1,28.8.38C23.67,3.86,18.3,7,13.21,10.16c.54,1.47,1.14,2.81,1.52,4.21a6.21,6.21,0,0,1-1.07,5.05c-.52.82-.6,1.3.38,1.85a16.63,16.63,0,0,1,2.7,2.06,3.46,3.46,0,0,1,1.17,3.07,5,5,0,0,1-2.85,4.07A3.73,3.73,0,0,1,10.88,30C8,27.79,5.16,25.67,2.34,23.47c-.81-.63-1.49-1-2.32-.11V20.59l4.43-5.68c.53-.68,1-1.39,1.6-2.15L0,8.22ZM2.35,21a1.59,1.59,0,0,0,.21.34c3.22,2.44,6.42,4.91,9.68,7.3,1.12.83,2.26.39,3.3-1.07a2.05,2.05,0,0,0-.32-3c-.85-.69-1.74-1.33-2.62-2L6.07,17.58c-.34-.26-.71-.69-1.15-.09C4.07,18.66,3.2,19.82,2.35,21Zm9-1.81a5.34,5.34,0,0,0,.29-7.29c-.16-.17-.55-.33-.7-.25C9.39,12.48,7.75,13.3,6.85,15a.82.82,0,0,0,.09.78C8.41,16.93,9.91,18,11.38,19.15Z"/>
    <g>
      <path class="cls-2" d="M0,86.59l1.89.78c0-1.23.05-2.27,0-3.31-.17-3.12-.4-6.23-.55-9.35-.08-1.44.36-1.71,1.7-1.24l16.78,5.84c1.55.55,1.68,1,.61,2.2q-3.79,4.32-7.6,8.62c-.18.2-.33.42-.66.84,3.54.81,5.75,2.4,3.76,6.35,1.07.38,2,.72,2.91,1s1.19.8.82,1.71-.61,1.73-1,2.82c.68-.15,1.18-.23,1.67-.37,3.09-.91,6.18-1.86,9.28-2.75a2.34,2.34,0,0,1,1.31,0,.86.86,0,0,1,.33.79,1.4,1.4,0,0,1-.77.76c-1.75.58-3.52,1.09-5.28,1.62-2.18.66-4.35,1.32-6.53,2A1.44,1.44,0,0,0,17.57,106a23,23,0,0,1-.83,2.42c-.28.67-.17,1,.58,1.23,2.78.9,5.5,1.9,8.25,2.85.68.23,1.38.51,1.07,1.38s-1.07.57-1.72.34l-9.07-3.18c-.46,1.33-.94,2.57-1.29,3.86a1.7,1.7,0,0,0,.4,1.15c2.15,3.11,4.36,6.2,6.52,9.32.41.59,1.25,1.33.26,2s-1.36-.36-1.79-1l-5.6-8c-.17-.24-.38-.46-.73-.88-.38,1.05-.72,1.89-1,2.75s-.82,1.28-1.76.88a1.88,1.88,0,0,0-.3-.12c-.78-.24-1.64-.8-2.3-.61-.5.14-.73,1.23-1.09,1.89A2.85,2.85,0,0,1,4,123.74c-1.33-.38-2.62-.87-3.93-1.31v-1.92l3.63,1.19c1.3.42,1.7.25,2.16-1q2.29-6.52,4.57-13.06,2.08-6,4.18-11.95c.42-1.24.25-1.77-.78-2.14Q6.92,91.1,0,88.72Zm3.55-6c.15,2.5.27,4.8.44,7.08,0,.22.38.49.64.59,1.6.59,3.22,1.12,4.82,1.7a1.07,1.07,0,0,0,1.37-.39c1.15-1.35,2.35-2.65,3.54-4a11.37,11.37,0,0,0,.71-1Zm11.8,18.71c-.12.32-.23.58-.33.86-2,5.69-4,11.4-6,17.09-.3.85-.22,1.25.71,1.53s1.28.38,1.64-.68c1.84-5.45,3.78-10.87,5.67-16.3C17.8,99.71,17.75,99.65,15.37,99.29Zm3.19-18.43L3.4,75.58a12.64,12.64,0,0,0,0,2.17,1.43,1.43,0,0,0,.72,1c3.92,1.41,7.85,2.77,11.77,4.12a1.06,1.06,0,0,0,.88,0c.58-.53,1.08-1.17,1.75-1.92Z"/>
      <path class="cls-2" d="M0,115.39l1.83.49c2.23-6.36,4.44-12.67,6.69-19.12L3.17,94.89c-1.92-.67-1.92-.67-2.58,1.21-.16.46-.38.9-.57,1.36V92.12a6.78,6.78,0,0,1,1.44.12c2.73.92,5.44,1.89,8.15,2.84,1.14.41,1.28.76.87,1.94q-3.4,9.81-6.85,19.61c-.58,1.66-.72,1.72-2.38,1.18-.4-.13-.82-.2-1.23-.3Z"/>
    </g>
    <g>
      <path class="cls-2" d="M0,280.92l2,.8c0-.61,0-1,0-1.42-.21-3.72-.44-7.43-.62-11.15-.08-1.59.3-1.83,1.81-1.31l16.78,5.83c1.42.5,1.55,1,.59,2.09l-7.82,8.85c-.13.15-.23.33-.48.69,3.46.81,5.72,2.38,3.72,6.34l2.79,1c1.15.42,1.28.68.89,1.81-.29.83-.57,1.67-.92,2.71.58-.11,1-.16,1.43-.28q4.7-1.38,9.38-2.8c.13,0,.26-.1.4-.13.61-.13,1.27-.08,1.31.64a1.44,1.44,0,0,1-.81,1.1c-1.77.61-3.59,1.1-5.39,1.64-2.17.64-4.35,1.28-6.52,1.95-.27.09-.64.29-.72.53-.43,1.05-.79,2.13-1.13,3.2-.17.58.19.78.7,1,2.79.94,5.55,1.95,8.35,2.9.7.23,1.21.59.91,1.36s-.92.59-1.53.37l-9.25-3.23c-.45,1.3-.95,2.51-1.28,3.77a2,2,0,0,0,.46,1.34c2.2,3.17,4.45,6.32,6.63,9.5a1.88,1.88,0,0,1,.33,1.42c-.24.72-1.16.57-1.75-.28q-2.86-4.08-5.73-8.2c-.21-.31-.44-.62-.87-1.22l-.91,2.57c-.53,1.48-.67,1.55-2.16,1l-.21-.07c-.71-.21-1.54-.75-2.1-.55s-.7,1.17-1,1.81A2.85,2.85,0,0,1,3.84,318c-1.3-.36-2.56-.85-3.83-1.28v-1.92L3.54,316c1.46.48,1.8.33,2.3-1.11q2.88-8.22,5.76-16.47c1-2.85,2-5.69,3-8.54.4-1.17.21-1.67-.8-2Q6.89,285.43,0,283.05Zm3.55-6c.15,2.5.27,4.76.44,7,0,.22.34.52.59.62,1.63.6,3.26,1.21,4.92,1.7a1.49,1.49,0,0,0,1.25-.35c1.25-1.3,2.44-2.68,3.63-4,.21-.26.4-.54.7-.94ZM15.34,293.6,8.68,312.67l2.27.77c.19-.5.34-.86.47-1.22q2.82-8,5.63-16.08c.74-2.09.7-2.13-1.71-2.54Zm3.22-18.42L3.41,269.91a15.72,15.72,0,0,0,0,2.21,1.27,1.27,0,0,0,.66.89Q10,275.15,16,277.16a1.13,1.13,0,0,0,.93-.15,23.07,23.07,0,0,0,1.66-1.82Z"/>
      <path class="cls-2" d="M0,309.71l1.84.5c2.22-6.37,4.43-12.67,6.68-19.12l-7.23-2.52L0,291.79v-5.33a5.68,5.68,0,0,1,1.44.12c2.76.93,5.5,1.92,8.26,2.86a1.17,1.17,0,0,1,.85,1.72L3.5,311.37c-.39,1.13-.71,1.25-1.84.9C1.12,312.1.58,312,0,311.84Z"/>
    </g>
    <path class="cls-2" d="M34.9,161.45c-.7.81-1.36,1.54-2,2.32-.43.56-.95.85-1.53.39s-.35-1,.1-1.55q6.57-7.74,13.1-15.51c1.28-1.51,2.56-3,3.8-4.58.24-.3.54-.94.42-1.05a7.07,7.07,0,0,0-1.43-.94s-.14.06-.21.05c-2.26-.34-3.63.92-4.78,2.61a8.27,8.27,0,0,1-.9,1.06,1,1,0,0,1-1.57,0c-1.28-1.11-2.59-2.21-3.89-3.3-.48-.41-.83-.86-.31-1.44s.94-.44,1.46,0c.83.77,1.73,1.46,2.59,2.2.51.42,1,.56,1.44-.06s.84-.88,1.15-1.39a3.2,3.2,0,0,1,3.24-1.52c1.89.21,2.83-.88,3.76-2.18.72-1,1.18-1,2.15-.18,1.65,1.42,1.67,1.44,3.08-.22a2.4,2.4,0,0,1,2-.91c4.91,0,9.82,0,14.72,0h1.34c-.22-1.39-.4-2.64-.6-3.88-.69-4.16-1.36-8.32-2.08-12.47-.12-.68,0-1.18.67-1.33s1,.31,1.12,1q.92,5.5,1.85,11c.27,1.64.58,3.28.82,4.93.09.59.3.71.9.7,5.39,0,10.79-.06,16.18-.07.64,0,1.15.24,1.11,1s-.56.88-1.21.88q-7.51,0-15,0h-1.5c.34,2.1.64,4.05,1,6,.58,3.5,1.22,7,1.74,10.49A2.21,2.21,0,0,1,77,155c-1.4,1.67-1.42,1.66.18,3.05,1.22,1.07,1.23,1.14.24,2.37a16.67,16.67,0,0,0-1.08,1.31,2.39,2.39,0,0,0-.43,1.21c0,.95.23,1.9.26,2.85a1.88,1.88,0,0,1-.38,1.14,18.84,18.84,0,0,1-1.89,2.29c-.63.63-.38,1,.18,1.45.85.67,1.7,1.37,2.56,2.07.49.41.93.91.38,1.52s-1.07.32-1.59-.12q-1.89-1.62-3.84-3.2a1,1,0,0,1-.16-1.55,10.32,10.32,0,0,1,1.42-1.71c1.53-1.23,1.51-2.84,1.23-4.51a2.46,2.46,0,0,0-.62-1.17c-.45-.49-.9-.51-1.39.09Q65.42,170,58.74,178c-1.23,1.46-2.48,2.91-3.71,4.38-.42.52-1,.88-1.54.41s-.32-1.07.13-1.57.93-1.16,1.41-1.73a.76.76,0,0,0-.11-1.25q-7.23-6-14.44-12.07c-1.55-1.3-3.06-2.63-4.6-3.93C35.59,162,35.28,161.74,34.9,161.45Zm36.22-1.19a3.31,3.31,0,0,0-.35-.41L51.23,143.36c-.52-.44-.8-.35-1.2.15-1.37,1.67-2.79,3.3-4.19,5-1.06,1.27-2.11,2.56-3.23,3.92l20.56,17.31Zm-9.2,10.94L41.34,153.86,36.22,160l.64.59L47,169.13c3,2.52,6,5.05,9,7.55.26.21.92.38,1,.25,1.64-1.85,3.22-3.75,4.89-5.73Zm-2.9-34-.15.36L75.2,151.32a5.72,5.72,0,0,0,0-.72c-.7-4.23-1.42-8.46-2.1-12.7-.12-.78-.62-.73-1.15-.73l-11.4.06Zm-9.4,2.19c.24.23.42.43.64.61l13.92,11.74,9.94,8.36c.42.36.75.48,1.13,0s.54-.84,0-1.25a10.55,10.55,0,0,1-.81-.69L56.8,143.35l-6.13-5.14a6.57,6.57,0,0,0-.52.5C50,138.93,49.81,139.15,49.62,139.42Zm24.49,16c1.43-1.22,1.43-1.23.14-2.32L57.13,138.66c-1.28-1.08-1.42-1.07-2.28.52Z"/>
    <path class="cls-2" d="M130.59,434.29c-.09.56-.19.94-.21,1.33-.17,4-.3,8.08-.5,12.13-.31,6.38-.66,12.75-1,19.13-.07,1.56-.16,3.12-.17,4.68a1.05,1.05,0,0,0,.6.77,19.72,19.72,0,0,0,2.28.5,1.17,1.17,0,0,1,1,1.62c-.22.91-.41,1.87-.62,2.8-.28,1.3-.64,1.53-1.92,1.24l-15.36-3.35q-10.39-2.26-20.78-4.5c-1.17-.25-1.36-.52-1.13-1.69s.45-2.08.66-3.12a1,1,0,0,1,1.31-.92,21.4,21.4,0,0,1,2.5.54c.55.16.77,0,1-.49,2-5,3.93-10,5.93-14.94.25-.64.06-.9-.53-1.09-.91-.28-1.81-.6-2.71-.91a1.09,1.09,0,0,1-.75-1.66q2-4.83,3.89-9.67c.32-.81.76-1.11,1.62-.72s1.85.73,2.77,1.1c.54.23.85.09,1.06-.47q1-2.75,2.14-5.45c.3-.74.06-1-.64-1.18-2.47-.64-2.46-.67-1.87-3.14.13-.59.21-1.19.36-1.77.2-.8.6-1.22,1.54-1,1.26.35,2.56.55,3.84.88.69.17,1-.05,1.11-.7.22-1.19.48-2.35.72-3.54s.6-1.34,1.6-1.13l10.6,2.26c1.27.28,1.48.64,1.19,1.95-.24,1.15-.45,2.3-.74,3.42-.18.68.06.87.68,1,1.33.24,2.64.56,4,.84a1,1,0,0,1,.89,1.47,30.53,30.53,0,0,0-.7,3.12c-.16,1.05-.71,1.28-1.65,1C132,434.52,131.33,434.44,130.59,434.29Zm-3.4,28.13c.06-.64.13-1.13.15-1.62.42-8.63.81-17.25,1.24-25.88,0-.76-.12-1.12-1-1.29q-6.31-1.29-12.59-2.73c-.88-.2-1.23,0-1.57.82-2.67,6.81-5.39,13.6-8.11,20.4-.66,1.67-1.3,3.35-2,5.15Zm-.4,9.34c.12-2.23.2-4.28.35-6.33.06-.78-.16-1.1-1-1.28-7.1-1.49-14.17-3-21.26-4.58-2.28-.5-2.28-.5-3.18,1.7-.47,1.19-1,2.37-1.43,3.56-.12.32-.2.64-.34,1.11Zm-31.94-2.84,35.36,7.64c.15-.74.27-1.31.41-2l-35.36-7.63c-.14.5-.23.8-.3,1.11S94.9,468.52,94.85,468.92Zm16.54-42.84c-.68,1.8-.66,1.95.36,2.17q9.82,2.14,19.67,4.26c.33.07.68.09,1.09.15.12-.69.23-1.26.35-1.92Zm16,1.47c.26-1.18.52-2.21.68-3.26a.91.91,0,0,0-.44-.74c-2.84-.65-5.68-1.27-8.53-1.84a.8.8,0,0,0-.7.35c-.28,1.09-.48,2.2-.73,3.42Zm-18.89,11.53c-.9-.35-1.61-.69-2.35-.9a.93.93,0,0,0-.79.34c-1,2.4-1.91,4.81-2.86,7.22-.19.49-.09.8.46,1s1.4.46,2.22.73l3.33-8.35Z"/>
    <path class="cls-2" d="M55.94,11.29c-.73.85-1.37,1.55-1.95,2.31-.43.55-.94.85-1.53.42s-.38-1,.07-1.54c3.37-4,6.67-8,10.12-11.91C63.09.07,64.22.18,65,0l.16.3-1.51,2L84.21,19.56l8-9.52L80.59.24c1.74-.17,3-.14,4.3,1C88.19,4.23,91.65,7,95,9.88c.38.32.72.73,1.22.11s.45-.91-.14-1.4c-3-2.49-6-5-9-7.55-.26-.21-.51-.45-1-.84,1.66-.05,3-.27,4.18,1,1.45,1.49,3.18,2.72,4.77,4.06,1.37-1.17,1.38-1.24.1-2.33L92.07.2c1.57,0,2.94-.42,4.09.91.09-.42.13-.64.2-1a3.82,3.82,0,0,1,1.12,0,1.16,1.16,0,0,1,.75.64,11.87,11.87,0,0,1,.43,2.72A2.46,2.46,0,0,1,98,4.89c-1.37,1.63-1.39,1.61.16,3,1.28,1.1,1.42,1.33.17,2.51-1.53,1.43-1.52,3.07-1.2,4.83a2.08,2.08,0,0,1-.51,1.93c-.6.66-1.12,1.38-1.74,2s-.41.89.11,1.3c.92.72,1.82,1.47,2.71,2.22.47.39.86.88.36,1.45S97,24.47,96.46,24q-1.93-1.66-3.9-3.29a.91.91,0,0,1-.15-1.46,29.72,29.72,0,0,1,2-2.38,2.56,2.56,0,0,0,.82-2.46c-.17-1.1.18-2.54-1.23-2.81-.54-.1-1.38.94-1.94,1.59-2.58,3-5.1,6.08-7.65,9.12q-3.63,4.31-7.27,8.6c-.39.46-.78.92-1.16,1.39s-1,.73-1.44.21a1.61,1.61,0,0,1,.08-1.38A10,10,0,0,1,76,29.42c.49-.55.44-1-.16-1.49q-5-4.09-9.87-8.26c-2.6-2.19-5.18-4.41-7.78-6.61C57.48,12.47,56.75,11.92,55.94,11.29ZM57.17,9.9a7,7,0,0,1,.68.47L63.31,15,77,26.59c.57.48.91.43,1.37-.15,1.32-1.62,2.71-3.2,4.06-4.8a5,5,0,0,0,.41-.67L62.38,3.71Z"/>
    <g>
      <path class="cls-2" d="M90,122.75c-1,.4-1.81.73-2.64,1.12-.58.28-1.09.21-1.35-.35s0-1.09.63-1.35c1.3-.56,2.59-1.16,3.91-1.68.72-.29.88-.65.56-1.38q-4.8-11-9.54-22c-.28-.64-.61-.65-1.16-.4q-1.89.87-3.81,1.65c-.57.24-1.28.58-1.63-.28s.32-1.09.93-1.35c2.35-1,2.35-1,1.34-3.42l-.63-1.46c-.87.37-1.68.7-2.49,1.07-.6.26-1.22.42-1.54-.31s.12-1.11.76-1.38q5.63-2.43,11.23-4.88l17.38-7.53,21.55-9.39c.6-.26,1.23-.38,1.55.35s-.23,1.07-.83,1.33l-2.48,1.1c.49,1.15,1,2.29,1.49,3.39.07.15.56.21.79.14.67-.25,1.32-.53,2-.84s1.15-.27,1.45.37-.14,1.07-.7,1.33c-1.11.48-2.23.94-3.33,1.42-.48.22-1,.46-1.5.73l10.25,23.6,4-1.75c.16-.07.33-.13.49-.21.68-.34,1.43-.6,1.77.34s-.47,1.12-1.1,1.38l-2.23,1,1.66,3.8,2.43-1c.61-.25,1.28-.54,1.63.29s-.4,1.17-1,1.44c-2.74,1.2-5.51,2.39-8.27,3.59l-29,12.62c-4.2,1.82-8.41,3.62-12.6,5.44-.64.28-1.28.48-1.6-.32s.28-1.12.92-1.39c2.41-1,2.41-1,1.35-3.44C90.43,123.71,90.23,123.3,90,122.75Zm30.19-43.24L82.94,95.69l10.25,23.58,37.2-16.17Zm4.22,32.74c1.43-.62,2.73-1.16,4-1.76a.63.63,0,0,0,.23-.57c-.43-1.07-.91-2.14-1.42-3.32l-4.41,1.92C123.32,109.78,123.83,110.94,124.38,112.25Zm-7.81-1,1.63,3.71,4.42-1.92c-.52-1.19-1-2.26-1.47-3.3a.71.71,0,0,0-.67-.19C119.2,110.05,117.94,110.63,116.57,111.23ZM89,86.51l-4.43,1.92c.58,1.32,1.11,2.49,1.65,3.71,1.34-.58,2.56-1.06,3.72-1.63a1,1,0,0,0,.4-.84C89.94,88.66,89.47,87.67,89,86.51Zm14-1.67c-.48-1.13-.87-2.12-1.34-3.07-.1-.21-.51-.51-.66-.45-1.33.54-2.64,1.14-4,1.75.5,1.15.9,2.17,1.38,3.15a.81.81,0,0,0,.72.32c1.29-.51,2.54-1.1,3.91-1.7Zm.16-4.48,1.66,3.71,4.39-1.9-1.61-3.73ZM135,107.64c-.5-1.16-.95-2.23-1.45-3.27a.74.74,0,0,0-.67-.21c-1.28.51-2.53,1.07-3.91,1.67.49,1.14.91,2.18,1.41,3.19a.8.8,0,0,0,.73.29C132.4,108.8,133.65,108.23,135,107.64Zm-25.63-30c.48,1.13.89,2.18,1.37,3.19a.85.85,0,0,0,.73.29c1.28-.5,2.53-1.07,3.9-1.67-.5-1.16-.94-2.24-1.44-3.28a.7.7,0,0,0-.68-.18C112,76.5,110.73,77.06,109.38,77.65Zm-5.22,38.95c.56,1.31,1.07,2.47,1.61,3.73,1.36-.59,2.63-1.11,3.88-1.7.18-.09.42-.48.36-.62-.44-1.11-.94-2.18-1.45-3.32ZM98,119.32c.49,1.12.88,2.11,1.36,3a1,1,0,0,0,.88.37,31.17,31.17,0,0,0,3.2-1.38c.2-.1.43-.54.36-.71-.41-1.07-.9-2.12-1.39-3.25ZM117.18,78.7l4.42-2L120,73,115.56,75ZM112,117.64c1.39-.6,2.63-1.1,3.85-1.69a.89.89,0,0,0,.32-.81c-.38-1-.85-2-1.34-3.13l-4.42,1.92ZM82.74,89.21l-4.39,1.92c.49,1.16.91,2.2,1.4,3.21a.79.79,0,0,0,.74.26c1.28-.51,2.52-1.08,3.87-1.68Zm10.63,36.53,4.41-1.92-1.62-3.72L91.76,122Zm-1-36.28c1.4-.6,2.67-1.12,3.91-1.71a.93.93,0,0,0,.22-.83,15.82,15.82,0,0,0-1.06-2.43,1,1,0,0,0-.86-.37c-1.25.47-2.47,1-3.81,1.62Z"/>
      <path class="cls-2" d="M113.39,106c-.57-.14-1.3-.31-2-.51l-9.86-2.73c-1.15-.33-1.37-.79-.8-1.89,1.81-3.5,3.63-7,5.5-10.47a1.53,1.53,0,0,1,1.07-.79c.34,0,.82.5,1,.89q3,6.87,6,13.78C114.74,105.33,114.45,106,113.39,106ZM107.15,92.7l-4.36,8.39,9.09,2.5Z"/>
    </g>
    <path class="cls-2" d="M97.28,491.56a4.65,4.65,0,0,1,1,.57q2.67,2.6,5.3,5.24c.61.62.26,1.15-.24,1.65q-3.69,3.69-7.36,7.41c-1.6,1.61-3.19,3.24-4.82,4.82a1.69,1.69,0,0,1-1.26.52,1.6,1.6,0,0,1-.75-1.12c-.61-3.47-1.16-6.94-1.68-10.42a1.8,1.8,0,0,1,.46-1.29c2-2.13,4.06-4.29,6.26-6.24C95,492,96.28,491.91,97.28,491.56Zm4.41,6.42c-1.31-1.25-2.52-2.39-3.71-3.56a1.8,1.8,0,0,0-2.78,0c-1.69,1.68-3.35,3.38-5.06,5a1.73,1.73,0,0,0-.57,1.7c.32,1.75.58,3.51.86,5.26.12.71.26,1.42.4,2.13l.42.25Z"/>
    <g>
      <path class="cls-2" d="M2.88,471.46.15,475c-.06-1.67-.44-3.2.91-4.37a1.36,1.36,0,0,0,.08-2.19c-1.2-1.31-1.19-2.86-.95-4.78a10.5,10.5,0,0,1,.92,1.08Q5.57,472,10,479.37a2.44,2.44,0,0,0,.29.27,6.1,6.1,0,0,0,.58-.36,7.39,7.39,0,0,1,8.57-.23c.84.57,1.26.42,1.77-.41a17.49,17.49,0,0,1,2-2.64,3.59,3.59,0,0,1,4.08-1.08c3.12,1.18,4.81,4.15,2.39,7.22-2.22,2.82-4.35,5.69-6.53,8.53a1.12,1.12,0,0,0,0,1.72c3.67,4.05,3.92,9.84,0,14.73-2.45,3-5.38,4.91-9.33,4.88a10.27,10.27,0,0,1-6.15-2.08q-3.54-2.64-7-5.34c-.28-.21-.37-.66-.54-1,0,0,0-.07,0-.1a7.35,7.35,0,0,1,2-6.09c3-3.65,5.73-7.51,8.61-11.25a1.47,1.47,0,0,0,.12-2c-2.55-4.05-5-8.17-7.53-12.26A5.19,5.19,0,0,0,2.88,471.46ZM.75,502.39c3.09,2.27,5.94,4.58,9,6.56a8.13,8.13,0,0,0,8.06.31,11.53,11.53,0,0,0,4.38-4.08,8.94,8.94,0,0,0-1.73-12.76c-1.8-1.38-3.63-2.74-5.44-4.1-.75-.56-1.52-1.11-2.32-1.7Zm20.27-12c2.58-3.43,5.1-6.72,7.55-10.07.79-1.08.35-2.18-1.08-3.2a2.06,2.06,0,0,0-3,.29c-.73.91-1.41,1.86-2.12,2.8q-2.42,3.16-4.82,6.35c-.25.33-.72.71-.11,1.16,1.16.85,2.31,1.71,3.6,2.67Zm-5.55-4.35c1.12-1.47,2.23-2.89,3.28-4.35a.93.93,0,0,0-.13-.92,5.49,5.49,0,0,0-6.78.17c-.18.17-.37.61-.28.77,1,1.69,1.81,3.48,3.91,4.33Z"/>
      <path class="cls-2" d="M17.3,501.56c0,.93-.83,1.41-1.48.94q-3.13-2.28-6.17-4.71c-.24-.2-.11-.86-.16-1.28.49,0,1.1-.25,1.43,0,1.35.9,2.62,1.94,3.92,2.92.62.47,1.28.92,1.86,1.42A3.89,3.89,0,0,1,17.3,501.56Z"/>
      <path class="cls-2" d="M14.25,505.7a1,1,0,0,1-1.51.88q-3.13-2.28-6.17-4.71a1.24,1.24,0,0,1-.16-1.19,1.32,1.32,0,0,1,1.26-.24c2.11,1.49,4.16,3.08,6.22,4.65A1.8,1.8,0,0,1,14.25,505.7Z"/>
      <path class="cls-2" d="M20.49,497.63c-.19.29-.31.67-.54.77a1.31,1.31,0,0,1-1.06,0c-2.07-1.5-4.11-3-6.1-4.63a1.41,1.41,0,0,1-.19-1.3c.27-.56.87-.54,1.37-.16,2,1.5,4,3,5.94,4.5A4.14,4.14,0,0,1,20.49,497.63Z"/>
    </g>
    <g>
      <path class="cls-2" d="M79.15,346.21a28.65,28.65,0,1,1-28.22-28.64A28.71,28.71,0,0,1,79.15,346.21ZM50.51,373A26.76,26.76,0,0,0,77.28,346.4c0-14.79-11.91-26.95-26.42-27A26.78,26.78,0,1,0,50.51,373Z"/>
      <path class="cls-2" d="M49.54,362.14c0-1.85,0-3.7,0-5.55,0-.77-.25-1-1-1.18a9.07,9.07,0,0,1-7.24-7.25c-.19-.8-.52-1-1.28-1-3.66,0-7.33,0-11,0-1.46,0-1.64-.21-1.57-1.68a23,23,0,0,1,20-22.13c.81-.12,1.63-.14,2.44-.18,1.15-.06,1.48.25,1.48,1.4,0,3.7,0,7.4,0,11.1,0,.87.24,1.19,1.11,1.4a9.09,9.09,0,0,1,7.18,7.32c.16.72.48.87,1.15.87,3.66,0,7.32,0,11,0,1.5,0,1.75.25,1.71,1.73a23.2,23.2,0,0,1-20.34,22.13,20.92,20.92,0,0,1-2.23.17c-1.07,0-1.47-.43-1.47-1.5C49.53,365.9,49.54,364,49.54,362.14Zm1.92,5c10,.08,20.09-9.31,20-19.88a1,1,0,0,0-.29-.11c-3.55,0-7.11,0-10.67,0-.67,0-.68.43-.79.89a9.11,9.11,0,0,1-7.38,7.37c-.69.15-.92.43-.92,1.12,0,2.85,0,5.69,0,8.54Zm-1.92-41.93c-10.27-.06-20,9.43-20,19.85.06,0,.12.1.18.1,3.63,0,7.24,0,10.86,0,.22,0,.57-.38.63-.64a9.5,9.5,0,0,1,7.68-7.64c.25-.06.62-.43.62-.64,0-3.65,0-7.31,0-11Zm1,13.53a7.35,7.35,0,0,0-7.5,7.26,7.46,7.46,0,0,0,7.34,7.68A7.59,7.59,0,0,0,58,346.13a7.47,7.47,0,0,0-7.46-7.35Z"/>
      <path class="cls-2" d="M50.47,341.35a4.91,4.91,0,0,1,5,4.85v.06a5,5,0,0,1-4.81,4.89,4.91,4.91,0,0,1-5-4.84v-.05a4.82,4.82,0,0,1,4.72-4.91Zm0,7.82a2.9,2.9,0,1,0-.06,0h.06Z"/>
    </g>
    <g>
      <path class="cls-2" d="M28.74,386.36,14.92,375.9Q7.45,370.26,0,364.6V367l26.85,20.3c-1.08.67-2,1.28-3,1.79-.2.1-.65-.16-.91-.35L5.18,375.3,0,371.39v2.42l21.85,16.53c-2,1.25-3.89,2.41-5.76,3.55-2.46,1.51-4.93,3-7.37,4.5a1,1,0,0,1-1.31-.08L0,392.67v2.44l6.64,5h0L4.49,403c-1.4,1.84-2.71,3.74-4.21,5.49a3.57,3.57,0,0,1-.28.27v2.48a9.16,9.16,0,0,0,.87-.67,1.07,1.07,0,0,1,1.64-.06c2.47,1.9,4.91,3.83,7.42,5.68,1.24.91,2.32,2.18,4,2,2.28.27,4.57-2.73,4.58-4.45a3.89,3.89,0,0,0-1.3-3.14,25.72,25.72,0,0,0-2.72-2c-.76-.48-.85-.89-.35-1.62a7.28,7.28,0,0,0-.11-8.48c-.43-.59-.49-.83.23-1.26,4.81-2.88,9.58-5.82,14.36-8.74C29.73,387.8,29.76,387.13,28.74,386.36ZM11.43,399a.87.87,0,0,1,.79.18,5.34,5.34,0,0,1-.25,7.3l-4.8-3.6C8,400.81,9.79,400,11.43,399Zm4.16,12.67c1.27,1,1.38,2.09.38,3.4s-2.13,1.63-3.45.64c-3-2.24-6-4.51-9-6.77l-.65-.58,3-4,3.77,2.85C11.63,408.71,13.62,410.19,15.59,411.7Z"/>
      <path class="cls-2" d="M.77,400.09A1.15,1.15,0,0,0,0,400v2.59c.3-.41.61-.81.9-1.23A1.18,1.18,0,0,0,.77,400.09Z"/>
    </g>
    <g>
      <path class="cls-2" d="M148.28,458.11a20.3,20.3,0,0,0,.63-3.12c.1-2.23,0-4.46,0-6.68a4.22,4.22,0,0,1,.12-1.52,7.45,7.45,0,0,1,1-1.43c.39.44,1,.84,1.11,1.33.25,1.58,1.29,2.3,2.57,2.92a33.62,33.62,0,0,0,10.52,2.9,46.65,46.65,0,0,0,18.86-1,24.55,24.55,0,0,0,5.12-2.32c.74-.42,1.2-1.31,1.8-2,.28-.31.58-.6.88-.9.35.39,1,.75,1,1.18a22.56,22.56,0,0,1,.06,3.08c0,2-.52,4.21.18,5.93s2.65,2.87,4,4.29c1,1,1.93,1.94,2.85,3a3.11,3.11,0,0,1,.78,1.29,1.46,1.46,0,0,1-.25,1.22c-.25.23-.81.14-1.22.07a3.89,3.89,0,0,1-1-.52,11.86,11.86,0,0,0-.5,1.29c-.76,3.11-1.46,6.23-2.25,9.33-.22.89-.19,1.42.77,1.89,1.93,1,1.94,2.68,0,3.72a4.38,4.38,0,0,1-2.11.56,5.42,5.42,0,0,0-3.7,1.45c-5.4,4.13-10.86,8.18-16.29,12.26l-17.26,13c-.39.3-.74.65-1.27,1.13l2.47.85c0,.15,0,.3-.07.45a14.27,14.27,0,0,1-6.9-.33c0-.19,0-.37,0-.55.53-.09,1.08-.14,1.6-.27a6.3,6.3,0,0,0,2.18-.72q15.79-11.92,31.52-23.95c1.07-.82,2.07-1.74,3.35-2.81H152.21l-.19.6,17.8,12.51c-.74,1-1.33.45-1.86.07-2.61-1.85-5.19-3.73-7.8-5.59-3.07-2.19-6.12-4.41-9.25-6.51a7.54,7.54,0,0,0-2.66-.84,17.93,17.93,0,0,1-3.34-.59,3,3,0,0,1-1.58-1.94,2.47,2.47,0,0,1,1.27-1.95c1.55-.63,1.44-1.58,1.14-2.87-.82-3.5-1.54-7-2.31-10.6H142c-.79-1-.11-2.29,1.77-3.6l.09.11-1.71,2.41.55.5c2-1.61,4-3.17,5.94-4.89a1,1,0,0,0-.36-1.85Zm45.23,2.7c1.35,1.39,2.66,2.8,4.05,4.15a9.82,9.82,0,0,0,1.47,1l.42-.53c-1.78-3-4.73-4.95-7-7.55l-.52.31.9,2c-.28.25-.79.5-.8.76-.06,5.14-.07,10.27-.06,15.4,0,.59-.08,1.47.86,1.31a1.77,1.77,0,0,0,1.12-1.14c1-3.46,1.79-7,2.73-10.43a1.84,1.84,0,0,0-.57-2c-1-1-1.77-2.19-2.64-3.3Zm-4.12,2.05c-5.9,3.81-12.31,4.2-18.79,4.2a39.32,39.32,0,0,1-19.11-4.45v13.83c-.34-.12-.44-.26-.45-.39q-.09-13.62-.21-27.23a16,16,0,0,0-.36-2.47h-.6a6.8,6.8,0,0,0-.5,1.85c.08,9.9.21,19.79.33,29.5h39.69Zm6.72,17.26-52.14.51a2.45,2.45,0,0,0,2.58,1.85c1.37.07,2.75,0,4.11,0l39.08-.46c1.42,0,2.85,0,4.27-.09a2,2,0,0,0,2.1-1.82Zm-44.32-19.65-.23.31c.37.41.66,1,1.12,1.2a35.6,35.6,0,0,0,5.32,2.3,53.09,53.09,0,0,0,15.92,1.91,30.65,30.65,0,0,0,11.7-2.22,13,13,0,0,0,3-1.87c.45-.37.6-1.11,1-1.87C176.77,466.57,164.3,465.7,151.79,460.47Zm-.42-10.9a6.29,6.29,0,0,0,.88,1.59,5.14,5.14,0,0,0,1.5.8,45.17,45.17,0,0,0,24.13,3.23,19.7,19.7,0,0,0,10.7-4.13,15.68,15.68,0,0,0,1.3-1.39C176.92,455.63,164.35,455.06,151.37,449.57Zm-2.45,11.66-.43-.31c-1.4,1.13-2.81,2.24-4.18,3.41a1.15,1.15,0,0,0-.22.92c.88,3.89,1.8,7.77,2.7,11.66.29,1.24,1.07,1.28,2.12.9Zm-3.84,17.94.12.39h50l0-.61c-1-.08-1.93-.23-2.9-.23-4.17,0-8.35.06-12.52,0-10.57,0-21.14-.12-31.71-.13A17.76,17.76,0,0,0,145.08,479.17Zm46.11-32.06-.57.06c-.1,1-.27,2.07-.28,3.1q-.17,12.86-.28,25.69a3.48,3.48,0,0,0,0,1c.09.26.37.63.59.64a.92.92,0,0,0,.7-.51,8.4,8.4,0,0,0,.17-1.87q.09-13.37.12-26.72A4.85,4.85,0,0,0,191.19,447.11Z"/>
      <path class="cls-2" d="M186.53,509.36l-14.67-10.28c1-1.1,1.57-.3,2.08.07,4.28,3,8.55,6.09,12.77,9.22,1.25.92,2.38,1.95,4.06,1.94.17,0,.35.24.56.39-1.72.77-6.72.46-7.83-.68l2.9-.25C186.44,509.63,186.49,509.5,186.53,509.36Z"/>
    </g>
    <path class="cls-2" d="M102.68,271.71l1.71-1.31,0,0c.78,3.73,1.61,7.46,2.32,11.2,1.93,10.21,3.78,20.45,5.75,30.66a3,3,0,0,1-1,3.12,13.89,13.89,0,0,1-8.37,3.49c-1.7.18-3.44,0-5.17.06a2.19,2.19,0,0,1-2.3-1.68q-7.24-19-14.61-37.9a10.41,10.41,0,0,0-1.44-2,2.41,2.41,0,0,1-.46-.73c-.44-2.17-1.29-4.45,1.4-5.88,1.14-3.23,4.18-3.64,6.85-4.55,1.12-.38,2.16-.65,1.8-2,.89-.1,2.32-.09,2.35-.28.2-1.37-1.23-.7-1.79-1.21a3.06,3.06,0,0,1-.91-1.17,14.32,14.32,0,0,1-.25-2.37,2.44,2.44,0,0,0,3,1.34c-.81-1.31-1.7-1.71-3-1.3-.2-1.85-.43-3.71-.56-5.56a3.76,3.76,0,0,1,.38-1.34h0c.11,1.63.87,2.66,2.7,2.59.05,1,.1,1.73.15,2.67l-2.62-.45c.56,1.5,1.67,1.63,2.87,1.68.17,1.57.37,3.09.49,4.62.08,1,.54,1.4,1.57,1.19a14.65,14.65,0,0,1,3.45-.49,15.23,15.23,0,0,1,3.28.8c.34.09.63.4,1,.48,1.42.29,2.53.82,2.81,2.48.08.52.65,1,1.06,1.54l-.91.36,0,.05c0-.3-.1-.59-.16-1-7,5.75-15.21,7.33-24,6.95.2.31.33.51.47.71l-.83.11c0,.16,0,.32,0,.48a14.8,14.8,0,0,0,2.91.46c2.73-.15,5.44-.45,8.16-.69-1.12.36-.81,1.12-.57,1.91q3.48,11.66,6.93,23.34,2.13,7.17,4.24,14.33c.31,1.05.66,2.11,2.18,1.24a9.17,9.17,0,0,0-.2-1.26Q97.77,297.22,92.23,278c-.26-.91-.68-1.22-1.54-1.07,1.11-.36,2.22-.69,3.31-1.09,3-1.09,6.25-1.89,8.73-4.16Zm-2.79-3.29,0,0,1-1.6c-1-1.63-1-1.72-1.85-1.32A52.06,52.06,0,0,1,83.39,270c-2.36.31-2.41.52-2.14,2.91,0,.11.11.2.18.31,4.28,1.15,18.51-2.79,19.77-5.63Zm-5,7.64q5.3,20.73,10.55,41.26c2.35-.36,2.35-.36,1.89-2.3q-.17-.74-.36-1.44Q102,295,97.13,276.44a8.6,8.6,0,0,0-.47-1.08ZM99.53,318c-.26-.82-.46-1.51-.7-2.18-1.29-3.65-2.58-7.3-3.9-10.94-3.11-8.62-6.25-17.22-9.32-25.85-.44-1.24-1.09-1.27-2.18-.84a10.06,10.06,0,0,0,.31,1.23q5.15,13.83,10.31,27.65c1.18,3.16,2.25,6.36,3.41,9.54.29.77.48,1.75,2.07,1.38Zm3-45.06c-1.69.25-1.72,1-1.45,2.17,2.78,12.68,5.51,25.37,8.27,38,.15.68.37,1.34.61,2.18,1.53-.88,1-2,.76-2.91q-3.27-15.81-6.62-31.61c-.54-2.59-1-5.17-1.57-7.89Zm-1-6.81c.61,2.19.57,2.46-1.41,3.41a46.63,46.63,0,0,1-16.5,4.37c-2.34.19-2.35.12-3.4-2.44-.44,1-1,1.7-.94,2.28A2.27,2.27,0,0,0,80.83,275a12.49,12.49,0,0,0,4.38.27,77.15,77.15,0,0,0,10.56-2.48,26.77,26.77,0,0,0,6.59-3.6C104.08,268,103.72,266.87,101.5,266.12ZM82,268.85c0,.22.11.43.16.65a40.93,40.93,0,0,0,8.56-1.59l-1.89-.43c.06-.43.11-.75.22-1.47Zm10.51-3.72-.71.26c1.87.73.89,1.37.27,2.37l6.61-2.53-.18-.73Zm-.83-2.77c-.65-1.54-1.76-1.18-2.79-1.56.33,1.77,1.45,1.5,2.79,1.57Zm.22,3.73c-.35-1.77-1.57-1-2.59-1.38.49,1.44,1.37,1.47,2.59,1.39Zm-3.53-11.34c.71,1.79,1.11,2,2.68,1.5Zm1.5,11.67-.44.57a3.09,3.09,0,0,0,.67.22,3.58,3.58,0,0,0,.73-.11l0-.27Z"/>
    <g>
      <path class="cls-2" d="M186.9,278.66v.3c-.13,2.65-.73,3.21-3.38,2.82-3.58-.54-7.14-1.2-10.71-1.79l-25.15-4.2c-1.15-.19-2.27-.46-3.42-.62-.64-.09-1.53-.54-1.77.49s.79.91,1.31,1.08q9.75,3.18,19.53,6.28L181,288.67c.43.14.86.28,1.28.45,1.39.58,1.66,1.11,1.26,2.59-.2.73-.46,1.44-.69,2.16l-7.44,23.43c-.09.29-.18.58-.28.86-.76,2.19-1.81,2.8-4,2.13-2.75-.82-5.46-1.74-8.18-2.65q-16.17-5.42-32.32-10.86c-2.6-.87-3.1-1.85-2.29-4.42q3.76-11.94,7.54-23.87c.47-1.49.83-3.05,2.89-3.17.63,0,.68-.56.27-1.12-.65-.89-.65-3.66.15-4.33a2.91,2.91,0,0,1,2.05-.49c3.19.43,6.36,1,9.54,1.48l34.15,5.27C186.86,276.44,187,276.55,186.9,278.66Zm-50.61,1.21a7.93,7.93,0,0,0-.4.83c-2.28,7.29-4.57,14.57-6.81,21.87-.72,2.34-.32,3,2,3.75l39.64,13.18c2.39.79,3,.49,3.85-1.84.15-.43.3-.85.44-1.29q3.33-10.56,6.67-21.13a5,5,0,0,0,.1-.9Zm6.6-6.8c-.2-.33-.36-.87-.71-1.08s-1.06,0-1.15.2c-.77,1.84-1.47,3.72-2.07,5.62-.07.23.52.84.9,1a1.19,1.19,0,0,0,1.08-.45c.69-1.67,1.27-3.39,1.95-5.27ZM154.51,281c.16,1,.28,1.83.44,2.66.38,1.93.93,2.36,3,2.32.14-3.9-.27-4.52-3.45-5Zm9.37-3.44.09.41c.83.08,1.87.52,2.43.17a35,35,0,0,0,4-3.23c-.07-.15-.13-.31-.19-.46-1,0-2.13-.35-2.83.07a23.77,23.77,0,0,0-3.49,3Zm18.56-.87-.17-.43c-.82,0-1.92-.44-2.43-.06a35.37,35.37,0,0,0-3.69,3.56l.24.49c1-.07,2.11.17,2.78-.29a24.06,24.06,0,0,0,3.27-3.27Zm-26-3.94,0-.47c-.91,0-2-.32-2.7.07a26.12,26.12,0,0,0-3.62,2.93c2.63,1.27,3,.8,6.34-2.53Zm.91,3.63c0,.14.09.27.13.41.73.09,1.67.52,2.15.22a41.71,41.71,0,0,0,4-3.17l-.21-.43c-.92,0-2-.33-2.71.08a22.18,22.18,0,0,0-3.35,2.89Zm19.12-.42-.3-.64c-.77,0-1.76-.3-2.27.06a39.15,39.15,0,0,0-3.67,3.34c1.47.78,2.21.9,2.83.37C174.23,278,175.35,277,176.49,275.92ZM142.31,277c-1.06,2.89,0,4.71,2.73,4.72-.06-.74-.08-1.49-.18-2.22-.28-2-.29-2-2.55-2.5Zm18.89,6.17c.1.81.18,1.59.29,2.36.33,2.19.57,2.4,3,2.49-.14-.85-.25-1.67-.41-2.49-.39-2-.53-2.12-2.91-2.36Zm-11.9-11.53c0-.17,0-.33,0-.49-1,0-2.24-.37-3,.08a15.7,15.7,0,0,0-2.83,3c2.33.85,3.8.14,5.82-2.59Zm21.9,18.59c-.13-1-.22-1.85-.36-2.68-.3-1.81-1-2.3-3-2.11.15.79.3,1.57.46,2.35.44,2.08.44,2.08,2.91,2.44Zm-20-6.33c.5-3.73,0-4.63-2.93-4.86.09.76.18,1.48.27,2.23.28,2.14.31,2.16,2.66,2.63Zm23.21,3.49c.24,1,.45,1.88.64,2.75.43,1.94.57,2.07,2.85,2.25a21.44,21.44,0,0,1-.49-2.49C177.27,288.14,176.31,287.41,174.41,287.36Zm8.14-6.49c1.31.31,2.37,1,3.35.07.65-.6.62-3,.06-3.82Zm-43.13-7.31,2.87-3.33a9.94,9.94,0,0,0-2.73-.1c-.63.16-.62,2.79-.14,3.42Zm42.37,19.8.39,0c.58-.89,1.16-1.88.72-3-.2-.48-1-.73-1.49-1.08l-.35.29Zm-43.41-13.44c-.08-1.39-.14-2.48-.21-3.76-1.23.87-1.52,1.51-1.6,3.19Z"/>
      <path class="cls-2" d="M133,304.2l24.55,7.3c.36-1.06.65-1.88,1-2.91l-24.85-7.48.16-.54,16.07,4.9c.85-2.38,1.64-4.63,2.51-7.08l-15.74-4.79.09-.35,6.71,1.9,2.45-7.72L138.34,285l.15-.44,37.84,11.85-.15.48-29.73-9.34c-.82,2.59-1.61,5.1-2.45,7.78l12.3,3.82-.08.32-3.39-.89c-.76,2.28-1.52,4.53-2.35,7L171,311.83l-.12.45-6-1.8c-.33.94-.62,1.76-1,2.73l6,2-.12.39c-12.38-3.39-24.53-7.56-36.88-11.08C133,304.43,133,304.31,133,304.2Zm31.34,6.12L159,308.74l-.87,2.78,5.32,1.64.94-2.84Z"/>
      <path class="cls-2" d="M140.68,277.4c-.23.18-.38.38-.51.37a.5.5,0,0,1-.34-.36.47.47,0,0,1,.33-.35C140.3,277.06,140.45,277.25,140.68,277.4Z"/>
      <path class="cls-2" d="M141.71,273.53c-.19-.25-.37-.38-.36-.5s.17-.28.26-.41c.13.1.34.19.37.32S141.85,273.23,141.71,273.53Z"/>
    </g>
    <path class="cls-2" d="M152.53,410.36a53,53,0,0,1,5.62-3.6,6,6,0,0,0,3.72-5.23A55.54,55.54,0,0,1,163,396a65.11,65.11,0,0,1,5.9,4.41,5.67,5.67,0,0,0,5.2,1.57,43,43,0,0,1,5.46-.31c2.89-.08,4.24,2,3.1,4.65a1.12,1.12,0,0,1-.11.25c-3.32,4-2.64,7.87,0,11.84a16.78,16.78,0,0,1,1.33,3,8.65,8.65,0,0,1,.17,1.32c-1.47,0-2.86,0-4.24,0a13.08,13.08,0,0,1-2.17-.22c-3.52-.67-6.68-.16-9.23,2.61a6.16,6.16,0,0,1-.87.65c-3.79,2.81-4.89,2.37-5.87-2.38-.45-2.14-.64-4.34-1.29-6.41a5.67,5.67,0,0,0-2.18-2.79,60.65,60.65,0,0,0-5.62-3Zm13.25,15-.86-.47-.08.35c.31,0,.62,0,.93,0l.07-.08Zm-2.9-1.65.72.16a31.77,31.77,0,0,0,3.54-3.3c2.06-2.58,4.58-2.93,7.54-2.14,1.49.4,3.07.51,5.25.85-1.16-2-1.88-3.48-2.78-4.81-1.48-2.17-1.74-4.21-.09-6.47a59.72,59.72,0,0,0,3.14-5.49c-2.5.27-4.3.39-6.08.69a6,6,0,0,1-5.67-1.82c-1.37-1.38-3-2.55-4.87-4.17-.32,1.86-.6,3.08-.71,4.32-.25,2.61-1.23,4.62-3.77,5.81a54.88,54.88,0,0,0-5.38,3.33,46.5,46.5,0,0,0,4.46,2.13c2.49.84,3.54,2.54,3.74,5.07C162.09,419.85,162.55,421.79,162.88,423.73Zm15-2.56,0,.74,2.47-.14,0-.6Zm.27-10.37.45-.27-.38-.62-.51.33ZM175,421.29c.05,0,.15-.07.16-.12s-.07-.11-.11-.17l-.23.21Zm4.17-11.83-.11.17h.19Z"/>
    <path class="cls-2" d="M70.84,395.71c-.75,1.23-1.23,2.87-2.3,3.58-3.21,2.12-4.22,4.35-1.89,7.79.67,1,.41,2.57.71,4.79-2.5-.77-4.45-1-6-1.92-2.76-1.67-4.78-1.17-6.94,1a28.32,28.32,0,0,1-4.51,3.1l-1-.63c0-1.55-.36-3.22.07-4.65.85-2.78,0-4.43-2.46-5.74a23.9,23.9,0,0,1-3.45-2.71c0-.39,0-.78,0-1.17a40.91,40.91,0,0,1,5.82-2.09c2.53-.49,4.06-1.58,4.14-4.26a.84.84,0,0,1,.08-.41q1.63-2.67,3.32-5.33c1.19,1.55,2.77,2.95,3.49,4.7.93,2.3,2,3.33,4.61,2.9a34.68,34.68,0,0,1,5.68-.06Zm-16.25-.26.66.13c.21-.78.41-1.56.61-2.34l-.88-.18Z"/>
    <g>
      <path class="cls-2" d="M126.08,382.24c-1.07-1.12-1.27-2.12-.57-3.26a2.62,2.62,0,0,1,.87-1c2-1,2.1-2.76,2-4.7-.09-3.33,0-6.66,0-10v-1.94c-1.06.28-1.91.5-2.74.74-2.61.79-5.22,1.41-8,.71a2.14,2.14,0,0,0-1.15,0c-4.44,1.45-8.91,1-13.39.26-.55-.09-1.1-.14-1.74-.22a4.61,4.61,0,0,0-.24,1c0,3.72.07,7.44.06,11.17a1.56,1.56,0,0,0,1.08,1.66,3.46,3.46,0,0,1,2.31,3.25,4,4,0,0,1-2.22,3.55c-1.89,1.17-5.82,1.2-6.9-.87l0,0c.55.27,1.09.58,1.66.8a5.31,5.31,0,0,0,6-1.4c1.5-2,.6-4.47-1.74-4.82-.55,3-1.06,3.41-3,2.4,2.21,0,2.21,0,2.2-2.28q0-6.51-.09-13c0-1.87-.27-2.11-2.29-2.14a3.65,3.65,0,0,0-.1.65c0,5.13,0,10.25,0,15.38a6.24,6.24,0,0,0,.33,1.44c-.44-.63-.88-1.27-1.37-2-1.83.54-2.42,1.47-2.34,3.95l0,0c-.71-1.78-.35-3,1.49-4.27A2.46,2.46,0,0,0,97.62,375c0-4.12,0-8.23,0-12.35a2.17,2.17,0,0,0-.52-1.49c-1.92-1.7-3.92-3.31-6-5.06,0,.55-.11,1.13-.11,1.71,0,10.1.13,20.19.15,30.29a2.2,2.2,0,0,0,1.31,2.25c2.89,1.61,2.88,4.93,0,6.6a6,6,0,0,1-6.14.18,3.68,3.68,0,0,1-2.06-3.45,3.56,3.56,0,0,1,2-3.45,1.76,1.76,0,0,0,1.18-1.92c0-9.92.09-19.85.13-29.78a1.81,1.81,0,0,0-.44-1.17c-.11.61-.19,1.23-.34,1.84-.33,1.33-.7,1.45-2,.62h0c.92.25,1.52.06,1.53-1.05,0-.72.08-1.43.14-2.3l-2,1.24,2.11-3.52v0c0,.3.07.61.1.91l.47-.07L87,353.8l0,0a4.88,4.88,0,0,0-.13-1.28,2.19,2.19,0,0,1,.92-2.79,2.31,2.31,0,0,1,2.83-.08,2.29,2.29,0,0,1,1,2.8c-.09.31-.2.62-.4,1.27l6.29,1.41c.11-2.16.26-4,.3-5.91,0-2.2,0-4.39,0-6.58a4.55,4.55,0,0,0-.71-1.52l0,0-.7-.42,0,0,1.1-.83c-.13-.36-.23-.68-.36-1a2,2,0,0,1,.75-2.67,2.45,2.45,0,0,1,3,0,2,2,0,0,1,.83,2.67c-.73,1.29,0,1.78.94,2.18,1.08.46,2.22.79,3.34,1.17l0,0c-1.29.61.4.7.2,1.12l0,0,.09,1v0c0,.31,0,.68.14.91a4.77,4.77,0,0,0,.9.83c-1.19-.91-2.42-1.79-3.56-2.75-.87-.73-1.65-1.57-2.64-2.53v14.58c.23.08.47.15.71.21a118.41,118.41,0,0,0,25.18,0c1.1-.12,1.4-.59,1.39-1.63,0-3.89,0-7.79,0-11.67a9.05,9.05,0,0,0-.22-1.34l-1.64,1.21a21.34,21.34,0,0,1-10,4.38c-1,.14-2,.57-3.1.65a21.94,21.94,0,0,1-3.13-.15,8.11,8.11,0,0,0,2,.08c1.15-.23,2.24-.82,3.39-.94a22.27,22.27,0,0,0,8-2.59,17.81,17.81,0,0,0,1.62-1.11l-2.81-.51,0,0c1.39-.43,2.77-.87,4.16-1.27,1-.28,1.43-.72,1-1.83a1.87,1.87,0,0,1,.87-2.6,4,4,0,0,1,2.67-.1,2.05,2.05,0,0,1,1.2,2.5,4.26,4.26,0,0,0,.35,1.65h0l-.38.38h0c-.62-.1-.92.1-.91.79.08,4,.1,8,.23,12,0,.46.58.89.9,1.34v0a21,21,0,0,1-2.42.63c-2.62.33-5.25.75-7.89.88-8.8.43-17.6.52-26.32-1.13-.8-.15-1.6-.26-2.4-.39,6.8,4.77,34.49,4.57,41.37-.08l-.64-.25,0,0,3.57-1.13c-.35-1.46-.87-3,.7-3.81a3.48,3.48,0,0,1,2.67-.08c1.55.68,1.19,2.2,1,3.11l2.46,2.93,0,0-2-1.65c.12,1.37.2,2.37.29,3.36l0,0c-.18-.68-.34-1.37-.54-2.05-.13-.43-.31-.84-.46-1.25l-.42.08c0,.53-.08,1.06-.08,1.59q.09,12.38.2,24.74c0,2.71.13,5.41.14,8.12a1.62,1.62,0,0,0,1,1.68c3.05,1.55,3.14,4.95.21,6.7a5.89,5.89,0,0,1-5.84.36,3.71,3.71,0,0,1-2.36-3.6,3.48,3.48,0,0,1,2.52-3.6c-.47.57-1,1.11-1.38,1.71a3.17,3.17,0,0,0,.95,4.79,5.58,5.58,0,0,0,6.3-.58,3,3,0,0,0,1-3.18,2.85,2.85,0,0,0-2.29-2.17,2.73,2.73,0,0,0-.15.56c.05,1.22-.1,2.3-1.68,2.36-1.23.06-1.93-.73-2.24-2.34a4.12,4.12,0,0,0-.6-1.13c.23-.47.64-.94.65-1.41q.16-16.83.24-33.65a7.91,7.91,0,0,0-.13-.85c-.41.3-.71.49-1,.72-1.53,1.31-3.11,2.59-4.57,4a3.09,3.09,0,0,0-1,1.9c0,4.84,0,9.69.18,14.53a2,2,0,0,0,.87,1.39c1.5.83,2.61,1.92,2.43,3.71a3.9,3.9,0,0,1-3.18,3.55,11.79,11.79,0,0,1-4.43,0c-.65-.12-1.16-1.05-1.73-1.61a5.69,5.69,0,0,0,7.65.16c1.73-1.81.94-5.17-1.48-5.24-.32,1.1.24,2.81-1.68,2.94-1.71.11-2.16-1.21-2.46-2.56C125.65,378.58,125.09,380,126.08,382.24Zm-34-27a14.22,14.22,0,0,0,7.55,6.4,30.1,30.1,0,0,0,11.5,1.53c3.24-.08,6.4-1.4,9.7-.67a1.67,1.67,0,0,0,.5-.05,28.51,28.51,0,0,0,13.52-5.78,8.27,8.27,0,0,0,1-1l-.18-.31c-7,2.76-14.3,3.46-21.7,3.47S99.12,358.15,92.09,355.25Zm47.41-1-.4,0c0,.92-.14,1.85-.14,2.78q0,15.06,0,30.12c0,1.35,0,2.7,0,4.06,0,1,.31,1.77,1.55,1.67s1-1,1-1.75c0-.61-.08-1.23-.09-1.85l-.12-34c0-.37-.05-.75-.08-1.11l-1.39.18c0,.41-.06.75-.07.83-.05-.16-.16-.54-.27-.94Zm-51.29.23c-.55,4-.26,37.08.51,38.35v-7.1h.42v7.32c1.7,0,1.39-1.08,1.39-1.91q-.06-17.86-.15-35.73a6.71,6.71,0,0,0-.16-1.08Zm42.45,24.58.53,0V360.15c-1.76.25-2.31,1-2.25,2.58.12,2.7,0,5.41,0,8.12v7.27c0,.91.21,1.56,1.48,1.23V368.74h.21v10.31ZM91.45,390.5a3.92,3.92,0,0,0-.23,1c.09,1.18-.26,2-1.57,2.13-1.11.1-1.85-.6-2.19-2-.22-1-.73-1.16-1.54-.54a3.31,3.31,0,0,0,.51,5.55,5.25,5.25,0,0,0,5.18.08,3.41,3.41,0,0,0,2.22-3.12C93.82,392.1,92.9,391.24,91.45,390.5Zm8.86-35.33V341.11H100c-.09.3-.18.61-.22.73l-1.65-.67v2.12c0,3.38,0,6.76,0,10.14,0,1.87.09,1.93,2.14,1.75Zm28.68-.12c2.12.17,2.2.11,2.21-1.62,0-3.21,0-6.42,0-9.63,0-2.18,0-2.18-2.21-2.67Zm1.28-15.34a1.42,1.42,0,0,0,1.61-1.54c0-1.12-.74-1.6-1.75-1.65a1.59,1.59,0,0,0-1.9,1.47c-.11.95.72,1.68,2,1.71Zm9.69,10.2a1.57,1.57,0,0,0-1.61,1.56c0,.89.94,1.67,2,1.65a1.51,1.51,0,0,0,1.64-1.56,1.8,1.8,0,0,0-2.05-1.65Zm-40.55-10.2c1.09,0,1.81-.62,1.75-1.59s-.81-1.55-1.81-1.62A1.65,1.65,0,0,0,97.48,338,1.78,1.78,0,0,0,99.41,339.71ZM89.33,350c-1.11,0-2,.7-2,1.57.09,1.1.89,1.5,1.86,1.6a1.51,1.51,0,0,0,1.8-1.53,1.7,1.7,0,0,0-1.7-1.64Z"/>
      <path class="cls-2" d="M89.39,408.07c-.82-1.35,0-2.45.78-3.33a42.08,42.08,0,0,1,4-3.86,10.23,10.23,0,0,0,3.75-6.6,5.94,5.94,0,0,1,3-4.66c4.88-2.85,6.27-7.79,4.94-13-.34-1.37-.55-2.78-.86-4.35a5.59,5.59,0,0,1,1.41.13c3.74,1.52,7.54.93,11.35.33a16.79,16.79,0,0,1,3.88-.18,10.85,10.85,0,0,1,2.52.85,8.89,8.89,0,0,1-.52,1,6.73,6.73,0,0,0,.57,9.52c.83.83,1.83,1.5,2.74,2.26,2.69,2.22,5.21,4.61,5.88,8.22a22.8,22.8,0,0,1,.3,5.22c-.18,3.74.59,7,4.05,9.05a3.21,3.21,0,0,1,.63.81c-.32.06-.5.15-.63.1-5.3-2-10.46-.88-15.58.76-1.5.48-3,1.11-4.46,1.62a22.71,22.71,0,0,1-15.59.18,8.56,8.56,0,0,1-1.29-.71l0,0a8,8,0,0,1,1,.21,22.09,22.09,0,0,0,15.39-.11c4.61-1.7,9.19-3.37,14.17-3.57.58,0,1.18-.13,1-1,.77,1.17,1.88,1.24,3.24,1a3.84,3.84,0,0,0-.39-.81,9.48,9.48,0,0,1-2.26-7.82c.58-4.47-.7-8.37-4.44-11.22a21.51,21.51,0,0,1-2.27-2,31.37,31.37,0,0,1-3.33-3.79,6.93,6.93,0,0,1-.91-6.45,13.39,13.39,0,0,1,1.19-2.15l-.24-.42-1.43.48c-.54-1.19-1.57-.69-2.36-.56-3.17.56-6.33,1.1-9.57.46-.93-.18-1.83-.44-3-.73.36,1.69.65,3.05.93,4.41,1.12,5.46-.6,9.81-5.29,12.81a6,6,0,0,0-3,4.42,10.7,10.7,0,0,1-4.15,6.93A26.37,26.37,0,0,0,90.73,405a10.5,10.5,0,0,0-1.26,3Z"/>
      <path class="cls-2" d="M100.29,411.42c-.68-.22-1.39-.39-2-.67a20.64,20.64,0,0,0-7.68-2.17c-.4,0-.79-.33-1.17-.51l.08-.08c4,0,7.45,1.48,10.79,3.45Z"/>
      <path class="cls-2" d="M108.4,342.65l14.29-.67,0,0a20.76,20.76,0,0,1-3.9.79c-3.44.07-6.89-.06-10.33-.11Z"/>
      <path class="cls-2" d="M145.36,355.87l1.07,1-1.43.34,0,.05c.11-.46.22-.92.34-1.38Z"/>
      <path class="cls-2" d="M106,342.31l2.41.34v0l-2.37-.34Z"/>
      <path class="cls-2" d="M132.82,354.85l1.74-.33-.05,0-1.7.33Z"/>
      <path class="cls-2" d="M96.39,340.74l.08.5h-.16c0-.15.07-.31.1-.47Z"/>
      <path class="cls-2" d="M84.86,359.81l0-.29v.29Z"/>
      <path class="cls-2" d="M144.65,357.53l-.6.36-.05,0,.7-.36Z"/>
      <path class="cls-2" d="M96.05,343.15c0-.12-.08-.25,0,0,0-.24,0-.11,0,0Z"/>
      <path class="cls-2" d="M95.2,382.27l-.33-.69,0,0,.33.69Z"/>
      <path class="cls-2" d="M97.11,341.13c0,.12.07.23,0,0,.23.05.1,0,0,0Z"/>
      <path class="cls-2" d="M95.52,382.63l-.33-.36,0,0,.37.3Z"/>
      <path class="cls-2" d="M144.05,357.89l-.33-.36-.05,0,.34.36Z"/>
      <path class="cls-2" d="M145,357.17l-.35.36,0,0,.33-.34Z"/>
      <path class="cls-2" d="M143.71,357.53l-.38-.35,0,0,.35.33Z"/>
      <path class="cls-2" d="M145,355.53l.36.34,0,0-.34-.33Z"/>
      <path class="cls-2" d="M86.71,354.18l.37-.36,0,0-.35.35Z"/>
      <path class="cls-2" d="M107.35,346l1.77.71Z"/>
      <path class="cls-2" d="M109.05,346.69l1.42.36Z"/>
      <path class="cls-2" d="M113.69,361.51c-2,.2-4,.5-6,.58a12.18,12.18,0,0,1-3.41-.57h9.36Z"/>
      <path class="cls-2" d="M124.43,360.11c-1.34.24-2.72.83-4,.65a9.73,9.73,0,0,0-5.19.56l0,0a4.56,4.56,0,0,1,3.65-1.14,53.13,53.13,0,0,0,5.5-.1Z"/>
      <path class="cls-2" d="M115.25,361.32l-1.56.19h0l1.57-.17Z"/>
      <path class="cls-2" d="M124.44,360.11l.65-.06v.12l-.66-.06Z"/>
      <path class="cls-2" d="M133.37,379.46v0Z"/>
      <path class="cls-2" d="M121.6,385c2.49,2.5,5,5,7.44,7.52,1.37,1.47,1.64,3.38,1.69,5.34.08,2.63.27,5.25.4,7.88-.24-1.26-.57-2.51-.71-3.76a25.18,25.18,0,0,1,0-2.88,10.52,10.52,0,0,0-3.58-8.42A72.88,72.88,0,0,1,121.6,385Z"/>
      <path class="cls-2" d="M121,373.79a14.74,14.74,0,0,0-1.36,7.51A8.59,8.59,0,0,1,121,373.79Z"/>
      <path class="cls-2" d="M119.58,381.24l1,2.44Z"/>
      <path class="cls-2" d="M120.59,383.61l1.06,1.42Z"/>
      <path class="cls-2" d="M131.11,405.65l.34.69Z"/>
      <path class="cls-2" d="M131.49,406.41l.32.64Z"/>
      <g>
        <path class="cls-2" d="M108.7,385.84c-2.48,2.85-5,5.64-7.43,8.57-1.37,1.66-1.64,3.84-1.7,6.08-.08,3-.26,6-.4,9,.25-1.43.57-2.85.72-4.29.1-1.07,0-2.18,0-3.27,0-3.77,1-7,3.59-9.59A79.28,79.28,0,0,0,108.7,385.84Z"/>
        <path class="cls-2" d="M109.34,373.11a18.91,18.91,0,0,1,1.36,8.54A10.94,10.94,0,0,0,109.34,373.11Z"/>
        <path class="cls-2" d="M110.72,381.58l-1,2.78Z"/>
        <path class="cls-2" d="M109.72,384.29l-1.07,1.61Z"/>
        <path class="cls-2" d="M99.2,409.39l-.34.78Z"/>
        <path class="cls-2" d="M98.81,410.26l-.31.72Z"/>
      </g>
    </g>
    <path class="cls-2" d="M70.79,512l2.83-2.83a1.62,1.62,0,0,1,1.22-.35c2.77.4,5.55.85,8.32,1.28,1.46.23,1.86-.13,1.65-1.59-.43-2.7-.86-5.4-1.33-8.08a1.79,1.79,0,0,1,.59-1.78c3.2-3.17,6.36-6.4,9.56-9.57a2.48,2.48,0,0,1,1.31-.58c1.54-.26,3.09-.47,4.64-.64a1.52,1.52,0,0,1,1,.26c2.92,2.86,5.8,5.76,8.68,8.65,0,.05,0,.13.08.2l.24.35c-3,2.9-6.07,5.77-9,8.72l-5.94,6h2.68c3.93-3.85,7-6.8,7.32-6.85,0,.25,0,.5,0,.74-.11,2-.2,4.07-.3,6.11h1.81c.15-2.66.31-5.31.44-8a3,3,0,0,1,1.07-2.4,12.72,12.72,0,0,0,1.59-2l.53.36c-.07,1.4-.13,2.8-.19,4.2q-.23,3.88-.47,7.77H111c.08-1.44.16-2.87.25-4.31.2-3.29.44-6.58.59-9.87a2.48,2.48,0,0,0-.53-1.72q-4.82-4.89-9.74-9.67a2.11,2.11,0,0,0-1.5-.51c-2,.19-3.94.44-5.89.8a3.76,3.76,0,0,0-1.88,1c-3.43,3.4-6.78,6.86-10.21,10.25a1.92,1.92,0,0,0-.64,1.88c.26,1.5.52,3,.76,4.51.19,1.21.34,2.41.54,3.77-2.71-.41-5.23-.76-7.73-1.21a2.53,2.53,0,0,0-2.56.73c-1.44,1.47-2.89,2.92-4.35,4.37Z"/>
    <g>
      <path class="cls-2" d="M164,237.85a6,6,0,0,1,12,.16v0a6,6,0,0,1-12-.15Zm8.46-3.31a16.38,16.38,0,0,1-4.12,7.27,4.19,4.19,0,0,0,4.12-7.27Zm-5.63,6.18c1.94-1.43,4-5.23,3.94-6.94a4.18,4.18,0,0,0-3.94,6.94Z"/>
      <path class="cls-2" d="M164.05,224a6,6,0,0,1,6-6h.06a6,6,0,1,1-6,6.1Zm8.47,3.4a4.19,4.19,0,0,0,1-6c-1.23-1.65-3.81-2.29-5.07-1.19A15.9,15.9,0,0,1,172.52,227.38Zm-1.69.72c-.14-2.2-2.39-6-4-6.86a4.15,4.15,0,0,0-.3,5.21A4,4,0,0,0,170.83,228.1Z"/>
      <path class="cls-2" d="M139.87,224a6,6,0,1,1,6,6A6,6,0,0,1,139.87,224Zm7.69-3.82a4.15,4.15,0,0,0-5.5,1.76,4.09,4.09,0,0,0,1.34,5.45A15.54,15.54,0,0,1,147.56,220.15Zm1.44,1a12.69,12.69,0,0,0-4,6.93,4.06,4.06,0,0,0,4.5-1.78,4.13,4.13,0,0,0-.5-5.15Z"/>
      <path class="cls-2" d="M139.87,237.91a6,6,0,0,1,6-6,6.14,6.14,0,0,1,6,6.11,6,6,0,0,1-6,5.91,6,6,0,0,1-6-5.91Zm3.36-3.35a4,4,0,0,0-1.67,3.22,4.08,4.08,0,0,0,2.26,3.95,3.86,3.86,0,0,0,3.66.19c-.87-1.22-1.77-2.28-2.46-3.47s-1.17-2.52-1.79-3.9Zm5.77,6.21a4,4,0,0,0,.73-4.73,4.19,4.19,0,0,0-4.15-2.36.8.8,0,0,0-.47.63,12.87,12.87,0,0,0,3.89,6.45Z"/>
      <path class="cls-2" d="M152,217a6,6,0,0,1,6-6h.1a6,6,0,1,1-.15,12A6,6,0,0,1,152,217Zm10.2-.47a4.2,4.2,0,0,0-4.56-3.81h0a4,4,0,0,0-3.75,3.84,17.06,17.06,0,0,1,8.34,0Zm-.18,1.79a13.26,13.26,0,0,0-8,0,4.08,4.08,0,0,0,3.85,3,4.18,4.18,0,0,0,4.19-3Z"/>
      <path class="cls-2" d="M152,244.92a6,6,0,0,1,6-6H158a6,6,0,1,1-6,6Zm10.17.43a16.24,16.24,0,0,1-8.39.05,4.19,4.19,0,0,0,4.47,3.82,4.1,4.1,0,0,0,3.92-3.87Zm-8.1-1.69a13.45,13.45,0,0,0,7.92,0,4.2,4.2,0,0,0-4.14-3.06C156.07,240.63,154,242.16,154,243.66Z"/>
      <path class="cls-2" d="M161.63,230.93a3.66,3.66,0,0,1-3.6,3.72H158a3.71,3.71,0,0,1-3.72-3.62,3.82,3.82,0,0,1,3.67-3.79A3.71,3.71,0,0,1,161.63,230.93ZM156,231a2,2,0,1,0,2-2h0a2,2,0,0,0-2,2.06Z"/>
      <path class="cls-2" d="M181.79,254.34h-14l-.08-.27a2.74,2.74,0,0,1,.49-.35,24.31,24.31,0,0,0,9.49-7.52,26.25,26.25,0,0,0,3.54-6.2l-.82-2.76a23.42,23.42,0,1,1-7-23.71l-.83-2.81a25,25,0,0,0-39.21,24.55,24.44,24.44,0,0,0,8.32,14.6,25.67,25.67,0,0,0,9.47,5.12c3.66,1.13,7.4.86,11.12,1,2.68.09,5.37-.05,8-.06,3.81,0,7.63,0,11.44,0,.55,0,1.16,0,1.16-.75S182.38,254.33,181.79,254.34Z"/>
    </g>
    <g>
      <path class="cls-2" d="M210.57,346.65l0,.08a.43.43,0,0,0,0-.07Z"/>
      <path class="cls-2" d="M227.92,445l-.64,0,.63.09Z"/>
      <path class="cls-2" d="M239,447.58l4.19,1.16-.6-2c-.13.17-.29.35-.4.51A6.93,6.93,0,0,1,241,446.1c-.07-.11.37-.58.78-1.2.15.22.29.4.42.57l-.48-1.61-1,.75a10.39,10.39,0,0,1-1.06-1.55c-.06-.13.47-.53.73-.81l1.2,1.26-1.6-5.37q-1.25-2.59-2.48-5.19c-1.71-3.59-3.62-7.12-5-10.83a12.58,12.58,0,0,1,.08-9.1l-.35-1.2-.93,1.13c-.27-.26-.81-.68-.77-.73a8,8,0,0,1,1.33-1.63l-.46-1.57a12.19,12.19,0,0,0-2.44,3.77,2.19,2.19,0,0,1-1.64,1.16c-5.52,0-11.05-.05-16.57-.08-1.34,0-1.91-.48-1.63-1.91.47-2.37,1.15-4.62,2.94-6.36a6.87,6.87,0,0,1,5.45-2.19c4.13.25,8.27.44,12.41.64l-.34-1.15c-3.18-.1-6.36-.22-9.53-.3-.17,0-.33-.15-.94-.46,3.54-1.14,7.38-1.77,8.8-4.86l-.4-1.35-1.31,1.72c-.36-.41-1.09-.91-1-1.24.23-1-.14-2.45,1.37-2.69a.55.55,0,0,1,.34.11l-.41-1.39-.09.07a11.19,11.19,0,0,1-1.24-2c-.06-.16.24-.45.53-.74l-.62-2.09c-.19.24-.46.56-.73.94a16.79,16.79,0,0,1-1.34-2.25c-.07-.18.55-.62.85-.93l.85,1-.64-2.15-.92-1.66a5,5,0,0,1-.16-.82l.35,0-.34-1.16c-4.15-1.25-6.44-5.36-9.6-8.13l.11-.47a8.59,8.59,0,0,1,1.5-.16l5.48.32-.34-1.15c-2.1-.12-4.21-.24-6.32-.29a2.94,2.94,0,0,1-2.9-1.92,16,16,0,0,1-.9-11.75,7.4,7.4,0,0,1,1.56,0l4.74,1.06-.27-.91-5.89-1.37c.64-1.57,1.16-2.89,1.72-4.2a25,25,0,0,0,1.28-2.86,3,3,0,0,1,.22-.56L212.7,346a1.4,1.4,0,0,0-2.07.64c1.83.19,2.37.75,1.8,1.84-.21.4-.87.57-1.32.84l-.52-2.61a5.2,5.2,0,0,0-.24.52,89.35,89.35,0,0,0-3.73,10c-1.72,6.28.06,11.94,4,16.87a103.36,103.36,0,0,0,7.24,7.57,24,24,0,0,1,6.49,10.14c1,3.5-.14,5.68-3.56,6.89-1.13.4-2.33.57-3.4,1.06-1.85.84-3.63,1.84-5.44,2.77v0a10.66,10.66,0,0,0-5.54,6,15.73,15.73,0,0,0,.68,13c3.39,7.12,7,14.16,10.45,21.24a2.44,2.44,0,0,0,2.21,1.59c2.51.17,5,.4,7.5.62-1.36-.21-2.74-.4-4.08-.71a2.55,2.55,0,0,1-1.59-1c-2-4.15-3.86-8.36-5.75-12.55a4.75,4.75,0,0,1-.17-1.12h4.46c3.28,0,6.57,0,9.85.1a2.8,2.8,0,0,1,2.07.92c2.89,5.5,5.65,11.06,8.56,16.84ZM210.43,350c.25.42.72.86.69,1.26s-.52,1-1.07,1.86c-.44-.89-.86-1.36-.75-1.62A7.29,7.29,0,0,1,210.43,350Zm-1.76,3.22h.53c.25.42.74.89.67,1.25s-.64.89-1,1.32c-.31-.28-.92-.59-.89-.83A7.14,7.14,0,0,1,208.67,353.23Zm0,5.54c-.1.33-.74.5-1.14.74L207,357.1C208.94,356.92,208.88,357.89,208.62,358.77Zm-1.42,1.86.62,0c.25.46.7.94.67,1.39s-.51.95-.79,1.42c-.36-.43-.89-.84-1-1.29S207,361.13,207.2,360.63Zm.12,5.12c0-.39.38-.85.59-1.26a6.1,6.1,0,0,1,1.14,1.49c.13.35-.2.88-.32,1.34l-.65.07A5.89,5.89,0,0,1,207.32,365.75Zm2.44,6h0a19.66,19.66,0,0,1-1.1-2.55c0-.17.46-.51.72-.77a12.87,12.87,0,0,1,1.32,1.86C210.79,370.53,210.28,371,209.76,371.79Zm2.62,3c-.62-.66-1.15-1.41-1.71-2.13.35-.25.94-.79,1-.71a24.18,24.18,0,0,1,2,2A8.8,8.8,0,0,1,212.38,374.76Zm3.15,3.5a16,16,0,0,1-1.56-1.82c-.07-.12.48-.63.74-.95a13.78,13.78,0,0,1,1.49,1.57C216.29,377.18,215.87,377.67,215.53,378.26Zm2.85,3.1h0c-.61-.91-1.08-1.58-1.47-2.3-.05-.09.38-.45.59-.68.6.6,1.23,1.17,1.78,1.82A8.18,8.18,0,0,1,218.38,381.36Zm3.31,3.51c-.71-1.1-1.22-1.84-1.65-2.63a2.68,2.68,0,0,1,.77-.66,12,12,0,0,1,1.79,1.84C222.69,383.54,222.18,384.1,221.69,384.87Zm1.23,13.85a8.49,8.49,0,0,1,1.86-.42,1.45,1.45,0,0,1,.23.68,7.25,7.25,0,0,1-1.73,1.06,3.65,3.65,0,0,1-1.41-.11l-.05-.46h0A4.66,4.66,0,0,1,222.92,398.72Zm-2,1.79c-1,.72-1.94,1.59-3.08.12C218.92,400,219.85,399.21,220.88,400.51Zm10.8,22.75c.06.29-.44.69-.68,1L229.24,422C231.47,421.15,231.51,422.39,231.68,423.26Zm-.32-3.62-1.17,1.09c-.33-.45-.91-.89-.92-1.35s.6-.85.93-1.28Zm-1-5.73c.24.48.74,1,.66,1.43a5.13,5.13,0,0,1-1,1.62l-1.13-1.46ZM216.48,401c.09,0,.39.59.34.63a5.83,5.83,0,0,1-1.39,1,3.23,3.23,0,0,1-1.18.09c.16-.47.2-1.1.53-1.34A3.59,3.59,0,0,1,216.48,401Zm-2.29,1.78a3,3,0,0,1-.7.69,8,8,0,0,1-1.31.39l-.19-1.29Zm-2.94,1c1,1.45-.34,1.8-1,2.51C209.34,405,209.39,404.87,211.25,403.82ZM208.58,406c1.58,1.18.89,2,.4,2.65-.12.17-.69,0-1.06,0C208.11,407.9,208.3,407.12,208.58,406ZM207,409.22c.66.74,1.21,1.07,1.26,1.45a5.24,5.24,0,0,1-.31,2c-.05.17-.67.3-.91.21a1,1,0,0,1-.54-.75C206.57,411.35,206.77,410.56,207,409.22Zm1.65,6.22-1.24,1.27c-.32-.46-.89-.94-.9-1.38s.57-.89.9-1.34Zm-2.15,2.63c2-1.06,2.27,0,2.41,1,.05.37-.45.8-.7,1.2Zm1.76,4c-.07-.25.39-1,.62-1,1.64-.09,1.32,1.36,2,2.25C209,424.14,208.6,423,208.27,422.07Zm1.36,2.66c2-.55,2.07-.44,2.53,2.13C210.13,427.42,210.29,425.74,209.63,424.73Zm1.42,3.44c1.53-.91,2.21-.48,2.52.54.1.32-.25.78-.4,1.18Zm8.18,15a2.59,2.59,0,0,1-1-1.11c-.06-.14.51-.8.67-.76a7.61,7.61,0,0,1,1.54,1C219.85,442.72,219.37,443.24,219.23,443.16Zm-1.2-2.64A13.56,13.56,0,0,1,217,439c0-.08.73-.72.79-.68a12.93,12.93,0,0,1,1.31,1.36Zm-1.31-3.08a26,26,0,0,1-1.58-2.2c-.06-.1.44-.55.68-.84l2,2.1Zm-.82-4.13-.37.51c-.51-.2-1.24-.28-1.47-.64a7.6,7.6,0,0,1-.62-2.11c.42,0,1.06-.22,1.2,0A21.79,21.79,0,0,1,215.9,433.31Zm9.28-5c-3,0-6,0-9-.07-.73,0-1.83-.37-2.09-.9-1.65-3.38-3.13-6.86-4.61-10.32a4.88,4.88,0,0,1-.13-1.58h18.88a23.73,23.73,0,0,0,2.85,12.87Zm5.77-2.76h0c1.7-.73,1.92-.56,2.33,1.85C231.62,427.93,231.52,427.85,231,425.57Zm1.59,3c2.24-.79,1.89,1.14,2.53,2C233.48,431.35,233.24,431.16,232.54,428.58Zm1.24,3.55c1.65-.88,2.27-.26,2.57.75.09.29-.33.72-.52,1.08Zm2.36,3.41c-.09-.15.34-.58.8-1.34.64,1.22,1.12,2.06,1.49,3,0,.13-.48.49-.74.75A26.05,26.05,0,0,1,236.14,435.54ZM237.9,439c.49,0,1.28-.26,1.43,0a10.42,10.42,0,0,1,.95,2.18l-.35.4c-.48-.2-1.15-.27-1.41-.63A6.73,6.73,0,0,1,237.9,439Z"/>
      <polygon class="cls-2" points="238.84 447.6 238.98 447.58 238.89 447.56 238.84 447.6"/>
    </g>
    <g>
      <path class="cls-2" d="M242.84,485.72a8.13,8.13,0,0,1-.24.88q-3.53,10.11-7,20.21c-.32.94-.84,1.22-1.78.88q-4.16-1.5-8.34-2.93a1.16,1.16,0,0,1-.86-1.7q3.57-10.15,7.09-20.32a1.16,1.16,0,0,1,1.71-.84c2.81,1,5.63,2,8.43,3C242.24,485,242.56,485.48,242.84,485.72ZM233.37,484c-.17.4-.31.68-.41,1q-1.34,3.81-2.66,7.63c-1.12,3.18-2.24,6.36-3.32,9.55-.12.34-.06,1.06.11,1.13,2.21.86,4.45,1.61,6.81,2.43,2.25-6.46,4.46-12.79,6.7-19.19Z"/>
      <path class="cls-2" d="M218,484a5,5,0,1,1,.15-10,5,5,0,0,1,4.91,5.12A5.05,5.05,0,0,1,218,484Zm.11-1.92A3.09,3.09,0,1,0,215,479a3.1,3.1,0,0,0,3.12,3.07h0Z"/>
      <path class="cls-2" d="M216.52,497.58a5,5,0,1,1-5-5.06,5,5,0,0,1,5,5.06Zm-1.92,0a3.08,3.08,0,0,0-6.16-.1,3.12,3.12,0,0,0,3.08,3.16,3.16,3.16,0,0,0,3.09-3.07Z"/>
      <path class="cls-2" d="M240.4,510.11c.63-.22,1.52.39,2.29.64l.11,0a19.4,19.4,0,0,0,1.87-.79.36.36,0,0,0,0-.09c.31-.84.61-1.68,1-2.72.37.47.58.7.76.95l.43.62c.51-.33,1-.69,1.48-1.06l-1.32-1.88a1.83,1.83,0,0,1-.4-1.25c.33-1.26.81-2.46,1.25-3.75.4.12.67.19.93.28l4.14,1.45c.33-.53.63-1.07.91-1.63-1.48-.52-2.95-1-4.44-1.54-.75-.24-.85-.59-.61-1.25a21.12,21.12,0,0,0,.79-2.32,1.51,1.51,0,0,1,1.18-1.18c1.72-.49,3.43-1,5.14-1.53,0-.37.06-.73.06-1.1l-.23-.77-3.7,1.1a11.41,11.41,0,0,1-1.3.23c.33-1,.59-1.74.86-2.51.46-1.35.36-1.56-1-2l-2.61-1c.52-1.52,1.3-3.1.09-4.32a18.27,18.27,0,0,0-3.72-2.34l3.41-3.84c.9-1,1.79-2,2.68-3l-.62-2.11a10.17,10.17,0,0,1-1,1,1.14,1.14,0,0,1-.95.11c-3.93-1.34-7.86-2.7-11.77-4.11a1.42,1.42,0,0,1-.71-1,12.85,12.85,0,0,1,0-2.18l14,4.9-.66-2.21-13.8-4.8c-1.28-.44-1.73-.16-1.66,1.21.15,3.12.38,6.24.54,9.35.05,1,0,2.11,0,3.3a14.22,14.22,0,0,0-2.68-.85,13.25,13.25,0,0,0-2.71.24,10.93,10.93,0,0,0-15.69-6.9c-5.62,3.15-7.9,11.12-2.35,17.28a10.63,10.63,0,0,0-8.3,5.47,10.69,10.69,0,0,0,5.48,15.25c3.82,1.47,7.37.71,10.75-1.73.57,1.92,2.12,2.38,3.65,2.88s2.88,1,4.32,1.51l5.29,1.82H236a20.09,20.09,0,0,0,3.4-.31C239.69,511,239.94,510.26,240.4,510.11Zm7.56-21a10,10,0,0,1,1.76.74h0c-.29.85-.49,1.42-.68,2-1.87,5.36-3.77,10.71-5.6,16.09-.32,1-.73.87-1.49.6s-1.22-.46-.86-1.46c2.07-5.77,4-11.53,6.09-17.29C247.28,489.45,247.75,489,248,489.08Zm-.68-14.74c-.74.83-1.33,1.47-1.91,2.11-.83.93-1.67,1.84-2.46,2.8a1.07,1.07,0,0,1-1.36.42c-1.6-.59-3.22-1.11-4.82-1.71-.27-.1-.64-.43-.66-.68-.18-2.25-.29-4.51-.44-7Zm-38.06,4.54a8.79,8.79,0,1,1,17.57.05h0v0a8.79,8.79,0,1,1-17.57-.1Zm15,9.17c-.72,2.06-1.39,4-2.14,6.17-1-1.63-1.86-3-2.71-4.39Zm-12.76,18.3a8.85,8.85,0,1,1,9-8.83h0A8.91,8.91,0,0,1,211.42,506.35Zm24.33,5.07q-7.2-2.49-14.39-5c-1-.36-1.22-.84-.81-2q3.44-9.86,6.88-19.73c.66-1.88,1.28-3.77,2-5.63a4.58,4.58,0,0,1,.9-1.15c.61.17,1,.25,1.29.38q6.94,2.4,13.89,4.84c1.4.49,1.61.92,1.12,2.31q-4.35,12.48-8.72,25C237.45,511.65,237,511.87,235.75,511.42Z"/>
    </g>
  </g>
  <g id="Selected_Items" data-name="Selected Items">
    <g>
      <path class="cls-3" d="M44.37,67.27a4.13,4.13,0,0,0,.71,1,.6.6,0,0,0,.54,0c.17-.08.27-.3.48-.55h0A14.51,14.51,0,0,0,45,66.58c-.08-.07-.4,0-.52.17A.62.62,0,0,0,44.37,67.27Z"/>
      <path class="cls-3" d="M43.76,66.07a.66.66,0,0,0,.61.15c.18,0,.3-.3.46-.48h0a6.29,6.29,0,0,0-.63-1.16.64.64,0,0,0-.62-.06.69.69,0,0,0-.27.58A2.53,2.53,0,0,0,43.76,66.07Z"/>
      <path class="cls-3" d="M43.39,71.47a2.77,2.77,0,0,0-.49-1c-.12-.15-.52-.25-.63-.15a.92.92,0,0,0-.3.7,2,2,0,0,0,.37.77,1.67,1.67,0,0,0,.37.32h0C43.16,72.17,43.51,71.8,43.39,71.47Z"/>
      <path class="cls-3" d="M49,71.58c.16.07.46-.25.6-.34h0c0-.62-1-1.34-1.43-1.18s-.52.58-.29.8A3.52,3.52,0,0,0,49,71.58Z"/>
      <path class="cls-3" d="M46.43,75.29a7,7,0,0,0-1-1,.68.68,0,0,0-.69.07.75.75,0,0,0-.06.7,2.21,2.21,0,0,0,.68.68.64.64,0,0,0,.54.06c.18-.07.29-.29.49-.52Z"/>
      <path class="cls-3" d="M47,75.68h0c-.25.22-.47.32-.55.49a.57.57,0,0,0,0,.54,3.74,3.74,0,0,0,.86.73.56.56,0,0,0,.54-.07c.14-.12.29-.45.23-.53A14.48,14.48,0,0,0,47,75.68Z"/>
      <path class="cls-3" d="M44.71,73.64a1.91,1.91,0,0,0-1.05-1.33.57.57,0,0,0-.55.81,3.72,3.72,0,0,0,.7.83.55.55,0,0,0,.53.06c.18-.07.29-.28.37-.37Z"/>
      <path class="cls-3" d="M49.06,77.48a.66.66,0,0,0-.57.13c-.12.12-.22.48-.15.56a11.4,11.4,0,0,0,1.19,1c.23-.24.46-.37.52-.56a.69.69,0,0,0-.14-.57A3,3,0,0,0,49.06,77.48Z"/>
      <path class="cls-3" d="M51.67,72a6,6,0,0,0-1.32-.64c-.36-.08-.68.6-.38.83a3.86,3.86,0,0,0,1.28.6c.14,0,.37-.29.54-.43h0C51.73,72.11,51.73,72,51.67,72Z"/>
      <path class="cls-3" d="M69.51,46a3.83,3.83,0,0,0,.63.81.57.57,0,0,0,.94-.3,1.68,1.68,0,0,0-1-1.33h0A.57.57,0,0,0,69.51,46Z"/>
      <path class="cls-3" d="M70.69,47.85a2.12,2.12,0,0,0,.45,1,.66.66,0,0,0,.64.14.8.8,0,0,0,.31-.65,2.14,2.14,0,0,0-.36-.84c-.09-.16-.28-.25-.56-.47h0C71,47.37,70.67,47.63,70.69,47.85Z"/>
      <path class="cls-3" d="M67.08,49.82h0a.57.57,0,0,0-.48.86,4.48,4.48,0,0,0,.63.75.55.55,0,0,0,.93-.29C68.27,50.75,67.49,49.81,67.08,49.82Z"/>
      <path class="cls-3" d="M66.59,49.27c0-.35-.87-1.13-1.23-1.11a.58.58,0,0,0-.43.89,3.81,3.81,0,0,0,.85.75.57.57,0,0,0,.81-.53Z"/>
      <path class="cls-3" d="M66,42.73a3.43,3.43,0,0,0,1.16.9c.13.06.45-.27.58-.37,0-.59-1-1.35-1.34-1.22S65.79,42.47,66,42.73Z"/>
      <path class="cls-3" d="M69,45.18a.58.58,0,0,0,.49-.86,3.53,3.53,0,0,0-.82-.77.57.57,0,0,0-.84.52A2,2,0,0,0,69,45.18Z"/>
      <path class="cls-3" d="M65.32,42.35c.1,0,.38-.28.64-.49h0c-.22-.26-.33-.49-.52-.59a4,4,0,0,0-1.12-.37c-.08,0-.35.58-.31.62A6.17,6.17,0,0,0,65.32,42.35Z"/>
      <path class="cls-3" d="M64,48.38a.65.65,0,0,0,.56-.16c.12-.11.2-.45.13-.52a14.86,14.86,0,0,0-1.14-1h0c-.24.21-.46.31-.54.48a.6.6,0,0,0,0,.54A3.67,3.67,0,0,0,64,48.38Z"/>
      <path class="cls-3" d="M46,69.24a3.94,3.94,0,0,0,.87.81c.33.21.8-.14.79-.54s-.87-1.14-1.21-1.11S45.75,68.93,46,69.24Z"/>
      <path class="cls-3" d="M67.59,60.22h0a7.49,7.49,0,0,0-1.16.53.66.66,0,0,0-.15.6.77.77,0,0,0,.57.37,2.8,2.8,0,0,0,1-.43.61.61,0,0,0,.18-.55C68,60.53,67.76,60.39,67.59,60.22Z"/>
      <path class="cls-3" d="M68.73,55.92a.78.78,0,0,0-.58-.42,1.83,1.83,0,0,0-.94.24.74.74,0,0,0-.33.58c.05.23.32.41.46.56a4.08,4.08,0,0,0,1.08-.33A.74.74,0,0,0,68.73,55.92Z"/>
      <path class="cls-3" d="M63.87,57a.93.93,0,0,0-.58-.51,2.14,2.14,0,0,0-.85.12c-.34.07-.55.31-.44.63s.33.39.5.59l.11-.09a2.85,2.85,0,0,0,.85-.16C63.66,57.44,63.91,57.12,63.87,57Z"/>
      <path class="cls-3" d="M65,61.1a1.68,1.68,0,0,0-.93.21.76.76,0,0,0-.32.59c0,.21.31.37.44.52a4,4,0,0,0,1.06-.27c.18-.1.41-.45.35-.6A.83.83,0,0,0,65,61.1Z"/>
      <path class="cls-3" d="M69.53,59.15a2.4,2.4,0,0,0-.78.49c-.14.16-.25.55-.16.67a.88.88,0,0,0,.71.26,2.53,2.53,0,0,0,.83-.49.9.9,0,0,0,.21-.33A.59.59,0,0,0,69.53,59.15Z"/>
      <path class="cls-3" d="M55.63,34a25,25,0,1,0,25,25A25,25,0,0,0,55.63,34Zm6.22,13.34q1-3.91,2.07-7.81s0-.06.13-.16c3.67,1.73,6.69,4.11,8.29,8a3.19,3.19,0,0,1-.79,3.7,7.13,7.13,0,0,1-3.3,2A1,1,0,0,1,67,52.69a16.39,16.39,0,0,0-4.9-4.84A.55.55,0,0,1,61.85,47.38ZM52.78,71.3Q51.46,76.16,50.16,81a1.3,1.3,0,0,1-.1.15,23.54,23.54,0,0,1-4.13-3.26A21.66,21.66,0,0,1,42.69,74a8.24,8.24,0,0,1-.93-6.67,25.47,25.47,0,0,1,2.57-6.49,2,2,0,0,1,.18-.16c0,.32-.09.56-.12.8a5.78,5.78,0,0,0,.8,3.52,11.75,11.75,0,0,0,4.07,4c1,.64,2.13,1.18,3.22,1.74C52.74,70.86,52.87,71,52.78,71.3ZM49,67.43a11.73,11.73,0,0,1-3.51-4.79,3,3,0,0,1,1.85-4,16,16,0,0,1,4.72-1.08.82.82,0,0,1,.6.33c1.08,1.6,2.13,3.22,3.2,4.84l-.18,0c-.08.3-.28.63-.22.9.09.42.49.44.9.41.18,0,.38.21.54.4C54.15,65.15,51.17,65.08,49,67.43Zm19.32,11a3.74,3.74,0,0,1-1.3-1.2Q59.18,65.17,51.34,53a2.65,2.65,0,0,0-.23-.31c-.26.65-.46,1.25-.73,1.82a12.71,12.71,0,0,1-1.11,1.93c-.43.58-1,.54-1.32-.08a7.82,7.82,0,0,1-.81-1.85c-.34-1.19-.63-2.4-.87-3.61-.1-.5-.3-.56-.76-.56-1.53,0-3.06,0-4.58-.15a3.37,3.37,0,0,1-1.39-.57.67.67,0,0,1-.19-1.08,11.17,11.17,0,0,1,1.77-1.67c1-.65,2-1.17,3-1.74l.44-.23c-.46-1.49-.92-2.87-1.3-4.27a7.69,7.69,0,0,1-.17-1.73c0-.71.76-1.42,1.47-1a29.73,29.73,0,0,1,2.7,1.83,21.17,21.17,0,0,1,2,2.08c1.27-.87,2.37-1.65,3.51-2.37a9.36,9.36,0,0,1,1.92-.9c.77-.27,1.37.13,1.3.94A8.77,8.77,0,0,1,55.41,42c-.44,1.16-1,2.25-1.55,3.4.91.69,1.88,1.37,2.79,2.13a12.8,12.8,0,0,1,1.76,1.77c.65.82.39,1.5-.64,1.63a24,24,0,0,1-2.94.08c-.25,0-.5,0-.86,0l1.68,2.6q7.1,10.94,14.18,21.89A3.8,3.8,0,0,1,70.42,77,1.36,1.36,0,0,1,68.35,78.46Zm3.79-20.73c-.84-.37-1.16.2-1.51.61a.64.64,0,0,0,.07.62c.08.12.37.12.56.12s.18-.1.4-.24a3.88,3.88,0,0,1-1,1.73,8.85,8.85,0,0,1-3.62,2.06c-.91.31-1.85.53-2.79.77a.55.55,0,0,1-.46-.13c-1.1-1.65-2.18-3.31-3.31-5,.26-.08.48-.07.56-.17s.39-.49.35-.69S61,57,60.8,56.92a.9.9,0,0,0-.53,0c-.46.15-.68,0-.78-.57L62.67,56A24.43,24.43,0,0,0,69,54.41,6,6,0,0,0,72.66,51l.24-.68.21,0Z"/>
      <path class="cls-3" d="M70.31,54.64a2.16,2.16,0,0,0-.93.44.7.7,0,0,0-.19.6c.06.19.31.33.51.52a9,9,0,0,0,1.18-.7.58.58,0,0,0,0-.57A.81.81,0,0,0,70.31,54.64Z"/>
      <path class="cls-3" d="M72.32,53.21a.42.42,0,0,0-.38,0,3.36,3.36,0,0,0-.78.82.72.72,0,0,0,.18.68.7.7,0,0,0,.69-.06,4.62,4.62,0,0,0,.54-1h0C72.49,53.46,72.44,53.29,72.32,53.21Z"/>
      <path class="cls-3" d="M66.3,56.5c0-.21-.31-.39-.48-.58h0L65.7,56a2.83,2.83,0,0,0-.89.21.76.76,0,0,0-.35.62.8.8,0,0,0,.57.45,1.45,1.45,0,0,0,.89-.18A.74.74,0,0,0,66.3,56.5Z"/>
      <path class="cls-3" d="M51.73,63.69a1.72,1.72,0,0,0-.93.28.72.72,0,0,0-.29.61c0,.19.29.34.44.51a6.19,6.19,0,0,0,1.16-.42.61.61,0,0,0,.22-.57A.82.82,0,0,0,51.73,63.69Z"/>
      <path class="cls-3" d="M49.07,64.79c-.77.53-1,.84-.65,1.2a.73.73,0,0,0,.3.22c.39.13,1.38-.63,1.36-1.09a1.19,1.19,0,0,0-.08-.2C49.79,64.56,49.47,64.52,49.07,64.79Z"/>
      <path class="cls-3" d="M52.34,58.18a2.09,2.09,0,0,0-1.05.22A.81.81,0,0,0,51,59c0,.21.31.37.43.5a4.94,4.94,0,0,0,1.13-.27.77.77,0,0,0,.36-.62A.8.8,0,0,0,52.34,58.18Z"/>
      <path class="cls-3" d="M47.4,59.7a2.31,2.31,0,0,0-1,.4.65.65,0,0,0-.21.59c.06.19.31.33.48.5h0a6.17,6.17,0,0,0,1.15-.54.6.6,0,0,0,.15-.6A.73.73,0,0,0,47.4,59.7Z"/>
      <path class="cls-3" d="M49.67,58.77a2,2,0,0,0-1,.29.74.74,0,0,0-.25.63c0,.19.31.33.45.47h0A4.82,4.82,0,0,0,50,59.79a.68.68,0,0,0,.28-.6A.76.76,0,0,0,49.67,58.77Z"/>
      <path class="cls-3" d="M54.33,63.25c-.08-.06-.24,0-.37,0h0c-.18,0-.4,0-.53.06s-.47.35-.49.56c0,.41.27.59.68.57.9,0,1.33-.26,1.22-.65C54.79,63.58,54.53,63.4,54.33,63.25Z"/>
    </g>
    <g>
      <path class="cls-3" d="M130,157.42h0a3.42,3.42,0,0,0-3.42,3.42h0a3.42,3.42,0,1,0,3.42-3.42Z"/>
      <path class="cls-3" d="M129.68,135.84a25,25,0,1,0,25,25A25,25,0,0,0,129.68,135.84Zm16.18,40.42a2.86,2.86,0,0,1-.36.41,22,22,0,0,1-8.23,5.09,24.17,24.17,0,0,1-4,1,22,22,0,0,1-2.69.23,18.79,18.79,0,0,1-2.25-.07,22.16,22.16,0,0,1-5.23-1.05,21.56,21.56,0,0,1-7.43-4.2,22.05,22.05,0,0,1-7.49-13.51,21.52,21.52,0,0,1-.26-3.31,22.19,22.19,0,0,1,12.18-19.76,20.94,20.94,0,0,1,5.1-1.81,21.54,21.54,0,0,1,2.65-.44,20.68,20.68,0,0,1,3.34-.09,22.4,22.4,0,0,1,9.65,2.77,23.06,23.06,0,0,1,4.85,3.66,1.18,1.18,0,0,1,.36.85,1.12,1.12,0,0,1-.44.94,1.2,1.2,0,0,1-1.6-.12,20.53,20.53,0,0,0-2-1.79,20.16,20.16,0,0,0-5.6-2.95,17.69,17.69,0,0,0-3.36-.81,19.92,19.92,0,0,0-3.7-.19A19.31,19.31,0,0,0,117,146a19.57,19.57,0,0,0-5.69,8.51,17.84,17.84,0,0,0-.8,3.3,19.78,19.78,0,0,0-.22,3.35,19.37,19.37,0,0,0,5.06,12.88,19.73,19.73,0,0,0,10.1,6,18.9,18.9,0,0,0,2,.35,20.13,20.13,0,0,0,3.2.16,19.17,19.17,0,0,0,6.8-1.4,19.88,19.88,0,0,0,6.45-4.21l.23-.22a1.1,1.1,0,0,1,.73-.29,1.14,1.14,0,0,1,1,.45,1.16,1.16,0,0,1,.24.7A1,1,0,0,1,145.86,176.26Zm4.12-6.61a1.42,1.42,0,0,1-.72-.2l-2.14-1.24-4.42-2.55-.15-.08c-.05,0,0,.12,0,.18V168a2.43,2.43,0,0,1-2.42,2.41H120a2.44,2.44,0,0,1-2.4-2.09,3.62,3.62,0,0,1,0-.46v-14.1a2.5,2.5,0,0,1,.66-1.78,2.38,2.38,0,0,1,1.75-.76h20.16a2.44,2.44,0,0,1,2.39,2.09,3.55,3.55,0,0,1,0,.46v2.33l.17-.1,6.47-3.73a1.76,1.76,0,0,1,.62-.25,1.46,1.46,0,0,1,1.64,1.12,3.11,3.11,0,0,1,0,.43v13.55c0,.36,0,.72,0,1.08A1.44,1.44,0,0,1,150,169.65Z"/>
    </g>
    <path class="cls-3" d="M45.59,231a25,25,0,1,0,25,25A25,25,0,0,0,45.59,231Zm11.22,37.23A11.21,11.21,0,0,1,45.59,257V277.4a1,1,0,0,1-1,1,11.21,11.21,0,1,1,0-22.42H24.19a1,1,0,0,1-1-1,11.21,11.21,0,0,1,22.42,0V234.6a1,1,0,0,1,1-1,11.21,11.21,0,1,1,0,22.42H67a1,1,0,0,1,1,1A11.21,11.21,0,0,1,56.81,268.23Z"/>
    <g>
      <path class="cls-3" d="M166.56,358a5.4,5.4,0,1,0,4.28,6.33h0A5.39,5.39,0,0,0,166.56,358Z"/>
      <path class="cls-3" d="M180.11,360.61a5.4,5.4,0,1,0,4.28,6.32h0A5.39,5.39,0,0,0,180.11,360.61Z"/>
      <path class="cls-3" d="M167.26,354.31A5.4,5.4,0,1,0,163,348h0A5.39,5.39,0,0,0,167.26,354.31Z"/>
      <path class="cls-3" d="M175.94,358a2.4,2.4,0,1,0-2.81,1.92h0A2.4,2.4,0,0,0,175.94,358Z"/>
      <path class="cls-3" d="M182.86,346.32a5.4,5.4,0,1,0-2,10.6h0a5.4,5.4,0,0,0,2-10.61Z"/>
      <path class="cls-3" d="M173.69,332.47a25,25,0,1,0,25,25A25,25,0,0,0,173.69,332.47Zm-15.27,8.21h0a6.74,6.74,0,0,1,8.26-4.79l4,1.05a20.65,20.65,0,0,0-13.28,7.53Zm-1.52,32.05a6.76,6.76,0,0,1-4.79-8.26l1-3.71a20.76,20.76,0,0,0,7.64,13Zm32,1.53a6.76,6.76,0,0,1-8.26,4.8L176.57,378a20.72,20.72,0,0,0,13.54-8.05Zm3.64-16.79a18.91,18.91,0,1,1-18.9-18.91,18.91,18.91,0,0,1,18.9,18.91Zm1.5-2.56a20.66,20.66,0,0,0-7.92-13.85l4.3,1.14a6.76,6.76,0,0,1,4.8,8.24Z"/>
    </g>
    <path class="cls-3" d="M59.26,432.07a25,25,0,1,0,25,25A25,25,0,0,0,59.26,432.07Zm-19.12,36-.07-.05a2.21,2.21,0,0,1-.8-1.28A8.94,8.94,0,0,1,39,465.5c-.16-1.21-.25-2.43-.31-3.66-.14-2.86-.14-5.78-.1-8.68,0-1.27.09-2.54.19-3.81a24.52,24.52,0,0,1,.28-2.58c.07-.38.19-.76.27-1.14a1.73,1.73,0,0,1,.45-.76,11.47,11.47,0,0,1,1.16-1c1-.79,2.12-1.53,3.22-2.22a107.53,107.53,0,0,1,10-5.67l.86-.42h.08c0,.13-.13.16-.2.2a14,14,0,0,0-4.43,5,11.23,11.23,0,0,0-1.21,3.55,5.47,5.47,0,0,0-.12,1c-.16,1.84-.28,3.67-.33,5.51-.1,3-.14,6-.06,9,0,1,0,2,.08,3,0,1.31.13,2.61.25,3.91a16.24,16.24,0,0,0,.28,2.08,3.07,3.07,0,0,0,.3.93,2.39,2.39,0,0,0,.42.58,1.74,1.74,0,0,0,.69.44l.28.1a6.45,6.45,0,0,1-.86.13c-.54,0-1.07.09-1.61.09a13.65,13.65,0,0,1-4.21-.55A11.26,11.26,0,0,1,40.14,468.06Zm38.18.25a1.64,1.64,0,0,1-.36.75c-.21.24-.42.47-.65.69a20.88,20.88,0,0,1-1.75,1.35c-1.71,1.2-3.48,2.3-5.28,3.37-2.31,1.37-4.65,2.67-7.07,3.86-.86.42-1.73.83-2.64,1.18a9.21,9.21,0,0,1-1.13.35,1.68,1.68,0,0,1-.89,0,10.22,10.22,0,0,1-1.86-.64c-1.32-.57-2.6-1.19-3.86-1.88-3.11-1.63-6.12-3.38-9-5.29l-.92-.62-.24-.17h.19l.59.28a14.55,14.55,0,0,0,3.35.95,12.5,12.5,0,0,0,2.59.18,11.17,11.17,0,0,0,4.5-1c1.32-.62,2.64-1.23,3.94-1.92,2.61-1.38,5.19-2.81,7.73-4.32,2.22-1.34,4.42-2.66,6.54-4.12.57-.39,1.13-.79,1.67-1.21a10.92,10.92,0,0,0,.9-.78,2.31,2.31,0,0,0,.69-1.39,2.94,2.94,0,0,0,0-.42,1.94,1.94,0,0,1-.07-.35l.13.13a14.66,14.66,0,0,1,2.8,5.38A11.46,11.46,0,0,1,78.32,468.31ZM80.1,464v.11a.25.25,0,0,1-.09-.23,9.47,9.47,0,0,0-.19-1.5A13.85,13.85,0,0,0,77,456.34a10.64,10.64,0,0,0-2.2-2.09c-1-.69-2.06-1.39-3.11-2.08-2.56-1.67-5.18-3.23-7.84-4.73-2.16-1.2-4.34-2.39-6.56-3.48-.86-.41-1.72-.83-2.61-1.17a8.21,8.21,0,0,0-1-.33,2.22,2.22,0,0,0-1.3,0,1.56,1.56,0,0,0-.64.36l-.18.14a.33.33,0,0,1,0-.14,14,14,0,0,1,4.51-6.25,11.43,11.43,0,0,1,3.57-1.84,2.09,2.09,0,0,1,1.11,0,8.46,8.46,0,0,1,1.39.48c1.21.49,2.34,1.05,3.48,1.63a108,108,0,0,1,10.19,6c.8.52,1.57,1.06,2.31,1.65a9.36,9.36,0,0,1,.92.86,2,2,0,0,1,.47.82,11.56,11.56,0,0,1,.39,2c.25,2.55.37,5.12.37,7.69,0,1.82,0,3.64-.06,5.48C80.23,462.23,80.16,463.12,80.1,464Z"/>
  </g>
</svg>
