<?xml version="1.0" encoding="UTF-8"?><svg id="uuid-578d83bf-ee23-475b-96ef-330d9cfc0ce8" xmlns="http://www.w3.org/2000/svg" viewBox="0 0 506.21 456.89"><defs><style>.uuid-a672f4f9-ba91-4bc1-9c3a-58c206ce51d7{stroke-linecap:round;stroke-linejoin:round;}.uuid-a672f4f9-ba91-4bc1-9c3a-58c206ce51d7,.uuid-786d99bf-9f60-447d-9e2d-65ac6a648e0f{fill:none;stroke:#21365f;stroke-width:13.26px;}.uuid-786d99bf-9f60-447d-9e2d-65ac6a648e0f{stroke-miterlimit:192.51;}.uuid-4e7c066d-f5ea-45a9-9e51-04db02c3b573{fill:#21365f;}.uuid-6697f6e1-54f6-44a2-a30c-43e8ba6ceb55{fill:#e8ebec;}.uuid-0fe521c8-07a4-4470-b4b5-360ab83fbc16{fill:#b1d6e8;}</style></defs><circle class="uuid-6697f6e1-54f6-44a2-a30c-43e8ba6ceb55" cx="421.68" cy="323.75" r="84.53"/><circle class="uuid-6697f6e1-54f6-44a2-a30c-43e8ba6ceb55" cx="217.07" cy="74.22" r="74.22"/><circle class="uuid-6697f6e1-54f6-44a2-a30c-43e8ba6ceb55" cx="123.39" cy="333.5" r="123.39"/><path class="uuid-0fe521c8-07a4-4470-b4b5-360ab83fbc16" d="m261.1,401.38l-30.61-24.24v-117.03c0-34.24,27.76-62,62-62h111.93v73.29l-20.56,31.84c-17.02,24.76-122.76,98.14-122.76,98.14Z"/><rect class="uuid-4e7c066d-f5ea-45a9-9e51-04db02c3b573" x="73.85" y="148.32" width="8.19" height="16.45"/><rect class="uuid-4e7c066d-f5ea-45a9-9e51-04db02c3b573" x="73.85" y="173.03" width="8.19" height="16.45"/><rect class="uuid-4e7c066d-f5ea-45a9-9e51-04db02c3b573" x="61.49" y="160.67" width="8.19" height="16.45" transform="translate(-103.3 234.48) rotate(-90)"/><rect class="uuid-4e7c066d-f5ea-45a9-9e51-04db02c3b573" x="86.2" y="160.67" width="8.19" height="16.45" transform="translate(-78.59 259.19) rotate(-90)"/><rect class="uuid-4e7c066d-f5ea-45a9-9e51-04db02c3b573" x="353.82" y="378.85" width="8.16" height="16.38"/><rect class="uuid-4e7c066d-f5ea-45a9-9e51-04db02c3b573" x="353.82" y="403.46" width="8.16" height="16.38"/><rect class="uuid-4e7c066d-f5ea-45a9-9e51-04db02c3b573" x="341.52" y="391.14" width="8.16" height="16.38" transform="translate(-53.74 744.93) rotate(-90)"/><rect class="uuid-4e7c066d-f5ea-45a9-9e51-04db02c3b573" x="366.13" y="391.14" width="8.16" height="16.38" transform="translate(-29.13 769.54) rotate(-90)"/><rect class="uuid-4e7c066d-f5ea-45a9-9e51-04db02c3b573" x="432.12" y="94.73" width="8.17" height="16.4"/><rect class="uuid-4e7c066d-f5ea-45a9-9e51-04db02c3b573" x="432.12" y="119.37" width="8.17" height="16.4"/><rect class="uuid-4e7c066d-f5ea-45a9-9e51-04db02c3b573" x="419.8" y="107.04" width="8.17" height="16.4" transform="translate(308.64 539.12) rotate(-90)"/><rect class="uuid-4e7c066d-f5ea-45a9-9e51-04db02c3b573" x="444.44" y="107.04" width="8.17" height="16.4" transform="translate(333.28 563.76) rotate(-90)"/><g id="uuid-a8d30bfa-ac6a-476c-9465-093292b7dc7c"><path class="uuid-786d99bf-9f60-447d-9e2d-65ac6a648e0f" d="m264.19,58.93c-40.71,39.68-86.57,37.62-137.58,37.62,0,220.02-34.01,175.71,137.58,307.62,171.07-131.91,137.58-88.11,137.58-307.62-51.01-.52-96.36,1.55-137.58-37.62Z"/><circle class="uuid-786d99bf-9f60-447d-9e2d-65ac6a648e0f" cx="264.19" cy="209.39" r="76.26"/><line class="uuid-a672f4f9-ba91-4bc1-9c3a-58c206ce51d7" x1="235.85" y1="202.18" x2="261.1" y2="227.43"/><line class="uuid-a672f4f9-ba91-4bc1-9c3a-58c206ce51d7" x1="300.78" y1="187.75" x2="261.1" y2="227.43"/></g></svg>