<?xml version="1.0" encoding="utf-8"?>
<!-- Generator: Adobe Illustrator 27.7.0, SVG Export Plug-In . SVG Version: 6.00 Build 0)  -->
<svg version="1.1" id="uuid-3403eccb-b656-466c-964c-c46cb3e3098d"
	 xmlns="http://www.w3.org/2000/svg" xmlns:xlink="http://www.w3.org/1999/xlink" x="0px" y="0px" viewBox="0 0 502.2 424.7"
	 style="enable-background:new 0 0 502.2 424.7;" xml:space="preserve">
<style type="text/css">
	.st0{fill:#E8EBEC;}
	.st1{fill:#21365F;}
	.st2{fill:#B1D6E8;}
	.st3{fill:#21365F;stroke:#21365F;stroke-width:3;stroke-miterlimit:10;}
	.st4{fill:#21365F;stroke:#21365F;stroke-width:3.5;stroke-miterlimit:10;}
</style>
<circle class="st0" cx="420" cy="295.5" r="82.2"/>
<circle class="st0" cx="122.3" cy="302.4" r="122.3"/>
<circle class="st0" cx="211.6" cy="73.9" r="73.9"/>
<rect x="52.6" y="139" class="st1" width="8.2" height="16.4"/>
<rect x="52.6" y="163.7" class="st1" width="8.2" height="16.4"/>
<rect x="36.1" y="155.5" class="st1" width="16.4" height="8.2"/>
<rect x="60.8" y="155.5" class="st1" width="16.4" height="8.2"/>
<rect x="314.2" y="355.6" class="st1" width="8.2" height="16.4"/>
<rect x="314.2" y="380.2" class="st1" width="8.2" height="16.4"/>
<rect x="297.8" y="372" class="st1" width="16.4" height="8.2"/>
<rect x="322.4" y="372" class="st1" width="16.4" height="8.2"/>
<rect x="379.4" y="106.4" class="st1" width="8.2" height="16.4"/>
<rect x="379.4" y="131" class="st1" width="8.2" height="16.4"/>
<rect x="363" y="122.8" class="st1" width="16.4" height="8.2"/>
<rect x="387.6" y="122.8" class="st1" width="16.4" height="8.2"/>
<path class="st2" d="M272.6,220.8h123.2v66c2.2,13.9-20.1,44.2-44.5,44h-135v-51.6C216.3,259.6,234,220.8,272.6,220.8L272.6,220.8
	L272.6,220.8z"/>
<path class="st3" d="M248.8,156.8H393c3.7,0,5.5,1.8,5.5,5.5c0,39.7,0,79.5,0,119.2c0,10.5-1.7,20.7-7.6,29.7
	c-8.8,13.5-21.1,21-37.3,22.3c-6.8,0.5-13.7,0.4-20.5,0.4c-60.6,0-121.2,0-181.8,0c-10.6,0-20.9-1.7-30-7.8
	c-13.2-8.8-20.6-21.1-22-37.1c-0.5-5.5-0.4-11.1-0.4-16.6c0-36.5,0-73,0-109.5c0-1.1,0-2.1,0-3.2c0-2.1,1-2.9,3-2.9
	c1.1,0,2.1,0,3.2,0L248.8,156.8L248.8,156.8z M248.7,210.5H109c-4.6,0-4.8,0.2-4.8,4.8c0,23.9,0,47.8,0,71.7
	c0,22.4,19.1,41.7,41.3,41.7c68.8,0,137.6,0,206.3,0c22.2,0,41.3-19.3,41.4-41.7c0-23.7,0-47.4,0-71.1c0-5.3,0-5.4-5.4-5.4H248.7
	L248.7,210.5L248.7,210.5z M344.6,162.9c-1.4-0.9-2.5-0.7-3.5-0.7c-16.4,0-32.9,0.1-49.3-0.1c-3,0-4.7,1.1-6.1,3.6
	c-4.4,7.8-8.9,15.5-13.4,23.2c-2.6,4.6-5.3,9.1-7.8,13.7c-1,1.8-0.7,2.3,1.4,2.5c0.4,0,0.9,0,1.3,0c16.4,0,32.9-0.1,49.3,0.1
	c2.9,0,4.6-1,6-3.5c5.5-9.7,11.2-19.3,16.7-29C340.9,169.5,343,166.4,344.6,162.9L344.6,162.9L344.6,162.9z M359.6,205.2
	c9.9,0,19.7,0,29.6,0c3.6,0,4-0.4,4-4c0-11.6,0-23.3,0-34.9c0-3.7-0.4-4.1-4.2-4.1c-11.5,0-22.9,0.1-34.4-0.1c-3,0-4.7,1.1-6.1,3.6
	c-6.8,12.1-13.8,24-20.6,36c-1.7,3-1.5,3.4,1.9,3.4C339.7,205.2,349.7,205.2,359.6,205.2L359.6,205.2z M169.4,162.7
	c-0.9-0.8-1.9-0.6-2.8-0.6c-19.4,0-38.7,0-58.1,0c-3.9,0-4.3,0.4-4.3,4.3c0,11.4,0,22.9,0,34.4c0,4,0.4,4.4,4.2,4.4
	c11.1,0,22.2-0.1,33.3,0.1c2.8,0,4.4-1,5.7-3.4c6.8-11.9,13.7-23.8,20.6-35.7C168.7,165.1,169.6,164.1,169.4,162.7L169.4,162.7
	L169.4,162.7z M227.8,162.9c-1.3-0.9-2.3-0.7-3.2-0.7c-14.9,0-29.9,0.1-44.8-0.1c-3,0-4.7,1.1-6.1,3.6c-4.4,7.8-8.9,15.5-13.4,23.2
	c-2.6,4.5-5.2,9-7.7,13.5c-1.2,2.1-0.9,2.6,1.5,2.7c0.4,0,0.7,0,1.1,0c14.8,0,29.7-0.1,44.5,0.1c2.9,0,4.6-1,5.9-3.5
	c5.5-9.7,11.2-19.3,16.7-29C224.2,169.5,226.3,166.4,227.8,162.9L227.8,162.9L227.8,162.9z M281.7,162.9c-1.4-0.9-2.5-0.7-3.5-0.7
	c-13.4,0-26.8,0.1-40.2-0.1c-3,0-4.7,1.1-6.1,3.6c-4.4,7.8-8.9,15.5-13.4,23.2c-2.6,4.6-5.3,9.1-7.8,13.7c-1,1.8-0.7,2.3,1.4,2.5
	c0.4,0,0.9,0,1.3,0c13.4,0,26.8-0.1,40.2,0.1c2.9,0,4.6-1,6-3.5c5.5-9.7,11.2-19.3,16.7-29C278,169.5,280.2,166.4,281.7,162.9
	L281.7,162.9L281.7,162.9z"/>
<path class="st4" d="M95.4,137.3c-0.4-25.6,17.6-48.7,43.2-55.3c18.1-4.7,36.3-9.3,54.4-13.9c42.7-10.9,85.4-21.8,128.1-32.8
	c6.3-1.6,12.5-3.6,19.2-3.9c14.3-0.7,26.3,4.2,36.2,14.4c5.8,6,9.6,13.1,11.6,21.2c0.4,1.8,0.9,3.7,1.4,5.5c0.8,3.2,0.6,3.7-2.7,4.5
	c-10.2,2.7-20.5,5.3-30.7,8c-30.3,7.7-60.6,15.4-90.9,23.2c-41,10.5-81.9,21-122.9,31.4c-13.7,3.5-27.4,7.1-41.1,10.6
	c-3.9,1-4.3,0.7-5-3.2C95.5,143.7,95.7,140.5,95.4,137.3L95.4,137.3L95.4,137.3z M230.2,111.8c-0.2-1.4-1.2-2-1.9-2.7
	C217.4,97.9,206,87.3,195,76.2c-2.2-2.2-4.3-2.9-7.4-2.1c-15.1,4-30.2,7.8-45.3,11.7c-1.8,0.5-3.6,1-5.4,1.6
	c-1.4,0.4-1.7,1.2-0.6,2.3c0.4,0.4,0.9,0.9,1.3,1.3c10.9,11,22,21.9,32.8,33c2,2,3.9,2.6,6.7,1.9c16.2-4.3,32.4-8.4,48.7-12.5
	C227.2,113,228.8,112.8,230.2,111.8L230.2,111.8L230.2,111.8z M250.2,59c0.3,1,1.2,1.7,1.9,2.4c11.4,11.2,22.8,22.4,34.1,33.7
	c1.7,1.7,3.3,2.1,5.5,1.5c8.8-2.3,17.7-4.6,26.6-6.8c6.2-1.6,12.5-3.2,18.8-4.8c3.2-0.8,3.3-1.3,1-3.7c-0.2-0.2-0.4-0.4-0.6-0.6
	c-10.9-11.3-22.4-22-33.5-33.1c-1.9-1.9-3.7-2.1-6.1-1.5c-15.1,3.9-30.2,7.8-45.3,11.7C251.7,57.9,250.7,57.9,250.2,59L250.2,59
	L250.2,59z M237.5,110.2c0.2,0,0.6-0.1,1.1-0.2c13.7-3.5,27.4-7,41.1-10.6c2.8-0.7,2.9-1.2,0.8-3.2c-11.6-11.6-23.1-23.3-35-34.5
	c-1.3-1.2-2.6-1.7-4.4-1.2c-13.6,3.5-27.2,7-40.8,10.5c-2.3,0.6-2.4,1.2-0.8,2.8c11.7,11.8,23.4,23.5,35.1,35.2
	C235.4,109.8,236.2,110.3,237.5,110.2L237.5,110.2L237.5,110.2z M347.4,82.2c0.1,0,0.5-0.1,1-0.2c11.3-2.9,22.5-5.8,33.8-8.7
	c1.8-0.4,2.3-1.3,1.9-3.1c-5.3-23.5-26-37.9-50.1-33.2c-8,1.6-15.8,3.8-23.7,5.9c-2.6,0.7-2.8,1.2-1,3.1
	c11.6,11.6,23.2,23.2,34.8,34.8C344.9,81.6,345.8,82.3,347.4,82.2L347.4,82.2L347.4,82.2z M166.9,127.7c-0.5-0.6-0.9-1.2-1.4-1.7
	c-11.2-11.2-22.5-22.4-33.6-33.8c-1.7-1.7-3.1-1.6-5-0.6c-6.3,3.4-11.6,8.2-15.9,13.9c-8.4,10.8-11.7,23.1-10.6,36.6
	c0.2,2.7,0.9,3.1,4,2.3c19.9-5.1,39.8-10.2,59.6-15.3C165,128.9,166.1,128.9,166.9,127.7L166.9,127.7L166.9,127.7z"/>
</svg>
