<?xml version="1.0" encoding="UTF-8"?><svg id="uuid-1a154211-25f9-4ddb-b42b-ac643abef243" xmlns="http://www.w3.org/2000/svg" viewBox="0 0 70.11 67.68"><defs><style>.uuid-052bd9f8-f361-47c0-9ba7-bd64c0544c57,.uuid-3ee84d9a-07fd-47b0-ab02-d87af80449c0{fill:#fff;}.uuid-d8a5f450-7ac1-4c70-9849-fe8ec52d014d{fill:#21365f;}.uuid-3fdf985a-f823-4764-a916-6d5dd5d347d9{fill:#e8ebec;}.uuid-8514a876-edba-4046-bade-aaedb2c8b91c{fill:#b1d6e8;}.uuid-394b21f7-7734-45e3-8a93-d4596774c726{fill:none;}.uuid-394b21f7-7734-45e3-8a93-d4596774c726,.uuid-3ee84d9a-07fd-47b0-ab02-d87af80449c0{stroke:#21365f;stroke-miterlimit:10;stroke-width:1.5px;}</style></defs><circle class="uuid-3fdf985a-f823-4764-a916-6d5dd5d347d9" cx="14" cy="29.81" r="14"/><circle class="uuid-3fdf985a-f823-4764-a916-6d5dd5d347d9" cx="35.71" cy="55.68" r="12"/><circle class="uuid-3fdf985a-f823-4764-a916-6d5dd5d347d9" cx="48.94" cy="20" r="20"/><circle class="uuid-d8a5f450-7ac1-4c70-9849-fe8ec52d014d" cx="8.2" cy="64.37" r=".75"/><circle class="uuid-d8a5f450-7ac1-4c70-9849-fe8ec52d014d" cx="11.2" cy="64.37" r=".75"/><circle class="uuid-d8a5f450-7ac1-4c70-9849-fe8ec52d014d" cx="15.2" cy="64.37" r=".75"/><circle class="uuid-d8a5f450-7ac1-4c70-9849-fe8ec52d014d" cx="21.2" cy="64.37" r=".75"/><path class="uuid-d8a5f450-7ac1-4c70-9849-fe8ec52d014d" d="m8.75,8.16v51.46c0,.6.48,1.08,1.08,1.08h43.21c.6,0,1.08-.48,1.08-1.08v-5.19c0-.36.29-.65.65-.65s.65.29.65.65v5.19c0,1.31-1.06,2.38-2.38,2.38H9.83c-1.31,0-2.38-1.06-2.38-2.38V7.76c0-1.31,1.06-2.38,2.38-2.38h43.21c1.31,0,2.38,1.06,2.38,2.38v12.1c0,.36-.29.65-.65.65s-.65-.29-.65-.65V7.76c0-.6-.48-1.08-1.08-1.08H10.23c-.82,0-1.48.66-1.48,1.48Z"/><path class="uuid-d8a5f450-7ac1-4c70-9849-fe8ec52d014d" d="m60.29,9.27h-1.2c-.36,0-.65-.29-.65-.65s.29-.65.65-.65h1.2c.36,0,.65.29.65.65s-.29.65-.65.65Z"/><path class="uuid-d8a5f450-7ac1-4c70-9849-fe8ec52d014d" d="m64.28,9.27h-1.2c-.36,0-.65-.29-.65-.65s.29-.65.65-.65h1.2c.36,0,.65.29.65.65s-.29.65-.65.65Z"/><path class="uuid-d8a5f450-7ac1-4c70-9849-fe8ec52d014d" d="m61.68,11.86c-.36,0-.65-.29-.65-.65v-1.2c0-.36.29-.65.65-.65s.65.29.65.65v1.2c0,.36-.29.65-.65.65Z"/><path class="uuid-d8a5f450-7ac1-4c70-9849-fe8ec52d014d" d="m61.68,7.88c-.36,0-.65-.29-.65-.65v-1.2c0-.36.29-.65.65-.65s.65.29.65.65v1.2c0,.36-.29.65-.65.65Z"/><path class="uuid-d8a5f450-7ac1-4c70-9849-fe8ec52d014d" d="m65.47,18.78h-1.2c-.36,0-.65-.29-.65-.65s.29-.65.65-.65h1.2c.36,0,.65.29.65.65s-.29.65-.65.65Z"/><path class="uuid-d8a5f450-7ac1-4c70-9849-fe8ec52d014d" d="m69.46,18.78h-1.2c-.36,0-.65-.29-.65-.65s.29-.65.65-.65h1.2c.36,0,.65.29.65.65s-.29.65-.65.65Z"/><path class="uuid-d8a5f450-7ac1-4c70-9849-fe8ec52d014d" d="m66.87,21.37c-.36,0-.65-.29-.65-.65v-1.2c0-.36.29-.65.65-.65s.65.29.65.65v1.2c0,.36-.29.65-.65.65Z"/><path class="uuid-d8a5f450-7ac1-4c70-9849-fe8ec52d014d" d="m66.87,17.38c-.36,0-.65-.29-.65-.65v-1.2c0-.36.29-.65.65-.65s.65.29.65.65v1.2c0,.36-.29.65-.65.65Z"/><path class="uuid-d8a5f450-7ac1-4c70-9849-fe8ec52d014d" d="m62.88,58.54h-1.2c-.36,0-.65-.29-.65-.65s.29-.65.65-.65h1.2c.36,0,.65.29.65.65s-.29.65-.65.65Z"/><path class="uuid-d8a5f450-7ac1-4c70-9849-fe8ec52d014d" d="m66.87,58.54h-1.2c-.36,0-.65-.29-.65-.65s.29-.65.65-.65h1.2c.36,0,.65.29.65.65s-.29.65-.65.65Z"/><path class="uuid-d8a5f450-7ac1-4c70-9849-fe8ec52d014d" d="m64.28,61.14c-.36,0-.65-.29-.65-.65v-1.2c0-.36.29-.65.65-.65s.65.29.65.65v1.2c0,.36-.29.65-.65.65Z"/><path class="uuid-d8a5f450-7ac1-4c70-9849-fe8ec52d014d" d="m64.28,57.15c-.36,0-.65-.29-.65-.65v-1.2c0-.36.29-.65.65-.65s.65.29.65.65v1.2c0,.36-.29.65-.65.65Z"/><path class="uuid-052bd9f8-f361-47c0-9ba7-bd64c0544c57" d="m14.01,55.42l.05-.8c.57-8.57,7.74-15.28,16.33-15.28h2.08c8.59,0,15.77,6.71,16.33,15.28l.05.8H14.01Z"/><path class="uuid-d8a5f450-7ac1-4c70-9849-fe8ec52d014d" d="m32.47,40.09c8.26,0,15.05,6.45,15.58,14.58H14.81c.54-8.13,7.32-14.58,15.58-14.58h2.08m0-1.5h-2.08c-8.99,0-16.49,7.02-17.08,15.98l-.11,1.6h36.46l-.11-1.6c-.59-8.96-8.1-15.98-17.08-15.98h0Z"/><path class="uuid-052bd9f8-f361-47c0-9ba7-bd64c0544c57" d="m31.48,38.32c-5.48,0-9.94-4.46-9.94-9.94v-6.34c0-5.48,4.46-9.94,9.94-9.94s9.94,4.46,9.94,9.94v6.34c0,5.48-4.46,9.94-9.94,9.94Z"/><path class="uuid-d8a5f450-7ac1-4c70-9849-fe8ec52d014d" d="m31.48,12.86c5.07,0,9.19,4.11,9.19,9.19v6.34c0,5.07-4.11,9.19-9.19,9.19h0c-5.07,0-9.19-4.11-9.19-9.19v-6.34c0-5.07,4.11-9.19,9.19-9.19h0m0-1.5c-5.89,0-10.69,4.79-10.69,10.69v6.34c0,5.89,4.79,10.69,10.69,10.69s10.69-4.79,10.69-10.69v-6.34c0-5.89-4.79-10.69-10.69-10.69h0Z"/><path class="uuid-394b21f7-7734-45e3-8a93-d4596774c726" d="m31.37,30.92h-8.89c-2.55,0-4.61-2.06-4.61-4.61v-1.91"/><circle class="uuid-3ee84d9a-07fd-47b0-ab02-d87af80449c0" cx="31.35" cy="31.49" r="2.47"/><path class="uuid-394b21f7-7734-45e3-8a93-d4596774c726" d="m44.94,21.86v-1.08c0-6.01-4.87-10.88-10.88-10.88h-5.38c-6.01,0-10.88,4.87-10.88,10.88v1.08"/><path class="uuid-052bd9f8-f361-47c0-9ba7-bd64c0544c57" d="m17.92,28.1c-1.43,0-2.6-1.17-2.6-2.6v-4.75c0-1.43,1.17-2.6,2.6-2.6s2.6,1.17,2.6,2.6v4.75c0,1.43-1.17,2.6-2.6,2.6Z"/><path class="uuid-d8a5f450-7ac1-4c70-9849-fe8ec52d014d" d="m17.92,18.89c1.02,0,1.85.83,1.85,1.85v4.75c0,1.02-.83,1.85-1.85,1.85h0c-1.02,0-1.85-.83-1.85-1.85v-4.75c0-1.02.83-1.85,1.85-1.85h0m0-1.5c-1.85,0-3.35,1.5-3.35,3.35v4.75c0,1.85,1.5,3.35,3.35,3.35s3.35-1.5,3.35-3.35v-4.75c0-1.85-1.5-3.35-3.35-3.35h0Z"/><path class="uuid-052bd9f8-f361-47c0-9ba7-bd64c0544c57" d="m44.94,28.1c-1.43,0-2.6-1.17-2.6-2.6v-4.75c0-1.43,1.17-2.6,2.6-2.6s2.6,1.17,2.6,2.6v4.75c0,1.43-1.17,2.6-2.6,2.6Z"/><path class="uuid-d8a5f450-7ac1-4c70-9849-fe8ec52d014d" d="m44.94,18.89c1.02,0,1.85.83,1.85,1.85v4.75c0,1.02-.83,1.85-1.85,1.85s-1.85-.83-1.85-1.85v-4.75c0-1.02.83-1.85,1.85-1.85m0-1.5c-1.85,0-3.35,1.5-3.35,3.35v4.75c0,1.85,1.5,3.35,3.35,3.35s3.35-1.5,3.35-3.35v-4.75c0-1.85-1.5-3.35-3.35-3.35h0Z"/><path class="uuid-052bd9f8-f361-47c0-9ba7-bd64c0544c57" d="m40.02,26.71l14.75-6.71,14.66,6.71v12.21l-1.25,4.76-2.06,3.7-4.44,3.75-6.27,3.31-5.06-1.7-6.15-4.54-3.48-5.17s-.62-5.97-.71-6.24,0-10.07,0-10.07Z"/><path class="uuid-8514a876-edba-4046-bade-aaedb2c8b91c" d="m66.12,47.38l2.06-3.7,1.25-4.76v-12.12h-9.13c-3.05,0-5.53,2.47-5.53,5.53v21.89l.65.22,6.27-3.31,4.44-3.75Z"/><path class="uuid-d8a5f450-7ac1-4c70-9849-fe8ec52d014d" d="m54.77,55.08s-.1,0-.15-.02c-.15-.04-15.19-3.74-15.19-17.92v-10.37c0-.25.15-.48.37-.59l14.69-6.92c.17-.08.38-.08.55,0l14.69,6.92c.23.11.37.34.37.59v10.37c0,14.18-15.04,17.88-15.19,17.92-.05.01-.1.02-.15.02Zm-14.05-27.9v9.96c0,12.57,12.45,16.21,14.05,16.62,1.6-.41,14.05-4.05,14.05-16.62v-9.96l-14.05-6.61-14.05,6.61Z"/><path class="uuid-d8a5f450-7ac1-4c70-9849-fe8ec52d014d" d="m54.77,50.33c-.05,0-.1,0-.15-.02-.11-.03-10.87-2.74-10.87-13.16v-7.52c0-.25.14-.48.37-.58l10.37-5.01c.18-.09.39-.09.56,0l10.37,5.01c.22.11.37.33.37.58v7.52c0,10.41-10.76,13.14-10.87,13.16-.05.01-.1.02-.15.02Zm-9.72-20.29v7.11c0,8.77,8.49,11.51,9.73,11.86,1.3-.36,9.72-3.02,9.72-11.86v-7.11l-9.72-4.7-9.72,4.7Z"/><path class="uuid-d8a5f450-7ac1-4c70-9849-fe8ec52d014d" d="m57.79,42.6h-6.05c-.19,0-.38-.09-.5-.24-.12-.15-.17-.35-.13-.54l1.11-5.54c-.72-.69-1.12-1.63-1.12-2.63,0-2.03,1.65-3.67,3.67-3.67s3.67,1.65,3.67,3.67c0,1-.4,1.94-1.12,2.63l1.11,5.54c.04.19-.01.39-.13.54-.12.15-.31.24-.5.24Zm-5.26-1.3h4.47l-1.03-5.14c-.05-.24.04-.49.24-.64.59-.46.93-1.14.93-1.87,0-1.31-1.07-2.38-2.38-2.38s-2.38,1.07-2.38,2.38c0,.73.34,1.42.93,1.87.2.15.29.4.24.64l-1.03,5.14Z"/></svg>