<?xml version="1.0" encoding="UTF-8"?><svg id="uuid-213ee7d0-6c2e-4ab3-9c73-84050b97f11a" xmlns="http://www.w3.org/2000/svg" xmlns:xlink="http://www.w3.org/1999/xlink" viewBox="0 0 73.2 60.74"><defs><style>.uuid-d0601af5-6554-47f6-859d-8254a21db3a0{fill:#fff;}.uuid-b8825f6e-4284-47ba-b79d-cad166ae6bc0{fill:#21365f;}.uuid-0930420e-309c-4b3e-8ff0-1f84cd02be6a{clip-path:url(#uuid-9eb0b059-4478-4d00-be97-272bbec9d2c0);}.uuid-0930420e-309c-4b3e-8ff0-1f84cd02be6a,.uuid-6c77dea7-3880-4df5-8670-d48c1d111c7e{fill:none;}.uuid-fcdad89f-b1cc-44ed-ab59-a81e8cfae2fd{fill:#e8ebec;}.uuid-8fe8d66c-89a7-4119-94d9-a3175f728da8{fill:#b1d6e8;}</style><clipPath id="uuid-9eb0b059-4478-4d00-be97-272bbec9d2c0"><path class="uuid-6c77dea7-3880-4df5-8670-d48c1d111c7e" d="m53.78,49.64c-4.73,0-8.74-3.03-10.23-7.24h-12.13c-1.49,4.22-5.5,7.24-10.23,7.24-6,0-10.86-4.86-10.86-10.86,0-.85.11-1.68.29-2.47l3.81-16.61c1.18-3.63,4.55-6.27,8.57-6.27,2.95,0,5.55,1.43,7.2,3.62h14.57c1.65-2.19,4.25-3.62,7.2-3.62,4.02,0,7.39,2.64,8.57,6.27l3.81,16.61c.19.79.3,1.62.3,2.47,0,6-4.86,10.86-10.86,10.86Z"/></clipPath></defs><circle class="uuid-fcdad89f-b1cc-44ed-ab59-a81e8cfae2fd" cx="60.9" cy="46.2" r="12.3"/><circle class="uuid-fcdad89f-b1cc-44ed-ab59-a81e8cfae2fd" cx="48.03" cy="10.54" r="10.54"/><circle class="uuid-fcdad89f-b1cc-44ed-ab59-a81e8cfae2fd" cx="17.57" cy="43.17" r="17.57"/><path class="uuid-d0601af5-6554-47f6-859d-8254a21db3a0" d="m53.78,50.39c-4.73,0-8.98-2.89-10.75-7.24h-11.09c-1.77,4.35-6.02,7.24-10.75,7.24-6.4,0-11.61-5.21-11.61-11.61,0-.86.11-1.75.31-2.64l3.81-16.6c1.34-4.12,5.07-6.85,9.3-6.85,2.95,0,5.69,1.31,7.57,3.62h13.83c1.88-2.31,4.62-3.62,7.57-3.62,4.23,0,7.96,2.73,9.28,6.78l3.83,16.67c.21.89.31,1.78.31,2.64,0,6.4-5.21,11.61-11.61,11.61Z"/><path class="uuid-b8825f6e-4284-47ba-b79d-cad166ae6bc0" d="m51.97,13.43c4.02,0,7.39,2.64,8.57,6.27l3.81,16.61c.19.79.3,1.62.3,2.47,0,6-4.86,10.86-10.86,10.86-4.73,0-8.74-3.03-10.23-7.24h-12.13c-1.49,4.22-5.5,7.24-10.23,7.24-6,0-10.86-4.86-10.86-10.86,0-.85.11-1.68.29-2.47l3.81-16.61c1.18-3.63,4.55-6.27,8.57-6.27,2.95,0,5.55,1.43,7.2,3.62h14.57c1.65-2.19,4.25-3.62,7.2-3.62m0-1.5c-3.06,0-5.9,1.31-7.92,3.62h-13.14c-2.01-2.31-4.85-3.62-7.91-3.62-4.56,0-8.57,2.93-10,7.3l-.02.06-.02.07-3.81,16.61c-.22.94-.33,1.89-.33,2.81,0,6.82,5.55,12.36,12.36,12.36,4.86,0,9.25-2.87,11.24-7.24h10.11c1.99,4.37,6.38,7.24,11.24,7.24,6.82,0,12.36-5.55,12.36-12.36,0-.92-.11-1.87-.33-2.82l-3.81-16.6v-.07s-.04-.06-.04-.06c-1.42-4.37-5.44-7.3-10-7.3h0Z"/><g class="uuid-0930420e-309c-4b3e-8ff0-1f84cd02be6a"><path class="uuid-8fe8d66c-89a7-4119-94d9-a3175f728da8" d="m43.52,19.32c-4.39,0-7.94,3.56-7.94,7.94v24.65h33.18V19.32h-25.24Z"/></g><path class="uuid-b8825f6e-4284-47ba-b79d-cad166ae6bc0" d="m44.73,25.2c1,0,1.81.81,1.81,1.81s-.81,1.81-1.81,1.81-1.81-.81-1.81-1.81.81-1.81,1.81-1.81m0-1.5c-1.83,0-3.31,1.49-3.31,3.31s1.49,3.31,3.31,3.31,3.31-1.49,3.31-3.31-1.49-3.31-3.31-3.31h0Z"/><path class="uuid-b8825f6e-4284-47ba-b79d-cad166ae6bc0" d="m52.5,23.39c1,0,1.81.81,1.81,1.81s-.81,1.81-1.81,1.81-1.81-.81-1.81-1.81.81-1.81,1.81-1.81m0-1.5c-1.83,0-3.31,1.49-3.31,3.31s1.49,3.31,3.31,3.31,3.31-1.49,3.31-3.31-1.49-3.31-3.31-3.31h0Z"/><path class="uuid-b8825f6e-4284-47ba-b79d-cad166ae6bc0" d="m44.73,32.44c1,0,1.81.81,1.81,1.81s-.81,1.81-1.81,1.81-1.81-.81-1.81-1.81.81-1.81,1.81-1.81m0-1.5c-1.83,0-3.31,1.49-3.31,3.31s1.49,3.31,3.31,3.31,3.31-1.49,3.31-3.31-1.49-3.31-3.31-3.31h0Z"/><path class="uuid-b8825f6e-4284-47ba-b79d-cad166ae6bc0" d="m52.5,30.63c1,0,1.81.81,1.81,1.81s-.81,1.81-1.81,1.81-1.81-.81-1.81-1.81.81-1.81,1.81-1.81m0-1.5c-1.83,0-3.31,1.49-3.31,3.31s1.49,3.31,3.31,3.31,3.31-1.49,3.31-3.31-1.49-3.31-3.31-3.31h0Z"/><path class="uuid-d0601af5-6554-47f6-859d-8254a21db3a0" d="m21.19,35.91c-.41,0-.75-.34-.75-.75v-2.87h-2.87c-.41,0-.75-.34-.75-.75v-3.62c0-.41.34-.75.75-.75h2.87v-2.87c0-.41.34-.75.75-.75h3.62c.41,0,.75.34.75.75v2.87h2.87c.41,0,.75.34.75.75v3.62c0,.41-.34.75-.75.75h-2.87v2.87c0,.41-.34.75-.75.75h-3.62Z"/><path class="uuid-b8825f6e-4284-47ba-b79d-cad166ae6bc0" d="m24.81,24.3v3.62h3.62v3.62h-3.62v3.62h-3.62v-3.62h-3.62v-3.62h3.62v-3.62h3.62m0-1.5h-3.62c-.83,0-1.5.67-1.5,1.5v2.12h-2.12c-.83,0-1.5.67-1.5,1.5v3.62c0,.83.67,1.5,1.5,1.5h2.12v2.12c0,.83.67,1.5,1.5,1.5h3.62c.83,0,1.5-.67,1.5-1.5v-2.12h2.12c.83,0,1.5-.67,1.5-1.5v-3.62c0-.83-.67-1.5-1.5-1.5h-2.12v-2.12c0-.83-.67-1.5-1.5-1.5h0Z"/><path class="uuid-b8825f6e-4284-47ba-b79d-cad166ae6bc0" d="m44.37,13.05c0,.41-.34.75-.75.75h-7.56c-.41,0-.75-.34-.75-.75s.34-.75.75-.75h7.56c.41,0,.75.34.75.75Z"/><path class="uuid-b8825f6e-4284-47ba-b79d-cad166ae6bc0" d="m33.81,13.05c0,.41-.34.75-.75.75h-2.21c-.41,0-.75-.34-.75-.75s.34-.75.75-.75h2.21c.41,0,.75.34.75.75Z"/><path class="uuid-b8825f6e-4284-47ba-b79d-cad166ae6bc0" d="m64.12,16.44c.4-.09.81.16.9.56l1.71,7.37c.09.4-.16.81-.56.9s-.81-.16-.9-.56l-1.71-7.37c-.09-.4.16-.81.56-.9Z"/><path class="uuid-b8825f6e-4284-47ba-b79d-cad166ae6bc0" d="m66.51,26.73c.4-.09.81.16.9.56l.5,2.16c.09.4-.16.81-.56.9s-.81-.16-.9-.56l-.5-2.16c-.09-.4.16-.81.56-.9Z"/><path class="uuid-b8825f6e-4284-47ba-b79d-cad166ae6bc0" d="m9.22,12.99h-1.2c-.36,0-.65-.29-.65-.65s.29-.65.65-.65h1.2c.36,0,.65.29.65.65s-.29.65-.65.65Z"/><path class="uuid-b8825f6e-4284-47ba-b79d-cad166ae6bc0" d="m13.21,12.99h-1.2c-.36,0-.65-.29-.65-.65s.29-.65.65-.65h1.2c.36,0,.65.29.65.65s-.29.65-.65.65Z"/><path class="uuid-b8825f6e-4284-47ba-b79d-cad166ae6bc0" d="m10.62,15.58c-.36,0-.65-.29-.65-.65v-1.2c0-.36.29-.65.65-.65s.65.29.65.65v1.2c0,.36-.29.65-.65.65Z"/><path class="uuid-b8825f6e-4284-47ba-b79d-cad166ae6bc0" d="m10.62,11.59c-.36,0-.65-.29-.65-.65v-1.2c0-.36.29-.65.65-.65s.65.29.65.65v1.2c0,.36-.29.65-.65.65Z"/><path class="uuid-b8825f6e-4284-47ba-b79d-cad166ae6bc0" d="m41.52,52.57h-1.2c-.36,0-.65-.29-.65-.65s.29-.65.65-.65h1.2c.36,0,.65.29.65.65s-.29.65-.65.65Z"/><path class="uuid-b8825f6e-4284-47ba-b79d-cad166ae6bc0" d="m45.51,52.57h-1.2c-.36,0-.65-.29-.65-.65s.29-.65.65-.65h1.2c.36,0,.65.29.65.65s-.29.65-.65.65Z"/><path class="uuid-b8825f6e-4284-47ba-b79d-cad166ae6bc0" d="m42.92,55.16c-.36,0-.65-.29-.65-.65v-1.2c0-.36.29-.65.65-.65s.65.29.65.65v1.2c0,.36-.29.65-.65.65Z"/><path class="uuid-b8825f6e-4284-47ba-b79d-cad166ae6bc0" d="m42.92,51.17c-.36,0-.65-.29-.65-.65v-1.2c0-.36.29-.65.65-.65s.65.29.65.65v1.2c0,.36-.29.65-.65.65Z"/><path class="uuid-b8825f6e-4284-47ba-b79d-cad166ae6bc0" d="m56.26,56.7h-1.2c-.36,0-.65-.29-.65-.65s.29-.65.65-.65h1.2c.36,0,.65.29.65.65s-.29.65-.65.65Z"/><path class="uuid-b8825f6e-4284-47ba-b79d-cad166ae6bc0" d="m60.25,56.7h-1.2c-.36,0-.65-.29-.65-.65s.29-.65.65-.65h1.2c.36,0,.65.29.65.65s-.29.65-.65.65Z"/><path class="uuid-b8825f6e-4284-47ba-b79d-cad166ae6bc0" d="m57.66,59.29c-.36,0-.65-.29-.65-.65v-1.2c0-.36.29-.65.65-.65s.65.29.65.65v1.2c0,.36-.29.65-.65.65Z"/><path class="uuid-b8825f6e-4284-47ba-b79d-cad166ae6bc0" d="m57.66,55.3c-.36,0-.65-.29-.65-.65v-1.2c0-.36.29-.65.65-.65s.65.29.65.65v1.2c0,.36-.29.65-.65.65Z"/></svg>