<?xml version="1.0" encoding="UTF-8"?><svg id="uuid-041963af-bc1c-46c3-81ea-0f4d2f6c9bac" xmlns="http://www.w3.org/2000/svg" viewBox="0 0 492.54 458.63"><defs><style>.uuid-240cbbdb-4c59-4043-aeb9-abd501c1afc3{fill:#21365f;}.uuid-30f39c1b-e8dd-4f18-bb23-d55b98528ea9{fill:#e8ebec;}.uuid-748e47ab-7c42-4078-bac2-e9cfbfa38229{fill:#b1d6e8;}</style></defs><circle class="uuid-30f39c1b-e8dd-4f18-bb23-d55b98528ea9" cx="401.58" cy="367.66" r="90.97"/><circle class="uuid-30f39c1b-e8dd-4f18-bb23-d55b98528ea9" cx="365.04" cy="79.75" r="79.75"/><circle class="uuid-30f39c1b-e8dd-4f18-bb23-d55b98528ea9" cx="133.14" cy="284.76" r="133.14"/><path class="uuid-748e47ab-7c42-4078-bac2-e9cfbfa38229" d="m310.04,182.03h135.7v143.48c0,27.04-21.96,49-49,49h-148.7v-130.48c0-34.22,27.78-62,62-62Z"/><path class="uuid-240cbbdb-4c59-4043-aeb9-abd501c1afc3" d="m284.14,378.65c-35.99,0-71.98.03-107.97-.01-11.03-.01-21.69-1.76-31.2-7.82-14.86-9.47-23.11-22.93-24.63-40.57-.46-5.39-.45-10.76-.45-16.14-.01-51.77-.02-103.54,0-155.32,0-12.08,2.31-23.52,9.56-33.56,9.64-13.36,22.57-20.76,39.08-22.05,6.54-.51,13.07-.45,19.61-.45,67.75-.02,135.49-.03,203.24,0,9.89,0,19.65,1.07,28.52,5.93,16.96,9.29,26.49,23.44,28.03,42.92.48,6.07.44,12.11.44,18.17.03,50.81.03,101.62,0,152.43,0,11.13-1.72,21.89-7.88,31.47-9.57,14.92-23.1,23.21-40.9,24.54-11.83.88-23.66.4-35.48.44-26.65.11-53.31.03-79.97.03h0Zm-97.93-137.91v123.56c0,4.89.27,5.18,4.96,5.18h180.72c4.63,0,4.96-.32,4.96-4.89V116.61c0-4.39-.37-4.72-4.81-4.75h-178.41c-1.15,0-2.31-.02-3.46.01-3.35.09-3.85.58-3.94,3.87-.03,1.06-.01,2.12-.01,3.18v121.83h0Zm226.47-27.18c7.5,0,15,.03,22.5-.01,3.47-.02,4.01-.56,4.02-4.07.03-13.27.03-26.54,0-39.81,0-3.53-.54-4.08-4-4.08-15-.03-30.01-.03-45.01,0-3.66,0-4.16.52-4.16,4.22-.03,13.17-.03,26.35,0,39.53,0,3.77.5,4.22,4.44,4.24,7.41.03,14.81,0,22.22,0h0Zm.02,102.22c7.41,0,14.81.02,22.22,0,3.75-.01,4.28-.5,4.29-4.09.03-11.93.03-23.85,0-35.78,0-3.51-.55-4.06-4.02-4.07-15-.03-30-.03-45.01,0-3.65,0-4.14.52-4.15,4.23-.03,11.83-.03,23.66,0,35.48,0,3.7.5,4.2,4.16,4.22,7.5.03,15,.01,22.5.01h0ZM152.96,165.56c-6.64,0-13.27-.03-19.9.01-3.39.02-3.98.56-3.99,3.8-.03,13.47-.03,26.92,0,40.39,0,3.15.61,3.77,3.72,3.77,13.47.04,26.92.04,40.39,0,3.29,0,3.85-.58,3.85-3.94.03-13.37.03-26.73,0-40.1,0-3.34-.56-3.9-3.87-3.93-6.73-.05-13.47-.01-20.2-.01h0Zm259.66,97.08c7.6,0,15.2.03,22.79-.01,3.16-.02,3.77-.61,3.78-3.71.04-10.77.04-21.54,0-32.31-.01-3.29-.58-3.85-3.94-3.85-15.1-.03-30.19-.03-45.29,0-3.35,0-3.91.56-3.93,3.87-.04,10.67-.04,21.35,0,32.02.01,3.45.56,3.98,4.08,4,7.5.03,15,.01,22.5,0h0Zm-259.88,53.13c6.83,0,13.66.03,20.48-.01,3.16-.02,3.78-.6,3.79-3.7.04-12.11.04-24.23,0-36.35,0-3.3-.58-3.86-3.93-3.87-13.37-.03-26.73-.03-40.1,0-3.35,0-3.93.56-3.94,3.85-.04,12.02-.03,24.04,0,36.06,0,3.47.56,4,4.07,4.02,6.54.04,13.08.01,19.62,0h0Zm259.83,9.18h0c-7.6,0-15.2-.03-22.79.03-3.12.02-3.65.62-3.76,3.75-.02.67-.01,1.35-.01,2.02v32.89c0,5.81.05,5.85,5.72,5.86,1.45,0,2.89-.07,4.33.01,10.87.59,20.28-3.26,28.35-10.14,9.1-7.75,14.29-17.73,14.77-29.86.16-4.06-.4-4.53-4.4-4.54-7.41-.03-14.81,0-22.21,0h0Zm-.01-168.56c7.5,0,15,.03,22.5-.01,3.63-.02,4.08-.54,4.15-4.24.05-2.61-.18-5.2-.89-7.71-4.21-14.91-13.45-25.15-28.06-30.6-6.64-2.47-13.45-1.91-20.25-1.96-3.45-.02-3.98.56-3.98,4.09-.03,12.11-.03,24.23,0,36.35,0,3.5.55,4.04,4.02,4.06,7.5.04,15,.01,22.5.01h0Zm-259.82,106.25c6.83,0,13.66.03,20.48-.01,3.16-.02,3.78-.6,3.79-3.7.05-10.77.04-21.54,0-32.31-.01-3.3-.58-3.86-3.93-3.87-13.37-.03-26.73-.03-40.1,0-3.35,0-3.93.56-3.94,3.85-.04,10.67-.04,21.35,0,32.02.01,3.47.56,3.99,4.07,4.01,6.54.04,13.07.01,19.62,0h0Zm.21,62.31c-6.64,0-13.27-.03-19.9.01-3.45.02-3.93.58-4.01,4.08-.06,2.61.2,5.18.85,7.72,5.3,20.63,23.79,33.93,43.29,32.73,3.27-.2,3.83-.62,3.84-3.98.03-12.21.03-24.43,0-36.63,0-3.34-.56-3.89-3.88-3.91-6.73-.05-13.46-.01-20.2-.01h0Zm.15-168.56c6.54,0,13.07.02,19.61,0,3.83-.02,4.3-.49,4.31-4.36.02-11.92,0-23.84,0-35.76,0-.48-.03-.96-.03-1.44-.04-1.84-.93-2.87-2.82-2.92-5.01-.12-9.99-.21-14.82,1.51-6.13,2.17-11.91,4.98-16.64,9.52-8.37,8.04-13.45,17.68-13.64,29.52-.06,3.33.56,3.91,3.85,3.93,6.73.05,13.46.01,20.19.02h0Z"/><path class="uuid-240cbbdb-4c59-4043-aeb9-abd501c1afc3" d="m234.77,236.51c0-12.03.03-24.05-.01-36.08-.03-8.43,3.31-15.03,10.83-18.98,7.41-3.89,14.79-3.29,21.93,1.17,18.11,11.32,36.27,22.56,54.4,33.86,2.53,1.58,5.11,3.1,7.27,5.18,10.02,9.65,8.47,25.7-3.31,33.06-13.95,8.73-27.97,17.34-41.95,26-5.64,3.49-11.23,7.09-16.94,10.48-7.09,4.2-14.54,4.46-21.75.58-7.25-3.91-10.48-10.46-10.48-18.62,0-12.22,0-24.44,0-36.66h0Zm8.63.02v36.35c0,2.33.23,4.59,1.37,6.7,3.45,6.3,11.09,8.28,17.74,4.3,8.09-4.83,16.04-9.89,24.05-14.84,10.96-6.78,21.92-13.55,32.87-20.33,1.88-1.17,3.74-2.37,5.17-4.11,4.49-5.49,3.28-13.74-2.95-17.91-6.87-4.59-13.95-8.88-20.96-13.27-12.55-7.86-25.17-15.61-37.67-23.54-9.84-6.25-20.26.86-19.76,11.19.57,11.8.13,23.65.13,35.48h0Z"/><rect class="uuid-240cbbdb-4c59-4043-aeb9-abd501c1afc3" x="61.5" y="240.61" width="8.85" height="17.78"/><rect class="uuid-240cbbdb-4c59-4043-aeb9-abd501c1afc3" x="61.5" y="267.31" width="8.85" height="17.78"/><rect class="uuid-240cbbdb-4c59-4043-aeb9-abd501c1afc3" x="48.15" y="253.95" width="8.85" height="17.78" transform="translate(-210.26 315.42) rotate(-90)"/><rect class="uuid-240cbbdb-4c59-4043-aeb9-abd501c1afc3" x="74.85" y="253.95" width="8.85" height="17.78" transform="translate(-183.56 342.12) rotate(-90)"/><rect class="uuid-240cbbdb-4c59-4043-aeb9-abd501c1afc3" x="400.19" y="396.65" width="8.85" height="17.78"/><rect class="uuid-240cbbdb-4c59-4043-aeb9-abd501c1afc3" x="400.19" y="423.35" width="8.85" height="17.78"/><rect class="uuid-240cbbdb-4c59-4043-aeb9-abd501c1afc3" x="386.84" y="409.98" width="8.85" height="17.78" transform="translate(-27.6 810.14) rotate(-90)"/><rect class="uuid-240cbbdb-4c59-4043-aeb9-abd501c1afc3" x="413.54" y="409.98" width="8.85" height="17.78" transform="translate(-.9 836.84) rotate(-90)"/><rect class="uuid-240cbbdb-4c59-4043-aeb9-abd501c1afc3" x="440.27" y="53.58" width="8.85" height="17.78"/><rect class="uuid-240cbbdb-4c59-4043-aeb9-abd501c1afc3" x="440.27" y="80.28" width="8.85" height="17.78"/><rect class="uuid-240cbbdb-4c59-4043-aeb9-abd501c1afc3" x="426.92" y="66.92" width="8.85" height="17.78" transform="translate(355.54 507.15) rotate(-90)"/><rect class="uuid-240cbbdb-4c59-4043-aeb9-abd501c1afc3" x="453.62" y="66.92" width="8.85" height="17.78" transform="translate(382.24 533.85) rotate(-90)"/></svg>