<svg id="Social_Media" data-name="Social Media" xmlns="http://www.w3.org/2000/svg" viewBox="0 0 1057 512">
  <defs>
    <style>
      .cls-1 {
        fill: transparent;
      }

      .cls-2 {
        fill: #b1d6e8;
      }

      .cls-3 {
        fill: #338cb7;
      }
    </style>
  </defs>
  <rect id="BG" class="cls-1" width="1057" height="512"/>
  <g id="Items">
    <path class="cls-2" d="M0,378.71a5.63,5.63,0,0,0,5-2.27q9.85-11.51,19.78-22.95C29.48,348,34.26,342.54,39,337c2.43-2.86,2.31-5.1-.5-7.57q-9.16-8.06-18.5-15.9c-2.79-2.34-4.84-2.13-7.23.55-4.29,4.81-8.48,9.7-12.71,14.56V325c1.92-1.12,3.08-3,4.53-4.6,2.52-2.73,4.88-5.64,7.44-8.34s5.93-2.9,8.91-.43c4.06,3.37,8,6.91,12,10.37,2.25,2,4.48,3.93,6.75,5.87,3.82,3.25,4.14,6.81.88,10.56Q23.4,358.13,6.31,377.87A9.33,9.33,0,0,1,0,381.15v-2.44Z"/>
    <path class="cls-2" d="M0,289.55,11.8,279.6c.56-.47,1.08-1.18,1.92-.86s.88,1.29.9,2.09c.05,1.48,0,3,.05,4.47,0,.71-.17,1.51.56,2,1.59-1,16.89-27.52,17-29.57-.78-.4-1.45.09-2.11.34Q16.83,263.3,3.49,268.54A15.23,15.23,0,0,1,0,269.61v-2l17.82-6.87c5.31-2.06,10.6-4.15,15.92-6.2.77-.3,1.7-.95,2.42-.06s0,1.68-.42,2.44Q27,272.23,18.17,287.57c-1,1.7-2,3.4-3,5.08-.37.6-.71,1.49-1.66,1.17s-.82-1.18-.83-1.91c0-2.44,0-4.88-.06-7.32,0-.65.12-1.47-.59-1.83s-1.24.32-1.73.74c-3.45,3-6.87,5.94-10.3,8.91v-2.85Z"/>
    <path class="cls-2" d="M0,186.77a8.42,8.42,0,0,0,3-2.42,3.6,3.6,0,0,1,3.8-1.24c8.36,1.36,16.24,0,23.32-4.79A19.55,19.55,0,0,0,39,165.42c1.35-7.45-1.64-13.34-7.29-17.87-8-6.38-17.16-7.58-26.94-5.6-1.59.32-3.14.84-4.71,1.26v-2c8.75-3,17.48-3,26,.65,7.34,3.15,12.78,8.27,14.59,16.33,1.68,7.5-.59,13.93-6.21,19.15-7.54,7-16.62,9.05-26.57,8.05-1.87-.18-3.3.11-4.51,1.58A6.62,6.62,0,0,1,0,188.81v-2Z"/>
    <path class="cls-2" d="M0,333.92c2.43-1.59,3.87-4.11,5.81-6.18,2.87-3.06,5.62-6.23,8.3-9.46,1.18-1.41,2.18-1.29,3.4-.22,3.67,3.21,7.36,6.4,11,9.61,1.88,1.65,3.67,3.41,5.59,5,1.4,1.16,1.52,2.28.38,3.62-2.11,2.48-4.2,5-6.31,7.42C22.05,350.84,15.92,358,9.72,365.06c-3.35,3.84-3.54,3.81-7.28.37A7,7,0,0,0,0,363.64v-2.85a28.66,28.66,0,0,1,4.38,3.62c1.29,1.1,2.29,1.06,3.43-.28,4.48-5.25,9-10.46,13.56-15.68,3.33-3.83,6.69-7.64,10-11.48,1.88-2.16,1.83-2.54-.33-4.42q-6.59-5.74-13.18-11.48c-1.74-1.5-2.31-1.41-3.83.35q-6,7-12.13,13.95A25.33,25.33,0,0,1,0,337.18v-3.26Z"/>
    <path class="cls-2" d="M0,482.1c8,4,16.16,3.13,24.37.74A2.59,2.59,0,0,0,26,481.35c3.09-6.31,5-12.89,4.14-20-.56-4.49-2.1-8.58-6.08-11.26-4.2-2.83-8.85-1.91-11.76,2.23a17.44,17.44,0,0,0-3,7.49c-.3,2-1.26,2.78-3.21,2.88s-4,.45-6.05.69v-2c1.54-.19,3.09-.42,4.64-.57a3,3,0,0,0,2.9-2.62,16.85,16.85,0,0,1,3.71-7.82c5-5.48,12-5.15,16.68.63a21,21,0,0,1,4.48,14,39.28,39.28,0,0,1-4.56,17.17,5,5,0,0,1-3.14,2.65c-8.28,2.65-16.51,2.84-24.72-.28V482.1Z"/>
    <path class="cls-2" d="M0,242c2.76,1.11,5.52,2.25,8.3,3.33,4.39,1.69,7.48.29,9.28-4,2.36-5.7,4.84-11.34,7.18-17,1.76-4.28.62-7.27-3.61-9.12-7-3.06-14.1-6-21.15-8.95v-2c7.6,2.87,15.08,6,22.5,9.33A8,8,0,0,1,27,224c-2.45,6.52-5.14,13-8,19.3C17,247.53,12.85,249,8.36,247.59,5.52,246.7,3,245.05,0,244.47V242Z"/>
    <path class="cls-2" d="M0,439.77c2.12-1.26,3.16-3.49,4.68-5.28,2.68-3.15,5.24-6.4,7.81-9.63C14,423,14,422.71,12.15,421.2c-4-3.29-7.95-6.53-12.15-9.52v-2.45c4,2.51,7.44,5.64,11.11,8.52,1.39,1.08,2.75,2.2,4.12,3.3a1.91,1.91,0,0,1,.34,3.11C10.4,430.6,5.4,437.18,0,443.43v-3.66Z"/>
    <path class="cls-2" d="M0,270.83A37.79,37.79,0,0,1,7.18,272c1.73.47,1.94,1.33.58,2.51C5.21,276.72,2.75,279,0,281v-2.85c1.51-.68,2.53-2,3.78-3,1-.78.65-1.39-.43-1.65s-2.24-.45-3.35-.67v-2Z"/>
    <path class="cls-2" d="M0,493.91a2.31,2.31,0,0,1,2.83,1.69c1,2.6,1.88,5.22,2.83,7.83a1.86,1.86,0,0,1-1.28,2.71L0,507.75v-3.66a2.15,2.15,0,0,0,2.78.32c1.08-.73.38-1.71.13-2.56-.36-1.23-.79-2.44-1.22-3.64A2.49,2.49,0,0,0,0,496.36v-2.45Z"/>
    <path class="cls-2" d="M0,214.76a88.27,88.27,0,0,1,6.05,10.46c.67,1.24.06,2.08-1.18,2.46-1.61.48-3.25.89-4.87,1.33v-2c.51-.17,1-.33,1.54-.52,2-.73,2.15-1,1.19-3A15.56,15.56,0,0,0,0,219.23v-4.47Z"/>
    <path class="cls-2" d="M0,158.27c2.19.77,3.47,2.18,3.42,3.95A4.29,4.29,0,0,1,0,166.42V164c1.59-1.4,1.59-2.08,0-3.66Z"/>
    <path class="cls-2" d="M249.58,120.6a28.08,28.08,0,1,1,28-28.1,27.94,27.94,0,0,1-28,28.1ZM237.27,89.82a1.77,1.77,0,0,0-2.13,1.53c-.36,1.86-.65,3.73-.95,5.6a2.08,2.08,0,0,0,2,2.7,66.57,66.57,0,0,1,7.77,1.5,1.64,1.64,0,0,0,2.22-1.18c.48-1.48.94-3,1.41-4.45s0-2.57-1.67-3.06c-2.4-.7-4.78-1.49-7.17-2.24-.58-.18-1.17-.31-1.47-.39Zm24.85,9.51A1.53,1.53,0,0,0,261,97.24c-3-1-6.06-1.93-9.1-2.84-1.21-.37-1.91.19-2.21,1.41-.38,1.51-.81,3-1.28,4.48a1.86,1.86,0,0,0,1.2,2.59,74.48,74.48,0,0,1,7.39,3.37,1.66,1.66,0,0,0,2.43-.69,38.48,38.48,0,0,0,2.71-6.23ZM251,84.59c.07-1.13-.28-1.71-1-2-2.76-.94-5.25-2.48-7.94-3.57a1.67,1.67,0,0,0-2.3.65,32,32,0,0,0-2.89,6,1.47,1.47,0,0,0,1,2.08q4.65,1.43,9.32,2.78a1.55,1.55,0,0,0,2.08-.76A27.22,27.22,0,0,0,251,84.59Zm13.9,3.27c.12-1.18-.28-2.08-1.55-2.17a51.3,51.3,0,0,1-8-1.46c-1-.22-1.83-.1-2.21.92a32.07,32.07,0,0,0-1.68,5.22,1.56,1.56,0,0,0,1.07,1.94,88.17,88.17,0,0,0,9.3,3,1.43,1.43,0,0,0,1.95-1.2,43.79,43.79,0,0,0,1.11-6.2Zm1.4,11.06a1.81,1.81,0,0,0-2.28,1.32,42.18,42.18,0,0,1-3,6.43,1.78,1.78,0,0,0,.79,2.72c1.63.94,2.44,3.53,5,2.54l.17-.11a22.37,22.37,0,0,0,6.41-9,1.36,1.36,0,0,0-.86-2c-2.18-.72-4.39-1.37-6.28-2ZM223.5,92.53A21.72,21.72,0,0,0,224,97.7c.23,1.17.74,2.33,2.07,2,2-.56,4.66,1,5.9-1.86a1.18,1.18,0,0,0,0-.2c.42-2.47.82-4.94,1.28-7.4a1.53,1.53,0,0,0-1.22-2c-1.94-.6-3.86-1.26-5.8-1.87-1.31-.4-2.07.12-2.33,1.47a20.92,20.92,0,0,0-.4,4.71ZM255.94,69c0-1.05-.45-1.61-1.45-1.67a4.17,4.17,0,0,0-1.41.12c-4.52,1.27-7.85,4.15-10.53,7.88a1,1,0,0,0,.4,1.7,31.79,31.79,0,0,0,7.41,3.31c.84.25,1.75.23,2.07-.72,1.22-3.52,2.35-7.08,3.52-10.62Zm-23,17.12A1.83,1.83,0,0,0,235,84.88c.5-1.19.92-2.41,1.47-3.57,2.09-4.44,2.07-4.4-1.81-7.62-1.16-1-2.06-1-3.18,0A26.24,26.24,0,0,0,225.68,82c-.39.78-.49,1.7.47,2.1a47.8,47.8,0,0,0,6.77,2.08Zm42.68,6.06a16,16,0,0,0-.55-4.81c-.28-1-.65-2.07-2-1.83-2,.38-4.41-.53-5.9,1.66a.83.83,0,0,0-.09.39,51.07,51.07,0,0,1-1.3,7.17,1.52,1.52,0,0,0,1.13,2c2,.62,4,1.23,6,1.8,1.36.38,2-.28,2.23-1.6a24.45,24.45,0,0,0,.43-4.83Zm-41.5,12.14a21.42,21.42,0,0,0,1.86,7.52,10.48,10.48,0,0,0,3.06,4c1.17.91,2,.75,2.42-.69,1-3.24,2-6.48,2.93-9.74a1.71,1.71,0,0,0-1.46-2.39,42.33,42.33,0,0,0-6.39-1.21c-2.12-.16-2.49.2-2.42,2.52ZM265,81.2a29.75,29.75,0,0,0-1.43-6.78,12.12,12.12,0,0,0-2.79-4.66c-1.49-1.5-2.4-1.33-3.05.63-1,3.08-1.93,6.19-2.91,9.28-.44,1.38,0,2.28,1.41,2.57,2.18.46,4.37.93,6.57,1.21,1.63.21,2.2-.44,2.2-2.25Zm-20,36.47c3.12,0,10.07-4.7,11.39-7.69a1.28,1.28,0,0,0-.56-1.88,38.65,38.65,0,0,0-7.18-3.25,1.42,1.42,0,0,0-2,1c-1.06,3.35-2.12,6.69-3.11,10.06-.36,1.21.26,1.78,1.49,1.73Zm2.56-50.59a1.53,1.53,0,0,0-1.63-.37,29.83,29.83,0,0,0-7.37,2.22c-3.71,1.84-3.76,2.63-.31,5.1,1.16.83,2.07.81,3-.32a46.82,46.82,0,0,1,4.35-4.56c.66-.64,1.68-.93,2-2.07Zm18.1,5.61c-.39.72.13,1.3.3,1.92A27.16,27.16,0,0,1,267,80.18c.18,3.7.3,3.79,3.93,3.4.27,0,.54,0,.8-.09,1.46-.24,1.81-1.06,1.18-2.33A24.43,24.43,0,0,0,267,73.23c-.39-.34-.79-.79-1.44-.53ZM251.5,118.31A20.39,20.39,0,0,0,262.58,115a1.19,1.19,0,0,0,.18-1.94,19.94,19.94,0,0,0-1.82-1.61c-1.19-1.06-2.24-1-3.31.25s-2.51,2.65-3.79,4c-.73.75-1.89,1.09-2.33,2.68Zm-18.33-5.61a4.13,4.13,0,0,0-.17-2.79,23.71,23.71,0,0,1-.95-5.16c-.06-1.11.25-2.49-1.12-3a6.43,6.43,0,0,0-4.54.37c-.61.24-.62.87-.39,1.4A21.69,21.69,0,0,0,233.17,112.7Z"/>
    <path class="cls-2" d="M436.4,365.41a28.08,28.08,0,1,1-28.1-28.22,28.06,28.06,0,0,1,28.1,28.22Zm-30,0a1.58,1.58,0,0,0-.59-1c-2.51-2.16-5-4.33-7.54-6.47a1.61,1.61,0,0,0-2.61.41q-1.62,2.33-3.1,4.76c-1.08,1.76-.95,2.4.77,3.49a65.47,65.47,0,0,1,6.37,4.33,2,2,0,0,0,1.29.52c1,0,5.48-5,5.41-6Zm11.41,10a1.65,1.65,0,0,0-.69-1.36l-7.37-6.38a1.27,1.27,0,0,0-2,.05c-1.25,1.41-2.5,2.84-3.67,4.34a2,2,0,0,0,.26,2.75c1.71,1.84,3.4,3.68,5.1,5.52a2.08,2.08,0,0,0,3.06.37,28,28,0,0,0,4.79-4.37,4.06,4.06,0,0,0,.5-.92Zm-12.5-26.21a3,3,0,0,0-.64.22,19.47,19.47,0,0,0-5.52,5c-.65.79-.15,1.53.53,2.1q3.66,3.06,7.3,6.14a1.49,1.49,0,0,0,2.44-.17c1.13-1.35,2.25-2.7,3.39-4a1.45,1.45,0,0,0-.21-2.29,53.45,53.45,0,0,1-5.64-6.11,1.84,1.84,0,0,0-1.64-.87Zm10.45,10.1a2.2,2.2,0,0,0-1.72.94c-.86,1-1.73,1.91-2.55,2.9-1.21,1.44-1.21,2.23.18,3.48,2.16,1.94,4.42,3.79,6.62,5.7a1.61,1.61,0,0,0,2.73-.32c1.14-1.68,2.26-3.38,3.33-5.11a1.77,1.77,0,0,0-.83-2.84,38.47,38.47,0,0,1-6.13-4,3.23,3.23,0,0,0-1.63-.78Zm.64,30.53c.21,0,.41-.07.61-.13a23.47,23.47,0,0,0,9.13-5.52c1-1,.74-1.95-.23-2.77-1.5-1.27-3-2.5-4.56-3.73a1.73,1.73,0,0,0-2.41,0c-1.93,1.7-3.79,3.48-5.7,5.2s.47,3.13.91,4.67c.32,1.07.76,2.25,2.25,2.25Zm-33.66-29.23a1.89,1.89,0,0,0,1.26,1.94c1.4.51,2.81,1,4.22,1.47a1.43,1.43,0,0,0,1.88-.78,59.8,59.8,0,0,1,4.14-6.52,1.64,1.64,0,0,0-.26-2.36c-1.63-1.44-3.28-2.84-4.95-4.22a1.43,1.43,0,0,0-2.28.37,26.12,26.12,0,0,0-4,10.11Zm36.21-17.33a23.93,23.93,0,0,0-9.53,3c-1.29.75-1.5,1.63-.55,2.8a51.77,51.77,0,0,0,4.79,5.25c1.06,1,2,1,2.91-.15,1.73-2.09,3.54-4.1,5.23-6.22.76-1,2.42-1.85,1.83-3.11-.7-1.51-2.64-1.36-4.17-1.55h-.51Zm-19.23-2.65a20.85,20.85,0,0,0-9.54,6.1c-.53.59-.25,1.29.32,1.8,1.47,1.3,2.95,2.58,4.4,3.89a2.13,2.13,0,0,0,3.23-.06,47.55,47.55,0,0,1,5.09-4.63,1.49,1.49,0,0,0,.63-2q-1.06-2.31-2.25-4.54c-.27-.52-.81-.69-1.88-.61ZM433.87,370c0-.72,0-1.34-.54-1.62a11.62,11.62,0,0,0-5.75-1.72c-.65,0-1,.59-1.37,1.11-1.25,1.94-2.49,3.88-3.76,5.8a1.72,1.72,0,0,0,.3,2.53c1.54,1.33,3.11,2.62,4.68,3.91a1.48,1.48,0,0,0,2.33-.12,21.74,21.74,0,0,0,4.11-9.89Zm-45.52,6.67a11.15,11.15,0,0,0,1.2,5.9c.59,1,1.41,1.59,2.39.45q3.38-3.92,6.68-7.9a1.64,1.64,0,0,0-.31-2.63,45.86,45.86,0,0,0-5.85-4c-1.44-.82-2.19-.4-2.78,1.06a20.77,20.77,0,0,0-1.33,7.14Zm39.92-22.94a11.19,11.19,0,0,0-1.1-5.78c-.52-1.08-1.27-1.44-2.18-.41q-3.44,3.9-6.8,7.85a1.78,1.78,0,0,0,.33,2.95,54.65,54.65,0,0,0,5.58,3.72c1.55.81,2.21.62,2.8-1a18.39,18.39,0,0,0,1.36-7.3Zm-31.15,33.11a20.64,20.64,0,0,0,9.85-2.48c1.68-.79,1.85-1.62.68-3-1.43-1.63-2.9-3.21-4.44-4.73-1.37-1.35-2.06-1.28-3.35.19-1.56,1.78-3.16,3.53-4.6,5.4-.81,1.06-2.59,2-1.88,3.51s2.64.92,3.74,1.07Zm33.77-33.62a1.43,1.43,0,0,0-.56,1.38,22.47,22.47,0,0,1-1.19,6.54c-1,3.16-.79,3.42,2.43,4.31,2.36.65,2.92.21,2.77-2.3a23.14,23.14,0,0,0-2.09-8.2c-.29-.64-.46-1.43-1.36-1.73ZM416.73,341a18.84,18.84,0,0,0-9.09-1.76c-1.3.06-3.11-.32-3.64,1.09s.75,2.76,1.56,4a1.27,1.27,0,0,0,1.76.54c2.93-1.74,6.21-2.57,9.41-3.87Zm-16.18,48.38c1.92,1.77,9.54,2.65,11.36,1.43a1.35,1.35,0,0,0,.55-1.59c-.66-3.18-2.13-4-5.08-2.77a18,18,0,0,0-2.08.82c-1.49.85-3.36.91-4.75,2.11Zm-15.31-12.16c.88-.47,1-.85,1-1.26a24.07,24.07,0,0,1,1.61-7.5c.3-.88.48-1.85-.58-2.28-1.4-.56-2.75-1.55-4.39-1.07-.4.11-.54.61-.55,1C382.25,370.07,383.48,373.63,385.24,377.22Z"/>
    <path class="cls-2" d="M71.16,179.82a27.9,27.9,0,0,1,27.89,28A28.2,28.2,0,0,1,70.89,236c-14.68.09-28.18-12.67-28.06-28.4.13-15.48,13.43-28.25,28.33-27.78Zm4.72,36a2.14,2.14,0,0,0-.25-.65c-1.29-1.65-2.56-3.32-3.92-4.91a1.33,1.33,0,0,0-2,0L62,216.5c-.94.76-.86,1.51-.17,2.44a23,23,0,0,0,4.33,4.26c1.56,1.23,2.39,1.17,3.59-.39a31.22,31.22,0,0,1,5.21-5.38,2,2,0,0,0,.95-1.6ZM69,207.52a1.93,1.93,0,0,0-.56-1.48c-1-1.2-2-2.37-3-3.56a1.83,1.83,0,0,0-2.84-.26,54.27,54.27,0,0,1-6.69,4.24,1.77,1.77,0,0,0-.89,2.67,42.61,42.61,0,0,0,3.32,5.35,1.61,1.61,0,0,0,2.61.31Q64.46,211.93,68,209A2.39,2.39,0,0,0,69,207.52Zm18.41.26a2.39,2.39,0,0,0-.11-.53A29.25,29.25,0,0,0,83.53,201a1.42,1.42,0,0,0-2.17-.13,92,92,0,0,0-7.38,6,1.59,1.59,0,0,0-.31,2.34q1.76,2.24,3.61,4.37a1.44,1.44,0,0,0,2.17.16,47.26,47.26,0,0,1,7-4.47,1.57,1.57,0,0,0,.95-1.5Zm-13-15.94a1.6,1.6,0,0,0-1.33.52c-2,2.09-4,4.18-6,6.27a1.65,1.65,0,0,0-.16,2.37c1.08,1.39,2.18,2.76,3.28,4.12a1.44,1.44,0,0,0,2.29.2L80,199.18c.55-.45,1.1-1,.55-1.7A28.39,28.39,0,0,0,74.91,192a1.33,1.33,0,0,0-.52-.15Zm-12,40.7c2.21-.57,2.29-2.93,3.47-4.36a2,2,0,0,0-.13-2.78l-.14-.15c-1.78-1.66-3.58-3.31-5.34-5a1.81,1.81,0,0,0-2.71-.16c-1.47,1.2-2.9,2.45-4.4,3.62-1.27,1-1.27,2-.1,3a27.31,27.31,0,0,0,7.12,5c.68.28,1.4.49,2.23.77Zm34.36-28.7a25.75,25.75,0,0,0-4-10.41,1.19,1.19,0,0,0-1.93-.21c-1.62,1.23-3.25,2.44-4.83,3.7a2.12,2.12,0,0,0-.51,3.07c.64,1,1.44,2,2,3.06,2.7,5.33,2.2,4.44,7.57,2.94.26-.07.52-.14.78-.23.73-.27,1-.82,1-1.92ZM89.8,190.45a2.72,2.72,0,0,0-1-1.52,22.75,22.75,0,0,0-7.9-5.17c-1.07-.46-2.3-.82-2.75.54-.66,2-3.24,3.35-1.91,5.93a2.57,2.57,0,0,0,.57.57c1.59,1.56,3.21,3.09,4.78,4.67a1.69,1.69,0,0,0,2.5.28c1.7-1.35,3.36-2.72,5-4.09A1.44,1.44,0,0,0,89.8,190.45Zm-44.43,21.9A23.67,23.67,0,0,0,49.06,222c.7,1.13,1.78.87,2.65.18,1.65-1.29,3.23-2.67,4.84-4a1.42,1.42,0,0,0,.17-2.15A57.44,57.44,0,0,1,53.05,210a2,2,0,0,0-2.77-1c-1.69.73-4.09.23-4.86,2.65a4.53,4.53,0,0,0-.05.73Zm35.4,17.52a11.73,11.73,0,0,0,4.14-.46c1.16-.39,1.58-1.06.73-2.12-2.18-2.69-4.38-5.36-6.56-8a1.75,1.75,0,0,0-2.8-.3,32.31,32.31,0,0,0-5.35,5.55,1.29,1.29,0,0,0,.42,2.19c3.08,1.79,6.3,3.17,9.42,3.18ZM51.43,196.19a19.23,19.23,0,0,0,1.06,7c.59,1.76,1.29,2.08,2.86,1.24a39.24,39.24,0,0,0,5.92-3.89,1.61,1.61,0,0,0,.34-2.6c-2.12-2.63-4.18-5.31-6.35-7.89-1.19-1.42-2.08-1.24-2.89.42A11.66,11.66,0,0,0,51.43,196.19ZM60.69,186h-2a3.61,3.61,0,0,0-.8.13c-1.7.43-2,1.19-.95,2.57,2.12,2.72,4.32,5.38,6.48,8.07a1.42,1.42,0,0,0,2.28.27,35,35,0,0,0,5.4-5.75,1.33,1.33,0,0,0-.45-2.2C67.53,187.34,64.34,185.92,60.69,186Zm29.84,33.65a19.57,19.57,0,0,0-1.09-7c-.47-1.38-1.22-1.91-2.58-1.07-2,1.25-4,2.48-6,3.73a1.41,1.41,0,0,0-.39,2.37c2.21,2.74,4.42,5.48,6.66,8.18.9,1.09,1.7.86,2.36-.33a10.78,10.78,0,0,0,1.09-5.85Zm2.92,1.06c2-2.62,2.6-5.59,3.24-8.55.26-1.22.87-2.7-.23-3.67s-2.43.06-3.63.38c-1.57.41-2,1.44-1.49,2.95a25.43,25.43,0,0,1,1.32,7,2.16,2.16,0,0,0,.79,1.92ZM63.71,183.24c.37.9,1.12.94,1.72,1.19a50.06,50.06,0,0,1,4.64,2c3.43,1.88,3.76,1.75,5.49-1.74,0-.07.07-.12.1-.18.67-1.47.38-2.2-1.22-2.46a22.38,22.38,0,0,0-7.87.09c-1,.19-2,.18-2.86,1.07Zm14.76,49c-.27-.77-1-.75-1.64-.94A29.06,29.06,0,0,1,71,228.91c-2.35-1.35-2.82-1.18-4.06,1.23-.19.36-.37.72-.54,1.09-.73,1.68-.52,2.2,1.3,2.49a22.14,22.14,0,0,0,9.64-.63C77.81,233,78.32,232.86,78.47,232.27ZM48.81,195.75c-1.27.36-1.44,1.16-1.75,1.81a19.39,19.39,0,0,0-1.72,6.24c-.14,1.27-1.11,2.89.41,3.73s2.86-.36,4.24-.84a1.18,1.18,0,0,0,.76-1.5,73.69,73.69,0,0,1-1.94-9.44Z"/>
    <path class="cls-2" d="M108.13,125.37a3.29,3.29,0,0,1-3-1.55c-3.67-5-7-10.35-10.59-15.42-4.1-5.72-8-11.63-11.9-17.46-1.82-2.69-1.64-3.93,1-5.74q19.93-13.71,39.9-27.38c3.12-2.15,6.24-4.31,9.39-6.43,2.49-1.67,3.73-1.45,5.43,1q11.15,16.14,22.22,32.33c1.93,2.81,1.71,4-1,5.88-9.72,6.67-19.47,13.3-29.18,20q-9.64,6.62-19.23,13.3a6.44,6.44,0,0,1-3,1.46ZM87.26,90c-.61.15-1.44-.31-1.82.49-.3.63.25,1.14.58,1.64,1.61,2.43,3.2,4.88,4.85,7.28,4.57,6.65,9.24,13.23,13.72,19.93,3,4.53,2.91,4.6,7.33,1.57l45.8-31.39c2-1.37,2.13-2.08.74-4.18-2.06-3.11-4.15-6.19-6.26-9.27Q145.3,66,138.37,56c-.36-.52-.68-1.34-1.52-1.12-.68.17-.69.94-.84,1.51q-3.36,13-6.71,26c-.59,2.29-.21,2.73,2.2,2.84,3.45.15,6.91.27,10.35.57,1.07.09,3.06-.2,2.91,1.32s-2,.82-3.13.77c-3.66-.18-7.31-.41-11-.65a2.84,2.84,0,0,0-3.3,2.26,6.28,6.28,0,0,1-6.54,4.44c-1.59-.1-2.63.24-3.13,1.84-.17.56-.41,1.29-1.18,1.18s-.81-.87-.72-1.46c.26-1.64-.64-2.21-2-2.37-2.42-.28-4.85-.54-7.27-.83L87.27,90Zm32.28,1.71c4.21,0,5.4-.81,6.26-4.07q3.75-14.25,7.43-28.54c.32-1.24.59-2.5.86-3.76.1-.47.21-1-.21-1.33s-1-.15-1.49.13-.66.47-1,.71c-4.46,3.07-8.92,6.16-13.4,9.22Q105.65,72.5,93.28,80.9c-2.35,1.6-4.66,3.26-7,4.91-.44.31-1,.64-.73,1.31.18.51.67.64,1.14.74s.93.14,1.41.19c4.51.52,9,1,13.54,1.54,6.26.73,12.51,1.49,17.88,2.12Z"/>
    <path class="cls-2" d="M268.68,480a35.72,35.72,0,0,1,1.91-10.53c.74-2.47.21-3.11-2.25-2.44a80.37,80.37,0,0,0-20,8.31c-3.46,2.06-5.64,1.65-7.9-1.72a27,27,0,0,1-3.87-9.76,44.68,44.68,0,0,1-.26-19.36,19.33,19.33,0,0,1,1.93-5.33c1.66-2.9,3.77-3.77,6.83-2.45a79.62,79.62,0,0,0,22.8,5.67c2.83.32,5.67.56,8.51.61a5.85,5.85,0,0,1,5.57,3.4c2.44,5,3,10.15.59,15.3A46.7,46.7,0,0,0,278.82,477a47.8,47.8,0,0,0,0,9.11c.25,2.89-.79,3.65-3.65,3.1a7.57,7.57,0,0,1-6.33-6.77c-.12-.94-.1-1.9-.13-2.47Zm-17.44-9.08c.75.26,1.31-.22,1.91-.49a67.11,67.11,0,0,1,9.4-3.83,4.18,4.18,0,0,0,3.29-3.67,32.52,32.52,0,0,0-1.46-17,3,3,0,0,0-2.25-2.13c-3.8-.7-7.52-1.76-11.25-2.75-1.79-.48-2.29.11-1.63,1.9,3.16,8.5,3.45,17.2,1.91,26-.11.64-.45,1.31.08,1.94Zm-13.92-18.06c.44,4.59.59,9.21,2,13.66a18.59,18.59,0,0,0,3.3,6.7c1.61,1.9,3.27,1.74,4.62-.32a18.16,18.16,0,0,0,2.43-7.27c.28-1.72-.19-2.58-2-3.09-3.7-1.06-5.25-3.5-5-7.32.17-2.85,1.84-4.59,4.3-5.64a2,2,0,0,0,1.35-2.89,27.91,27.91,0,0,0-2.62-6.16c-.74-1.15-1.55-2.32-3.13-2.27s-2.36,1.41-3,2.71c-1.79,3.76-1.93,7.85-2.27,11.89Zm33.38,27.46c0,.49.1,1.36.19,2.24a5.23,5.23,0,0,0,3.53,4.35c1.48.63,2.22.13,2.19-1.46,0-.95-.15-1.9-.15-2.84a57.13,57.13,0,0,1,1.85-15.29c.22-.82.68-1.79-.63-2.17a3.79,3.79,0,0,0-4.07,1.95,40.4,40.4,0,0,0-2.91,13.23ZM274,456.17a25.44,25.44,0,0,0-1-7.12,9.39,9.39,0,0,0-1.29-3.18,3.69,3.69,0,0,0-4.05-1c-1.42.71-.68,1.87-.47,2.86.4,1.85.78,3.7,1.08,5.58a33.09,33.09,0,0,1-.18,9.11c-.12,1-.15,1.95,1.22,2.09a3.54,3.54,0,0,0,3.87-2.58,18.28,18.28,0,0,0,.77-5.73Zm7.73-1.59a12.61,12.61,0,0,0-1.61-7.26,3.9,3.9,0,0,0-3.6-2.21c-1.61,0-2.26.62-1.8,2.1a29.81,29.81,0,0,1,.87,14.25c-.19,1.12.47,1.46,1.45,1.37a4.16,4.16,0,0,0,3.93-2.69,13.46,13.46,0,0,0,.77-5.56ZM250,457.13h.09c-.18-1.41-.29-2.84-.56-4.23s-1.18-1.86-2.52-1.13c-2.53,1.39-3.11,5.63-1,7.59.85.78,1.92,1.54,3.11,1.1s.74-1.74.85-2.71c0-.2,0-.41,0-.61Z"/>
    <path class="cls-2" d="M177.27,138.53c-1.83,0-3.66-.07-5.48,0s-2.2.81-1.16,2.32a66.87,66.87,0,0,1,3.77,6,23.71,23.71,0,0,1,2.39,6.46,7.66,7.66,0,0,1-5.83,9.1c-1.74.43-2.17-.6-2.42-1.91a52.39,52.39,0,0,0-5.08-13.89,48.26,48.26,0,0,0-6.39-9.12,17.13,17.13,0,0,1-4-14,6.51,6.51,0,0,1,4.71-5.53,85.44,85.44,0,0,0,27.65-15.59c2.34-2,5-1.74,7.24.48a26.1,26.1,0,0,1,5.82,9.45,46.62,46.62,0,0,1,3.42,19.08,14.79,14.79,0,0,1-1.46,6.28c-1.33,2.53-3.1,3.27-5.83,2.7-5.72-1.19-11.46-2.16-17.34-1.87Zm-7.53-18.88a30,30,0,0,0,4,14.55,3.81,3.81,0,0,0,3.74,2.28,65,65,0,0,1,10.34.63c.66.09,1.42.27,1.86-.42s-.1-1.29-.43-1.86a48,48,0,0,1-5.36-15.06,46.28,46.28,0,0,1-.69-9.1c0-.91.34-2.07-.66-2.6s-1.6.48-2.29,1a44,44,0,0,1-7.14,4.28c-2.65,1.13-3.73,3-3.35,5.74a4.14,4.14,0,0,1,0,.61Zm30.16,9.94a49.89,49.89,0,0,0-5.66-21.44,14.76,14.76,0,0,0-3.53-4.17c-1.83-1.49-3.65-1-4.47,1.26a20.22,20.22,0,0,0-1,7.41c0,1.74.71,2.6,2.5,2.74a6.22,6.22,0,0,1,5.06,3,7.1,7.1,0,0,1-2.14,9.69c-.73.49-1.77.9-1.35,2,1.14,2.92,2.49,5.78,5.06,7.72,1.92,1.44,3.6.86,4.55-1.36a17.21,17.21,0,0,0,1-6.79Zm-25.05,25.29c0-.43-.09-.91-.18-1.37-1.12-5.35-4.2-9.61-7.6-13.7,0-.05-.1-.09-.15-.14-1-.75-3.49-.76-4.18.09-.91,1.12.25,1.85.69,2.66A84.56,84.56,0,0,1,167.3,150c1.13,2.69,2,5.47,2.84,8.25.56,1.85,1.73,2.1,3.13.73a6,6,0,0,0,1.59-4.11ZM162.44,123c.11,1,.22,2.6.51,4.2a20.39,20.39,0,0,0,3.53,8.36,3.6,3.6,0,0,0,4.4.71c1.47-.95.47-2,0-3a31.47,31.47,0,0,1-2.44-6.88,35.94,35.94,0,0,1-.74-7.67c0-1.82-.63-2.16-2.31-1.53-2.34.87-3,2-2.93,5.81Zm-7.37,3a16,16,0,0,0,2.75,9.4,4.27,4.27,0,0,0,4.74,2c1.64-.31,1.93-.71,1.14-2.16a27.44,27.44,0,0,1-3.33-13.06c0-2.13-.9-2.57-2.89-1.69-2.54,1.12-2.35,3.37-2.41,5.55Zm36.65-3.87a4.41,4.41,0,0,0-3.54-4.53c-1.63-.37-2.39.2-2.16,1.83a38.38,38.38,0,0,0,1,4.73c.25.93.34,2.21,1.61,2.3,1.42.09,2.09-1,2.62-2.17a5.15,5.15,0,0,0,.43-2.16Z"/>
    <path class="cls-2" d="M266.18,342.89a112.28,112.28,0,0,1-26-4.63c-1.6-.47-2.09-1.44-1.87-3.05,1.28-9.75,2.59-19.49,2.31-29.36-.06-2.25.46-2.66,2.75-3.35,6.06-1.85,11.81-4.29,16.8-8.38a27.13,27.13,0,0,0,10.11-19.45,15.51,15.51,0,0,1,.77-4.18,5.2,5.2,0,0,1,7.44-3.05c5.72,2.6,8.78,9.41,7.33,16.09-1,4.46-3.66,7.81-6.7,10.94a36.89,36.89,0,0,1-6.6,5.4c-1.15.73-2.43,1.51-1.86,3.2s1.92,2,3.44,2a26.27,26.27,0,0,1,5.46.46c5,1,7.52,4.95,6.09,9.81a8.78,8.78,0,0,0-.16,5.15,5.28,5.28,0,0,1-1.63,5.74,3,3,0,0,0-1.14,2.86,5.77,5.77,0,0,1-1.84,5A6.28,6.28,0,0,0,279,337.3c-.49,2.3-2.18,3.53-4.26,4.24a40.62,40.62,0,0,1-3.94,1,22,22,0,0,1-4.66.34Zm.13-2a45,45,0,0,0,7.62-1.18c1.67-.51,3-1.48,3.05-3.36a3.78,3.78,0,0,1,1.82-3.18,4.17,4.17,0,0,0,1.73-4.65,2.67,2.67,0,0,1,1.32-3.23c1.76-1.22,2.36-2.87,1.54-4.6a6,6,0,0,1,.09-5.06c1.76-4.63-.54-8-5.51-8.15a41.38,41.38,0,0,1-4.46-.26c-2.72-.4-4.63-2-5-4.13-.4-2.42,1.25-3.82,3-4.89a37.69,37.69,0,0,0,8.47-7.55c3.78-4.39,5.34-9.42,3.33-15.11a9.49,9.49,0,0,0-6-6.25c-2.38-.79-4,.2-4.51,2.65-.24,1.2-.35,2.42-.47,3.63A28.8,28.8,0,0,1,263,294.37c-5.06,4.66-11.07,7.52-17.52,9.58a3.19,3.19,0,0,0-2.53,2.95c-.5,3.52-.08,7.05-.5,10.56-.65,5.45-1.14,10.92-1.73,16.38a2.34,2.34,0,0,0,1.82,2.91,110.07,110.07,0,0,0,23.8,4.11Z"/>
    <path class="cls-2" d="M343.44,340c-.41-.11-1-.25-1.58-.42q-22.55-7-45.06-14c-2.57-.8-2.91-1.36-2.09-4q8.34-26.7,16.7-53.39c.86-2.72,1-2.82,3.76-2q20.31,6.27,40.6,12.62c1.68.52,3.38,1,5.06,1.54,2.09.67,2.37,1.19,1.71,3.3-2.11,6.72-4.27,13.43-6.37,20.17q-5.28,17-10.52,34c-.32,1-.54,2.18-2.21,2.15Zm16.64-55.88a1.85,1.85,0,0,0-1.43-2.25c-1.29-.4-2.61-.73-3.9-1.14L315.94,268.6c-2.05-.65-2.49-.38-3.11,1.62q-3,9.82-6.06,19.63c-3.16,10.16-6.36,20.31-9.53,30.47-.74,2.36-.41,3.09,1.66,3.74q20.88,6.49,41.75,13c2.47.76,2.94.51,3.71-1.91,1.83-5.81,3.53-11.67,5.46-17.46,3.5-10.48,6.51-21.1,9.79-31.65.22-.71.37-1.44.47-1.84Z"/>
    <path class="cls-2" d="M158,276c-.09,1-.85,1.48-1.64,1.91q-9.92,5.38-19.83,10.79-10.89,5.93-21.78,11.88c-2.68,1.47-3.15,1.38-4.58-1.26Q99.69,280,89.24,260.66c-1.88-3.46-3.82-6.88-5.64-10.36-1.26-2.41-1.11-2.9,1.24-4.18q16.77-9.17,33.58-18.26c2.8-1.52,5.59-3.07,8.4-4.57,1.94-1,2.42-.91,3.42.92q8.64,15.9,17.25,31.81,4.74,8.76,9.5,17.51a6.13,6.13,0,0,1,1,2.42Zm-44.66,22.73a13.44,13.44,0,0,0,3-1.38q18.06-9.81,36.11-19.63c3.45-1.87,3.46-1.81,1.56-5.34q-7-13-14-26c-3.43-6.31-6.86-12.63-10.34-18.91-1.32-2.38-1.87-2.45-4.18-1.2q-18.78,10.19-37.57,20.34c-3,1.62-3.08,2-1.43,5q8.31,15.17,16.54,30.36c2.76,5.07,5.49,10.14,8.23,15.21.42.78.82,1.6,2.07,1.54Z"/>
    <path class="cls-2" d="M345.58,59.43a34.24,34.24,0,0,1-.58,6.73c-.13,1-.26,2.11.79,2.74a2.64,2.64,0,0,0,3.21-.44c1-.85,2-1.86,2.94-2.8,4.26-4,8.81-3.52,11.89,1.42a6.53,6.53,0,0,0,2.92,2.7,5,5,0,0,1,3.14,5,2.85,2.85,0,0,0,1.1,2.46,6.2,6.2,0,0,1,2.3,4.8,3.64,3.64,0,0,0,.56,2.14c2.25,3,1.29,5.89-.54,8.66a43.93,43.93,0,0,1-9.26,9.65,107.58,107.58,0,0,1-12.65,8.87c-2.13,1.27-2.86,1.2-4.36-.65-4.43-5.5-9.25-10.64-14-15.83-.91-1-2-1.85-2.95-2.8-2.66-2.58-2.71-2.62-1.13-5.91A45.81,45.81,0,0,0,333,72.63a25,25,0,0,0-5-19c-.77-1-1.63-2-2.47-3-1.47-1.71-2.71-3.59-1.79-5.89,1-2.49,3.17-3.66,5.76-3.91a13.84,13.84,0,0,1,14.83,10.16,23.69,23.69,0,0,1,1.2,8.37Zm-2,.34a25.62,25.62,0,0,0-1.34-8.64A11.83,11.83,0,0,0,332.68,43a8.24,8.24,0,0,0-5.2.44c-2.19,1.06-2.67,2.85-1.28,4.83a29.3,29.3,0,0,0,2.19,2.67,26.56,26.56,0,0,1,6.66,22.61,46.21,46.21,0,0,1-4.16,13.36,3,3,0,0,0,.89,4.07c1.7,1.44,3.12,3.19,4.72,4.75,4.12,4,7.67,8.59,11.48,12.91,1,1.11,1.83,1.37,3.14.55a106.09,106.09,0,0,0,12.42-8.82,42.27,42.27,0,0,0,8.12-8.77c1.76-2.65,1.78-4-.08-6.56a3.25,3.25,0,0,1-.39-2.33,4,4,0,0,0-1.85-4,3.13,3.13,0,0,1-1.58-3.42,2.89,2.89,0,0,0-1.8-3.33c-2.1-.69-3-2.22-4-4-1.79-3.24-5-3.77-7.89-1.45a24.31,24.31,0,0,0-2.17,2.14,9.42,9.42,0,0,1-2.35,1.92c-1.64.88-3.35,1.21-5,.15s-1.86-2.7-1.62-4.49a39.31,39.31,0,0,0,.7-6.44Z"/>
    <path class="cls-2" d="M346.05,367.15a15.31,15.31,0,0,1,7.7,2.8q17.91,11.26,35.8,22.53c5.06,3.19,6.42,9.11,3.23,14.6-2.24,3.87-4.67,7.63-7,11.42-2,3.16-4,6.27-6,9.44a10.47,10.47,0,0,1-15,3.29c-3.06-2-6.24-3.83-9.33-5.79a4.24,4.24,0,0,0-3.31-.49c-2.39.51-4.77,1.07-7.18,1.46s-3.7-.48-4.3-2.89c-.54-2.18-1.05-4.36-1.48-6.55a4.49,4.49,0,0,0-2.22-3.22c-2.62-1.56-5.13-3.31-7.78-4.82-6.93-3.95-8.54-10.06-4.3-16.79,3.26-5.16,6.55-10.3,9.82-15.44,1.21-1.89,2.32-3.82,3.66-5.63,2-2.69,4.81-3.58,7.77-3.92Zm.51,2.32c-3.55,0-5.61,1-7.32,3.71-4.47,7.05-8.94,14.09-13.27,21.21-2.87,4.71-1.68,9.11,3,12.05,3,1.91,6.08,3.83,9.17,5.66a5.44,5.44,0,0,1,2.86,3.95c.33,2,.83,4,1.32,5.95.56,2.27,1.15,2.66,3.49,2.23a47.5,47.5,0,0,0,5.55-1.28,6,6,0,0,1,5.38.87c3,2,6.07,3.84,9.12,5.75a9.18,9.18,0,0,0,3.78,1.38c4,.5,6.66-1.38,8.7-4.69,3.84-6.24,7.69-12.47,11.79-18.53,3.82-5.65,3-10.75-2.86-14.34-2-1.25-4.05-2.47-6.06-3.73q-14.42-9-28.81-18c-1.9-1.19-3.74-2.53-5.87-2.2Z"/>
    <path class="cls-2" d="M274.71,186.22a6.41,6.41,0,0,1-3,5c-7.24,4.68-14.48,9.33-21.78,13.91-3.66,2.3-7.13,1.36-9.41-2.23q-8.55-13.47-17.2-26.9c-3.77-5.89-7.47-11.81-11.4-17.59-2.34-3.45-1.69-7.24,1.76-9.62,4.19-2.88,8.53-5.54,12.82-8.28,3-1.93,6.05-3.87,9.13-5.72,3.35-2,6.45-1.43,8.71,1.79,2.42,3.44,4.61,7,6.88,10.57q7.25,11.31,14.47,22.62c2.63,4.12,5.23,8.25,7.85,12.38a7.22,7.22,0,0,1,1.22,4Zm-2-.15a6,6,0,0,0-1-3c-3-4.7-5.94-9.41-8.94-14.09-6.49-10.09-13-20.17-19.5-30.27-2.07-3.24-4.16-3.75-7.48-1.67-3.56,2.24-7.14,4.45-10.67,6.73s-7.05,4.58-10.5,7c-2.06,1.44-2.42,3-1.49,5.33a10.12,10.12,0,0,0,1.25,2.31c3.7,5.12,6.82,10.61,10.28,15.89,5.95,9.07,11.68,18.28,17.56,27.4,1.93,3,4.06,3.4,7.07,1.51,2.52-1.58,5-3.19,7.55-4.8q6.68-4.28,13.35-8.58c1.42-.92,2.51-2.08,2.54-3.75Z"/>
    <path class="cls-2" d="M169.85,359.62c2.51-.07,4.21,1.3,5.57,3.19,2.29,3.2,4.59,6.39,6.79,9.65q9.48,14.07,19.26,27.94c1.64,2.33,3.25,4.68,4.7,7.13a6,6,0,0,1-1.89,8.4c-6.82,4.78-13.69,9.5-20.55,14.24-2.29,1.58-4.7,2.42-7.43,1a6.3,6.3,0,0,1-2.44-2.08c-2.6-3.8-5.23-7.59-7.85-11.37-5.06-7.3-10.15-14.57-15.19-21.87-2.54-3.68-5.06-7.38-7.52-11.11s-1.89-6.77,1.71-9.32c7-4.94,14-9.78,21-14.65a6.63,6.63,0,0,1,3.83-1.17Zm35.2,51c0-1.74-1-3-2-4.36Q195.5,395.44,188,384.58c-4.63-6.69-9.17-13.43-13.85-20.08-2.43-3.46-4.44-3.68-7.88-1.31s-7.2,4.81-10.77,7.27c-3.23,2.24-6.45,4.49-9.6,6.84-2.18,1.62-2.52,3.48-1.27,5.9a20.32,20.32,0,0,0,1.34,2c2.74,4,5.49,7.9,8.23,11.86,6.93,10,13.83,20.08,20.81,30.09,2.25,3.24,4.2,3.5,7.58,1.33,3.08-2,5.93-4.28,9-6.26,3.81-2.45,7.46-5.16,11.18-7.76a4.66,4.66,0,0,0,2.27-3.87Z"/>
    <path class="cls-2" d="M445.76,329.47c0,2.65,0,5.29,0,7.93,0,.79.14,1.79-.78,2.15s-1.44-.54-1.94-1.13q-9.64-11.42-19.26-22.85c-2.31-2.75-4.64-5.48-6.92-8.26-.57-.69-1.66-1.44-1-2.42s1.87-.28,2.78,0c2,.63,4,1.36,6,2,.62.21,1.32.62,1.92.06s.25-1.41,0-2.08c-1.78-4.76-3.58-9.52-5.36-14.28-.81-2.16-1.54-4.34-2.36-6.5-.54-1.43-.15-2.35,1.28-2.86,1.79-.64,3.56-1.33,5.35-1.95s2.48-.47,3.29,1.48c1.08,2.63,2,5.31,3,8q2.36,6.27,4.73,12.56c.23.61.32,1.45,1.12,1.55s1.05-.73,1.38-1.29c1.2-2,2.36-4.11,3.58-6.15.36-.61.65-1.52,1.61-1.22.78.24.74,1.07.77,1.74.15,3.31.45,6.63.4,9.94-.14,7.87.48,15.71.45,23.57Zm-3-28.69-.61-.12c-1.1,1.18-1.53,2.81-2.54,4-.73.89-.92,2.62-2.44,2.37s-1.41-1.85-1.82-2.95c-2.63-6.9-5.18-13.83-7.82-20.72-.79-2.05-1.5-2.2-4.08-1.26-2.24.82-2.61,1.36-1.91,3.42.85,2.5,1.85,4.95,2.79,7.42,1.79,4.75,3.61,9.49,5.35,14.27.35.95,1.2,2.13.22,3s-2.06,0-3.07-.28c-1.3-.4-2.56-.89-3.85-1.31-.5-.16-1.11-.43-1.48.14s.11,1,.46,1.42q9.58,11.44,19.2,22.88c.53.62,1,1.78,2,1.4s.58-1.56.59-2.39c0-8.4-.59-16.79-.45-25.19a56.09,56.09,0,0,0-.55-6.17Z"/>
    <path class="cls-2" d="M142.69,508.44l-19.5-2.5q-10.39-1.33-20.77-2.71c-1.11-.15-2.64.06-3-1.22-.41-1.45,1.21-1.77,2.11-2.33q17.16-10.55,34.36-21a3.87,3.87,0,0,1,.34-.21c.65-.34,1.34-.9,2-.22s.19,1.29-.11,1.89c-.68,1.32-1.4,2.63-2.11,3.94-.42.78-.86,1.54-1.28,2.32s-.88,1.33-.35,2.06,1.35.5,2.07.35c6-1.25,12.08-2.53,18.11-3.79,1.26-.26,2.53-.48,3.8-.69a1.83,1.83,0,0,1,2.34,1.42c.53,2.17,1,4.36,1.44,6.56.33,1.69-.94,2-2.19,2.3l-13.93,3q-3.87.84-7.74,1.73c-.58.13-1.3.19-1.4,1-.08.62.49.93.9,1.27,1.95,1.57,3.92,3.14,5.86,4.72.46.38,1.07.78.82,1.5s-1.06.71-1.8.72Zm-4.48-2.71c.1-1.12-.22-1.4-.53-1.65-1.41-1.17-2.87-2.27-4.25-3.48-1.22-1.08-1-2,.52-2.51a10.44,10.44,0,0,1,1.58-.4l20.7-4.32c3.83-.8,3.88-.89,3.11-4.69-.45-2.2-.73-2.43-2.84-2-3.71.77-7.42,1.6-11.13,2.38-4.25.89-8.49,1.79-12.76,2.58-1.94.36-2.43-.31-1.65-2.11.61-1.43,1.37-2.8,2-4.21a2.45,2.45,0,0,0,.32-2.58c-9.93,5.65-19.38,11.84-29,18.08,11.28,2.14,22.55,3.45,33.88,4.9Z"/>
    <path class="cls-2" d="M201.44,358.43l12.47,1.87c3,.44,5.9.91,8.85,1.32.76.11,1.72.57,2.25-.3s-.3-1.52-.69-2.19c-1-1.82-2.16-3.61-3.22-5.42-.37-.63-1-1.37-.4-2,.68-.83,1.52-.22,2.21.15q11.22,5.94,22.44,11.92,6.9,3.67,13.8,7.38c.74.4,1.89.65,1.77,1.71s-1.39,1.14-2.27,1.31Q243.58,377,228.5,379.9l-9.18,1.79c-.6.11-1.21.22-1.81.28s-1.12,0-1.39-.59a1.24,1.24,0,0,1,.45-1.46c1.26-1.13,2.55-2.22,3.82-3.34.72-.62,1.44-1.24,2.1-1.91.45-.45,1.22-.85.91-1.66s-1.08-.75-1.74-.85L203,369.31c-1.21-.18-2.42-.35-3.61-.58a2,2,0,0,1-1.77-2.51c.28-1.94.54-3.89.9-5.82.32-1.65.86-2,2.94-2Zm54.18,14.2a1.85,1.85,0,0,0-1-1.6c-1.72-1-3.43-1.93-5.16-2.85q-11.12-5.93-22.26-11.81c-.51-.27-1.12-.8-1.65-.19s0,1.18.27,1.69c.77,1.27,1.63,2.49,2.38,3.77.4.67,1.08,1.41.43,2.22s-1.5.49-2.29.37c-2.75-.39-5.5-.82-8.24-1.22-4.76-.71-9.52-1.42-14.28-2.09-1.06-.14-2.35-.51-3,.52a5.65,5.65,0,0,0-.69,4.31c.29,1.33,1.6,1.3,2.65,1.46,6.09.91,12.2,1.79,18.29,2.7,1.61.24,3.22.5,4.82.8.78.15,1.73.18,2,1.12s-.54,1.31-1.07,1.8c-1.15,1.05-2.36,2-3.49,3.11-.55.52-1.33.95-1.22,2.31l33.58-6.42Z"/>
    <path class="cls-2" d="M304.48,372.3a8.9,8.9,0,0,1,5.27,1.4c1.75,1.12,2.11,1,3.18-.76s2.13-3.62,3.14-5.47.8-2.48-1.15-3.23c-4.49-1.74-9-3.42-13.5-5.12-2-.74-4-1.41-5.91-2.19-1.54-.61-2.55-.16-3.37,1.26q-3.3,5.71-6.74,11.36c-2.48,4.08-7,4.95-10.82,2.15a4.3,4.3,0,0,1,0-7.22,7.53,7.53,0,0,1,8.41,0c2.27,1.46,2.38,1.46,3.74-.81,3.31-5.52,6.58-11.07,9.89-16.59,1.8-3,3-3.43,6.2-2.22q10,3.8,19.94,7.61c2.81,1.08,3.26,2.37,1.69,5-4.36,7.33-8.73,14.67-13.18,22-2.39,3.91-9,3.89-11.48.05-1.72-2.64-.19-6,3.18-6.94a10.07,10.07,0,0,1,1.54-.22Zm12.78-9.56a2.09,2.09,0,0,0,2.18-1c1.06-1.72,2.1-3.47,3.17-5.2.71-1.16.35-1.89-.86-2.35l-20.13-7.58a2.36,2.36,0,0,0-3.24,1.21c-.72,1.3-1.48,2.58-2.25,3.85-1.36,2.25-1.24,2.77,1.23,3.71,6.07,2.31,12.16,4.58,18.24,6.86.63.23,1.3.37,1.66.47Zm-38.06,8.49c2.16,0,3.92-1.15,4-2.67.09-1.67-1.52-3-3.76-3.2h-.2c-2.68-.12-4.49.95-4.55,2.68s2,3.18,4.5,3.21Zm26.52,9c.26,0,.74-.08,1.2-.19,1.31-.34,2.49-.89,2.54-2.48s-.95-2.34-2.2-2.87a5.59,5.59,0,0,0-1.57-.35c-2.57-.23-4.42.88-4.56,2.67s1.77,3.23,4.6,3.22Z"/>
    <path class="cls-2" d="M212.13,306c-3.32-.67-7.07-1.34-10.75-2.23a6.39,6.39,0,0,0-6.21,1.31c-2.69,2.27-5.58,4.31-8.44,6.37-2.13,1.53-3.17,1.07-3.53-1.51-.56-4.1-1.1-8.2-1.56-12.31a4.25,4.25,0,0,0-2-3.33c-3.1-2.07-6.13-4.24-9.19-6.37-2.55-1.79-2.48-3.17.31-4.51,3.43-1.65,6.86-3.25,10.33-4.79A5.34,5.34,0,0,0,184.3,275c1-3.46,2-6.88,3.1-10.32.89-2.88,2.17-3.24,4.29-1.07,2.74,2.82,5.39,5.73,8,8.66a4.39,4.39,0,0,0,4.11,1.61,93.19,93.19,0,0,1,11.58-.13c2.57.06,3.14,1.14,1.9,3.4-1.8,3.26-3.58,6.54-5.53,9.71a6.11,6.11,0,0,0-.55,5.78c1.3,3.42,2.46,6.89,3.62,10.36.7,2.11-.16,3.21-2.7,3Zm-1.46-2.4c1.77,0,1.81-.94,1.42-2.08-1-3.08-2-6.18-3.14-9.24a5.84,5.84,0,0,1,.5-5.25c1.69-2.86,3.28-5.78,4.91-8.68,1.15-2,.83-2.63-1.55-2.66a47.24,47.24,0,0,0-7.52.26,7.48,7.48,0,0,1-7.54-2.88,91.44,91.44,0,0,0-6.34-6.87c-1.4-1.44-1.82-1.33-2.42.56-1.06,3.3-2.11,6.59-3.08,9.9a4.62,4.62,0,0,1-2.62,3.16c-3.39,1.55-6.77,3.11-10.13,4.73-1.84.89-1.86,1.44-.16,2.64,2.71,1.92,5.4,3.88,8.18,5.7a5.13,5.13,0,0,1,2.46,4.16c.3,3.24.77,6.47,1.18,9.69.34,2.7.89,2.92,3.14,1.29,1.87-1.34,4-2.41,5.6-4,2.64-2.71,5.53-2.95,8.94-2,2.75.73,5.58,1.14,8.17,1.65Z"/>
    <path class="cls-2" d="M170.09,33.38a7.88,7.88,0,0,1,4,1.06c1.58,1,2.53.5,3.61-.82a12.34,12.34,0,0,1,10.53-4.71,12.54,12.54,0,0,1,12.13,11.94c.08,2.1.44,3.52,2.67,4.39s3.1,3,2.95,5.34a2.78,2.78,0,0,0,1.65,3.08,10.22,10.22,0,0,1,4.35,13,10.42,10.42,0,0,1-12,5.64c-4.62-1.37-8.92-3.59-13.34-5.48-10-4.26-19.91-8.6-29.86-12.9-2.14-.93-3.88-2.23-4.48-4.64A6.17,6.17,0,0,1,157,41.74,4.47,4.47,0,0,0,160.42,39c1.84-3.56,4.75-5.66,9.68-5.63ZM159,43.64c-2.66,0-4.36,1.12-4.85,3.27s.7,4.09,3.26,5.18c10,4.3,20,8.65,30.09,12.9,4.37,1.85,8.57,4.11,13.15,5.44,5.64,1.63,11.27-3.8,10-9.53a8.36,8.36,0,0,0-5.71-6.34c-1-.35-2-.64-1.56-2.1,1.13-4.32.44-5.28-4.17-5.81-1-.12-1.48-.59-1.34-1.59.09-.67.27-1.33.37-2a10.42,10.42,0,0,0-10.49-12.14,10.61,10.61,0,0,0-9.91,5.95c-.71,1.3-1.39,1.81-2.82.69-5.37-4.25-11.25-2.41-13.39,4.15-.46,1.43-1.06,2.35-2.6,1.93Z"/>
    <path class="cls-2" d="M270.74,145.64a8.43,8.43,0,0,1,5-7.56c8.19-4.24,16.41-8.41,24.62-12.6,2.36-1.19,4.7-2.43,7.12-3.49,4-1.76,8.25-.6,10.42,3.21q5.39,9.44,9.87,19.37c1.78,4,.14,8.14-3.88,10.41-3.71,2.09-7.57,3.94-11.37,5.89-5.3,2.73-10.63,5.42-15.92,8.18a49.1,49.1,0,0,1-5.13,2.44c-4.16,1.61-8.38.32-10.49-3.62-3.32-6.14-6.37-12.42-9.51-18.66a7.5,7.5,0,0,1-.72-3.57Zm55.59,2a7.29,7.29,0,0,0-.8-3.25c-3-5.92-6-11.85-9.09-17.73a5.88,5.88,0,0,0-5.51-3.21,9.09,9.09,0,0,0-4.26,1.16c-10,5.06-20,10.08-29.94,15.14a6.66,6.66,0,0,0-3.13,9.31q4.32,8.74,8.88,17.37c1.87,3.52,5.22,4.67,8.8,2.89,10.56-5.24,21.06-10.61,31.56-16a6.59,6.59,0,0,0,3.49-5.71Z"/>
    <path class="cls-2" d="M43.57,461.1c-.19-13.9,12.34-25.3,25.92-25a25.88,25.88,0,0,1,25.35,26c0,14.07-11.74,25.36-26.12,25.38-13.46,0-25.66-12-25.15-26.29Zm2,.67C45.27,475.12,56.16,485.2,69,485.34a23.61,23.61,0,1,0-.24-47.21A23.42,23.42,0,0,0,45.58,461.77Z"/>
    <path class="cls-2" d="M395.21,246.41a11,11,0,0,1,9.12,4.13,2.72,2.72,0,0,0,3.7.83,9.21,9.21,0,0,1,12.3,4.29,4.2,4.2,0,0,0,3,2.43,5.77,5.77,0,0,1,4.79,5.57c.2,2.2-1.32,4.46-3.94,5.61-9.87,4.31-19.77,8.57-29.66,12.86-2.92,1.26-5.8,2.64-8.77,3.8a9.73,9.73,0,0,1-9-.52,9.4,9.4,0,0,1-.45-15.88c1.44-1,2.19-1.87,2.11-3.72a4.63,4.63,0,0,1,2.85-4.38c1.9-.85,2.24-2.17,2.37-4a11.52,11.52,0,0,1,11.62-11Zm1.15,2c-7.38,0-11.66,5.15-10.69,11.75.24,1.64-.44,2.53-2.05,2.66-2.41.2-3.88,2.19-3,4.43.72,1.78.07,2.39-1.46,3a7.2,7.2,0,0,0-4.75,5.18,7.11,7.11,0,0,0,2.5,7.67c2.69,2.14,5.68,1.95,8.66.68q11.51-4.92,23-9.89c4.92-2.12,9.86-4.2,14.76-6.36,2.12-.93,3.09-2.67,2.69-4.49-.44-2.05-1.94-3.2-4.37-3-1.61.11-2.09-.64-2.47-2a7.33,7.33,0,0,0-11.53-4.09c-2.33,1.65-2.38,1.65-3.83-.73a9.22,9.22,0,0,0-7.45-4.77Z"/>
    <path class="cls-2" d="M340.69,261.83a23.24,23.24,0,0,1-12.9-3,15.89,15.89,0,0,1-6.93-6.93,10,10,0,0,1,3.75-13.47,18.49,18.49,0,0,1,8.9-2.56,2.83,2.83,0,0,0,3-2.59,16.81,16.81,0,0,1,4.67-8.87,9.76,9.76,0,0,1,12-1.43,16.28,16.28,0,0,1,6.95,9c2.33,6.88,1.12,13.53-1.12,20.12-.66,1.92-1.61,3.73-2.4,5.61a4.13,4.13,0,0,1-2.9,2.33,37,37,0,0,1-13,1.79Zm.24-2a37.65,37.65,0,0,0,11.64-1.62,3.63,3.63,0,0,0,2.55-2.1,50.87,50.87,0,0,0,2.76-7.22c1.63-5.65,2.06-11.32.08-17a13.56,13.56,0,0,0-4.6-6.33,8.07,8.07,0,0,0-12,1.67,19.85,19.85,0,0,0-3.17,7.65c-.65,2.83-.74,2.85-3.67,3-3.51.16-6.9.76-9.79,2.94a7.14,7.14,0,0,0-2.94,7.51,12,12,0,0,0,5.58,7.93,22,22,0,0,0,13.53,3.59Z"/>
    <path class="cls-2" d="M300.54,43.31c2.44,0,4.88-.05,7.32,0,2.17.06,2.67.64,2.48,2.74q-1.84,20.13-3.7,40.27c-.05.54-.08,1.08-.11,1.62-.16,3.23-.63,3.69-3.93,3.71-1.9,0-3.79,0-5.69,0-1.62,0-2.41-.88-2.55-2.53q-1.62-18-3.29-36c-.19-2-.36-4-.58-6.07-.35-3.15.11-3.68,3.34-3.7,2.24,0,4.48,0,6.71,0Zm-.18,2v0h-5.9c-1.36,0-2,.65-1.83,2.05s.31,2.69.43,4c1,11.21,2,22.41,3,33.61.43,4.57.52,4.56,5.11,4.62,2.6,0,3.12-.37,3.36-2.92q1.43-15.08,2.78-30.15c.26-2.77.57-5.53.78-8.3.18-2.39-.33-2.92-2.68-3-1.7,0-3.39,0-5.09,0Z"/>
    <path class="cls-2" d="M174.73,241.48a1.62,1.62,0,0,1-1,1.69,70.27,70.27,0,0,1-7.47,3.21c-1.35.49-2.18-.17-2.8-1.31-1.27-2.31-2.58-4.61-3.84-6.93q-8.39-15.45-16.73-30.91c-1.23-2.29-1.1-2.62,1.24-3.63,4.42-1.9,8.83-3.82,13.28-5.64,2.44-1,3-.73,3.76,1.68q6,18.26,12,36.5a36.69,36.69,0,0,1,1.64,5.34Zm-2.55-1.06c-.2-.76-.33-1.36-.52-1.94q-5.92-18.19-11.88-36.37c-.66-2-1.36-2.37-3.34-1.55-3,1.25-6,2.54-9,3.84-2.75,1.21-2.94,1.84-1.52,4.44q4.81,8.73,9.59,17.47,4.4,8,8.75,16.09c.59,1.09,1.24,2.12,2.65,1.42,1.88-.93,4.48-.87,5.25-3.4Z"/>
    <path class="cls-2" d="M360.16,342.54c.19-.42.46-1.12.8-1.78q9.36-18.4,18.73-36.81c1.37-2.7,1.84-2.85,4.49-1.22q6.07,3.72,12.1,7.52c1.82,1.14,1.93,1.95.66,3.61q-12.75,16.62-25.49,33.26c-.42.53-.84,1.07-1.28,1.58a1.75,1.75,0,0,1-2.53.37L361.31,345a2.23,2.23,0,0,1-1.15-2.47Zm7.84,4.19c1.29,0,1.77-.78,2.3-1.47,3.06-4,6.09-8,9.13-12q7.32-9.62,14.64-19.26c1.27-1.68,1.19-2-.61-3.15-2.63-1.68-5.29-3.32-7.91-5-3.29-2.09-3.66-1.95-5.4,1.58q-4.09,8.29-8.33,16.52c-2.86,5.62-5.78,11.21-8.65,16.82-.4.77-1,1.71-.33,2.46a17.62,17.62,0,0,0,5.17,3.46Z"/>
    <path class="cls-2" d="M206.42,330.69c0-5.62-3-9.07-8.42-10-8.55-1.51-16.95,6.45-15.75,15,.88,6.27,5.83,9.82,12.29,8.76,1.07-.18,2.1-.55,3.15-.82.58-.16,1.26-.47,1.61.28s-.23,1.13-.79,1.42c-5.62,2.82-14.93,1.29-17.71-6.69-2.13-6.13.81-13,5.71-16.54,4.31-3.12,9.05-4.67,14.35-2.72,6.25,2.29,9.53,10.32,6.73,16.37-1.45,3.13-3.92,4.12-6.94,2.64a2.57,2.57,0,0,0-3.17.3l-.32.26c-1.95,1.6-4.17,2.16-6.42.93s-3.05-3.6-2.93-6.08a10.31,10.31,0,0,1,4.06-7.68,5.59,5.59,0,0,1,6.27-.85,2.48,2.48,0,0,1,.37.17c.82.58,2.19,0,2.72,1.07s.13,2.4,0,3.6a15.75,15.75,0,0,0-.41,4.64c.17,1,.45,2,1.66,2.31a2.5,2.5,0,0,0,2.75-1.29,8.2,8.2,0,0,0,1.23-5Zm-16.58,3.25c0,2.15.95,3.76,2.43,4.26a4.14,4.14,0,0,0,4.54-1.49,9.57,9.57,0,0,0,2.21-6.2,3.76,3.76,0,0,0-6.69-2.49,9.81,9.81,0,0,0-2.5,5.92Z"/>
    <path class="cls-2" d="M487.42,371.58c-.06,1-.09,1.87-.17,2.75-.28,3-2.11,4.85-4.59,4.62s-4.08-2.46-3.76-5.34a19.53,19.53,0,0,0-14-20.68c-1.11-.31-2.23-.55-3.33-.9a4,4,0,0,1-3-5,4.07,4.07,0,0,1,4.62-3.06,24.71,24.71,0,0,1,12,4.59c7.83,5.67,12.11,13.32,12.26,23Zm-2.1-.16c-.05-12.22-9.28-23.4-20.78-25.13-2.4-.36-3.67.1-3.93,1.42s.65,2.15,3.09,2.73c8.51,2,14.06,7.2,16.54,15.6a19.65,19.65,0,0,1,.8,8c-.17,1.38.3,2.49,1.82,2.66s2.13-1,2.3-2.27c.13-1,.11-2,.16-3Z"/>
    <path class="cls-2" d="M55,129.64a4,4,0,0,1,2.62-4A27.92,27.92,0,0,1,94,138.53c1.41,2.78.94,5.17-1.27,6.38s-4.52.33-6-2.41a19.85,19.85,0,0,0-14-10.53A19.48,19.48,0,0,0,62,133a7.74,7.74,0,0,1-3.35.72,4,4,0,0,1-3.57-4Zm15.08-.06c7.24.27,13.5,3.89,17.76,10.95.35.58.64,1.2,1,1.74a2.07,2.07,0,0,0,2.85.76c1.08-.58,1.1-1.62.81-2.66a5.54,5.54,0,0,0-.5-1.11c-6.27-11.35-18.2-16.33-30.74-12.86A11.09,11.09,0,0,0,58,127.93a1.91,1.91,0,0,0,1.18,3.52,7.81,7.81,0,0,0,2-.43,27.7,27.7,0,0,1,9-1.44Z"/>
    <path class="cls-2" d="M226.15,401.87a21.74,21.74,0,0,0-7.2,1.18c-2.82.87-4.84-.11-5.67-2.65-.69-2.1.5-4.39,3-5.24,10.59-3.58,20.16-1.74,28.63,5.59a27.77,27.77,0,0,1,6.2,8A12,12,0,0,1,252,411c.72,2.44-.21,4.54-2.33,5.38a4.21,4.21,0,0,1-5.27-2.27,25.59,25.59,0,0,0-3.68-5.81,19.32,19.32,0,0,0-14.61-6.42Zm.34-6.54a34.83,34.83,0,0,0-9.3,1.67,2.47,2.47,0,0,0-1.91,2.94c.22,1.12,1.63,1.58,3.26,1.15.32-.09.63-.24,1-.32,8.17-2,15.56-.93,21.78,5.25a30,30,0,0,1,5,7.11c.6,1.09,1.56,1.83,2.86,1.22s1.29-1.78,1-3a6.49,6.49,0,0,0-.45-1.13c-4.87-9.49-12.83-14.13-23.15-14.91Z"/>
    <path class="cls-2" d="M227.85,489.28c3.31.82,7.09,1.65,10.8,2.73a6.7,6.7,0,0,0,6.32-1c2.79-2,5.72-3.88,8.58-5.82,2.25-1.52,3.3-1.1,3.73,1.53.63,3.83.46,7.71.74,11.56a6.09,6.09,0,0,0,2.65,4.94c2.89,2.12,5.7,4.38,8.52,6.6.55.43,1.53.89.91,1.73s-1.52.42-2.19-.11q-5.12-4-10.19-8.09c-1.34-1.08-1.54-2.63-1.63-4.22-.18-3.05-.31-6.1-.61-9.13-.28-2.79-.83-3-3.11-1.53-2.56,1.67-5.11,3.35-7.61,5.08a5.44,5.44,0,0,1-5,.86c-3.32-1-6.69-1.76-10.06-2.56-1.84-.44-2.31,0-1.82,1.86.81,3.08,1.65,6.16,2.68,9.17a5.54,5.54,0,0,1-.82,5.72c-.63.79-1.07,1.73-1.66,2.55-.42.59-1.06,1-1.75.58s-.28-1.18.09-1.59c2.9-3.17,2.3-6.64,1.07-10.26-.9-2.63-1.57-5.34-2.25-8-.49-1.93.23-2.73,2.58-2.57Z"/>
    <path class="cls-2" d="M228.25,303.34a40,40,0,0,0,8.11.35c1.62-.17,2.22.48,2.09,2.19-.47,6.08-.35,12.19-1.2,18.25-.45,3.28-.72,6.6-1.16,9.89-.29,2.15-1,2.55-3.06,1.81-2.42-.86-4.81-1.82-7.22-2.75a3.22,3.22,0,0,1-2.24-3.47c.38-7.77.73-15.56,1.14-23.33.17-3.22.28-3.27,3.54-2.94ZM225.84,325h.09v.21c.06,6.26-.84,5.63,5.44,7.86,2.3.81,2.7.62,3-1.8.46-3.84.92-7.68,1.26-11.52a87.69,87.69,0,0,0,.5-11.57c0-1.2-.33-2.17-1.75-2.29l-5.27-.41c-1.63-.13-2.31.67-2.39,2.27-.26,5.75-.58,11.5-.88,17.25Z"/>
    <path class="cls-2" d="M337.08,118.7a2.83,2.83,0,0,1-2.48-.94c-5.36-5.38-10.8-10.68-16-16.23a1.66,1.66,0,0,1,0-2.65c2.14-2.08,4.44-4,6.41-6.24.95-1.08,1.92-.6,2.8.25,4,3.89,7.87,7.87,11.51,12.07,1.82,2.1,3.61,4.23,5.42,6.34,1.94,2.26,1.77,3-1,4.34-1.65.8-3.28,1.63-4.94,2.41a17.62,17.62,0,0,1-1.79.65Zm.35-2.35a16.2,16.2,0,0,0,4.23-1.93c1.52-.83,1.66-1.48.57-2.91-1.28-1.66-2.64-3.25-4-4.85-3.26-3.81-6.73-7.42-10.33-10.92-1-1-1.89-1.12-2.93,0s-2.21,2.2-3.38,3.23-1.06,1.9,0,2.87c1.62,1.44,3,3.09,4.58,4.61,3,3,5.81,6.23,9.06,9a2.73,2.73,0,0,0,2.18.92Z"/>
    <path class="cls-2" d="M161.48,511.57c1.71-2.48,2.39-5.38,4.69-7.34a4.19,4.19,0,0,1,5.11-.31c3,1.61,5.94,3.26,8.95,4.82,2.19,1.14,2.63,1,3.85-1.19q2.22-4,4.39-8c1.8-3.31,4.29-4.1,7.62-2.34,1.92,1,3.83,2,5.7,3.12a5,5,0,0,1,2,7.29c-.64,1.12-1.28,2.24-2,3.33-.41.66-1,1.32-1.81.85s-.13-1.22.15-1.77c.63-1.27,1.37-2.49,2-3.76a2.8,2.8,0,0,0-1.06-3.9,44.34,44.34,0,0,0-6.57-3.65c-1.76-.82-2.87-.42-3.9,1.35-1.91,3.28-3.72,6.61-5.59,9.91-1.32,2.31-2.23,2.57-4.61,1.26-2.91-1.59-5.81-3.22-8.71-4.84-3.07-1.72-4.13-1.42-5.86,1.65l-1.61,2.83c-.53.93-1.26,1.35-2.77.72Z"/>
    <path class="cls-2" d="M225.3,405.19c7.2,0,14.53,4.9,16.52,11.05,1.06,3.27-.77,5.81-4,5.54A3.5,3.5,0,0,1,235,420a30.89,30.89,0,0,0-1.75-2.73c-2.67-3.47-6.22-4.58-10.45-3.76-.6.11-1.18.31-1.78.41-2.28.38-4.09-.64-4.65-2.59a4.11,4.11,0,0,1,2.37-4.86,20.68,20.68,0,0,1,6.53-1.3Zm-.17,6.07a12,12,0,0,1,11.15,6.8c.61,1.17,1.5,2.13,2.91,1.34s.92-1.95.46-3.07c-2.89-7-12.41-11-19.49-8.08-1.06.44-2.07,1-1.69,2.36s1.63,1.45,2.83,1.15a15,15,0,0,1,3.83-.5Z"/>
    <path class="cls-2" d="M68.34,135c6.85.4,12.13,3.31,15.68,9.17a6,6,0,0,1,1,2.65,3.66,3.66,0,0,1-2.1,3.84,3.87,3.87,0,0,1-4.5-.73,9.67,9.67,0,0,1-1.19-1.64c-3-4.63-6.87-6.1-12.23-4.6a10.81,10.81,0,0,1-1.77.41,3.81,3.81,0,0,1-4.34-2.54,4,4,0,0,1,1.95-4.68c2.35-1.37,5-1.64,7.55-1.88Zm-.4,2.24a13.94,13.94,0,0,0-4.39.65c-2.15.68-3.16,1.75-2.61,3,.85,1.86,2.36,1.12,3.7.73a12.2,12.2,0,0,1,13.87,5c.3.45.54,1,.87,1.37a1.9,1.9,0,0,0,3.33-1.81,5.8,5.8,0,0,0-.71-1.46c-3.27-4.81-7.67-7.57-14.06-7.49Z"/>
    <path class="cls-2" d="M475.86,373c0,1.88-.2,3.66-1.94,4.86a3.68,3.68,0,0,1-5.79-1.81,7.89,7.89,0,0,1-.35-2.6c-.17-5.7-2.81-9-8.36-10.49a4.43,4.43,0,0,1-2.36-1.08c-.94-1-1.67-2.19-1.24-3.67a4,4,0,0,1,3.1-2.9,7.15,7.15,0,0,1,3.22.17A18.19,18.19,0,0,1,475.86,373Zm-2-.57A16.72,16.72,0,0,0,471,364a14.88,14.88,0,0,0-10.43-6.7c-1.15-.18-2.26,0-2.49,1.4s.53,2,1.72,2.34l1,.26a11.86,11.86,0,0,1,9,11.42,13.77,13.77,0,0,0,.26,2.4,1.67,1.67,0,0,0,1.59,1.36,1.79,1.79,0,0,0,1.76-1.14,6.2,6.2,0,0,0,.45-2.91Z"/>
    <path class="cls-2" d="M424.84,511.51a17.2,17.2,0,0,1,8.18-1.93c1,0,2,0,3.05-.1a2.08,2.08,0,0,0,2.1-2.08c0-1.42-1-2-2.24-2.18a23,23,0,0,0-10.2,1.24,26.32,26.32,0,0,0-8.38,4.49c-.84.7-1.74,1.31-3.06.72a4.46,4.46,0,0,1,2-2.42,27.65,27.65,0,0,1,18.9-6.13c3.23.18,5.16,1.84,5.11,4.36s-2.26,4.4-5.15,4.48c-3.43.08-6.88,0-10.31,0,0-.16,0-.32,0-.47Z"/>
    <path class="cls-2" d="M273.22,426.49c-3.11-.67-6.23-1.3-9.33-2a1.62,1.62,0,0,1-1.14-2.1q.9-4.49,1.9-8.94a1.73,1.73,0,0,1,2.32-1.36c.73.14,1.47.26,2.2.42,2.5.55,2.79,1,2.44,3.46-.33,2.25-.22,2.41,2.12,3,1.91.51,2.36,1.11,2.08,3a24.6,24.6,0,0,1-.71,3.17,1.72,1.72,0,0,1-1.87,1.3Zm-3.88-9.89c.14-1.08-.16-1.88-1.35-2.1s-1.61.46-1.81,1.43c-.35,1.58-.7,3.17-1,4.76a1.78,1.78,0,0,0,1.43,2.3c1.57.38,3.16.73,4.75,1,1,.2,1.78,0,2-1.15s-.34-1.6-1.28-2c-2.91-1.16-2.9-1.18-2.76-4.3Z"/>
    <path class="cls-2" d="M302.22,407.22c-.66-.12-1.33-.22-2-.36-2.78-.58-3.11-.91-2.67-3.65.27-1.72-.33-2.46-2-2.86-2.59-.63-2.83-1.16-2.22-3.74s2.3-3.74,5-3.2c2,.4,4,.83,6,1.26,1.61.34,2.32,1.26,2,2.93-.57,2.58-1.1,5.17-1.65,7.76-.28,1.3-.94,2.1-2.42,1.85Zm1.7-8.67a1.77,1.77,0,0,0-1.55-2.21c-1.58-.36-3.17-.69-4.76-1-.88-.18-1.66-.07-1.9,1-.2.89.06,1.81,1,2,3,.53,3.87,2.16,3.12,5-.24.9.58,1.44,1.48,1.59a1.27,1.27,0,0,0,1.58-1.17c.36-1.72.71-3.44,1.07-5.16Z"/>
    <path class="cls-2" d="M301.32,421.23c-.62,2.91-1.22,5.83-1.9,8.73a1.81,1.81,0,0,1-2.31,1.46c-2.92-.57-5.84-1.2-8.75-1.84a1.69,1.69,0,0,1-1.41-2.27c.13-.59.23-1.2.35-1.79.64-3.1.8-3.27,3.88-2.74,1.66.29,2.32-.35,2.68-1.89.67-2.92.93-3,3.93-2.37.73.16,1.45.32,2.17.53a1.75,1.75,0,0,1,1.36,2.17Zm-9.87,3.69c-1-.15-1.77,0-2.05,1.13s.36,1.65,1.31,1.89c1.56.41,3.14.8,4.72,1.11a1.8,1.8,0,0,0,2.35-1.36c.41-1.7.76-3.42,1.08-5.14a1.44,1.44,0,0,0-1.27-1.91c-1.13-.22-1.66.37-1.86,1.35-.67,3.41-1.71,3.53-4.28,2.93Z"/>
    <path class="cls-2" d="M278.41,396.74c-2.28-.2-2.61,0-3.26,2.31-.59,2-1,2.26-3,1.94l-.4-.08c-3.85-.7-4.25-1.33-3.38-5.21.42-1.91.77-3.85,1.26-5.75s1.09-2.36,3.05-2c2.53.48,5.05,1,7.56,1.61,1.92.45,2.2,1,1.84,2.88-.12.67-.27,1.33-.42,2-.53,2.3-.84,2.52-3.19,2.31Zm-8.22-.09c-.07,1,.15,1.77,1.28,2s1.7-.42,2-1.48c.86-2.9.88-2.89,3.87-2.69a7.31,7.31,0,0,0,.81,0,1.58,1.58,0,0,0,1.57-1.55,1.32,1.32,0,0,0-1.18-1.59c-1.72-.38-3.44-.72-5.17-1a1.66,1.66,0,0,0-2.09,1.41c-.4,1.64-.74,3.29-1.1,4.94Z"/>
    <path class="cls-2" d="M386.27,99.33a6.92,6.92,0,0,1,.5-1.1c1.46-2.36,3-4.69,4.43-7a2,2,0,0,1,3.23-.71c2.38,1.55,4.77,3.09,7.18,4.59a1.58,1.58,0,0,1,.6,2.54c-.3.45-.55.93-.83,1.39-1.87,3-1.89,3.08-5,1.48-1.3-.68-2.12-.3-2.93.78-1.83,2.44-2,2.44-4.53.84-.69-.43-1.36-.89-2-1.37a1.52,1.52,0,0,1-.68-1.39Zm12-.58a1.65,1.65,0,0,0,1.39-1,1.2,1.2,0,0,0-.36-1.63,31.57,31.57,0,0,0-4.95-3.14,1.5,1.5,0,0,0-1.89.21,22.59,22.59,0,0,0-3.32,5.3,1.28,1.28,0,0,0,.67,1.71,1.39,1.39,0,0,0,1.86-.13,12,12,0,0,0,1.11-1.44c.93-1.32,2-1.66,3.46-.71A4,4,0,0,0,398.31,98.75Z"/>
    <path class="cls-2" d="M384.73,114.51a3.56,3.56,0,0,1-1,2c-1.13,1.37-.91,2.42.61,3.29.41.23.75.57,1.14.84a1.58,1.58,0,0,1,.44,2.44c-2.45,3.79-2,5.43-7.05,2-1.62-1.1-3.3-2.1-4.93-3.19a1.79,1.79,0,0,1-.55-2.78c1.55-2.38,3.05-4.79,4.59-7.17a1.93,1.93,0,0,1,3.09-.61c.89.61,1.83,1.14,2.73,1.74a1.78,1.78,0,0,1,.92,1.48ZM382,115a1.75,1.75,0,0,0-3.17-.63c-.91,1.35-1.77,2.73-2.67,4.08a1.8,1.8,0,0,0,.66,2.89c1.33.83,2.65,1.65,3.95,2.5.93.6,1.75.69,2.46-.32s.27-1.76-.62-2.38c-.28-.19-.56-.38-.82-.59-1.54-1.23-1.67-1.93-.65-3.63A3.81,3.81,0,0,0,382,115Z"/>
    <path class="cls-2" d="M212.64,187.63a2.25,2.25,0,0,1,1.87.89c2,2.21,4,4.44,6,6.66a1.25,1.25,0,0,1-.07,2c-2.32,2.17-4.6,4.39-7,6.46-1.25,1.07-1.85.69-4.33-2.09-.9-1-1.79-2-.5-3.31.28-.29.59-.56.88-.85,1.46-1.48,1.47-1.82.12-3.36-1.75-2-1.75-2.58.25-4.29.91-.79,1.68-1.8,2.83-2.07Zm-.22,13.7a1.55,1.55,0,0,0,.63-.24c1.55-1.4,3.13-2.78,4.6-4.26a1.45,1.45,0,0,0-.16-2c-1.22-1.36-2.48-2.67-3.78-3.95a1.41,1.41,0,0,0-2,.07c-.59.5-.86,1.27-.33,1.79,2.34,2.23,2,4.1-.35,6.14-.88.76.1,2.47,1.41,2.49Z"/>
    <path class="cls-2" d="M397.5,128.64a4.46,4.46,0,0,1,2.11,1c1.42.94,2.45.62,3.38-.8,1.45-2.21,2-2.28,4.22-.84q3.57,2.34,1.23,5.9c-1.15,1.75-2.28,3.52-3.4,5.29a1.89,1.89,0,0,1-2.93.7c-2.51-1.58-5-3.19-7.51-4.8-.53-.34-1.08-.85-.81-1.49a12.17,12.17,0,0,1,3.06-4.68,1.6,1.6,0,0,1,.65-.23Zm.81,2.77a1.7,1.7,0,0,0-1.6,1,1.25,1.25,0,0,0,.39,1.78,31.13,31.13,0,0,0,4.58,3,1.87,1.87,0,0,0,2.52-.56,21.56,21.56,0,0,0,2.78-4.45c.36-.8.43-1.59-.45-2.13a1.6,1.6,0,0,0-2.3.5c-.24.32-.47.66-.69,1-.92,1.33-2,1.74-3.41.7a4.06,4.06,0,0,0-1.82-.84Z"/>
    <path class="cls-2" d="M194.11,220.74a2,2,0,0,1-1.73-.81c-1.91-2.1-3.8-4.22-5.72-6.32a1.85,1.85,0,0,1,.07-3c.4-.36.74-.78,1.13-1.16,2.3-2.23,2.67-2.28,4.89,0,1.09,1.11,2,1.07,3.15.14.84-.66,1.73-2,2.93-1.18a8.89,8.89,0,0,1,3.56,4.29,1.46,1.46,0,0,1-.62,1.43c-2.18,2-4.36,4-6.57,6a5,5,0,0,1-1.09.6Zm-3.65-10.26A1.63,1.63,0,0,0,189,213a56,56,0,0,0,4.12,4.73,1.09,1.09,0,0,0,1.5.15,31.94,31.94,0,0,0,4.75-4.4,1.43,1.43,0,0,0-.25-2,1.38,1.38,0,0,0-2-.19c-.27.19-.52.43-.78.65-2,1.72-2.35,1.71-4.16-.17-.51-.53-1-1.13-1.73-1.21Z"/>
    <path class="cls-2" d="M178,185.76a1.84,1.84,0,0,1,1.21.68c.79.84,1.55,1.7,2.32,2.55,1,1.08.75,2-.21,3-2.1,2.18-2.1,2.25,0,4.63.9,1,.93,1.88-.05,2.8l-.29.28c-4.38,4.06-4.17,3.33-6.87,0-1.31-1.61-2.83-3.09-4.17-4.71-.64-.77-.88-1.52,0-2.3l6.86-6.34a1.76,1.76,0,0,1,1.26-.58Zm1.32,4.39a1.94,1.94,0,0,0-1-1.49,1.24,1.24,0,0,0-1.5.22c-1.33,1.14-2.67,2.27-4,3.45a1.77,1.77,0,0,0-.39,2.53,29,29,0,0,0,4.15,4.43c.67.61,1.37.38,2-.2a1.37,1.37,0,0,0,.28-2c-.2-.27-.42-.53-.62-.8a3.07,3.07,0,0,1,.13-4.26,2.8,2.8,0,0,0,.95-1.89Z"/>
    <path class="cls-2" d="M196.34,169.35a1.74,1.74,0,0,1,1.23.64c1.92,2.09,3.82,4.22,5.77,6.29a1.92,1.92,0,0,1,0,3c-.52.54-1.05,1.06-1.61,1.55-2,1.78-2.26,1.77-4.15-.08-1.63-1.58-2-1.59-3.75-.14s-1.95,1.54-3.64-.15c-3.2-3.23-3.23-3.25,0-6.34,1.46-1.41,3-2.72,4.54-4.07a2.43,2.43,0,0,1,1.64-.72Zm5,8.18a2.46,2.46,0,0,0-.7-1.43c-1-1.11-2-2.2-2.94-3.34a1.82,1.82,0,0,0-3-.18c-1.25,1.14-2.45,2.32-3.64,3.51a1.48,1.48,0,0,0-.09,2.31,1.59,1.59,0,0,0,2.34.12c2.64-1.83,2.65-1.82,5,.12l.47.38a1.35,1.35,0,0,0,1.69,0,1.76,1.76,0,0,0,.83-1.53Z"/>
    <path class="cls-2" d="M324.59,511.77c-1.29.58-2.07,0-2.85-.75a20.67,20.67,0,0,0-12.19-5.52,20.37,20.37,0,0,0-16.32,5.2c-.83.75-1.62,1.72-3.4.95,4.19-5.3,9.56-7.78,16-8.37,7.1-.65,16.63,3.61,18.78,8.49Z"/>
    <path class="cls-2" d="M307.34,103.73a7.05,7.05,0,0,1-6.95,7,7.51,7.51,0,0,1-7.13-7,7.27,7.27,0,0,1,7.22-7.07,6.9,6.9,0,0,1,6.86,7.07Zm-6.79-5a4.93,4.93,0,0,0-5,4.82,4.78,4.78,0,0,0,4.66,5.09,5,5,0,0,0,5.08-4.93,4.74,4.74,0,0,0-4.76-5Z"/>
    <path class="cls-2" d="M364.83,357.31a7,7,0,0,1-7.17,7,7.11,7.11,0,0,1-6.82-6.95,7,7,0,0,1,7.05-7.09,7.13,7.13,0,0,1,6.94,7ZM353,357.12a4.85,4.85,0,0,0,4.85,5.13,5,5,0,0,0,4.88-4.93,4.87,4.87,0,1,0-9.74-.2Z"/>
    <path class="cls-2" d="M174.65,263.05a6.91,6.91,0,0,1-6.9-7,7,7,0,0,1,7-7,7.35,7.35,0,0,1,7,6.87A7.11,7.11,0,0,1,174.65,263.05Zm4.88-7a4.88,4.88,0,1,0-9.75-.07,5,5,0,0,0,5,5,4.7,4.7,0,0,0,4.75-5Z"/>
    <path class="cls-2" d="M225.13,417.09a6.92,6.92,0,0,1-.24,13.84c-3.11-.06-6.91-2.7-6.69-7a7.12,7.12,0,0,1,6.93-6.86Zm0,11.67A4.75,4.75,0,0,0,229.8,424a4.77,4.77,0,1,0-9.53.2A4.48,4.48,0,0,0,225.09,428.76Z"/>
    <path class="cls-2" d="M457.19,380.29a6.87,6.87,0,1,1,6.82-6.91,6.92,6.92,0,0,1-6.83,6.92Zm.06-2a4.93,4.93,0,0,0,4.73-4.87,4.82,4.82,0,0,0-4.83-4.75,4.93,4.93,0,0,0-4.8,5,4.66,4.66,0,0,0,4.9,4.6Z"/>
    <path class="cls-2" d="M68,147.11a6.66,6.66,0,0,1,6.88,6.77,6.94,6.94,0,0,1-6.78,6.94,7.06,7.06,0,0,1-6.93-7.09A6.72,6.72,0,0,1,68,147.11ZM72.83,154a4.65,4.65,0,0,0-4.63-4.88,4.75,4.75,0,0,0-5,4.77A5.08,5.08,0,0,0,68,158.78,5,5,0,0,0,72.83,154Z"/>
    <g>
      <path class="cls-2" d="M327.12,203.56c-.44,8.41-4.51,16.42-13,22a4.68,4.68,0,0,1-4.43.71,3.84,3.84,0,0,1-2-5.8,6.36,6.36,0,0,1,2-2c9.14-5.76,10.88-17,7-25.5a14.54,14.54,0,0,1-.79-1.87,3.88,3.88,0,0,1,1.85-4.86,4.27,4.27,0,0,1,5.39,1.43c2.46,3.55,4,9.05,4,15.89Zm-2-1c0-4.54-1.49-10.62-3.14-13.1-1-1.5-2.22-1.94-3.39-1.17-1.33.88-1,2-.44,3.2,5.3,10.78,2.52,21.79-7.21,28.66-1.53,1.08-2,2.28-1.28,3.36s2,1.12,3.63.15a11.55,11.55,0,0,0,1.18-.79,25.7,25.7,0,0,0,10.65-20.31Z"/>
      <path class="cls-2" d="M315.35,201.26c-.44,6.57-2.9,11.82-8.5,15.29-2.22,1.38-4.3,1.08-5.58-.71s-1-4,1.12-5.65c5.12-4.09,6.07-8,3.46-14.09a3.72,3.72,0,0,1,1.49-5.07,3.67,3.67,0,0,1,5.19,1.19,18.91,18.91,0,0,1,2.82,9Zm-2.06.5a17.11,17.11,0,0,0-2.11-7.92c-.56-.93-1.32-1.68-2.49-1.14s-1.12,1.59-.85,2.64a12.62,12.62,0,0,0,.49,1.34,12.33,12.33,0,0,1-1,10.94,14.58,14.58,0,0,1-3.93,4,1.88,1.88,0,0,0-.67,2.67,2,2,0,0,0,2.86.65,8,8,0,0,0,1.69-1.11,16.87,16.87,0,0,0,6-12.11Z"/>
      <path class="cls-2" d="M289.72,201.1a6.69,6.69,0,0,1,6.9-6.71,6.82,6.82,0,0,1,6.68,6.79c-.07,3.69-3.19,6.95-6.63,6.92a7,7,0,0,1-6.95-7Zm11.37.28c0-3.08-1.69-5-4.6-5a4.77,4.77,0,0,0-5.07,4.86,4.94,4.94,0,0,0,5,4.84,4.5,4.5,0,0,0,4.7-4.72Z"/>
    </g>
    <path class="cls-2" d="M499.32,510.37c0,.58.35,1.3-.55,1.48-.71.14-1.09-.38-1.41-.94-1.31-2.28-.91-3.43,1.51-4.31l6.11-2.23c2.72-1,3-.84,4.11,1.76a2,2,0,0,1,.15.38c.3,1.14,1.52,2.37.62,3.41a6.28,6.28,0,0,1-4.69,2.07c-.57,0-1.34.11-1.48-.7-.11-.65.53-.87,1-1.1s1.13-.44,1.69-.69a1.57,1.57,0,0,0,.89-2.18,1.4,1.4,0,0,0-2-.93q-2.59.9-5.13,1.94a1.6,1.6,0,0,0-.89,2Z"/>
    <path class="cls-2" d="M350.68,511.62c1.72-2.73,6.07-4.36,9.6-3.67a10.68,10.68,0,0,1,1.77.45c2.87,1,5.73,2.07,8.56,3.32a11.3,11.3,0,0,1-6-.26,18,18,0,0,0-4.65-1.46,9.34,9.34,0,0,0-6.07,1.18c-.92.54-1.89,1.11-3.2.44Z"/>
    <g>
      <path class="cls-2" d="M36.78,493.48c-1.54-.23-2,.69-2.26,2-.86,4.6-1.74,9.19-2.67,13.78-.2,1-.18,2.67-1.58,2.36s-.57-1.84-.39-2.79q1.47-7.59,3.09-15.15c.53-2.47,1.1-2.84,3.53-2.36l42.68,8.57c1.47.29,2.94.55,4.4.83A2,2,0,0,1,85.4,503a43.73,43.73,0,0,1-1.56,7.76c-.16.54-.47,1.07-1.15.9s-.73-.78-.64-1.33c.25-1.54.58-3.06.82-4.6.39-2.45,0-3.07-2.4-3.55-9.37-1.88-18.75-3.73-28.13-5.61-4.85-1-9.7-2-14.55-2.95-.33-.07-.67-.11-1-.15Z"/>
      <path class="cls-2" d="M71.82,512c-2.19-.46-4.31-.93-6.43-1.36-7.44-1.52-14.88-3-22.32-4.56-.85-.18-2.34-.13-2.14-1.33s1.67-.85,2.59-.67c9.38,1.84,18.74,3.74,28.11,5.63a2.6,2.6,0,0,1,.4.1c.72.27,1.83.3,1.62,1.41-.19.94-1.21.63-1.83.78Z"/>
      <path class="cls-2" d="M48.42,512c-2.42,0-4.83,0-7.24,0-.7,0-1.73,0-1.6-1s1.11-.82,1.82-.7c2.37.42,4.73.91,7.09,1.37,0,.13-.05.26-.07.39Z"/>
    </g>
    <path class="cls-2" d="M201.38,106.45c-.84-.19-.84-.78-.51-1.37a12.85,12.85,0,0,1,2.83-3.36.87.87,0,0,1,1.11-.17.69.69,0,0,1,.28.88,8.72,8.72,0,0,1-3.3,3.93,2.09,2.09,0,0,1-.41.09Z"/>
    <path class="cls-2" d="M233.25,469.63a5.35,5.35,0,0,1-1.91,2.35c-.8.69-1.71,2.32-2.72,1.3s.69-1.86,1.34-2.67A4.51,4.51,0,0,1,232,469c.58-.18,1.06-.09,1.22.59Z"/>
    <path class="cls-2" d="M227.36,458.48c-.74-.22-2.36.44-2.37-.85s1.62-1.14,2.62-1.1,3-.63,3,1c0,1.34-1.83.81-2.88,1Z"/>
    <path class="cls-2" d="M206.61,118.36c-.64,0-1.24,0-1.39-.66s.38-1,.9-1.11c1.22-.36,2.45-.68,3.69-1a.85.85,0,0,1,1,.45.88.88,0,0,1-.48,1.18,12.92,12.92,0,0,1-3.74,1.11Z"/>
    <path class="cls-2" d="M207.8,129.39a11.37,11.37,0,0,1,4.31,1.93c.66.52.34,1.09-.43,1.31s-4.3-1.27-4.71-2-.07-1.14.83-1.2Z"/>
    <path class="cls-2" d="M226.73,441.44c.71,0,4.2,2.29,4.45,2.87a.86.86,0,0,1-.06.95.78.78,0,0,1-.93.24,10.42,10.42,0,0,1-3.94-2.8c-.51-.61-.26-1.14.48-1.26Z"/>
    <path class="cls-2" d="M8.21,162.42a4.2,4.2,0,0,1,4.12-4.35,4.33,4.33,0,0,1,4.26,4.25,4.19,4.19,0,0,1-4.26,4.22,4.12,4.12,0,0,1-4.12-4.11Zm4.24,1.9a1.87,1.87,0,0,0,2-2,1.79,1.79,0,0,0-1.94-1.9,1.83,1.83,0,0,0-2.17,1.87C10.28,163.62,11.11,164.22,12.45,164.32Z"/>
    <path class="cls-2" d="M29.67,162.28a4.19,4.19,0,0,1-8.38.17,4.4,4.4,0,0,1,4.25-4.34A4.28,4.28,0,0,1,29.67,162.28Zm-4.2,2c1.21-.08,2.07-.62,2.08-1.95a1.84,1.84,0,0,0-2.06-2c-1.24,0-2.12.53-2.09,1.89a1.92,1.92,0,0,0,2.07,2Z"/>
    <path class="cls-2" d="M14.05,342c.94,0,1.75,0,2.56,0,.53,0,1.22-.08,1.33.62s-.63.93-1.2,1.09a8.52,8.52,0,0,1-1.59.27l-9.9.67c-.66,0-1.51.18-1.63-.73s.74-1.25,1.47-1.31c3-.25,6.06-.42,9-.61Z"/>
    <path class="cls-2" d="M13.06,335c-.53,0-1.58.18-1.64-.93-.06-.95.95-1,1.65-1.12a13.46,13.46,0,0,1,4.2-.15c.48.06,1,.2,1.05.77s-.47.95-1,1c-1.32.17-2.66.27-4.24.41Z"/>
    <path class="cls-2" d="M4.58,355.08c-.78-.19-2.36.42-2.43-.86-.08-1.49,1.56-1,2.54-1.16a27.54,27.54,0,0,1,3-.26c.54,0,1.15.12,1.22.8s-.48.9-1,1.08a10.59,10.59,0,0,1-3.35.4Z"/>
    <path class="cls-2" d="M380.5,219.24c-.78,0-1.28,0-1.49-.53s.15-1.06.68-1.27c1.13-.45,2.28-.86,3.44-1.22,3.56-1.09,7.12-2.15,10.69-3.22a3.58,3.58,0,0,1,.78-.2c.72-.07,1.65-.36,1.86.63s-.68,1.08-1.31,1.28c-3.22,1-6.44,2.07-9.71,2.93-1.77.47-3.46,1.17-4.94,1.59Z"/>
    <path class="cls-2" d="M428.24,235c1.16.31,1.51,1.26,1.74,2.26.11.5-.08,1.06-.68,1-1.26-.06-1.6-1.09-1.86-2.08-.16-.61.15-1,.8-1.21Z"/>
    <path class="cls-2" d="M109,116.62c.19-.67.41-1.52.68-2.36,1.3-4.07,2.6-8.13,3.95-12.18.24-.73.48-1.8,1.59-1.38.89.35.59,1.29.37,2q-2.3,7.17-4.66,14.3c-.21.63-.43,1.42-1.35,1.2-.64-.17-.61-.81-.57-1.56Z"/>
    <path class="cls-2" d="M152.68,86.47c.78.11,1.79,0,1.86,1.08.06.89-.79,1-1.47.93s-1.82.07-2-.94.88-1,1.57-1.07Z"/>
    <g>
      <path class="cls-2" d="M113,394.61a6.73,6.73,0,0,1-3-1.29L72,368.87c-4-2.61-8.09-5.22-12.11-7.85-2.14-1.41-2.48-2.8-1.21-4.76Q69.34,339.67,80,323.1c2.15-3.33,3.25-3.57,6.58-1.41l32.57,21.14c5.46,3.54,11,7,16.41,10.55,3.16,2.05,3.44,3.2,1.44,6.3-5,7.74-10.06,15.44-15,23.18-2.2,3.42-4.24,6.94-6.62,10.24a2.9,2.9,0,0,1-2.4,1.5Zm19.75-36c-.2,0-.4,0-.6.05-8.59,1.27-17.18,2.51-25.75,3.82-2.16.33-2.56,1.13-1.83,3.31,1.16,3.4,2.4,6.77,3.57,10.17.33.93,1,2.25-.19,2.69s-1.35-1.06-1.65-1.87c-1.31-3.49-2.6-7-3.74-10.54-.65-2.06-1.76-3-4-2.86a5.66,5.66,0,0,1-5.86-3.58c-.75-1.8-1.59-3.1-3.76-3a.94.94,0,0,1-1.07-.75.86.86,0,0,1,.8-1c2.2-.36,2-1.75,1.55-3.34q-3.66-12.69-7.33-25.4c-.16-.57-.22-1.36-.93-1.45-.9-.12-1.2.78-1.58,1.37q-9.72,15-19.41,30.07c-1,1.6-.88,2.37.69,3.39,5.62,3.65,11.27,7.27,16.91,10.91q15.9,10.23,31.78,20.5c2.39,1.55,3.15,1.44,4.72-1,3.24-5.09,6.49-10.17,9.84-15.18,3.09-4.62,6-9.36,8.92-14.09.94-1.53.55-2.19-1.1-2.22Zm-33.17,2.72c4.84-.72,10.14-1.53,15.43-2.31,5.83-.85,11.67-1.67,17.5-2.52.65-.09,1.49-.07,1.69-.87s-.64-1.1-1.17-1.46c-2.06-1.42-4.13-2.85-6.23-4.21q-13.65-8.84-27.33-17.61c-4.16-2.68-8.31-5.37-12.48-8-.65-.42-1.36-1.26-2.16-.67s-.07,1.39.12,2.07q1.86,6.75,3.8,13.49c1.81,6.25,3.62,12.5,5.53,18.71.79,2.6,2.26,3.51,5.3,3.41Z"/>
      <path class="cls-2" d="M80.68,355.72c.67-.05,1.35-.13,2-.15s1.16,0,1.3.7-.45,1.15-1.06,1.23c-1.81.26-3.63.44-5.45.6-3.17.28-6.35.51-9.52.77-.21,0-.41.05-.61,0-.72-.05-1.7.11-1.83-.84s.89-1.09,1.58-1.16c4.51-.46,9-.86,13.55-1.28a.25.25,0,0,0,0,.09Z"/>
      <path class="cls-2" d="M110.3,384.19a2.55,2.55,0,0,1,1.37,2.35c.08.55-.09,1.28-.78,1.15-1.17-.21-1.19-1.32-1.32-2.25A1,1,0,0,1,110.3,384.19Z"/>
    </g>
    <g>
      <path class="cls-2" d="M491.33,470.2c-1.93-.36-3.86-.77-5.79-1.08-2.3-.38-2.77,0-3.3,2.15-.76,3.2.5,5.09,3.76,5.68,1.33.25,2.64.59,4,.91A1.62,1.62,0,0,1,491.3,480c-.44,2.2-.87,4.39-1.34,6.58a1.91,1.91,0,0,1-2.55,1.63l-4.79-.94c-3.3-.65-3.47-.52-4.14,2.85-.3,1.53-.61,3.06-.91,4.59s-1.13,2.25-2.74,1.91c-2.05-.44-4.12-.83-6.17-1.28-1.51-.32-1.92-1.31-1.62-2.74.39-1.93.71-3.87,1.11-5.79a2,2,0,0,0-1.68-2.7c-5-1.38-5.19-1.28-6.31,3.72-.27,1.19-.52,2.38-.76,3.58a1.88,1.88,0,0,1-2.5,1.68c-2.06-.43-4.11-.89-6.17-1.3a2.07,2.07,0,0,1-1.78-2.68c.3-1.81.64-3.61.95-5.41.45-2.54.37-2.68-2.22-3.28-1.78-.4-3.58-.76-5.37-1.14-1.43-.31-2.12-1.12-1.81-2.62.42-2.06.83-4.12,1.25-6.18a2,2,0,0,1,2.67-1.72c2,.4,4,.75,6,1.17a1.91,1.91,0,0,0,2.61-1.73c1.15-5.62,1-5.46-4.09-6.35-5.28-.93-5.27-1-4.23-6.27q1.08-5.42,6.43-4.28c4.84,1,5,.89,6-4,.23-1.13.42-2.27.66-3.39a1.88,1.88,0,0,1,2.4-1.61c2.19.41,4.38.87,6.57,1.33a1.82,1.82,0,0,1,1.54,2.41c-.32,1.73-.72,3.45-1,5.18-.45,2.71-.07,3.24,2.55,3.8,4.12.87,4.44.66,5.25-3.49.25-1.26.44-2.53.68-3.8a2,2,0,0,1,2.65-1.8c2,.37,4,.68,6,1.13s2.28,1,1.93,3.08c-.28,1.6-.64,3.19-.94,4.79-.51,2.69-.18,3.15,2.57,3.69,1.6.32,3.19.64,4.79.92s2.31,1.21,2,2.88c-.44,2.05-.79,4.13-1.24,6.18a1.79,1.79,0,0,1-2.19,1.62ZM450,453.13c-1-.06-1.59-.12-2.06.2-1.1.73-1.11,2-1.34,3.07-.44,2.21,0,2.84,2.13,3.31,1.79.4,3.59.73,5.39,1.08a2.07,2.07,0,0,1,1.87,2.63c-.43,2.47-1,4.92-1.48,7.38a1.84,1.84,0,0,1-2.42,1.53c-1.41-.26-2.8-.52-4.2-.8-4.11-.82-4.34-.61-4.93,3.46-.23,1.63.32,2.42,1.89,2.71,1.74.32,3.45.74,5.17,1.12,2.11.46,2.61,1.11,2.33,3.27-.15,1.21-.43,2.4-.66,3.6q-.84,4.23,3.38,4.86c1.95.29,2.36,0,2.8-2,.36-1.65.61-3.33,1-5,.5-2.35,1.07-2.78,3.36-2.39s4.39.86,6.58,1.31c1.58.32,2.12,1.28,1.77,2.83s-.64,2.92-.9,4.39c-.61,3.48-.37,3.78,3.13,4.34.13,0,.27,0,.4.06,1.71.43,2.53-.3,2.81-2q.48-2.81,1.14-5.58c.44-1.81,1.11-2.21,2.95-1.88s3.59.73,5.39,1c2.18.35,2.58,0,3.05-2.17.09-.4.15-.8.21-1.2.38-2.43.19-2.69-2.16-3.16-1.87-.38-3.73-.76-5.57-1.19-1.17-.27-2-.87-1.76-2.27.49-2.46,1-4.92,1.54-7.37a2.11,2.11,0,0,1,2.74-1.73l4,.72c4.22.73,4.16.72,4.89-3.45.27-1.61-.18-2.45-1.81-2.73-1.93-.34-3.85-.79-5.78-1.16-1.68-.33-2.25-1.32-1.89-3,.29-1.32.54-2.66.78-4,.71-3.94.48-4.25-3.52-4.71-1.91-.23-2.42.11-2.82,2s-.72,3.73-1.1,5.59a2.06,2.06,0,0,1-2.68,1.78c-2.34-.44-4.67-.88-7-1.34a2,2,0,0,1-1.76-2.52c.2-1.41.49-2.8.75-4.2.82-4.24.61-4.5-3.59-5-1.51-.18-2.32.32-2.58,1.83-.3,1.73-.64,3.47-1,5.19-.58,2.56-1.15,2.93-3.68,2.43-1.73-.34-3.45-.73-4.72-1Z"/>
      <path class="cls-2" d="M461.21,472.09a70.54,70.54,0,0,1,1.55-7.76,1.73,1.73,0,0,1,2.17-1.36c2.53.44,5.05.92,7.56,1.46a1.86,1.86,0,0,1,1.61,2.38c-.44,2.46-.87,4.93-1.34,7.39a2,2,0,0,1-2.67,1.73c-2.37-.5-4.77-1-7.13-1.54-1.47-.36-1.8-.92-1.75-2.3Zm10.54-3.85c.18-2.08-.69-2.16-5.13-2.84-2.1-.33-2.39.59-3,5-.28,2,1.13,2.75,5.16,3.1C470.86,473.66,470.94,473,471.75,468.24Z"/>
    </g>
    <g>
      <path class="cls-2" d="M38.59,387.29a2.65,2.65,0,0,0-1-2c-1.32-1.36-2.66-2.71-4-4.05a2,2,0,0,1,0-3.33c1.46-1.42,2.85-2.9,4.3-4.34a2.11,2.11,0,0,1,3.37.07c1.24,1.26,2.45,2.54,3.67,3.81,1.62,1.7,2.39,1.75,4.05.14,1.37-1.31,2.7-2.66,4-4a1.83,1.83,0,0,1,2.85-.17c1.58,1.5,3.14,3,4.66,4.55a2,2,0,0,1-.06,3.19c-1.41,1.37-2.76,2.8-4.17,4.18-1.07,1-1.15,1.95-.12,3.15,3.69,4.31,3.66,4.33,7.68.3q3.6-3.62,7.37-.07,4,3.75.12,7.62c-4.18,4.16-3.67,3.38,0,7.37.78.85,1.64,1.63,2.39,2.49a1.9,1.9,0,0,1-.07,2.89l-4.75,4.75a1.76,1.76,0,0,1-2.82-.09c-1.53-1.54-3.1-3-4.61-4.6a1.72,1.72,0,0,0-2.92,0c-.79.84-1.63,1.63-2.43,2.46-1.05,1.08-1,2.08.12,3.14,1.39,1.29,2.72,2.65,4,4s1.44,2.2.07,3.63-2.8,2.76-4.16,4.18c-1.15,1.21-2.21,1.09-3.32,0-1.43-1.44-2.92-2.84-4.32-4.32-1.06-1.12-2-1.19-3.07,0-1.39,1.48-2.89,2.87-4.27,4.36-1.1,1.19-2.14,1.28-3.29.11-1.42-1.45-2.85-2.9-4.32-4.31-1.17-1.12-1.21-2.14,0-3.29,1.45-1.42,2.82-2.92,4.25-4.37a2,2,0,0,0,0-3.18c-4.47-4.51-3.46-4.12-7.37-.32l-1.16,1.15c-2.82,2.82-2.86,2.82-5.76-.07-1-1-2-2-3-3a1.9,1.9,0,0,1,0-3.13c1.45-1.43,2.82-2.94,4.26-4.37a2.05,2.05,0,0,0,0-3.34c-1.41-1.37-2.76-2.8-4.17-4.17-1.07-1-1.23-2-.12-3.14,1.54-1.53,3-3.11,4.58-4.63a1.94,1.94,0,0,1,3.05.06c1.28,1.3,2.58,2.6,3.83,3.93,1.68,1.78,2.42,1.83,4.18,0,1-1,2.15-1.89,2.57-3.2ZM47,418.51a2.24,2.24,0,0,1,1.47.86c1.06,1,2.11,2.1,3.17,3.15,2.87,2.87,3.06,2.83,5.88-.15,1.09-1.16,1.24-2.14.07-3.31-1.43-1.43-2.81-2.93-4.19-4.42-.87-.95-1.25-2-.17-3,1.83-1.82,3.64-3.65,5.48-5.46a1.65,1.65,0,0,1,2.65.05c1.09,1.12,2.21,2.2,3.31,3.3,2.87,2.86,3.11,2.86,5.87-.18l.14-.15c1.09-1.05,1-2,0-3.16-1.32-1.46-2.73-2.83-4.09-4.23s-1.34-2.16.06-3.61c.9-.93,1.81-1.83,2.74-2.73,2.86-2.76,3.12-2.95-.05-5.81-1.54-1.4-2-1.48-3.54,0s-2.8,2.77-4.19,4.15c-.76.74-1.58,1.07-2.52.3a60.55,60.55,0,0,1-5.94-5.83c-.92-1-.71-1.95.21-2.86s2-2,3-3c3.27-3.14,2.54-3.47,0-5.7-1.67-1.47-2.06-1.57-3.69,0-1.37,1.32-2.71,2.66-4,4a1.89,1.89,0,0,1-3,.06c-1-.9-2-1.87-2.89-2.86-2.94-3.14-3.52-3.13-6.38,0-1.32,1.45-1.32,1.92.1,3.4s2.77,2.8,4.15,4.2a1.91,1.91,0,0,1,.05,3l-5.13,5.23a1.77,1.77,0,0,1-2.83.07c-1.46-1.41-2.94-2.81-4.38-4.24-1.24-1.22-2.44-1.33-3.7-.05-.42.44-.89.83-1.32,1.27-1.16,1.17-1.22,2.3.06,3.48s2.68,2.7,4,4c1.19,1.16,1.3,2.27,0,3.48s-2.46,2.52-3.69,3.78c-1.83,1.88-1.83,2.25,0,4.14l.43.43c2,2,2.33,2,4.29.07l4-4a1.73,1.73,0,0,1,2.81,0c1.7,1.74,3.44,3.46,5.17,5.18,1.11,1.11,1.2,2.19,0,3.33-1,1-2,2.06-3,3.07-2.83,2.85-2.84,3,0,5.73,1.58,1.48,2,1.5,3.56,0,1.37-1.31,2.69-2.68,4-4A3.2,3.2,0,0,1,47,418.51Z"/>
      <path class="cls-2" d="M54.45,400.09a2,2,0,0,1-.67,1.43c-1.7,1.75-3.41,3.48-5.11,5.22a1.93,1.93,0,0,1-3.15,0c-1.61-1.63-3.31-3.19-4.9-4.85s-1.46-2.23,0-3.76,3.17-3.15,4.74-4.74c1-1.06,2-1.23,3.1-.07,1.64,1.71,3.35,3.35,5,5a2.56,2.56,0,0,1,1,1.73Zm-2.82-.17a2.32,2.32,0,0,0-.76-1.34c-.71-.74-1.41-1.46-2.14-2.17-1.64-1.59-1.91-1.59-3.61.07-3.52,3.41-3.39,4.95.66,7.78a2,2,0,0,0,1.49.49C48.3,404.6,51.56,401.18,51.63,399.92Z"/>
    </g>
    <path class="cls-2" d="M310.27,309.74c1.68.5,3.69,1.08,5.69,1.7q11.24,3.53,22.45,7.08c1,.3,2.6.39,2.16,1.8-.39,1.23-1.78.48-2.68.2q-13.77-4.23-27.52-8.55a5.46,5.46,0,0,1-.95-.36c-.5-.24-1-.57-.83-1.22s.76-.68,1.67-.64Z"/>
    <path class="cls-2" d="M315.72,291.41c.35.1.82.21,1.27.35l27.31,8.54a9.05,9.05,0,0,1,1.14.4c.58.25,1.18.59.9,1.34s-.85.62-1.39.51c-.73-.15-1.44-.36-2.16-.58q-13.08-4-26.17-8.09a9.18,9.18,0,0,1-1.51-.57c-.5-.24-1-.58-.82-1.24s.76-.68,1.43-.65Z"/>
    <path class="cls-2" d="M319.48,279.33c.56.13,1.43.27,2.27.53q12.79,4,25.57,8a14,14,0,0,1,1.9.72c.56.26,1.14.66.83,1.39s-1,.57-1.59.45a3.59,3.59,0,0,1-.39-.12l-28.47-8.94a4.43,4.43,0,0,1-.93-.38c-.43-.23-.83-.56-.66-1.12s.68-.58,1.47-.56Z"/>
    <path class="cls-2" d="M313.94,297.51c2.51.75,5,1.5,7.56,2.27q9.9,3.06,19.79,6.14a28.69,28.69,0,0,1,2.83,1.12.85.85,0,0,1,.55,1,.9.9,0,0,1-1.07.72,7.35,7.35,0,0,1-1.59-.32q-12.6-3.93-25.2-7.88c-1.16-.37-2.3-.79-3.43-1.25-.56-.22-1.22-.55-.89-1.33.25-.61.88-.52,1.45-.46Z"/>
    <path class="cls-2" d="M347.05,296.63c-2.7-.82-5.3-1.59-7.88-2.39-6.86-2.12-13.71-4.23-20.56-6.38-1-.31-2.65-.42-2.27-1.74.48-1.65,2-.52,2.92-.23,8.62,2.61,17.21,5.28,25.81,7.94.84.26,1.68.54,2.49.88.51.21,1,.56.85,1.21s-.85.76-1.36.71Z"/>
    <path class="cls-2" d="M308,315.81c.63.15,1.3.28,1.94.48l26.71,8.41a6.21,6.21,0,0,1,.76.27c.68.28,1.63.5,1.35,1.45s-1.2.6-1.88.39q-13.86-4.28-27.71-8.58a14.69,14.69,0,0,1-1.7-.68c-.43-.2-.93-.43-.81-1s.77-.63,1.34-.73Z"/>
    <path class="cls-2" d="M341.41,314.72a89.17,89.17,0,0,1-9-2.58q-9.71-3-19.4-6.05c-1-.3-2.67-.47-2.31-1.73.46-1.56,2-.52,3-.23,9,2.75,18,5.58,27,8.39a6.55,6.55,0,0,1,1.14.44c.51.27.89.68.64,1.31s-.76.44-1,.45Z"/>
    <path class="cls-2" d="M126.33,237.76c-.08,1-.9,1.27-1.6,1.65q-6.78,3.72-13.58,7.38l-11.8,6.39c-.24.14-.47.29-.71.4-.69.28-1.52.75-2-.11s.37-1.37,1-1.72q6-3.33,12.15-6.59,6.89-3.72,13.8-7.41a8.48,8.48,0,0,1,1.68-.69.78.78,0,0,1,1,.7Z"/>
    <path class="cls-2" d="M144.51,271.27a2.8,2.8,0,0,1-1.64,1.86l-13,7.07c-4.11,2.23-8.2,4.49-12.33,6.69-.82.44-1.93,1.48-2.61.21-.58-1.08.74-1.58,1.53-2q12.85-7,25.74-13.91c.79-.42,1.66-1,2.35.1Z"/>
    <path class="cls-2" d="M132.23,249.11a2.88,2.88,0,0,1-1.59,1.48c-3,1.66-5.94,3.28-8.92,4.9-5.3,2.89-10.58,5.81-15.9,8.65-.93.5-2.28,1.76-3,.47s1-1.81,2-2.32c8.26-4.53,16.56-9,24.86-13.48a3.47,3.47,0,0,1,1.71-.56c.54,0,.93.22.89.86Z"/>
    <path class="cls-2" d="M138.41,260.23c-.13.95-.94,1.25-1.64,1.62q-9.61,5.23-19.25,10.45c-2,1.1-4,2.22-6,3.32a3.84,3.84,0,0,1-1.68.67.94.94,0,0,1-1-.49.84.84,0,0,1,.27-1.08,8.49,8.49,0,0,1,1.34-.9Q123,267,135.74,260.16a8.15,8.15,0,0,1,1.47-.68.86.86,0,0,1,1.2.75Z"/>
    <path class="cls-2" d="M112.91,281.89c-.64,0-1-.1-1.2-.55a.9.9,0,0,1,.4-1.06,9.34,9.34,0,0,1,1.2-.76L139,265.57a7.86,7.86,0,0,1,1.11-.5.91.91,0,0,1,1.09.31.81.81,0,0,1-.19,1.1,8,8,0,0,1-1.46,1.08q-12.66,6.92-25.33,13.78a10.79,10.79,0,0,1-1.31.55Z"/>
    <path class="cls-2" d="M100.86,259.41c-.57.07-.92,0-1.08-.33a1,1,0,0,1,.51-1.38c1.31-.84,2.63-1.68,4-2.42q11.17-6,22.37-12c.73-.39,1.67-1.25,2.3-.2s-.52,1.54-1.26,1.94Q115,251.9,102.34,258.74c-.54.29-1.11.5-1.48.67Z"/>
    <path class="cls-2" d="M107,270.6c-.56,0-.9,0-1.11-.34a.82.82,0,0,1,.13-1.11A9.43,9.43,0,0,1,107.7,268q12.12-6.64,24.28-13.23c.93-.5,2.3-1.81,3-.59.83,1.45-1.1,1.89-2,2.41-8.19,4.52-16.42,9-24.64,13.42-.48.26-1,.45-1.3.59Z"/>
    <path class="cls-2" d="M115.47,1c1.64-.13,3.08.82,4.39,1.89s2.67,1.08,4.3.45c4.52-1.74,8.23.13,9.1,4.47.59,2.94-.85,5.3-2.52,7.46-2.61,3.36-6.37,4.95-10.31,6.16a2.49,2.49,0,0,1-2.16-.28c-4.69-3.11-8.74-6.7-9.33-12.82A6.43,6.43,0,0,1,115.47,1Zm-4.33,6.67c0,3.15,1,5.34,3.49,8,4,4.22,5.81,4.51,10.77,1.55,2.56-1.52,4.73-3.45,5.45-6.52.4-1.74.6-3.54-1-4.91A4,4,0,0,0,125,5.28c-2.62,1.6-4.62,1.22-6.71-.92a4.07,4.07,0,0,0-4.88-1C111.51,4.31,111.18,6.16,111.14,7.63Z"/>
    <path class="cls-2" d="M358,410.61c-5.6-.27-6.29-.22-8.8-5.82-1.84-4.09-2.5-8.3-.16-12.5,1.77-3.18,5.26-4.5,8.05-2.9a8,8,0,0,1,3.45,3.62,3.47,3.47,0,0,0,3.48,2.2c2.75.15,5.25.92,6.46,3.75s.24,5.9-2.4,8.17c-3.05,2.62-6.74,3.27-10.08,3.48Zm-.54-2.07c3.95-.17,7.67-1,10.35-4.26,2.12-2.61,1.15-5.77-2.06-6.7a7.8,7.8,0,0,0-3.62-.27,2.16,2.16,0,0,1-2.76-1.71,8,8,0,0,0-1.78-3.16c-2-2.11-4.46-2.05-6.31.17a6.18,6.18,0,0,0-1.19,2.34c-1,3.56.05,6.77,1.44,10a5.38,5.38,0,0,0,5.93,3.58Z"/>
    <path class="cls-2" d="M263.8,178.17c0,1.1-.78,1.57-1.5,2q-5.55,3.58-11.13,7.12c-2.51,1.6-5,3.21-7.55,4.79-1.77,1.11-2.42,1-3.53-.67q-7.65-11.87-15.24-23.79c-2.12-3.31-4.29-6.58-6.4-9.89-1.34-2.1-1.21-2.87.82-4.19q9-5.81,18-11.51c2.25-1.43,2.86-1.28,4.29,1,3.82,5.92,7.56,11.89,11.36,17.81,3.15,4.91,6.34,9.78,9.5,14.68a9.59,9.59,0,0,1,1.41,2.66ZM242.53,190a4.1,4.1,0,0,0,2.05-.87c4.87-3.07,9.75-6.12,14.6-9.23,2.33-1.49,2.37-1.9.89-4.2l-11-17.09c-2.78-4.33-5.54-8.68-8.32-13-1.13-1.75-1.65-1.9-3.5-1a19.66,19.66,0,0,0-2.64,1.52c-4.09,2.92-8.41,5.46-12.63,8.18-2.14,1.38-2.23,1.69-.86,3.83q5.35,8.4,10.74,16.78,4.33,6.75,8.72,13.48c.47.73.93,1.53,1.94,1.59Z"/>
    <path class="cls-2" d="M258.41,191.3a2.21,2.21,0,0,1-2.24,2.32,2.34,2.34,0,0,1-2.28-2.34,2.27,2.27,0,0,1,4.53,0Z"/>
    <path class="cls-2" d="M195.94,403.35a2,2,0,0,1-1.07,1.63c-6.25,4.31-12.52,8.58-18.75,12.93-1.52,1-2.53.52-3.41-.74-1.92-2.71-3.8-5.45-5.69-8.18-5.36-7.75-10.7-15.5-16.09-23.23-2.76-4-2.66-4.21,1.34-6.87,5.24-3.5,10.37-7.16,15.58-10.7,2.65-1.8,3.11-1.71,4.88.85,4.68,6.74,9.32,13.5,14,20.25q4.15,6,8.3,12a4,4,0,0,1,.92,2ZM169.7,369.66a7.72,7.72,0,0,0-1.12.59q-7.8,5.33-15.59,10.7c-1.58,1.1-1.65,1.8-.55,3.38q10.44,15,20.86,30.07c1.24,1.79,1.58,1.89,3.42.64q7.41-5,14.76-10.12c2-1.37,2.07-1.93.7-4q-5.66-8.32-11.34-16.63c-3.07-4.47-6.19-8.9-9.3-13.34-.42-.61-.8-1.3-1.84-1.33Z"/>
    <path class="cls-2" d="M186.58,416.39a2.3,2.3,0,0,1,4.59.1,2.3,2.3,0,0,1-2.37,2.27,2.22,2.22,0,0,1-2.22-2.37Z"/>
    <g>
      <path class="cls-2" d="M100.84,429c.06-3.71,2.15-6.14,5.31-7.75q15.38-7.86,30.81-15.63c4.26-2.15,8.91-.89,11.21,3.31q5,9.09,9.48,18.43a8.32,8.32,0,0,1-4,11.24q-15.63,8-31.32,16c-4,2-8.06,1-10.79-2.68a43.75,43.75,0,0,1-3.51-6.17c-2.08-4-4-8-6-12a9.14,9.14,0,0,1-1.17-4.72Zm40-22.13a6.59,6.59,0,0,0-3.35.77c-10.27,5.24-20.57,10.43-30.81,15.73-3.8,2-4.82,5.45-2.91,9.29q4.18,8.35,8.48,16.68c2.19,4.24,5.57,5.27,9.82,3.1q12-6.12,23.93-12.2c2.29-1.17,4.6-2.33,6.87-3.53a6.8,6.8,0,0,0,3.48-4.78c.4-1.81-.38-3.36-1.13-4.86-2.61-5.28-5.28-10.53-7.95-15.78-1.34-2.64-3.18-4.58-6.43-4.42Z"/>
      <path class="cls-2" d="M123.81,423.34l7.17,1.41c1.46.29,3,.5,4.38.89,1.69.46,2,1.15,1.26,2.69q-2.3,5-4.62,9.95c-.29.62-.62,1.26-1.44,1.24s-1-.58-1.31-1.12c-2.18-4.28-4.37-8.56-6.51-12.86-.74-1.48-.36-2.17,1.07-2.2Zm3.47,2.83c-1.33-.08-1.6.64-1.06,1.77,1,2.13,2.06,4.27,3.18,6.35.77,1.41,1.53,1.41,2.3,0,.88-1.67,1.6-3.43,2.37-5.16a1.16,1.16,0,0,0-.93-1.81c-1.92-.4-3.85-.74-5.86-1.13Z"/>
    </g>
    <path class="cls-2" d="M294.33,140c3.49.7,7.27,1.42,11,2.24,1.33.28,1.69,1.3,1.21,2.52a110.53,110.53,0,0,1-4.8,10.29c-.75,1.43-1.77,1.43-2.55,0q-3.35-6.27-6.45-12.66c-.75-1.54-.2-2.36,1.55-2.36Zm3.23,2.7c-1.31,0-1.94.33-1.44,1.55a54.32,54.32,0,0,0,3.43,6.87c.58,1,1.23,1,1.76,0,.88-1.74,1.73-3.5,2.57-5.27.43-.89.26-1.63-.77-1.88-1.9-.46-3.82-.85-5.54-1.23Z"/>
    <path class="cls-2" d="M468.37,303.69a2,2,0,0,1,1.29.81c2,2.56,4,5.12,6,7.71.42.56,1.12,1.34.28,2s-1.41-.2-1.84-.79c-2-2.68-4.32-5-6.08-7.86C467.56,304.82,467.21,304,468.37,303.69Z"/>
    <g>
      <path class="cls-2" d="M129.82,143c13.49-.54,25.58,11.71,25.5,25.74a25.69,25.69,0,1,1-51.38-.7c.1-13.08,11.76-25.75,25.88-25.05Zm0,2C118,144.26,106,154.54,106,168.36a23.59,23.59,0,0,0,23.49,23.82,23.86,23.86,0,0,0,23.79-23.67A23.49,23.49,0,0,0,129.77,145Z"/>
      <path class="cls-2" d="M128.66,182.47a11.63,11.63,0,0,0,9-3.63c.66-.67,1.54-2,2.44-1.13s-.43,1.88-1.12,2.59a14.77,14.77,0,0,1-19.5,1.25,14.6,14.6,0,0,1-4-18.29,1.45,1.45,0,0,1,.1-.18c.53-.74.92-2.12,2-1.6s.19,1.66-.19,2.44c-3.27,6.79-.78,14.41,5.73,17.47a12.17,12.17,0,0,0,5.54,1.08Z"/>
      <path class="cls-2" d="M126,165.88c-1-.17-1.07-.81-.72-1.5a17,17,0,0,1,1.34-2c1.59-2.19,3.15-4.4,4.78-6.57.47-.62,1.1-1.47,2-.79s.12,1.36-.3,1.94c-1.88,2.64-3.79,5.27-5.7,7.9a2.05,2.05,0,0,1-1.4,1Z"/>
      <path class="cls-2" d="M141.61,161.58a3,3,0,0,1-.67,1.48q-2.7,3.69-5.42,7.37a4.94,4.94,0,0,1-.84.87.91.91,0,0,1-1.13.12.86.86,0,0,1-.23-1.1,5.22,5.22,0,0,1,.57-1.07c1.78-2.48,3.58-4.94,5.38-7.41a2.42,2.42,0,0,1,1.24-1c.66-.19,1.05,0,1.1.75Z"/>
    </g>
    <path class="cls-2" d="M85.06,463a15.14,15.14,0,0,1-9.46,13.81A14.25,14.25,0,0,1,60,473.53a8.54,8.54,0,0,1-.9-1.09c-.27-.42-.4-.92.08-1.28a.86.86,0,0,1,1.12.16c.31.25.57.57.88.84,3.92,3.65,8.56,4.38,13.44,2.77s7.26-5.22,8.14-10.06c.51-2.82-.36-5.36-1.51-7.85-.23-.49-.54-.94-.79-1.43s-.47-1.08.06-1.48,1.16,0,1.56.45A13.88,13.88,0,0,1,85,461.84c.06.47.06,1,.07,1.17Z"/>
    <path class="cls-2" d="M73.37,457.92c0,.93-.47,1.24-1.2.93a2.71,2.71,0,0,1-.91-.78c-2-2.52-4.06-5.05-6.06-7.6-.46-.58-1-1.35-.27-2s1.4,0,1.85.6c2,2.54,4,5.1,6,7.67a7.27,7.27,0,0,1,.61,1.16Z"/>
    <path class="cls-2" d="M57.85,454.37a2.41,2.41,0,0,1,1.41,1.07q2.84,3.57,5.65,7.16a5.14,5.14,0,0,1,.55.85c.25.51.38,1.08-.16,1.46s-1.06.08-1.42-.36c-1.17-1.39-2.32-2.81-3.45-4.24s-2.15-2.78-3.18-4.2a1.18,1.18,0,0,1-.13-1.5.72.72,0,0,1,.73-.25Z"/>
    <path class="cls-2" d="M233.69,311.23a2.17,2.17,0,0,1-2,2.09,2.22,2.22,0,0,1-2.22-2.15,2,2,0,0,1,2.15-1.93c1.28,0,1.95.7,2.11,2Z"/>
    <path class="cls-2" d="M34.31,103.53a2.26,2.26,0,0,1-.93,1.89A66.34,66.34,0,0,1,26.65,111c-1.57,1.1-2.26.92-3.15-.89-2.78-5.73-5.4-11.53-7.73-17.45-1.07-2.71-2.06-5.45-3-8.2-.74-2.17-.53-2.69,1.59-3.29A65.22,65.22,0,0,0,22.7,78c1.23-.54,2.11-.38,2.6.93q4.43,11.91,8.82,23.81a4.3,4.3,0,0,1,.19.82Zm-2.57-.72a4.14,4.14,0,0,0-.12-.64c-2.26-7-5-13.73-7.52-20.58-.45-1.21-1.35-1.36-2.48-.92-1.57.62-3.18,1.17-4.75,1.8-2,.78-2.21,1.29-1.51,3.23,1.84,5.09,3.89,10.1,6.05,15.06,1,2.24,2,4.44,3,6.65.61,1.32,1.48,1.69,2.7.66s2.33-1.85,3.46-2.82a2.81,2.81,0,0,0,1.12-2.44Z"/>
    <path class="cls-2" d="M22.78,86.85c-.08,1.27-.69,2.1-2,2.12a2,2,0,1,1-.13-4.09c1.3-.07,2,.72,2.12,2Z"/>
    <g>
      <path class="cls-2" d="M336.11,503.9c-6.19-.1-10.79-1.95-15.3-4a114.64,114.64,0,0,1-16.18-9.35c-2-1.35-2.22-1.84-1.26-4,2.11-4.84,4.39-9.62,6.47-14.48a96.4,96.4,0,0,0,4.25-11.21c1-3.47,1.39-3.82,5-3.73a47.51,47.51,0,0,0,14.87-1.85c8.77-2.62,15-8.1,18.49-16.65a11.18,11.18,0,0,1,2.17-3.88,4.93,4.93,0,0,1,6.8-.62c4.06,3,5.43,7.13,5,12s-3.11,8.61-6.95,11.49a35.18,35.18,0,0,1-12.17,5.93l-1.18.34c-1.08.35-2.06.85-2.16,2.13a2.73,2.73,0,0,0,1.73,2.76,20.1,20.1,0,0,0,3,1.15,13.27,13.27,0,0,1,3.65,1.77c3.87,2.61,4.75,7,2.05,10.79a8.13,8.13,0,0,0-1.74,4.85,4.9,4.9,0,0,1-3,4.67,3.73,3.73,0,0,0-2.4,2.77,6,6,0,0,1-3.52,4.22,5.32,5.32,0,0,0-2.45,2.31,5.25,5.25,0,0,1-5.06,2.66Zm-.69-2a4.25,4.25,0,0,0,4.74-3c.35-1,1.32-1.29,2.23-1.6a3.85,3.85,0,0,0,2.89-3.55,3.2,3.2,0,0,1,2.6-3.16c2-.62,2.88-1.89,2.63-3.83a5.44,5.44,0,0,1,1.55-4.56c3-3.54,2-7.53-2.15-9.54a16.51,16.51,0,0,0-2.87-1,8.37,8.37,0,0,1-4.22-2.7,4,4,0,0,1,.39-5.81,7.27,7.27,0,0,1,2.87-1.47,42.84,42.84,0,0,0,7.79-2.94c3.65-2,7.07-4.33,9-8.24,2.2-4.43,2.12-8.82-.77-12.89-2.52-3.54-5.61-3.14-7.4.78-.16.37-.31.75-.47,1.12-3.94,9.6-11,15.46-21,18.15a53.68,53.68,0,0,1-13.69,1.56c-2.71,0-2.78.19-3.67,2.83-.81,2.38-1.73,4.71-2.6,7.06-2.13,5.8-4.93,11.31-7.5,16.92-.72,1.57-.49,2.61,1,3.6a94.9,94.9,0,0,0,20.31,10.62,23.69,23.69,0,0,0,8.35,1.66Z"/>
      <path class="cls-2" d="M290.59,478.13c.31-1,.68-2.37,1.17-3.69q3.72-10,7.51-20c.83-2.21,1.33-2.42,3.48-1.38a46.39,46.39,0,0,0,7.59,2.9c2.13.62,2.39,1.11,1.68,3.24a193.06,193.06,0,0,1-9.45,22.92c-.53,1.1-1,2.24-1.53,3.32a1.57,1.57,0,0,1-2.54.68,55.37,55.37,0,0,1-7.21-5.94,2.69,2.69,0,0,1-.7-2.05Zm2.38-.6a2.83,2.83,0,0,0,1,2.44c1.12,1,2.24,2,3.42,2.88,1.52,1.15,2.14,1,3-.71s1.62-3.43,2.39-5.15c2.46-5.44,4.64-11,6.68-16.59.56-1.53.14-2.48-1.37-3s-2.8-1-4.19-1.55c-2.26-.89-2.79-.71-3.65,1.58q-3.48,9.31-6.9,18.68a14.5,14.5,0,0,0-.4,1.45Z"/>
      <path class="cls-2" d="M306.1,461.71c-.07,1.17-.55,2-1.79,2.11a2.15,2.15,0,0,1-2.34-2,1.93,1.93,0,0,1,2-2.1A2,2,0,0,1,306.1,461.71Z"/>
    </g>
    <path class="cls-2" d="M329.13,100.65a2,2,0,0,1-2,2.11,1.79,1.79,0,0,1-2.05-1.76,1.86,1.86,0,0,1,1.84-2.19,2,2,0,0,1,2.22,1.85Z"/>
    <path class="cls-2" d="M374.18,7.83a7.52,7.52,0,0,1-7.78,7.66,7.87,7.87,0,0,1-7.23-7.86,7.51,7.51,0,0,1,15,.2Zm-7.62-5.28A5.21,5.21,0,0,0,361.19,8a5.6,5.6,0,0,0,5.47,5.46A5.47,5.47,0,0,0,372.06,8a5.09,5.09,0,0,0-5.5-5.41Z"/>
    <path class="cls-2" d="M239,172.69c.81-3.69,1.63-7.52,2.51-11.33.14-.62.48-1.41,1.37-1.14.72.22.71.95.59,1.55q-1.23,5.74-2.53,11.46c-.14.59-.39,1.28-1.19,1.1s-.65-.9-.75-1.64Z"/>
    <path class="cls-2" d="M234.73,159.06c-.29,1.2-.64,2.72-1.06,4.21-.14.53-.49,1-1.17.86a.94.94,0,0,1-.68-1.11A18.83,18.83,0,0,1,233,157.9c.18-.47.57-.82,1.12-.58s.58.85.58,1.74Z"/>
    <path class="cls-2" d="M251.44,173.4a25.15,25.15,0,0,1-1.05,4.7c-.22.57-.57,1.2-1.31,1s-.62-.84-.52-1.37c.32-1.58.66-3.16,1.05-4.72.13-.51.46-1.06,1.13-.92s.65.76.7,1.32Z"/>
    <path class="cls-2" d="M171,398.27c.66-3.56,1.34-7.36,2.07-11.15.13-.7.49-1.37,1.36-1.15s.72.92.61,1.53q-1,5.7-2.11,11.38c-.12.64-.3,1.52-1.2,1.34s-.66-1.05-.73-2Z"/>
    <path class="cls-2" d="M166.24,385a17.47,17.47,0,0,1-.88,4.46c-.2.51-.47,1.06-1.15.91a1,1,0,0,1-.74-1.28c.21-1.47.48-2.93.8-4.39.15-.65.34-1.52,1.18-1.42,1,.13.78,1.08.79,1.72Z"/>
    <path class="cls-2" d="M180.81,402.41c.21-1.15.41-2.41.7-3.65.15-.64.42-1.42,1.3-1.21s.7.93.61,1.53c-.18,1.26-.39,2.52-.65,3.77-.14.64-.27,1.52-1.11,1.45-1-.09-.74-1.08-.85-1.89Z"/>
    <g>
      <path class="cls-2" d="M396.29,438.72a9.67,9.67,0,0,1,4.79,1.21q12,6.17,24.08,12.3c.42.21.83.46,1.23.71,6.2,3.81,7.85,9.36,4.55,15.84-3.84,7.54-7.8,15-11.73,22.52-.73,1.37-1.13,2.9-2.16,4.13a10.92,10.92,0,0,1-13.92,2.87c-6.42-3.22-12.78-6.55-19.16-9.84l-6-3c-5.81-2.94-8-9.07-5.14-14.93,4.26-8.63,8.67-17.19,13.09-25.73,2-3.92,5.32-6.05,10.34-6ZM430.43,463a8,8,0,0,0-1.22-4.85,12.82,12.82,0,0,0-5.11-4.23l-23.76-12.05c-4.72-2.4-9.95-1.05-12.46,3.66q-6.92,13-13.39,26.27a8.84,8.84,0,0,0,4,11.69q12.84,6.6,25.77,13a8.89,8.89,0,0,0,12.2-3.86c4.43-8.55,8.74-17.16,13.11-25.74a7.74,7.74,0,0,0,.84-3.92Z"/>
      <path class="cls-2" d="M406.36,490.39a8.06,8.06,0,0,1-3.91-1c-5.68-2.89-11.38-5.73-17-8.73-4.49-2.41-5.87-6.36-3.68-11,2.87-6.06,5.83-12.08,9.19-17.89a7.42,7.42,0,0,1,9.58-3.43,80.78,80.78,0,0,1,9.32,4.51c2.65,1.37,5.21,2.88,7.95,4.09a9.32,9.32,0,0,1,4.29,3.6,6.66,6.66,0,0,1,.68,6.75c-3.1,6.55-6.2,13.1-9.78,19.4A7.61,7.61,0,0,1,406.36,490.39ZM421.44,465a6,6,0,0,0-3.21-5.29c-5.71-3.41-11.84-6-17.72-9.12a5.82,5.82,0,0,0-8,2.54q-4.64,8.82-9,17.77a5.62,5.62,0,0,0,2.6,7.81q8.74,4.56,17.6,8.91c3.4,1.68,6.25.78,8-2.58,3.07-5.74,6-11.53,9-17.31a5.65,5.65,0,0,0,.72-2.73Z"/>
      <path class="cls-2" d="M401.55,462.77a7.5,7.5,0,1,1,0,15,7.63,7.63,0,0,1-7.64-7.64c0-3.16,2.79-7.59,7.64-7.36Zm5.28,7.45a5,5,0,0,0-5.3-5.4,5.46,5.46,0,1,0,.05,10.91,5.19,5.19,0,0,0,5.25-5.51Z"/>
      <path class="cls-2" d="M414.48,462.89c1.14.15,2,.65,1.91,1.92a2,2,0,1,1-4.05,0c0-1.33.91-1.86,2.13-1.91Z"/>
    </g>
    <g>
      <path class="cls-2" d="M125.64,339.74c-1.76.12-2-1-2.22-2.22q-1.19-7.74-2.36-15.48c-.58-3.82-1.13-7.65-1.69-11.47-.31-2.11.09-2.66,2.21-3,.74-.12,1.47-.25,2.21-.35,1.15-.16,1.92-.62,1.85-1.95a1.74,1.74,0,0,1,1.7-1.91q5.53-.88,11.06-1.72a1.63,1.63,0,0,1,2,1c.64,1.78,2.08,1.76,3.53,1.56,5.1-.74,10.19-1.54,15.28-2.32,3.29-.5,6.57-1,9.85-1.52,2.27-.32,2.89.16,3.24,2.48q2,13.08,3.92,26.16c.42,2.85.23,3.09-2.65,3.53q-23.53,3.57-47.07,7.1l-.86.11Zm-4-28.25c0,.41,0,.68.09.95q1.57,10.56,3.15,21.11c.41,2.77,2,3.95,4.86,3.52q20.7-3.12,41.4-6.25c3-.45,3.21-.65,2.77-3.6q-1.68-11.14-3.34-22.31c-.33-2.2-.68-2.5-3-2.17-3.42.5-6.83,1.08-10.24,1.59-5.09.76-10.19,1.49-15.29,2.23-1.42.21-2.72.16-3.33-1.51a1.62,1.62,0,0,0-2-1q-3.63.49-7.24,1a1.67,1.67,0,0,0-1.59,1.58c-.1,1.63-1.13,2.17-2.55,2.36-.73.1-1.46.26-2.19.41-1.2.25-1.75,1-1.55,2.06Z"/>
      <path class="cls-2" d="M147.91,309.16a10.8,10.8,0,0,1,10.88,10.62c-.1,7.17-5.38,11.26-10.92,11.27a11,11,0,0,1-11-11.22,10.79,10.79,0,0,1,11-10.67Zm8.84,11a8.88,8.88,0,0,0-8.82-9,8.79,8.79,0,0,0-9,8.81,8.91,8.91,0,0,0,17.81.18Z"/>
      <path class="cls-2" d="M153,320.18a5.32,5.32,0,0,1-5.13,5.06A5.47,5.47,0,0,1,142.7,320a5.07,5.07,0,0,1,5.23-5.08,5.22,5.22,0,0,1,5.1,5.27Zm-2.12.13a3.39,3.39,0,0,0-3.22-3.27,3.1,3.1,0,0,0-2.86,2.9,2.8,2.8,0,0,0,2.85,3,2.91,2.91,0,0,0,3.23-2.64Z"/>
    </g>
    <path class="cls-2" d="M153,0a14.81,14.81,0,0,1-.13,3.21Q151.32,14.6,149.7,26c-.85,6-4.61,8.79-10.54,8-3.43-.46-6.86-.9-10.27-1.47a5.81,5.81,0,0,0-5.11,1.27c-1.34,1.14-2.79,2.16-4.18,3.23-2.3,1.78-3.1,1.69-4.84-.57-1.28-1.67-2.57-3.33-3.82-5a4.91,4.91,0,0,0-3.62-2c-3.7-.46-7.4-1-11.08-1.56-5-.81-7.56-4-7.48-9.67.54-4.05,1.16-8.75,1.81-13.45L91.23,0h-2c-.79,5.69-1.6,11.37-2.37,17.06a12.88,12.88,0,0,0-.14,4.25c.9,4.75,4.41,8,9.74,8.74q5,.76,10.08,1.4a4.57,4.57,0,0,1,3.4,1.92c1.3,1.82,2.72,3.55,4.08,5.33,1.64,2.17,3.17,2.46,5.39.9,2-1.35,3.87-2.76,5.76-4.2a4.25,4.25,0,0,1,3.42-.87c3.42.52,6.87.85,10.27,1.46,6.22,1.13,12.29-2.62,13-10.13.22-2.36.65-4.7,1-7q1.22-8.76,2.44-17.53h0c0-.43-.05-.85-.09-1.28Z"/>
    <path class="cls-2" d="M209,0V0c-1,1.92-2.08,3.81-3.21,5.66-1.35,2.2-2.42,2.53-4.73,1.3-3.11-1.66-6.14-3.45-9.19-5.21C189.05.16,188.66.3,187,3.11c-1.9,3.13-3.17,6.6-5.3,9.6-1.46,2-2.68,2.4-4.81,1.2-1.72-1-3.42-1.94-5.1-3-2.55-1.55-2.78-2.44-1.31-5.14Q172,2.9,173.63,0h-2.34c-1.09,2-2.17,3.93-3.18,5.92-1.36,2.7-.58,5,2.07,6.56,1.88,1.07,3.8,2.09,5.72,3.1,3.49,1.81,5.85,1.14,7.77-2.29,1.42-2.54,2.75-5.14,4.1-7.72s2-2.84,4.57-1.41c2.83,1.6,5.64,3.25,8.53,4.75,2.74,1.43,5.2.62,6.68-2.07,1-1.84,2-3.69,3-5.54a12.22,12.22,0,0,0,.6-1.3Z"/>
    <path class="cls-2" d="M327.77,0c-1.41,5.77-4.92,10.36-9.37,14.28-7.48,6.58-16.27,10.91-25.62,14.2-2.21.78-2.86.47-3.63-1.78A78.07,78.07,0,0,1,285.7,9.81,57.52,57.52,0,0,1,285.41,0h-2c-.55,9.91,1.35,19.53,4.25,29,.72,2.33,1.41,2.66,3.81,2a85.35,85.35,0,0,0,16.61-7.07A54.83,54.83,0,0,0,323.93,11.4,26.84,26.84,0,0,0,329.88,0Z"/>
    <path class="cls-2" d="M313.55,0a7.8,7.8,0,0,1-6.28,3.15A7.55,7.55,0,0,1,301.11,0h-2.4a9.73,9.73,0,0,0,8.35,5.31A10,10,0,0,0,316,0Z"/>
    <g>
      <polygon class="cls-2" points="380.87 1.06 380.87 1.05 380.87 1.05 380.87 1.06"/>
      <path class="cls-2" d="M377.06,0a2.13,2.13,0,0,0-.25,1,1.77,1.77,0,0,0,1.87,2,2.05,2.05,0,0,0,2.19-1.95,2.78,2.78,0,0,0-.37-1Z"/>
    </g>
    <g>
      <path class="cls-2" d="M33.38,5.35c-4.84-1-9.7-1.88-14.54-2.86C14.8,1.68,10.77.83,6.77,0H3.23a.94.94,0,0,0-.18.44c-.13,1,.9,1,1.57,1.22a7.08,7.08,0,0,0,1,.23l9,1.77C20.74,4.9,26.9,6.17,33.08,7.37c.91.17,2.41.82,2.66-.41S34.37,5.56,33.38,5.35Z"/>
      <path class="cls-2" d="M45.28,0q-1.47,7.38-3,14.77c-.58,2.93-.76,3.1-3.8,2.49L0,9.56v2.06c2.73.52,5.46,1,8.18,1.59,10.17,2,20.34,4.13,30.51,6.19q4.7.95,5.64-3.83Q45.88,7.79,47.43,0Z"/>
    </g>
    <path class="cls-2" d="M21.58,111.91c-4.16-9-8.47-18-11.46-27.58a2.74,2.74,0,0,0-3-2.08c-2.36,0-4.72,0-7.07-.16v2.07c1.51.1,3,.15,4.58.12,3.28-.06,3.34.09,4.44,3.24A177.22,177.22,0,0,0,18.09,109c2,4,2,4.54-1.75,6.86A99.27,99.27,0,0,1,0,124.52v2.18c7.41-2.78,14.15-6.92,20.74-11.36C22.12,114.41,22.28,113.44,21.58,111.91Z"/>
    <path class="cls-2" d="M460.06,260.25a7.47,7.47,0,0,1-2.35-5.39,7.65,7.65,0,0,1,.22-1.8L457,250a9.39,9.39,0,0,0-1.42,4.83A10.08,10.08,0,0,0,461,263.4Z"/>
    <path class="cls-2" d="M511.43,433.44l-1.89-1.51-20-16c-2-1.6-2-2.28-.41-4.32q5.81-7.25,11.57-14.51l-.68-2.31q-7.23,9-14.47,18.07a1.57,1.57,0,0,0,.31,2.58c2.44,1.94,4.81,4,7.24,5.91q9.69,7.77,19.4,15.52Z"/>
    <path class="cls-2" d="M520.79,501.77c.93,2.39,1.26,2.6,3.79,1.88.19,0,.38-.1.55-.13a19,19,0,0,0,1.46-2.42c-.5,0-1.09.11-1.8.22-1,.15-1.8.07-2.15-1s.35-1.64,1.23-2c1.25-.51,2.53-1,3.78-1.49a5,5,0,0,0,.61-.31,16.39,16.39,0,0,0,.32-1.75c-.43-.33-1.1,0-1.6.18-1.86.63-3.69,1.36-5.54,2-1.55.56-1.9,1.59-1.3,3.05C520.37,500.62,520.57,501.2,520.79,501.77Z"/>
    <g>
      <path class="cls-2" d="M525.76,481.73l-.67-2.26h0c-.49.57-.9,1.2-1.37,1.77-5.46,6.73-14.67,5.58-18.19-2.26-2.45-5.48-.52-13.15,4.22-16.78a10.78,10.78,0,0,1,9.68-1.8l-.67-2.24a12.14,12.14,0,0,0-6,.26c-5.91,1.8-10.19,8.07-10.21,15.35h0a13.28,13.28,0,0,0,1.21,6.13c2,4.58,5.51,7.4,10.6,7.68C519.28,487.85,523,485.63,525.76,481.73Z"/>
      <path class="cls-2" d="M515.41,464.36c-.38.12-.79.18-1.18.28a5.52,5.52,0,0,0-4.32,4.14c-1,3.82-.4,7.3,2.48,10.15,3.32,3.27,7.54,2.3,9.22-2.08a8.15,8.15,0,0,0,.4-1.36,1.88,1.88,0,0,1,1.43-1.56l-.83-2.82a4.52,4.52,0,0,1-1.1-1.36c-.65-1.18-1.22-2.42-1.86-3.62C518.2,463.46,518.19,463.47,515.41,464.36Zm4.64,9.64c0,2.39-1,4.08-2.71,4.53s-3.64-.55-4.77-2.66A7.85,7.85,0,0,1,512,469c1.11-2.76,3.85-3.23,5.82-1A8.73,8.73,0,0,1,520.05,474Z"/>
    </g>
    <path class="cls-2" d="M508.78,424.49a8.71,8.71,0,0,1-2.34-5.92,9.67,9.67,0,0,1,.13-1.53l-1-3.51a11.61,11.61,0,0,0-1.13,5,11.36,11.36,0,0,0,5.4,9.39Z"/>
    <path class="cls-2" d="M482.11,334.57a25.8,25.8,0,0,1-2.79.14c-12.07-.1-23.44-10.14-23-23.81h0a23,23,0,0,1,12.6-20.76l-.61-2.05a25.21,25.21,0,0,0-14.22,23.2A25.67,25.67,0,0,0,480,336.77a24.7,24.7,0,0,0,2.73-.16Z"/>
    <path class="cls-2" d="M479.23,324.89a12.58,12.58,0,0,1-7.65-3.64c-.5-.53-1.12-1.33-1.87-.69s0,1.41.48,1.89a13.45,13.45,0,0,0,9.67,4.53Z"/>
    <path class="cls-2" d="M464.83,276.33a40.43,40.43,0,0,1-7.26-2.21,20.8,20.8,0,0,1-7.51-33.7,23.58,23.58,0,0,1,3.28-2.85l-.63-2.12a24.23,24.23,0,0,0-6.87,7.15c-7,11.08-3.82,26.42,9.81,32.83a39.36,39.36,0,0,0,9.83,3.09Z"/>
    <path class="cls-2" d="M445.22,210.21q-5.73,15-11.49,30c-1,2.47-1.44,2.67-4,1.7l-33-12.64c-7-2.66-13.93-5.29-20.89-8-2.42-.93-2.55-1.18-1.63-3.6q6.27-16.54,12.6-33c.26-.68.42-1.6,1.3-1.66s1.12.87,1.45,1.5c4,7.61,8,15.23,12,22.84.81,1.52,1.39,2.88-.81,3.74a.9.9,0,0,0-.59,1.16c.19.54.7.57,1.46.53h0c2-1,3,.42,4.14,2a5.92,5.92,0,0,0,6.64,2.37c2.61-.64,2.76-.55,4.12,1.66l6,9.69c.22.35.41.71.65,1,.38.52.86,1,1.53.54s.43-.95.17-1.45c-.34-.67-.72-1.31-1.1-2-1.85-3.08-3.72-6.14-5.56-9.23-1-1.6-.81-2,1-2.67q12.35-4.56,24.69-9.06l-.62-2.11q-15.31,5.67-30.65,11.29c-2.45.89-4,.32-5.57-2-2.09-3-3.44-6.45-5.19-9.66-3.74-6.84-7.31-13.77-10.94-20.66a2.17,2.17,0,0,1-.23-2.09h0c17.28,6.56,34.5,13.06,51.61,19.86l-.79-2.67L391.38,178.5c-.69-.26-1.41-.46-1.88-.61h0c-2.18.07-2.89,1.47-3.46,3q-4.21,10.93-8.38,21.85-2.91,7.61-5.79,15.22c-1,2.61-.5,3.67,2.08,4.78.75.32,1.51.62,2.27.91,7.1,2.69,14.22,5.34,21.3,8.06,10.83,4.16,21.63,8.37,32.46,12.53,2.85,1.1,4.3.39,5.39-2.45q2.81-7.32,5.58-14.64,2.61-6.86,5.23-13.71Z"/>
    <path class="cls-2" d="M437.53,184.27a27.39,27.39,0,0,1-5.88-2.41,30.63,30.63,0,0,1-13.07-13.53,4.69,4.69,0,0,0-4.31-3.05c-3-.18-5.1-2-6.31-4.77a1.68,1.68,0,0,1-.09-1.74c.45-.64,1.09-.29,1.68-.17a25.1,25.1,0,0,0,2.58.53c2.32.27,3-.52,2.88-2.89-.34-5.68,1-10.89,4.73-15.31a17.33,17.33,0,0,1,3.91-3.43l-.57-1.95A20.79,20.79,0,0,0,414,147.19a38.42,38.42,0,0,0-1.21,7.62c-.2,1.74-.94,2.26-2.59,1.79a9.79,9.79,0,0,1-1.83-.85c-.7-.36-1.28-1.23-2.17-.68s-.79,1.52-.81,2.39a9.8,9.8,0,0,0,8.24,9.87c1.16.22,2.24.41,2.85,1.63a35.08,35.08,0,0,0,12.64,13.75,27.17,27.17,0,0,0,9.08,3.87Z"/>
    <path class="cls-2" d="M417.27,116l-.18.26c-.17.24-.56.33-.71.42h0a1.62,1.62,0,0,1-1.76-2.16,5.45,5.45,0,0,1,.37-.72,3.19,3.19,0,0,0-1-4.49c-.86-.65-1.61-1.3-.84-2.51a1.51,1.51,0,0,1,1.16-.83l-.55-1.86a4.38,4.38,0,0,0-2.73,2.15c-1.46,2.28-1.46,2.6.77,4,1.5,1,1.8,1.92.84,3.5-1.33,2.17-1.1,2.77,1,4.12.51.34,1.07.6,1.57,1a1.94,1.94,0,0,0,2.89-.14Z"/>
    <path class="cls-2" d="M406.65,80.19A80,80,0,0,0,400,73.61c-.77-.67-2.36-1-1.68-2.56.51-1.14,3.19-1.81,4.37-1.1.4.24.79.5,1.19.75l-1.32-4.46a4.07,4.07,0,0,1-.66.1h0a3.81,3.81,0,0,1-2.52-1,23.5,23.5,0,0,1-7.83-12.09,3.11,3.11,0,0,1,.46-3.08c.67-.75,1.32-1.71,2.45-1.6s1.1,1.26,1.44,2a40,40,0,0,0,4.29,7.69l-4.38-14.76a102.11,102.11,0,0,1-9.49,8.85c-2.86,2.35-3.27,5-2.36,8.12a17.32,17.32,0,0,0,8.66,10.81,40.9,40.9,0,0,1,8.43,6,62,62,0,0,1,7,7.57ZM397.1,69a4.68,4.68,0,0,1-2.51.64,7,7,0,0,1-4.07-2.15,18.17,18.17,0,0,1-4.72-7.93c-.8-2.64-.18-4.26,1.66-5.54,1-.72,1.71-.65,2.16.58a29.71,29.71,0,0,0,7.83,11.91C398.61,67.56,398.46,68.24,397.1,69Z"/>
    <path class="cls-2" d="M388.8,20c-.2-.83-.42-1.63-.66-2.41q-2,5.28-3.94,10.55a8.81,8.81,0,0,1-11.32,5.53c-4.82-1.61-9.59-3.38-14.37-5.12-4.26-1.55-8.48-3.23-12.77-4.72-5.4-1.87-7.47-7.72-5.33-12.82,1.51-3.61,2.74-7.34,4.12-11h-2.17c-1.59,4.13-3.18,8.26-4.41,12.51a10.72,10.72,0,0,0,6.14,12.75c9.33,3.68,18.81,7,28.23,10.43,5.67,2.09,11.91-1.79,13.62-6.29,1.06-2.82,2.1-5.64,3.14-8.46Z"/>
    <path class="cls-2" d="M383.45,8.22Q381.07,15,378.3,21.69a5.74,5.74,0,0,1-7.63,3.16q-9.19-3.32-18.34-6.71a5.64,5.64,0,0,1-3.81-5.68h0c.19-3.05,1.62-5.72,2.63-8.52.47-1.32,1-2.64,1.46-3.95h-2.11c-1.22,3.27-2.45,6.54-3.49,9.86-1.56,5,.14,8.31,5,10.2,6,2.34,12,4.55,18.06,6.81a7.59,7.59,0,0,0,2.79.48h0c3.68,0,6.54-2,8-5.82s2.73-7.46,4.06-11.2A22.92,22.92,0,0,0,383.45,8.22Z"/>
  </g>
  <g id="Bold_Items" data-name="Bold Items">
    <g>
      <path class="cls-3" d="M237.91,6.87h3.9a5.22,5.22,0,0,1-1.31.07A1.89,1.89,0,0,0,241,7a15.64,15.64,0,0,1,3.41.32,24.71,24.71,0,0,1,5,1.55,24.32,24.32,0,0,1,9.6,7.43,24,24,0,0,1,3.84,7.11,26.36,26.36,0,0,1,1,3.94,14.28,14.28,0,0,1,.24,2.16c0,.59,0,1.17,0,1.75a18.52,18.52,0,0,1-.21,3.57,27.85,27.85,0,0,1-.75,3.28,24.28,24.28,0,0,1-11.09,14,23.67,23.67,0,0,1-4.62,2.08,21.16,21.16,0,0,1-4.46,1c-.84.08-1.67.2-2.52.23a24.83,24.83,0,0,1-14.78-4.53,24.76,24.76,0,0,1-3.3-2.83,24.51,24.51,0,0,1-4.94-7.38,23.83,23.83,0,0,1-1.94-8.6,23.54,23.54,0,0,1,.27-4.74A26,26,0,0,1,217,22.64,23.91,23.91,0,0,1,219.38,18a23.61,23.61,0,0,1,3.32-4.08,24.67,24.67,0,0,1,7.94-5.24,21.9,21.9,0,0,1,4.11-1.25A17.47,17.47,0,0,1,237.81,7c.4,0,.81,0,1.22,0-.38,0-.75,0-1.12-.1ZM241,20.5c-2.3,0-3.87,0-5.44.06q-1.48.06-3,.15a24.79,24.79,0,0,0-4.21.48,3.72,3.72,0,0,0-2.75,2.06,6.9,6.9,0,0,0-.5,1.7c-.14.82-.13,1.64-.2,2.46-.11,1.19-.09,2.38-.11,3.57a46.93,46.93,0,0,0,.17,4.74,13.85,13.85,0,0,0,.26,2.23,3.83,3.83,0,0,0,3.34,3.18,35.11,35.11,0,0,0,4.34.47c1.75.14,3.51.13,5.26.18s3.25,0,4.87,0c.42,0,.83,0,1.25,0,1.61-.06,3.21-.14,4.82-.3a13.69,13.69,0,0,0,2.55-.41,3.63,3.63,0,0,0,2.28-1.71,4.86,4.86,0,0,0,.47-1.27,25.34,25.34,0,0,0,.5-5,46.4,46.4,0,0,0-.14-6.35,12.53,12.53,0,0,0-.55-3.09,3.55,3.55,0,0,0-1.54-1.91,6.09,6.09,0,0,0-2.35-.7c-1.38-.19-2.76-.27-4.15-.34-2-.1-4-.19-5.2-.16Z"/>
      <path class="cls-3" d="M244.47,31.19,237,35.53a.26.26,0,0,1-.12-.25c0-2.27,0-4.54,0-6.81V26.74c2.57,1.45,5.08,2.91,7.61,4.35l0,.1Z"/>
    </g>
    <g>
      <path class="cls-3" d="M44.86,32.48h3.66a.79.79,0,0,1-.34,0l-.9.05a.09.09,0,0,0,.07,0h.21a16.85,16.85,0,0,1,4,.49,20.94,20.94,0,0,1,5.34,2,21.7,21.7,0,0,1,7.28,6.39,21.27,21.27,0,0,1,2.36,4.18,21.85,21.85,0,0,1,1.2,3.78,16.93,16.93,0,0,1,.46,3.62v2a13.52,13.52,0,0,1-.17,2.1,24.56,24.56,0,0,1-.94,3.85A21.64,21.64,0,0,1,64,66.91a21.94,21.94,0,0,1-2.94,3.23,19.55,19.55,0,0,1-1.66,1.35c-.62.44-1.25.85-1.9,1.24a21.84,21.84,0,0,1-5.83,2.34,22.44,22.44,0,0,1-4.07.59,20.87,20.87,0,0,1-5.79-.52A22.41,22.41,0,0,1,36.17,73a20.76,20.76,0,0,1-2.44-1.58,21.7,21.7,0,0,1-5.4-5.78A21.63,21.63,0,0,1,25.24,50.5a22.31,22.31,0,0,1,2.48-7,21.67,21.67,0,0,1,11.87-9.84,17.88,17.88,0,0,1,6-1.07,1.72,1.72,0,0,0,.32,0,.46.46,0,0,0-.2,0,5.12,5.12,0,0,1-.87-.08ZM33.5,67.77a.34.34,0,0,0,.24,0c1.26-.23,2.51-.44,3.77-.65,1.05-.19,2.11-.37,3.17-.54a.41.41,0,0,1,.24,0,12,12,0,0,0,2.65.88,14.86,14.86,0,0,0,5.6.06,12.65,12.65,0,0,0,3.29-1.06,13.68,13.68,0,0,0,4.77-3.67,13.92,13.92,0,0,0,2.38-4.21A12.43,12.43,0,0,0,60.33,54c0-.51,0-1,0-1.53a13.82,13.82,0,0,0-1-3.84,13.83,13.83,0,0,0-17.54-7.39,13.67,13.67,0,0,0-8.82,11.5,14.46,14.46,0,0,0,.2,4.1A12.2,12.2,0,0,0,34.15,60a1.78,1.78,0,0,1,.2,1.16c-.18,1.12-.31,2.24-.47,3.36-.13.89-.22,1.78-.36,2.67a1.21,1.21,0,0,0,0,.57Z"/>
      <path class="cls-3" d="M36.37,64.88c.2-1.54.4-3.06.6-4.62-.09-.18-.2-.39-.32-.6a11.43,11.43,0,0,1-1.36-4,9.59,9.59,0,0,1-.12-2.27,11.55,11.55,0,0,1,8.37-10.27,10.8,10.8,0,0,1,3.79-.4,11.22,11.22,0,0,1,6.74,2.78,11.38,11.38,0,0,1,3.72,6.25A12.05,12.05,0,0,1,58,53.43a10.72,10.72,0,0,1-.81,4.91,11.39,11.39,0,0,1-3.76,4.86,11.38,11.38,0,0,1-11.49,1.29l-.67-.31a.58.58,0,0,0-.41,0l-3,.54-1.32.21s-.1,0-.14,0Zm6.69-12.47a4.5,4.5,0,0,0,.6-.55A1.58,1.58,0,0,0,44,50.15c-.14-.36-.27-.73-.41-1.1a6.81,6.81,0,0,0-.42-1,.93.93,0,0,0-1.32-.37A3.85,3.85,0,0,0,40.43,49a3.33,3.33,0,0,0-.44,3,13.07,13.07,0,0,0,3.07,5.29,13.07,13.07,0,0,0,6.64,3.73,2.38,2.38,0,0,0,2.45-.82c.26-.3.5-.61.75-.91a.94.94,0,0,0-.11-1.43,18.38,18.38,0,0,0-1.57-1.18.9.9,0,0,0-1.21,0,5.47,5.47,0,0,0-.57.51l-.8.77a.36.36,0,0,1-.52.06,12,12,0,0,1-3.49-2.75A8.94,8.94,0,0,1,43.24,53a1.62,1.62,0,0,1-.17-.59Z"/>
    </g>
    <path class="cls-3" d="M445.54,391a27.26,27.26,0,0,1,3.93.3,25,25,0,0,1,4.67,1.34,22.55,22.55,0,0,1,5.14,2.93c.66.5,1.28,1,1.89,1.6a23.09,23.09,0,0,1,2,2.1,22.86,22.86,0,0,1,5.13,12.28c.1,1,0,2,.05,3a19.37,19.37,0,0,1-.77,5.24,22.89,22.89,0,0,1-10.74,13.79,22,22,0,0,1-4.42,1.94,23.08,23.08,0,0,1-3.94.86,24.47,24.47,0,0,1-3.63.2,22.58,22.58,0,0,1-6.5-1.15,20.47,20.47,0,0,1-4.45-2,24,24,0,0,1-3.7-2.7,23.33,23.33,0,0,1-4.58-5.66,22.57,22.57,0,0,1-2.66-7.33,24.07,24.07,0,0,1-.32-5.09,18.69,18.69,0,0,1,.42-3.49,23.24,23.24,0,0,1,3-7.42,22.77,22.77,0,0,1,4.85-5.55,22.47,22.47,0,0,1,8.53-4.43,23.52,23.52,0,0,1,3.24-.65c1-.13,1.92-.06,2.89-.13ZM431.77,423.2a.28.28,0,0,0,.18.24c.44.23.87.46,1.32.66a19.54,19.54,0,0,0,4,1.27,18.47,18.47,0,0,0,2.68.3,18.24,18.24,0,0,0,3.3-.15,16.48,16.48,0,0,0,3.24-.79,17.44,17.44,0,0,0,2.68-1.21,16.08,16.08,0,0,0,3.57-2.67,5.81,5.81,0,0,1,.65-.62,16.13,16.13,0,0,0,4.05-12,6.23,6.23,0,0,0,2.77-2.79c-.13-.09-.21,0-.29,0a8.56,8.56,0,0,1-1.48.49,1.87,1.87,0,0,1-.66.08.37.37,0,0,1,.13-.4l.35-.35a6.09,6.09,0,0,0,1.28-2.07.22.22,0,0,0,0-.27,15.9,15.9,0,0,1-3.47,1.56,6.08,6.08,0,0,0-7.16-1.22c-2.65,1.28-3.58,3.56-3.21,6.42h-.28a12.39,12.39,0,0,1-3.87-.62,16.54,16.54,0,0,1-4.76-2.54,18.55,18.55,0,0,1-2.84-2.62,1.58,1.58,0,0,0-.27-.31c-.08,0-.11.11-.14.17a6.09,6.09,0,0,0-.72,2.23,5.39,5.39,0,0,0,.83,3.56,6.55,6.55,0,0,0,1.49,1.62c.08.07.21.11.19.28a3.83,3.83,0,0,1-2.54-.73v.19a6.3,6.3,0,0,0,.3,1.67,5.68,5.68,0,0,0,2,2.94,6.9,6.9,0,0,0,1.7.89c.07,0,.18,0,.18.18a4.31,4.31,0,0,1-.62.15,3.8,3.8,0,0,1-1.5-.09.21.21,0,0,0-.25.05,6.14,6.14,0,0,0,5.24,4.1.9.9,0,0,1-.3.34A7.3,7.3,0,0,1,437,422.5a16.18,16.18,0,0,1-4.31.7Z"/>
    <path class="cls-3" d="M358.08,136.67h4.54a.44.44,0,0,1-.25,0l-1.08.07a.71.71,0,0,0,.2,0,22.71,22.71,0,0,1,3.39.3,27.76,27.76,0,0,1,5.93,1.78,26.32,26.32,0,0,1,7.79,5.23,26,26,0,0,1,3.68,4.49,26.09,26.09,0,0,1,4.09,11.46,24.49,24.49,0,0,1,.08,4.45,28.53,28.53,0,0,1-.7,4.52,26.08,26.08,0,0,1-5.84,11,26.85,26.85,0,0,1-3.67,3.4,26.29,26.29,0,0,1-7.73,4.08,27.21,27.21,0,0,1-5.79,1.2,24.69,24.69,0,0,1-6.76-.26,25.35,25.35,0,0,1-4.35-1.15,26.24,26.24,0,0,1-15.05-13.74,25.22,25.22,0,0,1-1.95-6.29,16,16,0,0,1-.29-2.28c0-.72,0-1.44,0-2.16s0-1.74,0-2.6a22.22,22.22,0,0,1,.54-3.33,25.3,25.3,0,0,1,3.28-7.91,25.7,25.7,0,0,1,5-5.84,27.05,27.05,0,0,1,3.79-2.77,25.48,25.48,0,0,1,7.4-3,18.27,18.27,0,0,1,4.22-.59h.85a.76.76,0,0,0,.36-.07c-.16,0-.28,0-.39,0a9,9,0,0,1-1.27-.09Zm16.52,16.11a5.76,5.76,0,0,0-.05-1.1,1.24,1.24,0,0,0-1.12-1.17,3,3,0,0,0-.95.06,24.82,24.82,0,0,0-4.61,1.42c-3.16,1.22-6.27,2.58-9.37,3.95-2,.89-4,1.8-6,2.71s-3.87,1.73-5.81,2.58c-.92.4-1.85.75-2.74,1.21a3.45,3.45,0,0,0-.92.64.72.72,0,0,0-.07,1,1.23,1.23,0,0,0,.42.33,9.59,9.59,0,0,0,1.71.66,29.37,29.37,0,0,0,4,1.28,5.41,5.41,0,0,0,4.14-.8c1.15-.8,2.31-1.57,3.47-2.35l8.1-5.46a5.11,5.11,0,0,1,1.82-.87c.21,0,.42-.1.58.09s0,.36-.05.53a4.17,4.17,0,0,1-1,1.3c-.89.87-1.81,1.71-2.71,2.56q-2.21,2.07-4.4,4.15a16.84,16.84,0,0,0-1.93,1.94,1.37,1.37,0,0,0,0,1.88,3.84,3.84,0,0,0,.62.59l1.55,1.1c2.23,1.56,4.46,3.11,6.68,4.68a6,6,0,0,0,2.35,1.13,2.28,2.28,0,0,0,2.54-1.22,4.71,4.71,0,0,0,.36-1c.22-.94.35-1.9.51-2.85.39-2.27.75-4.53,1.11-6.8.22-1.32.44-2.64.63-4,.24-1.69.54-3.37.77-5.06a21.67,21.67,0,0,0,.31-3.21Z"/>
    <path class="cls-3" d="M182.79,434.32h4c-.41.06-.83.07-1.26.1a23.15,23.15,0,0,1,12.36,3.81,23.87,23.87,0,0,1,8.64,9.65,23.59,23.59,0,0,1,2.43,12.68,24.32,24.32,0,0,1-48.44.37,23.54,23.54,0,0,1,2.3-12.88,24.09,24.09,0,0,1,8.71-9.82A22.89,22.89,0,0,1,184,434.42a1.29,1.29,0,0,0-.44,0,4.15,4.15,0,0,1-.79-.07Zm-2.94,19.36a4.17,4.17,0,0,0,0,.78q0,8,0,16c0,.46,0,.92,0,1.38a.22.22,0,0,0,.22.25h5a.63.63,0,0,0,.27,0,.54.54,0,0,0,.05-.33v-9.6a2.35,2.35,0,0,1,0-.26,3.81,3.81,0,0,1,2.46-3.14,3.5,3.5,0,0,1,4.79,2.4,7,7,0,0,1,.14,2c0,2.87,0,5.74,0,8.61a.58.58,0,0,0,0,.34h5.4a.56.56,0,0,0,.08-.35v-11a12.54,12.54,0,0,0-.09-2.12,6.19,6.19,0,0,0-3.87-4.76,5.87,5.87,0,0,0-2.15-.45,13.87,13.87,0,0,0-2.88.11,6.08,6.08,0,0,0-3.77,2.29c0,.05-.08.11-.17.08,0-.74,0-1.49,0-2.25h-5.49Zm-8.73,0v18.43h5.54V453.69Zm2.71-9.32a3.23,3.23,0,0,0-3.27,3.11,3.29,3.29,0,0,0,3.3,3.6,3.38,3.38,0,0,0,3.38-3.23A3.33,3.33,0,0,0,173.83,444.37Z"/>
    <g>
      <path class="cls-3" d="M244.06,217.68h3.66a1.12,1.12,0,0,1-.32,0,6,6,0,0,0-1.12.08l.6,0a21,21,0,0,1,2.5.16,27.57,27.57,0,0,1,5.85,1.54,26.07,26.07,0,0,1,12.43,10.18,25.34,25.34,0,0,1,3.79,10.06,25,25,0,0,1,.29,5,28.73,28.73,0,0,1-.5,4.05,25.4,25.4,0,0,1-2.12,6.24,25.92,25.92,0,0,1-4.53,6.49,26.7,26.7,0,0,1-4.18,3.55,26.08,26.08,0,0,1-8.9,3.86,27.52,27.52,0,0,1-3.62.56,26.45,26.45,0,0,1-3.88,0c-.7,0-1.38-.18-2.07-.26a21.72,21.72,0,0,1-4.15-.95,24.07,24.07,0,0,1-3.73-1.51,25.78,25.78,0,0,1-3-1.74,26.61,26.61,0,0,1-5.87-5.54,26,26,0,0,1-2.89-4.65,23.52,23.52,0,0,1-2.47-10.07,35.13,35.13,0,0,1,.12-4.47,25.3,25.3,0,0,1,1-4.64,26.1,26.1,0,0,1,8.62-12.37,28.15,28.15,0,0,1,2.79-1.92,25.65,25.65,0,0,1,8.88-3.27,13.71,13.71,0,0,1,2.71-.29c.41,0,.82,0,1.23,0v-.07a2.69,2.69,0,0,0-.57-.06,2.14,2.14,0,0,1-.62,0Zm-15,25.93h0v7.8a7.32,7.32,0,0,0,.14,1.47,9.08,9.08,0,0,0,9,7.37h15a9.13,9.13,0,0,0,4.14-.88,8.88,8.88,0,0,0,4.95-6.31,13.68,13.68,0,0,0,.21-2.93c0-4.5,0-9,0-13.5a11.14,11.14,0,0,0-.14-2.08,8.86,8.86,0,0,0-3.81-5.92,8.75,8.75,0,0,0-5.07-1.56h-15a12.24,12.24,0,0,0-1.6.07,8.62,8.62,0,0,0-3.6,1.32,9,9,0,0,0-3,3.29,8.32,8.32,0,0,0-1.1,4c0,2.63,0,5.24,0,7.86Z"/>
      <path class="cls-3" d="M259.45,243.6c0,2.53,0,5.07,0,7.6a5.93,5.93,0,0,1-1.44,3.87,6.22,6.22,0,0,1-2.79,1.88,6.43,6.43,0,0,1-2.22.33c-4.19,0-8.38,0-12.57,0-.81,0-1.63,0-2.45,0a6,6,0,0,1-4.16-1.86,5.91,5.91,0,0,1-1.7-3.43,23.43,23.43,0,0,1-.07-3.35c0-4.07,0-8.13,0-12.19a6.39,6.39,0,0,1,.9-3.41,6,6,0,0,1,4.21-2.89,17.48,17.48,0,0,1,3.15-.12h12.76a6.27,6.27,0,0,1,6.06,4.15,5,5,0,0,1,.32,1.84c0,1.28,0,2.55,0,3.82v3.79Zm-13.77-9a9.09,9.09,0,1,0,9.24,9,9.08,9.08,0,0,0-9.24-9Zm9-1.73a2,2,0,0,0-2,1.95,1.92,1.92,0,0,0,2.05,1.94,2,2,0,0,0,1.92-2,2,2,0,0,0-2-1.89Z"/>
      <path class="cls-3" d="M241.34,239.92a.91.91,0,0,1,.35-.49,5.88,5.88,0,0,1,8.64,8,5.6,5.6,0,0,1-3.74,2.13,5.69,5.69,0,0,1-4.92-1.61,5.75,5.75,0,0,1-1.74-3.33,5.7,5.7,0,0,1,1.11-4.42.78.78,0,0,1,.3-.24Z"/>
    </g>
    <path class="cls-3" d="M60.41,313c-.82,0-1.64,0-2.46,0a13.72,13.72,0,0,1-2.62-.4,24.23,24.23,0,0,1-7.88-3.18,24.34,24.34,0,0,1-10.88-15.35,23.77,23.77,0,0,1-.53-3.94,23.1,23.1,0,0,1,.05-3.53A24.23,24.23,0,0,1,43,271.79a25.18,25.18,0,0,1,3-2.63,24.41,24.41,0,0,1,4.66-2.66,25,25,0,0,1,5.75-1.7,24.44,24.44,0,0,1,22.7,8.34,24.13,24.13,0,0,1,4.37,7.68,24.45,24.45,0,0,1,1.11,4.46,23.16,23.16,0,0,1,.2,5.13,26.31,26.31,0,0,1-1,5.57,23.54,23.54,0,0,1-2.06,4.75,22.87,22.87,0,0,1-1.25,2,25.23,25.23,0,0,1-4.81,5.09A24.43,24.43,0,0,1,67.75,312a25.81,25.81,0,0,1-4.68,1c-.35,0-.7,0-1,0H60.41v0Zm2.14-5.78V291.91h4.91c.38-2.08.68-4.17,1-6.29H62.64a.33.33,0,0,1-.09-.27v-4.18A2.57,2.57,0,0,1,64,278.75a3.61,3.61,0,0,1,1.48-.42c1-.08,2,0,3,0,.07,0,.15,0,.21,0v-5.17a.68.68,0,0,0-.29-.07L67,273c-1,0-2.11-.07-3.16-.13a10.79,10.79,0,0,0-2,0,6.29,6.29,0,0,0-4.14,2.27,8.54,8.54,0,0,0-1.9,5.39c-.05,1.58,0,3.16,0,4.75,0,.1,0,.2-.07.3H50.23a.8.8,0,0,0-.08.45v5.29a1,1,0,0,0,.08.55c1.84.06,3.67,0,5.55,0v15.3Z"/>
  </g>
</svg>
