<svg id="Assistant" xmlns="http://www.w3.org/2000/svg" viewBox="0 0 512 512">
  <defs>
    <style>
      .cls-1 {
        fill: transparent;
      }

      .cls-2 {
        fill: #b1d6e8;
      }

      .cls-3 {
        fill: #338cb7;
      }
    </style>
  </defs>
  <rect id="BG" class="cls-1" width="512" height="512"/>
  <g id="Items">
    <path class="cls-2" d="M111.87,36.88a5.43,5.43,0,0,1,4.06,1.87,10.64,10.64,0,0,1,2.1,3.39c.77,2,1.51,3.91,2.17,5.9.61,1.79,1.1,3.65,1.68,5.46.63,2,1.31,4,2,6,.33,1,.31,1.28-.63,1.92a2.11,2.11,0,0,0-1.07,1.85.72.72,0,0,1-.83.6,3.8,3.8,0,0,1-.82-.21,1.34,1.34,0,0,0-1.11,0c-.6.27-1.22.53-1.81.83a90.3,90.3,0,0,1-10.31,4.22,28.53,28.53,0,0,1-4.43,1.14,6.83,6.83,0,0,1-7.07-2.7,18,18,0,0,1-2-3.15,81.75,81.75,0,0,1-5.28-15.08,1.23,1.23,0,0,1,.65-1.44c5.27-2.87,10.42-6,15.93-8.39,1.39-.62,2.8-1.19,4.24-1.68A16.14,16.14,0,0,1,111.87,36.88Zm-8.21,17.44a4,4,0,0,0,4-2.3,57,57,0,0,0,4.57-12.25c0-.2-.26-.57-.47-.63a4.18,4.18,0,0,0-2.24.19,52.26,52.26,0,0,0-7.87,3.32c-3.31,1.68-6.58,3.42-9.86,5.14l-.47.32-.22.19a.48.48,0,0,0,.05.69s0,0,0,0a49.18,49.18,0,0,0,10.26,4.87,17.14,17.14,0,0,0,2.25.42Zm5.39-.27a3.93,3.93,0,0,0-.68.47,5.75,5.75,0,0,1-4.11,1.7,8,8,0,0,0-.85,0,1.12,1.12,0,0,0-1,.87c-.11.36-.24.72-.32,1.09a49.39,49.39,0,0,1-2.49,7.88c-.42,1,0,1.68,1.11,1.73a8.19,8.19,0,0,0,2-.06c1.22-.21,2.42-.51,3.62-.82a56.7,56.7,0,0,0,10.54-4.29,3.06,3.06,0,0,0,.65-.54.36.36,0,0,0,0-.51h0a1.58,1.58,0,0,0-.15-.24q-3.87-3.57-7.76-7.12a1.66,1.66,0,0,0-.57-.18Zm5.21-13.47c-.07.06-.17.1-.21.17a8.71,8.71,0,0,0-.59,1.28c-.83,3-2,5.93-3.13,8.86-.14.35-.3.7-.41,1.06a1.18,1.18,0,0,0,.33,1.3c.55.51,1.12,1,1.71,1.49,2.38,1.9,4.75,3.79,7.15,5.66.79.61,1.44.51,2.31-.21a1,1,0,0,0,.38-1c-.85-3.11-1.67-6.23-2.58-9.33-.51-1.72-1.14-3.42-1.8-5.1a12.16,12.16,0,0,0-2-3.43,4.87,4.87,0,0,0-.88-.69.59.59,0,0,0-.27,0ZM100.67,56.49a1.24,1.24,0,0,0-.7-1.19,51.59,51.59,0,0,1-6.08-3.17c-.57-.34-1.14-.7-1.73-1a1,1,0,0,0-.8-.08.87.87,0,0,0-.19.77,55.94,55.94,0,0,0,2.19,7.39,31.4,31.4,0,0,0,1.39,3.15c.43.85,1,1.64,1.48,2.44a4.92,4.92,0,0,0,.57.64.67.67,0,0,0,1,0,.64.64,0,0,0,.19-.27c.92-2.9,1.83-5.82,2.73-8.72Z" transform="translate(0 0)"/>
    <path class="cls-2" d="M51.66,410.14c0-1.68.09-4.25.17-6.83A8.37,8.37,0,0,1,52,401.9a1.28,1.28,0,0,1,1.52-.92,12.37,12.37,0,0,1,3.83,1.9A20.21,20.21,0,0,1,60.75,406,34.11,34.11,0,0,1,64.48,411a59.45,59.45,0,0,1,5.31,11.09,21.91,21.91,0,0,1,1.51,6.67c0,.77,0,1.54,0,2.29a4.61,4.61,0,0,1-2.34,4c-.26.14-.49.3-.74.44a1,1,0,0,0-.44,1,13.89,13.89,0,0,0,.23,1.7,66.38,66.38,0,0,1,1.53,16.21,5.87,5.87,0,0,0,1,3.76,17.37,17.37,0,0,1,1.15,2.28c.09.19-.15.61-.4.68a.83.83,0,0,1-.54,0,3.25,3.25,0,0,1-1.29-1.5,10.1,10.1,0,0,1-.5-1.33,4.33,4.33,0,0,0-1.25-1.88c-6.68-5.88-10.53-13.45-12.93-21.86a82.39,82.39,0,0,1-2.4-12.35C51.94,418.48,51.89,414.76,51.66,410.14Zm11.87,17a3.47,3.47,0,0,0-.55.16,8.77,8.77,0,0,1-5.82.82l-.85-.13c-.19,0-.37-.07-.56-.09a.74.74,0,0,0-.86.58,1.13,1.13,0,0,0,0,.26A55.85,55.85,0,0,0,59,442.32a38.81,38.81,0,0,0,6.31,9.8c.56.64,1.18,1.24,1.79,1.83a.82.82,0,0,0,.52.22c.16,0,.44-.08.47-.18a5,5,0,0,0,.26-1.38,60.78,60.78,0,0,0-.65-8.53c-.38-2.73-.91-5.44-1.48-8.14-.53-2.51-1.19-5-1.81-7.49a1.67,1.67,0,0,0-.92-1.33ZM52.8,408.88h-.1c.28,3.61.52,7.23.84,10.85.15,1.71.41,3.41.64,5.11a4.84,4.84,0,0,0,.22.83,1.48,1.48,0,0,0,1,1,8.35,8.35,0,0,0,5.34.2,7.1,7.1,0,0,0,1.77-.92,1.57,1.57,0,0,0,.77-2c-.53-1.83-1.06-3.67-1.65-5.48A62,62,0,0,0,57.68,409a34.52,34.52,0,0,0-3.37-5.31,4.9,4.9,0,0,0-.85-.73c-.15-.12-.72.07-.75.24a4.16,4.16,0,0,0-.18,1.11C52.6,405.83,52.71,407.35,52.8,408.88Zm17.45,20.23a13.59,13.59,0,0,0-.87-4.89,59.27,59.27,0,0,0-9.74-17.73c-.53-.66-1.16-1.26-1.76-1.87a2.85,2.85,0,0,0-.67-.53.58.58,0,0,0-.51-.07.54.54,0,0,0-.1.49c.87,1.59,1.82,3.13,2.65,4.75a57.28,57.28,0,0,1,4,10.11c1.2,4.13,2.29,8.28,3.42,12.42.16.55.3,1.1.48,1.64s.83.71,1.36.22a4.63,4.63,0,0,0,1.17-1.6A6.64,6.64,0,0,0,70.25,429.11Z" transform="translate(0 0)"/>
    <path class="cls-2" d="M13.21,143.24c-.07.85-.1,1.71-.22,2.56a6,6,0,0,1-2.59,4.28,13.52,13.52,0,0,1-2.49,1.39,17.8,17.8,0,0,1-6.67,1.41,4,4,0,0,1-.83-.17.37.37,0,0,1-.3-.43c0-.29,0-.59.3-.73a2.94,2.94,0,0,1,.8-.24c1.32-.21,2.65-.37,4-.62a9.87,9.87,0,0,0,3.46-1.33A5.12,5.12,0,0,0,11.06,146a16.2,16.2,0,0,0,.12-6,48.6,48.6,0,0,0-1.77-7.52c-1.56-4.91-2.93-9.87-4-14.91q-1.25-5.88-2.05-11.84A141.48,141.48,0,0,1,2.09,90.36c0-1.14-.11-2.29-.19-3.43a1.15,1.15,0,0,0-1-1.16,1.55,1.55,0,0,1-.51-.22c-.28-.18-.26-.47-.26-.76a.67.67,0,0,1,.46-.65,7.15,7.15,0,0,1,1.39-.29c.66-.09,1.33-.12,2-.2A4.6,4.6,0,0,0,6,82.83,1.6,1.6,0,0,0,6.58,81a4.33,4.33,0,0,0-1.74-2.21,22.64,22.64,0,0,0-2.51-1.37c-.59-.3-1.24-.49-1.85-.74-.43-.18-.56-.6-.43-1.23A.53.53,0,0,1,.63,75h0a13.19,13.19,0,0,1,6.36,3,4.34,4.34,0,0,1,1.47,3.59,3.3,3.3,0,0,1-1.64,2.85,23.48,23.48,0,0,1-2.34,1.05,1.1,1.1,0,0,0-.66.87,4.88,4.88,0,0,0-.07.85,87.58,87.58,0,0,0,.37,8.87c.28,2.46.46,4.94.74,7.4A123.55,123.55,0,0,0,8.7,123.16c1.22,4.32,2.51,8.61,3.45,13A36,36,0,0,1,13.21,143.24Z" transform="translate(0 0)"/>
    <path class="cls-2" d="M8.12,433.31c.33-.13.65-.15.82-.32.42-.4.74-.88,1.14-1.28a20.65,20.65,0,0,1,1.65-1.59,6.68,6.68,0,0,1,6.72-1.25,15.74,15.74,0,0,1,8.21,5.93A9,9,0,0,1,28.49,441c0,.19,0,.38-.06.57A3.44,3.44,0,0,1,24,444.37a6.23,6.23,0,0,1-2.46-1.43l-1.56-1.48c-.59-.07-.77.32-1.05.54a1,1,0,0,1-1.07.19c-1-.48-2.05-1-3.08-1.51a1,1,0,0,0-1.28.22,3.21,3.21,0,0,1-1.68,1,7.27,7.27,0,0,0-1.09.35.87.87,0,0,0-.58.89c.07,1.33.17,2.66.28,4,.06.77.18,1.52.23,2.28.07,1.06-.34,1.54-1.45,1.74-.28.05-.56.1-.85.13-2.18.21-4.36.42-6.55.61a4,4,0,0,1-1.14,0,.65.65,0,0,1-.55-.56c-.1-.72.17-1.24.76-1.3l6-.64a3.79,3.79,0,0,0,1.11-.23,1.12,1.12,0,0,0,.49-.64,1.84,1.84,0,0,0,.07-.84A88.48,88.48,0,0,0,6.9,437.2a29,29,0,0,0-1.58-4.89A9.5,9.5,0,0,0,.7,427.06a1.06,1.06,0,0,1-.68-.84c-.12-.85.34-1.28,1.13-1.12a6.73,6.73,0,0,1,3.39,2,12.46,12.46,0,0,1,2.37,3.55Zm7.74-3.22a5.88,5.88,0,0,0-3.26,1,12.94,12.94,0,0,0-2,1.61c-2,2-2.1,2.24-1.52,5,.16.75.35,1.48.53,2.22.13.52.54.65,1.13.44A1.87,1.87,0,0,0,12.12,439a5.56,5.56,0,0,1,.25-.82c.33-.82.92-1,1.54-.48.36.32.68.68,1.05,1a13.6,13.6,0,0,0,1.44.93.79.79,0,0,0,1.25-.62c0-.57,0-1.15,0-1.72,0-.37.08-.77.51-.92s.8,0,1.15.6c.44.73.83,1.5,1.32,2.2.61.86,1.26,1.68,1.94,2.47a3.81,3.81,0,0,0,1.68,1.05,1.9,1.9,0,0,0,2.22-.84,2.38,2.38,0,0,0,.35-1.06,7.52,7.52,0,0,0-.2-1.7c-.74-3.19-4.48-7.45-8.81-8.69A14.82,14.82,0,0,0,15.86,430.09Z" transform="translate(0 0)"/>
    <path class="cls-2" d="M0,14.27V10A29,29,0,0,1,.42,3.76C.59,2.83.6,1.87.71.93A1.09,1.09,0,0,1,2.25.16a.76.76,0,0,1,.38.37,5.88,5.88,0,0,1,0,2.54c-.21,1.41-.48,2.81-.72,4.21A54.68,54.68,0,0,0,1,18.34C1,19.57,1,20.8.89,22a2.12,2.12,0,0,1-.33.77c0,.07-.16.1-.25.11s-.18-.06-.18-.11A7,7,0,0,1,0,21.68Z" transform="translate(0 0)"/>
    <g>
      <path class="cls-2" d="M18.4,233a3.22,3.22,0,0,0,.7.45,3.25,3.25,0,0,1,1.9,1.64,5.35,5.35,0,0,1,.3,5,4.28,4.28,0,0,1-4.62,2.66,23.16,23.16,0,0,1-2.48-.5,1.83,1.83,0,0,0-.51.29,39.66,39.66,0,0,1-5.85,5.88.87.87,0,0,0-.19,1.27c.26.41.52.8.77,1.2a15.5,15.5,0,0,1,2.38,6.39,12.84,12.84,0,0,0,.48,1.92.3.3,0,0,0,.48.14.58.58,0,0,0,.24-.14A26.18,26.18,0,0,0,17.27,250c.19-.64.33-1.29.51-1.94.07-.28.15-.55.24-.82s.42-.51.65-.42.39.14.46.28c.53,1.11,1,2.24,1.55,3.37a.61.61,0,0,0,.77.13c.06-.07.15-.11.22-.18a1.19,1.19,0,0,0,.16-.23,38.21,38.21,0,0,0,4.94-13.95,25.07,25.07,0,0,0-3.43-16.77c-.4-.66-.83-1.29-1.24-1.93s-.34-.75-.1-1,.72-.14,1.18.38c.89,1,1.76,2,2.64,3a2.44,2.44,0,0,0,.66.54c.09,0,.35-.11.45-.23a.94.94,0,0,0,.15-.54,11.25,11.25,0,0,0-1.57-5.44,18.09,18.09,0,0,0-4.67-5.37,28.71,28.71,0,0,0-11-5.34,28.79,28.79,0,0,0-8.21-1,4.28,4.28,0,0,1-1.13-.09c-.14,0-.26-.24-.35-.39s.13-.62.38-.66a11,11,0,0,1,1.4-.23,22.31,22.31,0,0,1,5.71.35,30.51,30.51,0,0,1,12.77,5.5,22.18,22.18,0,0,1,5.36,5.53,14.59,14.59,0,0,1,2.59,8.63,3.49,3.49,0,0,1-.89,2.63,1.11,1.11,0,0,0-.22,1.07c.29,1.5.61,3,.87,4.5a19.86,19.86,0,0,1,.11,5.71,37.7,37.7,0,0,1-2.7,10.49A47.77,47.77,0,0,1,22.32,252a9.29,9.29,0,0,1-.84,1.14.73.73,0,0,1-1,0c-.36-.66-.71-1.34-1.06-2-.17-.31-.52-.49-.69-.36a2,2,0,0,0-.42.35,1.89,1.89,0,0,0-.26.51c-1.64,4-4.26,7.44-7,10.77a1.67,1.67,0,0,1-.7.47c-.11,0-.37-.1-.46-.22a1.82,1.82,0,0,1-.09-1.39,13.75,13.75,0,0,0-.08-4.57A15.53,15.53,0,0,0,7,250.13a1,1,0,0,0-1.24-.37c-1.12.51-2.23,1.07-3.37,1.56a12,12,0,0,1-1.65.48.7.7,0,0,1-.69-.37c-.12-.3,0-1,.13-1.09.42-.23.83-.47,1.27-.66,7.33-3.22,12.05-8.82,14.81-16.23A23.51,23.51,0,0,0,17.54,227a5.88,5.88,0,0,0-.17-1.39.58.58,0,0,0-.71-.32c-.66.37-1.32.75-2,1.15A36.6,36.6,0,0,1,1.59,231.2a7.89,7.89,0,0,1-.85.08.62.62,0,0,1-.65-.42.89.89,0,0,1,.31-1,5.28,5.28,0,0,1,.79-.28c1-.23,2.06-.42,3.08-.66a44.24,44.24,0,0,0,11.94-4.71c.88-.52,1.09-.95.86-1.87a14.79,14.79,0,0,0-5-8.17c-1-.86-2.18-1.53-3.28-2.29-.31-.22-.6-.45-.9-.68a.73.73,0,0,1-.07-.8,1.43,1.43,0,0,1,.7-.39,1.45,1.45,0,0,1,.82.15,17.09,17.09,0,0,1,9.39,12,19.19,19.19,0,0,1,.1,8C18.67,231,18.56,232,18.4,233Zm2.18,4.67a4.3,4.3,0,0,0-1.64-3,.79.79,0,0,0-1.11.06l-.1.14c-.78,1.64-1.56,3.27-2.33,4.91l-.52,1a.72.72,0,0,0,.47.9C18.21,242.73,20.68,240.41,20.58,237.63Z" transform="translate(0 0)"/>
      <path class="cls-2" d="M2.47,236.78a2.48,2.48,0,0,1,.58.25c.35.31.66.66,1,1a.7.7,0,0,0,.77-.09c.49-.69.95-1.4,1.45-2.08a4.08,4.08,0,0,1,.63-.54.66.66,0,0,1,.87.44,1.76,1.76,0,0,1-.08.82c-.63,1.15-1.28,2.31-2,3.41a1.07,1.07,0,0,1-1.42.45,1.21,1.21,0,0,1-.26-.2,4.8,4.8,0,0,1-1.83-2.75C2.17,237.26,2.37,237,2.47,236.78Z" transform="translate(0 0)"/>
    </g>
    <path class="cls-2" d="M6.61,436.46l-.12.21a2.67,2.67,0,0,1-.08-.48c0-.07.07-.14.11-.21C6.56,436.14,6.58,436.3,6.61,436.46Z" transform="translate(0 0)"/>
    <path class="cls-2" d="M6.51,167.23a1.15,1.15,0,0,1,.1.23c0,.28,0,.39-.19.28s0-.18,0-.27A2.56,2.56,0,0,1,6.51,167.23Z" transform="translate(0 0)"/>
    <g>
      <path class="cls-2" d="M120.29,422.75c.21-.14.42-.2.51-.34a5.35,5.35,0,0,0,.59-1c1.87-4,3.77-7.93,5.59-11.92.94-2.08,1.74-4.23,2.61-6.34a2.79,2.79,0,0,0-1.06-3.53,11.39,11.39,0,0,0-1.45-.91l-7-3.93c-2.41-1.35-4.82-2.72-7.25-4A113.33,113.33,0,0,0,100.42,385a8,8,0,0,1-1.52-.77,1,1,0,0,1-.3-.74c0-.26.56-.72.84-.65a12.94,12.94,0,0,1,1.92.51,91.76,91.76,0,0,1,10.15,4.61q4.81,2.55,9.53,5.25c3,1.7,5.9,3.51,8.84,5.28.57.35,1.12.72,1.68,1.08a1.39,1.39,0,0,1,.59,1.5,7.43,7.43,0,0,1-.38,1.38c-.94,2.39-1.84,4.81-2.85,7.18s-2.08,4.5-3.12,6.75-2,4.51-3.1,6.76c-.23.52-.49,1-.77,1.54a1.09,1.09,0,0,1-1.22.52c-.36-.13-.72-.26-1.06-.42-5.9-2.67-11.83-5.33-17.72-8a127,127,0,0,1-13.86-7.39c-1.62-1-3.2-2.08-4.78-3.14a10.62,10.62,0,0,1-1.1-.91,1.09,1.09,0,0,1-.2-1.07c.19-.33.37-.66.58-1,1.67-2.44,3.34-4.89,5-7.32,1.58-2.26,3.18-4.52,4.8-6.76A14.75,14.75,0,0,1,95.32,386a3.76,3.76,0,0,1,2.05-.91c.08,0,.22.05.23.1s.08.41,0,.47a26.53,26.53,0,0,0-5.7,6.74c-2.33,3.61-4.68,7.19-7,10.8a2,2,0,0,0-.37.77.94.94,0,0,0,.19.76,16.15,16.15,0,0,0,1.83,1.37,110,110,0,0,0,11.65,6.68c5.27,2.68,10.69,5.05,16.09,7.47l5,2.21A7.53,7.53,0,0,0,120.29,422.75Z" transform="translate(0 0)"/>
      <path class="cls-2" d="M124,403.54a21.45,21.45,0,0,1-1.32,4.86,1.24,1.24,0,0,1-1.36.8,8.91,8.91,0,0,1-4.28-2.11,2.32,2.32,0,0,1-.58-2.85,29.1,29.1,0,0,1,1.58-2.69,2.08,2.08,0,0,0,.32-1.05c0-1,.43-1.26,1.43-1a10.59,10.59,0,0,1,3.65,2.14C123.91,402.05,124.08,402.53,124,403.54Zm-1.6-.2a1.62,1.62,0,0,0-.21-.51,3.87,3.87,0,0,0-2.16-1.27,1.08,1.08,0,0,0-.77.26,4.85,4.85,0,0,0-1.5,2.36,1.66,1.66,0,0,0,.48,1.81,6.51,6.51,0,0,0,2.16,1.33.94.94,0,0,0,1.25-.48.6.6,0,0,0,.06-.19c.26-1,.47-2,.7-3a.89.89,0,0,0,0-.28Z" transform="translate(0 0)"/>
      <path class="cls-2" d="M95.58,404.65a13.22,13.22,0,0,1,1.65.4,88.36,88.36,0,0,1,9.15,4,9.59,9.59,0,0,1,3.46,2.47,1.69,1.69,0,0,1,.32.77.49.49,0,0,1-.29.39,1.48,1.48,0,0,1-.83-.1,24.29,24.29,0,0,1-2.42-1.5,43.83,43.83,0,0,0-7.15-4.13,15.08,15.08,0,0,1-4-2.13Z" transform="translate(0 0)"/>
      <path class="cls-2" d="M97.16,395.93a2.63,2.63,0,0,1,1.64.34c2.27,1,4.6,1.85,6.91,2.76a6.66,6.66,0,0,1,1.41.94c.09.08.06.34,0,.52s-.15.14-.24.14a2.79,2.79,0,0,1-1.12,0,85.61,85.61,0,0,1-8.75-4.19c-.06,0-.08-.18-.06-.26S97.11,396,97.16,395.93Z" transform="translate(0 0)"/>
      <path class="cls-2" d="M103.56,403.63a5,5,0,0,1,3.56,1.45.28.28,0,0,1,0,.25.28.28,0,0,1-.33.24.23.23,0,0,1-.12-.06,15.47,15.47,0,0,1-3.1-1.93Z" transform="translate(0 0)"/>
      <path class="cls-2" d="M95.47,404.78a5,5,0,0,1-.75-.15c-.1,0-.14-.23-.21-.34s.16-.1.23-.09c.34,0,.71,0,.84.45Z" transform="translate(0 0)"/>
      <path class="cls-2" d="M101.34,402.42c.42.07.84.16.88.71l.07-.06c-.36-.16-.8-.21-.89-.71Z" transform="translate(0 0)"/>
      <path class="cls-2" d="M100.29,401.76c.38.18.81.26,1,.66l.06-.06c-.47,0-.9-.09-1-.64Z" transform="translate(0 0)"/>
      <path class="cls-2" d="M103.6,403.58a2,2,0,0,1-1.31-.52l-.07.07c.55-.1,1.07-.15,1.34.51Z" transform="translate(0 0)"/>
      <path class="cls-2" d="M100.36,401.72a1,1,0,0,1-1.11-.58l-.08.05,1.12.58Z" transform="translate(0 0)"/>
      <path class="cls-2" d="M98,400.64l1.13.55.09-.05c-.44,0-.92,0-1.15-.49Z" transform="translate(0 0)"/>
      <path class="cls-2" d="M98.1,400.65h0Z" transform="translate(0 0)"/>
    </g>
    <path class="cls-2" d="M185,291.38a60.21,60.21,0,0,1,7.76-4.73,4.2,4.2,0,0,1,2.69-.72c.13,0,.26.21.34.34s0,.19-.08.25a1.36,1.36,0,0,1-.43.36,16.64,16.64,0,0,1-1.56.67,40.92,40.92,0,0,0-6.43,3,12.75,12.75,0,0,1-1.52.77,2,2,0,0,1-.83,0Z" transform="translate(0 0)"/>
    <path class="cls-2" d="M179.9,287c.14-.24.23-.56.44-.7,1.79-1.24,3.63-2.45,5.47-3.65a.8.8,0,0,1,.54-.11.85.85,0,0,1,.43.25s0,.21-.05.26a4.28,4.28,0,0,1-.82.77c-1.64,1-3.3,1.91-5,2.82a4.34,4.34,0,0,1-1.09.26Z" transform="translate(0 0)"/>
    <path class="cls-2" d="M189.12,285.29a4.36,4.36,0,0,1,.23-.42s.21,0,.21.05c0,.38-.25.3-.48.33Z" transform="translate(0 0)"/>
    <path class="cls-2" d="M187.71,285.62l1.41-.33,0-.05c-.33.5-.8.45-1.28.34Z" transform="translate(0 0)"/>
    <path class="cls-2" d="M186.29,287.06a1.29,1.29,0,0,0-.91.61v0c.17.14.15.47.54.39s.39-.3.44-.52-.09-.3-.15-.46Z" transform="translate(0 0)"/>
    <path class="cls-2" d="M183.85,288.17l1.54-.51v0a3,3,0,0,0-1.59.57Z" transform="translate(0 0)"/>
    <path class="cls-2" d="M184.49,292.3c-.17-.07-.25,0-.2.24,0,0,.15,0,.19,0s0-.13.06-.2Z" transform="translate(0 0)"/>
    <path class="cls-2" d="M187.79,285.58l-.06.15a.41.41,0,0,0,0-.11Z" transform="translate(0 0)"/>
    <path class="cls-2" d="M186.22,287.06l.14-.07-.08.07Z" transform="translate(0 0)"/>
    <polygon class="cls-2" points="179.85 286.92 179.78 287.04 179.9 286.98 179.85 286.92"/>
    <path class="cls-2" d="M183.8,288.25l-.07-.1.12,0Z" transform="translate(0 0)"/>
    <path class="cls-2" d="M184.94,291.3l-.45,1,0,.07q.22-.48.45-1Z" transform="translate(0 0)"/>
    <g>
      <path class="cls-2" d="M73.27,117.73A2.78,2.78,0,0,1,76,119.39a5.13,5.13,0,0,1,.4,4.68,4.56,4.56,0,0,1-4.73,3,2,2,0,0,1-.84-.13c-1.37-.75-2.28-.23-3.13.93a23.75,23.75,0,0,1-4,4.07,6.83,6.83,0,0,0-1,1,1.06,1.06,0,0,0-.11.8,2.34,2.34,0,0,0,.41.74A16.69,16.69,0,0,1,66,143a.67.67,0,0,0,.06.28c.09.15.18.35.32.4a.59.59,0,0,0,.53-.08,25.76,25.76,0,0,0,5.57-9.89c.2-.73.39-1.48.62-2.2a.61.61,0,0,1,.43-.3.57.57,0,0,1,.49.18,13.53,13.53,0,0,1,.64,1.26,9.7,9.7,0,0,0,1.13,2.31.53.53,0,0,0,.74,0,7.65,7.65,0,0,0,.64-.93A40.83,40.83,0,0,0,81.37,123,25.55,25.55,0,0,0,78,103.22c-.41-.65-.8-1.29-1.16-2a.58.58,0,0,1,.16-.5c.11-.1.41-.16.49-.09.55.51,1.08,1.06,1.6,1.61.79.82,1.57,1.66,2.36,2.48a.3.3,0,0,0,.26,0c.14-.09.36-.21.37-.33a4.83,4.83,0,0,0,0-1.42A13.49,13.49,0,0,0,80.73,99a14,14,0,0,0-2.48-3.49,27,27,0,0,0-3.2-2.85,29.43,29.43,0,0,0-17.69-5.69,17.51,17.51,0,0,0-8,1.9,6.91,6.91,0,0,1-1,.47.67.67,0,0,1-.51-.14c-.18-.12-.11-.61.09-.77a10.31,10.31,0,0,1,.92-.67A17.62,17.62,0,0,1,57,85.47a26.42,26.42,0,0,1,8.48,1.12,29.54,29.54,0,0,1,11.54,6.16,20.34,20.34,0,0,1,4.52,5.51,13.66,13.66,0,0,1,1.67,8.28,2.24,2.24,0,0,1-.39,1.34c-.72.64-.59,1.28-.4,2.07a26,26,0,0,1,.81,4.8A32.11,32.11,0,0,1,82,126.07,47,47,0,0,1,77,137a3,3,0,0,1-.81.77.52.52,0,0,1-.51-.07c-.39-.65-.72-1.33-1.08-2a1.37,1.37,0,0,0-.81-.77,2,2,0,0,0-.76,1.15c-1.62,4.05-4.26,7.44-7,10.78-.06.07-.13.16-.21.18a.88.88,0,0,1-.53.05.55.55,0,0,1-.34-.38c0-.85,0-1.71.06-2.56a15.59,15.59,0,0,0-2.82-9.44c-.46-.69-.91-.79-1.71-.4s-1.36.7-2.05,1a21,21,0,0,1-5.2,1.55,23.41,23.41,0,0,1-11-1c-.81-.26-1.62-.55-2.44-.82a1,1,0,0,0-1,.46,7,7,0,0,0-.93,3,11.4,11.4,0,0,0,.29,4c.2.73.38,1.47.55,2.21.11.47-.43.89-.93.76a5.73,5.73,0,0,1-.56-.14,43.51,43.51,0,0,1-9.6-5.64A20.5,20.5,0,0,1,24,136a11.36,11.36,0,0,1-2.41-7.48,6.17,6.17,0,0,0,0-.86c0-.33-.51-.62-.87-.47-.53.21-1.05.45-1.58.67a2.3,2.3,0,0,1-.8.27,1.48,1.48,0,0,1-.79-.23,2.28,2.28,0,0,1-.58-.62,13.11,13.11,0,0,1-2.53-7.18,21.39,21.39,0,0,1,1-7.62,45,45,0,0,1,4.7-9.79c.5-.81,1-1.64,1.45-2.46a.47.47,0,0,0-.29-.6l-.08,0c-.38,0-.77,0-1.14,0a.72.72,0,0,1-.68-.76h0a19.66,19.66,0,0,1,4.38-9.21A11.49,11.49,0,0,1,30.15,86a22.76,22.76,0,0,1,10.22.29A18.32,18.32,0,0,1,45,87.78a.35.35,0,0,1,.14.2c-.11.11-.26.31-.36.29-.85-.14-1.7-.29-2.53-.49-1.95-.48-3.91-.86-5.9-1.15a14.25,14.25,0,0,0-4.83.16,12.27,12.27,0,0,0-8,5.18,17.93,17.93,0,0,0-2.11,4c-.22.58-.73,1.27-.14,1.84s1.09.11,1.64,0a7.54,7.54,0,0,1,.83-.12c.19,0,.47.49.37.68-.28.5-.56,1-.87,1.47-1.17,1.86-2.42,3.67-3.52,5.56a34.81,34.81,0,0,0-3.92,10.11,17,17,0,0,0-.32,5.69A8.14,8.14,0,0,0,16.82,125a2.53,2.53,0,0,0,2.71,1.18,23.2,23.2,0,0,0,2.45-.77c.67-.22,1.06.13,1,.89,0,.19,0,.38-.07.57s-.06.38-.1.56a8.51,8.51,0,0,0,.84,5.84,12.36,12.36,0,0,0,1.69,2.64A28,28,0,0,0,36,143.37c.48.2.92-.19.88-.76a5.44,5.44,0,0,0,0-.57,5.51,5.51,0,0,0-.06-.57,11.48,11.48,0,0,1,.68-6.19,2.58,2.58,0,0,0,.19-.83.7.7,0,0,0-.2-.51,8.7,8.7,0,0,0-1.13-.87,27.53,27.53,0,0,1-8-7.74l-.49-.71a1.31,1.31,0,0,0-1.21-.61c-.77,0-1.52.13-2.28.15a4.71,4.71,0,0,1-2.21-.53,4.2,4.2,0,0,1,.2-7.68c.09,0,.19-.06.27-.09a4,4,0,0,0,1.32-.47c.47-.4.31-1.06.3-1.63,0-1-.08-2.1,0-3.15A19,19,0,0,1,34.38,94.35a1.25,1.25,0,0,1,.53-.19.85.85,0,0,1,.51.15.55.55,0,0,1-.05.75l-1.54,1.28A25,25,0,0,0,30.2,100a20.65,20.65,0,0,0-3.55,6.51c-.44,1.34-.31,1.81,1,2.63a38.92,38.92,0,0,0,3.71,2.15,31.61,31.61,0,0,0,9.26,2.86,47.08,47.08,0,0,0,26.33-3.43c1.67-.71,3.24-1.63,4.85-2.47a1,1,0,0,0,.43-1A15,15,0,0,0,66.45,98c-.83-.65-1.75-1.17-2.62-1.75-.31-.21-.61-.44-.91-.68a.61.61,0,0,1-.09-.76c.19-.2.45-.44.68-.44a2.33,2.33,0,0,1,1.09.28c5.64,3,8.9,7.65,9.44,14.08a22.46,22.46,0,0,1-.51,7.4,10.82,10.82,0,0,0-.23,1.71c-1.08,2.22-1.88,4.57-3.17,6.7-.61,1-.22,1.59,1,1.65l.86,0a3.59,3.59,0,0,0,3.37-2.59,4.25,4.25,0,0,0-.77-4A6.82,6.82,0,0,1,73.27,117.73ZM49,135.42a17.66,17.66,0,0,0,6.28-1,22,22,0,0,0,6.28-3.33,28,28,0,0,0,10-14.27,17.59,17.59,0,0,0,.92-6.19,2.08,2.08,0,0,0-.22-.81.52.52,0,0,0-.46-.22,12,12,0,0,0-1.51.78A34.06,34.06,0,0,1,62.8,114,44.39,44.39,0,0,1,40,115.5a28.76,28.76,0,0,1-12-5.13l-.46-.34-.48-.31a.73.73,0,0,0-1,.23.78.78,0,0,0-.09.24,17.12,17.12,0,0,0,1.12,8.7A26.92,26.92,0,0,0,40,133.21,18.82,18.82,0,0,0,49,135.42ZM24.75,122.73l.71-.08c.83-.14,1-.46.75-1.19-.49-1.54-1-3.08-1.52-4.62a.87.87,0,0,0-1-.37,3.91,3.91,0,0,0-2.1,1.84,2.88,2.88,0,0,0,1,3.94,3,3,0,0,0,.85.34A10.89,10.89,0,0,0,24.75,122.73Z" transform="translate(0 0)"/>
      <path class="cls-2" d="M48.19,132.57a5.71,5.71,0,0,1-4.7-2.47c-.05-.07-.1-.21-.07-.25a.31.31,0,0,1,.42-.13.16.16,0,0,1,.08.06c.22.17.43.37.66.53a6.06,6.06,0,0,0,8.36-1.3c.46-.59.87-1.22,1.32-1.82,0,0,.19,0,.28,0a.33.33,0,0,1,.21.17,1.1,1.1,0,0,1,0,.54A6.7,6.7,0,0,1,48.19,132.57Z" transform="translate(0 0)"/>
      <path class="cls-2" d="M59.77,124.83a2.36,2.36,0,0,1-.62-.2,5,5,0,0,1-2-3,.47.47,0,0,1,.72-.48,4.25,4.25,0,0,1,.6.6l.59.61a.63.63,0,0,0,.77,0c.61-.85,1.19-1.72,1.82-2.55a1,1,0,0,1,.74-.26.78.78,0,0,1,.56.87,13.17,13.17,0,0,1-2.44,4.15C60.31,124.72,60,124.76,59.77,124.83Z" transform="translate(0 0)"/>
      <path class="cls-2" d="M36.31,122c0-.33.08-.51.11-.7A.78.78,0,0,1,37.6,121a3.79,3.79,0,0,1,.34.45c.4.51.69.55,1.17.19a11.24,11.24,0,0,1,1.37-1,.84.84,0,0,1,.75.2,1.28,1.28,0,0,1,.28.77.68.68,0,0,1-.19.51c-.8.81-1.62,1.6-2.45,2.38a.88.88,0,0,1-1.07,0A2.91,2.91,0,0,1,36.31,122Z" transform="translate(0 0)"/>
      <path class="cls-2" d="M50.87,127.93a1.65,1.65,0,0,1-.22.53.78.78,0,0,1-.48.17.28.28,0,0,1-.23-.13,12.32,12.32,0,0,1-.35-1.36,1.28,1.28,0,0,0-.84-1c-.27-.12-.26-.49-.07-.72a1,1,0,0,1,1.66.09A5.29,5.29,0,0,1,50.87,127.93Z" transform="translate(0 0)"/>
    </g>
    <g>
      <path class="cls-2" d="M170,379.47a1.56,1.56,0,0,0,1.08-.94,40.25,40.25,0,0,0,4.29-11.19,26.48,26.48,0,0,0,.7-7.1,25.73,25.73,0,0,0-3.62-11.94c-.49-.81-1-1.62-1.5-2.43a1.05,1.05,0,0,1-.09-.55.31.31,0,0,1,.13-.24c.16-.06.41-.17.49-.1q.64.56,1.23,1.17c.91,1,1.8,2,2.73,2.93.09.09.34.05.51,0s.14-.16.14-.24a8.79,8.79,0,0,0,0-1.7,13.73,13.73,0,0,0-1.42-4,17.14,17.14,0,0,0-2.51-3.47,21.06,21.06,0,0,0-4.16-3.49,29.52,29.52,0,0,0-17.37-4.84,16.92,16.92,0,0,0-7.15,1.8,12.41,12.41,0,0,1-1.32.51.28.28,0,0,1-.22-.11c-.07-.16-.2-.41-.13-.5a3.16,3.16,0,0,1,.79-.8,15.5,15.5,0,0,1,7.29-2.31,29.35,29.35,0,0,1,21.38,7.33,19.34,19.34,0,0,1,4.17,5.06,13.66,13.66,0,0,1,1.9,7.67,6.43,6.43,0,0,1-.22,1.69,8.26,8.26,0,0,1-.89,1.51c.1.42.2.89.31,1.35a29.77,29.77,0,0,1-.46,15.56,46.17,46.17,0,0,1-5,11.2,2.93,2.93,0,0,1-.79.78.49.49,0,0,1-.51,0,7.72,7.72,0,0,1-.77-1.18c-.27-.49-.37-1.09-.87-1.45-.19-.14-.39-.14-.49,0a16.65,16.65,0,0,0-.77,1.52,41.84,41.84,0,0,1-6.8,10.2.77.77,0,0,1-.48.26c-.16,0-.43-.09-.48-.21a6.09,6.09,0,0,1,0-2.55,15.78,15.78,0,0,0-2.71-9.47c-.11-.16-.23-.3-.35-.45a1.15,1.15,0,0,0-1.05-.26c-.43.2-.87.4-1.28.61-5.48,2.83-11.15,3-17,1.29a13.62,13.62,0,0,0-3.37-1,3.83,3.83,0,0,0-.66.83,9.83,9.83,0,0,0-.49,6.44c.19.84.42,1.66.62,2.5.08.32-.37.79-.68.72a4,4,0,0,1-.83-.21,44.67,44.67,0,0,1-8.69-4.94,22.09,22.09,0,0,1-4.16-3.92,11.34,11.34,0,0,1-2.74-8.21,1.89,1.89,0,0,0-.1-.82c-.06-.13-.34-.31-.45-.26-1,.34-2,.71-3,1.11a5.31,5.31,0,0,1-.81-.68,12.86,12.86,0,0,1-2.77-7.39,21.14,21.14,0,0,1,1-7.62,43.72,43.72,0,0,1,4.52-9.55c.55-.89,1.11-1.79,1.65-2.68a.5.5,0,0,0-.18-.7.49.49,0,0,0-.33-.07c-.38,0-.77.05-1.14.06a.72.72,0,0,1-.55-.58,3.6,3.6,0,0,1,0-.56,22.67,22.67,0,0,1,2.67-6.62,13.72,13.72,0,0,1,3.14-3.69,11.92,11.92,0,0,1,6.3-2.51A25.23,25.23,0,0,1,139,332.13a.26.26,0,0,1,.13.42.34.34,0,0,1-.26.08c-.65-.1-1.31-.21-2-.35-1.87-.39-3.72-.86-5.6-1.18a15.37,15.37,0,0,0-6.81.26,11.94,11.94,0,0,0-5.6,3.3,16,16,0,0,0-3.83,6.95.68.68,0,0,0,.51.82.61.61,0,0,0,.33,0c.28-.05.56-.13.84-.2a5.8,5.8,0,0,1,.82-.21.69.69,0,0,1,.5.17.61.61,0,0,1,.12.52,5.91,5.91,0,0,1-.54,1c-1.1,1.68-2.26,3.32-3.3,5a36.74,36.74,0,0,0-4.51,11.09,19.19,19.19,0,0,0-.38,5.4,9.21,9.21,0,0,0,.9,3.3,5.16,5.16,0,0,0,.77,1.19,2.57,2.57,0,0,0,2.86.77c.82-.23,1.61-.56,2.42-.85.22-.08.56.24.54.51a13.83,13.83,0,0,1-.2,1.7,8.12,8.12,0,0,0,.06,3.4,10.82,10.82,0,0,0,1.84,4.16,16.75,16.75,0,0,0,3.12,3.34,35.21,35.21,0,0,0,8,4.94,2.13,2.13,0,0,0,.27.07c.34.11.85-.2.84-.52a13.55,13.55,0,0,0-.1-1.42,11.53,11.53,0,0,1,.69-6.18c.06-.18.12-.37.17-.55a1,1,0,0,0-.37-1l-1.42-1a26.94,26.94,0,0,1-7.12-7l-1-1.4a1.09,1.09,0,0,0-1-.43,8.58,8.58,0,0,0-1.13.18,5.88,5.88,0,0,1-2.82-.29,4.16,4.16,0,0,1-3-4.08,4.09,4.09,0,0,1,2.87-3.87c.25-.09.55-.14.82-.23a1.07,1.07,0,0,0,.84-1c0-.77,0-1.53,0-2.29a20.89,20.89,0,0,1,.57-5.68,19.11,19.11,0,0,1,9.53-12.31,1.89,1.89,0,0,1,.82-.18c.14,0,.3.17.41.3a.26.26,0,0,1,0,.27c-.32.35-.64.69-1,1-1.12,1-2.32,2-3.37,3.07a19.51,19.51,0,0,0-4.51,7.56,5.27,5.27,0,0,0-.26,1.11,1.1,1.1,0,0,0,.39,1,14.85,14.85,0,0,0,1.37,1A29.7,29.7,0,0,0,132,358a43.17,43.17,0,0,0,15.07.8A52.51,52.51,0,0,0,158.71,356a38.94,38.94,0,0,0,5.46-2.49c2.52-1.4,2.47-.93,1.52-4a15,15,0,0,0-6.22-8c-.79-.53-1.6-1-2.4-1.55a.87.87,0,0,1-.16-1,1,1,0,0,1,1-.33,17,17,0,0,1,10.11,13.9,23.38,23.38,0,0,1-.42,7.69,8.32,8.32,0,0,0-.13.85.75.75,0,0,0,.49.91,4.29,4.29,0,0,1,2.66,3.14,5.07,5.07,0,0,1-.31,3.63,4.67,4.67,0,0,1-5.22,2.56c-.36-.11-.73-.22-1.09-.35a1.24,1.24,0,0,0-1.54.38,33.93,33.93,0,0,1-5.64,5.66,1,1,0,0,0-.16,1.29c.1.16.21.31.32.47a18.09,18.09,0,0,1,3.13,8.8c0,.13.22.3.36.34a.71.71,0,0,0,.51-.11,2.88,2.88,0,0,0,.59-.62c.56-.77,1.13-1.54,1.67-2.33a22.94,22.94,0,0,0,3.5-7.79,8.11,8.11,0,0,1,.42-1.35.56.56,0,0,1,.45-.26.69.69,0,0,1,.45.27,3.62,3.62,0,0,1,.42.74c.3.71.54,1.43.86,2.12A5.57,5.57,0,0,0,170,379.47Zm-27.16.34a19.26,19.26,0,0,0,10.78-3.08,27.35,27.35,0,0,0,12.66-18.62,10,10,0,0,0,.09-3.7c0-.2-.47-.51-.64-.43a12.51,12.51,0,0,0-1.26.65,34.2,34.2,0,0,1-5,2.69A42.88,42.88,0,0,1,145,360.61a40.73,40.73,0,0,1-10-.57,31.38,31.38,0,0,1-12.89-5.23,9.29,9.29,0,0,0-1.48-.82.55.55,0,0,0-.49.2,2.06,2.06,0,0,0-.24.81,17.58,17.58,0,0,0,1.25,8.42,27,27,0,0,0,13.08,14.23,18.78,18.78,0,0,0,8.6,2.16Zm22.35-9.27a3.77,3.77,0,0,0,4.31-3.11,4.14,4.14,0,0,0-1.88-4.42.51.51,0,0,0-.71.19c-1,2.05-2,4.1-3,6.13a.89.89,0,0,0,.63,1.09Zm-46.28-3.44.51-.05a.9.9,0,0,0,.86-1.18c-.47-1.45-1-2.89-1.43-4.33a1,1,0,0,0-1.57-.52,4.47,4.47,0,0,0-1.73,1.85,2.84,2.84,0,0,0,1.12,3.72A3.81,3.81,0,0,0,118.92,367.1Z" transform="translate(0 0)"/>
      <path class="cls-2" d="M142.6,376.84a5.54,5.54,0,0,1-5-2.25.43.43,0,0,1-.09-.26.26.26,0,0,1,.3-.21.27.27,0,0,1,.12.06,5.74,5.74,0,0,1,.68.51c2.53,2,6.36,1.24,8.36-1.38.41-.52.72-1.12,1.12-1.65a.52.52,0,0,1,.48-.1.58.58,0,0,1,.24.47,6.14,6.14,0,0,1-5.11,4.72C143.26,376.8,142.78,376.82,142.6,376.84Z" transform="translate(0 0)"/>
      <path class="cls-2" d="M153.37,366.93c.68-.27.91-.81,1.22-1.29s.75-1.09,1.14-1.63a.58.58,0,0,1,.77-.1,2.81,2.81,0,0,1,.45.67.36.36,0,0,1,0,.27,17.1,17.1,0,0,1-2.25,3.94,1.09,1.09,0,0,1-1.52.16,6,6,0,0,1-2-2.73.34.34,0,0,1,0-.28,1.4,1.4,0,0,1,.3-.42.29.29,0,0,1,.27,0c.29.24.55.51.83.77S153.13,366.72,153.37,366.93Z" transform="translate(0 0)"/>
      <path class="cls-2" d="M130.38,366.07a5.25,5.25,0,0,1,.2-.65.65.65,0,0,1,.88-.27l.09.05c.19.2.32.46.51.67a.66.66,0,0,0,.92.19l.07-.06a13.3,13.3,0,0,1,1.36-1,1.13,1.13,0,0,1,.81.06,1,1,0,0,1,.31,1,2.06,2.06,0,0,1-.28.5c-.66.68-1.32,1.36-2,2a1.36,1.36,0,0,1-1.82-.09A3,3,0,0,1,130.38,366.07Z" transform="translate(0 0)"/>
      <path class="cls-2" d="M144.9,372.35a4.67,4.67,0,0,1-.38.6c-.15.2-.3.16-.47,0a2.13,2.13,0,0,1-.42-1.3,1.49,1.49,0,0,0-.67-1.15c-.42-.28-.38-.62-.05-.86a1,1,0,0,1,1.27,0l.18.22A5.14,5.14,0,0,1,144.9,372.35Z" transform="translate(0 0)"/>
    </g>
    <path class="cls-2" d="M197.26,505.68a5.16,5.16,0,0,1-1,3.18,2.44,2.44,0,0,1-.6.6c-1.43,1-2.38.82-3.34-.65-.41-.63-.8-1.28-1.16-1.95a1.08,1.08,0,0,1,.07-1.07.68.68,0,0,1,.72-.34,4.17,4.17,0,0,1,1,.49c1.08.93,1.36.47,2.05-.33a7.65,7.65,0,0,1,.79-.82,1.53,1.53,0,0,1,.52-.18.79.79,0,0,1,.88.51C197.21,505.31,197.24,505.5,197.26,505.68Z" transform="translate(0 0)"/>
    <path class="cls-2" d="M170.55,504.66c.43.06.68-.28,1-.45a4.53,4.53,0,0,1,.8-.3,1,1,0,0,1,1,.77,3.7,3.7,0,0,1-.57,2.44,2.12,2.12,0,0,0-.45,1.56.67.67,0,0,1-.06.28,1,1,0,0,1-1.29.59,1,1,0,0,1-.34-.21,11,11,0,0,1-2.4-3.85,2.24,2.24,0,0,1,0-1.12.87.87,0,0,1,1.15-.51,8.06,8.06,0,0,1,.66.53C170.24,504.47,170.4,504.57,170.55,504.66Z" transform="translate(0 0)"/>
    <g>
      <path class="cls-2" d="M81.51,472.86l.87-27.77c0-.57,0-1.14,0-1.71a1.05,1.05,0,0,0-1.28-1.14c-.47,0-.94.12-1.42.16a1.25,1.25,0,0,1-1.3-.89,4,4,0,0,1,.36-3.83A7.24,7.24,0,0,1,81,435.55a19.33,19.33,0,0,1,3.89-1.8,42.23,42.23,0,0,1,6.37-1.64,101.39,101.39,0,0,1,15.36-1.59,57.85,57.85,0,0,1,18.13,2.05,28.67,28.67,0,0,1,4.56,1.68,9.1,9.1,0,0,1,2.8,1.95,4.46,4.46,0,0,1,1.31,3.08,3.39,3.39,0,0,1-1.67,3.12,21.46,21.46,0,0,1-2.34,1.06,1,1,0,0,0-.64.88,16.3,16.3,0,0,0-.07,1.71,140.05,140.05,0,0,0,1.13,16,137.59,137.59,0,0,0,4.53,21.83,130.47,130.47,0,0,1,3.34,13.61,22.38,22.38,0,0,1,.3,5.42,6.71,6.71,0,0,1-3.43,5.62,14.3,14.3,0,0,1-4.23,1.71,21.65,21.65,0,0,1-4.8.7l-.57,0c-5.93.07-11.82.57-17.73.91a58.82,58.82,0,0,1-15.67-.95c-1.59-.33-3.15-.77-4.7-1.24A10.86,10.86,0,0,1,83.6,508a6.19,6.19,0,0,1-2.68-4.54,70.37,70.37,0,0,1-.32-11.15c.14-2.19.21-4.39.33-6.58.1-1.81.24-3.62.33-5.43.12-2.48.21-5,.31-7.44Zm1.68-.13h0q-.31,13.31-.65,26.61c0,1.05,0,2.1,0,3.14a5.36,5.36,0,0,0,3.18,4.75,13.45,13.45,0,0,0,2.12.86,47.61,47.61,0,0,0,9.82,1.82,111.16,111.16,0,0,0,15.16-.19q3-.23,6-.32c1.72-.06,3.44,0,5.16,0a35,35,0,0,0,5.68-.62,11,11,0,0,0,3.75-1.34,5.09,5.09,0,0,0,2.68-3.85,13.93,13.93,0,0,0,.25-3.41,46.06,46.06,0,0,0-.7-4.81c-.48-2.13-1.07-4.25-1.72-6.34a154.16,154.16,0,0,1-5.24-22.54q-.76-4.95-1.19-9.94c-.3-3.52-.4-7.05-.6-10.57a6.78,6.78,0,0,0-.15-1.42.94.94,0,0,0-.55-.57,8.65,8.65,0,0,0-1.69-.17,81.74,81.74,0,0,1-8.55-.75c-4.92-.66-9.86-1.1-14.81-1.38-4.38-.24-8.77-.2-13.16,0-1,0-1.9.12-2.85.21a3.33,3.33,0,0,0-1.11.26,1,1,0,0,0-.53.6,7.46,7.46,0,0,0-.14,1.7c0,2.38.15,4.76.13,7.15,0,7.07-.15,14.13-.23,21.19Zm24.48-40.27c-1.28.05-2.73.05-4.15.18-3.13.28-6.27.58-9.39.95A44,44,0,0,0,86,435.28a15.73,15.73,0,0,0-3.66,1.61,5.46,5.46,0,0,0-1.85,1.76,2.59,2.59,0,0,0-.39,1.63c0,.33.46.75.77.71a7.33,7.33,0,0,0,.85-.1,70.7,70.7,0,0,1,19.37-1c2.85.25,5.71.36,8.56.7,3.13.37,6.26.65,9.39,1a56,56,0,0,0,8.29.23,7.77,7.77,0,0,0,3.31-.81,1.63,1.63,0,0,0,.78-2,5.13,5.13,0,0,0-.65-1.25,6,6,0,0,0-2.22-1.76,18.17,18.17,0,0,0-3.75-1.38,74.26,74.26,0,0,0-17.15-2.18Z" transform="translate(0 0)"/>
      <path class="cls-2" d="M110.89,455.83c-6.34-.12-11.66.38-17,.77-1.23.09-2.46.28-3.69.37-.76.06-1.21-.39-1.37-1.17a6.83,6.83,0,0,1,.14-3.39c.2-.63.38-1.28.58-1.9a.87.87,0,0,1,.87-.59,14,14,0,0,1,1.71.07,46.28,46.28,0,0,0,7.72,0c5-.38,10.08-.71,15.13-1.05a23.12,23.12,0,0,1,4.85,0,1.45,1.45,0,0,1,1.33,1.28,11.76,11.76,0,0,1,0,4.54,1.29,1.29,0,0,1-1.2,1.05c-.77,0-1.52,0-2.28,0Z" transform="translate(0 0)"/>
    </g>
    <g>
      <path class="cls-2" d="M99.17,219.46a1.41,1.41,0,0,1,0-.29c.17-1.06.63-1.44,1.46-1.19a2.15,2.15,0,0,1,.27.1,35.56,35.56,0,0,0,10.35,2c3.13.29,6.27.51,9.4.85a47.68,47.68,0,0,0,8.86.07c1.9-.14,3.81-.18,5.71-.25a19.06,19.06,0,0,1,4.82.6,13.72,13.72,0,0,1,2.16.73,4.94,4.94,0,0,1,3.19,4.08,22,22,0,0,1,.18,2.57,37.86,37.86,0,0,1-.89,8.23,58.15,58.15,0,0,0-1,12.83,12.93,12.93,0,0,1-.35,4,4.29,4.29,0,0,1-2.27,2.8,11.4,11.4,0,0,1-4.68,1.18,55.87,55.87,0,0,1-8.58-.21c-5.5-.59-11-1.37-16.5-1.79-1.9-.15-3.81-.17-5.72-.22a19,19,0,0,1-4.24-.55,8.78,8.78,0,0,1-6.2-5.45,12.36,12.36,0,0,1-1-4.45,44.1,44.1,0,0,1,.11-5.14,104.9,104.9,0,0,1,3.87-19,2.17,2.17,0,0,1,1.13-1.56c-.17.75-.31,1.5-.49,2.24a104.47,104.47,0,0,0-2.88,17.21c-.14,1.9-.18,3.81-.14,5.72a15.63,15.63,0,0,0,.52,3.39,6.73,6.73,0,0,0,4.61,5,8.89,8.89,0,0,0,2,.47c1.71.19,3.42.37,5.13.42,3.25.1,6.48.52,9.69.92a96.78,96.78,0,0,0,13.7,1c1.82,0,3.63,0,5.44,0a7.48,7.48,0,0,0,3.06-.66,2.85,2.85,0,0,0,1.83-2.38c.11-1,.08-2.09.09-3.14,0-1.72-.09-3.44,0-5.15.15-2,.48-4,.74-6,.37-2.84.81-5.67.9-8.54a27.6,27.6,0,0,0-.06-3.15,3.34,3.34,0,0,0-2.57-3.09,15.27,15.27,0,0,0-4.5-.75c-1.54,0-3.06,0-4.59,0a196.74,196.74,0,0,1-20.88-.79L110,222A34.73,34.73,0,0,1,99.17,219.46Z" transform="translate(0 0)"/>
      <path class="cls-2" d="M120,237.54c-.1,2.56-.21,5.13-.32,7.69a18.28,18.28,0,0,1-.77,4.47c0,.15-.32.37-.4.33-.24-.08-.56-.25-.62-.45a2.81,2.81,0,0,1-.08-1.12,85.65,85.65,0,0,0,.06-11.1,31.84,31.84,0,0,1,.21-6.25,5.72,5.72,0,0,1,.91-2.66c.1-.13.37-.29.48-.24s.55.31.58.52a9.64,9.64,0,0,1,0,1.7c0,2.37-.12,4.74-.18,7.12Z" transform="translate(0 0)"/>
      <path class="cls-2" d="M133.51,231.49a8.65,8.65,0,0,0,.12-3.4c-.14-.47.21-.86.72-1.07a6,6,0,0,1,3.35-.37,1,1,0,0,1,.86.67A10.22,10.22,0,0,1,139,229a24.48,24.48,0,0,1,.15,5.41,1.32,1.32,0,0,1-1.1,1.14,11.46,11.46,0,0,1-3.41-.1,1.22,1.22,0,0,1-1.15-1.35Zm4.25-.44c0-.31-.14-1.24-.28-2.17a1,1,0,0,0-1.07-.73,1.56,1.56,0,0,0-1.68,1.19,1.27,1.27,0,0,0-.06.28c-.06,1.12-.15,2.24-.16,3.37,0,.84.54,1.29,1.47,1.36h.28c1,0,1.46-.42,1.5-1.29,0-.45,0-.91,0-2Z" transform="translate(0 0)"/>
      <path class="cls-2" d="M107.39,245.75c-.51.55-1,1-1.41,1.51-.61.64-1.16.56-1.54-.21-.21-.42-.4-.86-.62-1.28s-.37-.92-.93-.92-.51.51-.79.74a.79.79,0,0,1-.42.1s-.1-.16-.1-.25a4.64,4.64,0,0,1,.93-2.64.62.62,0,0,1,.77,0l1.73,2.59a.59.59,0,0,0,.77,0c.24-.28.47-.58.71-.88s.34-.44.53-.65a.72.72,0,0,1,.79-.11,6.66,6.66,0,0,1,.62.56,1.13,1.13,0,0,0,1.29.33,2,2,0,0,1,1.65.07c.77.38,1.54.76,2.27,1.17a.55.55,0,0,1,.21.46.59.59,0,0,1-.31.41,2.34,2.34,0,0,1-.83.15,2.07,2.07,0,0,1-1.1-.19,1.4,1.4,0,0,0-2.18.36.56.56,0,0,1-.52,0,4.6,4.6,0,0,1-.62-.55Z" transform="translate(0 0)"/>
      <path class="cls-2" d="M110.82,229.72c-.86.66-1.53,1.19-2.21,1.69a.89.89,0,0,1-1-.24c-.17-.28-.27-.49-.41-.74-1.11-2.17-1.52-2.13-2.82-.3a5.59,5.59,0,0,1-.57.62.65.65,0,0,1-.77-.1c-.32-.46-.62-.94-.93-1.42s-.43-.35-.77.25c0,.07-.06.18-.13.23a.19.19,0,0,1-.22,0,3.92,3.92,0,0,1-.3-3,.68.68,0,0,1,.38-.38.55.55,0,0,1,.47.17c.27.38.51.79.75,1.2s.49.81.75,1.2a.61.61,0,0,0,.86.11l.11-.11.2-.2c1.57-2.2,1.68-1.76,3.07.22.17.23.33.46.52.69a.85.85,0,0,0,1.43.11c.47-.59.9-1.22,1.38-1.8.07-.09.33-.05.51,0a.37.37,0,0,1,.22.17,2.33,2.33,0,0,0,2.2,1.47s.13.15.11.19-.16.4-.29.43a2.77,2.77,0,0,1-1.11.1A9,9,0,0,1,110.82,229.72Z" transform="translate(0 0)"/>
      <path class="cls-2" d="M98.61,239c.38-1.19.62-2,.9-2.82a.61.61,0,0,1,.43-.33.57.57,0,0,1,.42.3c.26.52.45,1.05.69,1.56a.73.73,0,0,0,1,.2c.4-.4.79-.82,1.19-1.22.61-.62.94-.61,1.68,0,.21.19.39.43.6.61a.87.87,0,0,0,1.06,0c.39-.28.77-.57,1.14-.86a1.14,1.14,0,0,1,1.56,0,2.15,2.15,0,0,0,2.13.41,2.31,2.31,0,0,1,.83,0,.25.25,0,0,1,.17.19.32.32,0,0,1-.07.26,3.19,3.19,0,0,1-1.79.8,2.58,2.58,0,0,1-1.61-.47,1.14,1.14,0,0,0-1.09.07,5.58,5.58,0,0,0-.69.51c-1.22,1-1.52.93-2.57-.29a.77.77,0,0,0-1.23.06c-.57.62-1.13,1.28-1.71,1.9a.69.69,0,0,1-1-.19c-.12-.25-.19-.53-.3-.79-.22-.49-.29-.52-.87-.29Z" transform="translate(0 0)"/>
      <path class="cls-2" d="M129.52,242.48c1.52.05,3,.1,4.57.18a2.09,2.09,0,0,1,.8.26,1,1,0,0,1,.31.45c.08.19-.26.62-.46.63a16.69,16.69,0,0,1-2,0c-2.75-.23-5.5-.51-8.25-.78-.14,0-.29-.21-.38-.36s0-.36.26-.38c.47,0,.95-.09,1.42-.09h3.72Z" transform="translate(0 0)"/>
      <path class="cls-2" d="M124.2,247.86a1.89,1.89,0,0,1,.51-.21c2.57-.19,5.11-.39,7.67-.53a5.28,5.28,0,0,1,1.68.22.86.86,0,0,1,.49.62.81.81,0,0,1-.44.63,5.66,5.66,0,0,1-1.68.26c-2.37-.08-4.74-.21-7.11-.34C124.87,248.49,124.37,248.43,124.2,247.86Z" transform="translate(0 0)"/>
    </g>
    <path class="cls-2" d="M17.67,24.18a5.47,5.47,0,0,0-3.94-5.39,18,18,0,0,0-5-1A81.46,81.46,0,0,0,0,18V19.9H2.1c2.1,0,4.2,0,6.3,0a15,15,0,0,1,4.5.7,3.51,3.51,0,0,1,2.66,3.33,35.76,35.76,0,0,1-.28,6.86C15,33.5,14.63,36.25,14.21,39a41.87,41.87,0,0,0-.32,7.42c0,1.05,0,2.09-.06,3.14a2.91,2.91,0,0,1-2,2.55,8.25,8.25,0,0,1-3.06.63c-2.92,0-5.84.08-8.76,0V54.5l1.23.14a40.68,40.68,0,0,0,7.15.14,12.53,12.53,0,0,0,4.7-1.14,4.13,4.13,0,0,0,2.42-3,19.23,19.23,0,0,0,.33-2.26c.05-.85,0-1.71,0-2.56a47.32,47.32,0,0,1,.37-7.44c.39-2.65.83-5.28,1.23-7.92A29.32,29.32,0,0,0,17.67,24.18Z" transform="translate(0 0)"/>
    <g>
      <path class="cls-2" d="M159.91,505.86a35.28,35.28,0,0,1,.61-8.27,16.87,16.87,0,0,1,1.8-5.1,6.44,6.44,0,0,1,2.54-2.66.94.94,0,0,1,1.21.32c.27.46.33,1.06.81,1.41a2.26,2.26,0,0,0,.47,1.29,11.74,11.74,0,0,0,3.47,3.37,33.23,33.23,0,0,0,3.49,2c1.46.7,3,1.27,4.48,1.89a5.84,5.84,0,0,0,.82.22c.26.06.79-.49.72-.77-.23-1-.49-2-.71-3.06a2.16,2.16,0,0,1,0-.84c0-.14.26-.36.37-.35a5.65,5.65,0,0,1,1.36.34,66.3,66.3,0,0,0,12.22,4,2.39,2.39,0,0,0,.84.1,1.51,1.51,0,0,0,.71-.39.58.58,0,0,0,.06-.51c-.27-.61-.6-1.2-.88-1.8-.15-.34-.28-.71-.4-1.06-.07-.18.23-.64.42-.64,2.58,0,5.15-.05,7.71-.05a1.07,1.07,0,0,1,.92.59,15.09,15.09,0,0,1,1.78,5.12,21,21,0,0,1-.64,10.48l-.18.5h1.78a24.25,24.25,0,0,0,.92-4.05A21,21,0,0,0,200,489a1.51,1.51,0,0,0-.73-.43,1.29,1.29,0,0,0-.77.18.59.59,0,0,0-.1.77l1.29,1.54c.42.52.86,1,1.23,1.57s.43,1.16-.69,1.35a10.33,10.33,0,0,1-3.14.05,27.72,27.72,0,0,1-4.52-.68,1.19,1.19,0,0,0-.83,0c-.21.12-.52.49-.46.63.26.71.64,1.38.95,2.07a10.38,10.38,0,0,1,.39,1.06c.07.2-.25.63-.47.6a12.17,12.17,0,0,1-1.68-.25,58.06,58.06,0,0,1-10.66-4.09c-.52-.23-1.05-.44-1.58-.62-.18-.06-.62.34-.59.54.14.74.27,1.48.47,2.22a5.92,5.92,0,0,1,.33,2.24c0,.21-.39.53-.6.5a3.66,3.66,0,0,1-.57-.05c-3.74-1.29-7.26-2.92-9.7-6.25a2.84,2.84,0,0,0-.64-.45c-.06-.44-.12-.89-.19-1.34a1.87,1.87,0,0,1,.22-1.09.49.49,0,0,0,0-.11.63.63,0,0,0-.47-.76,2.83,2.83,0,0,0-2.21.16,4.69,4.69,0,0,0-1.89,1.7,22.92,22.92,0,0,0-1.67,3,37.34,37.34,0,0,0-2.37,8.51,21.46,21.46,0,0,0,.8,10.41h2A18.7,18.7,0,0,1,159.91,505.86Z" transform="translate(0 0)"/>
      <path class="cls-2" d="M155,508.91a.27.27,0,0,0-.21-.15c-.18,0-.45,0-.52.05-.37.55-.71,1.13-1,1.7s-.58,1-.9,1.49h2.89c0-.46,0-.93,0-1.39A13.81,13.81,0,0,0,155,508.91Z" transform="translate(0 0)"/>
      <path class="cls-2" d="M150.18,512h1.34a2.14,2.14,0,0,1-.3-.44,16.06,16.06,0,0,1-1.49-5.21,23.74,23.74,0,0,1,3-15.44,17.53,17.53,0,0,1,5.4-5.83c.4-.27.81-.52,1.17-.82a.91.91,0,0,0,.22-.5c.07-.2-.22-.52-.51-.57a18.68,18.68,0,0,0-2-.28c-.85-.06-1.71,0-2.57-.06a.51.51,0,0,1-.37-.33.65.65,0,0,1,.09-.51,6.66,6.66,0,0,1,3.29-2.16,10.61,10.61,0,0,1,4.81-.46c.57.06,1.12.2,1.69.3a2,2,0,0,0,1.38-.22c.58-.33,1.17-.64,1.76-1a20.12,20.12,0,0,1,7.66-2.13,37.13,37.13,0,0,1,7.15,0,.78.78,0,0,1,.64.79,3.7,3.7,0,0,1-.07.57c-.16,1.23-.11,1.66,1.49,1.85,2.65.31,5.32.52,8,.76a57.39,57.39,0,0,1,10.42,1.73,21.34,21.34,0,0,1,5.76,2.49,14.38,14.38,0,0,1,6.35,8.84,8.32,8.32,0,0,1,.13.85c.1.73-.31,1.13-1,.92l-3.28-1c-.36-.11-.71-.27-1.08-.35-.54-.13-1.17-.47-1.59.08-.29.39-.07.93.1,1.37a44.41,44.41,0,0,1,2.49,10.85c.16,1.42.24,2.85.26,4.28,0,.52,0,1.05,0,1.57h1.54a51.13,51.13,0,0,0-.88-8.27,59.35,59.35,0,0,0-1.8-7.21,2,2,0,0,1-.06-.84c0-.14.24-.36.36-.36a5.14,5.14,0,0,1,1.4.19c1.35.47,2.68,1,4,1.5a.72.72,0,0,0,.85-.54,5.43,5.43,0,0,0,0-1.14,36.67,36.67,0,0,0-1-3.88,15,15,0,0,0-9.73-9.77,38,38,0,0,0-6.64-1.69,103.39,103.39,0,0,0-11.11-1.08c-.47,0-.95,0-1.43-.08-1.41-.14-1.91-.75-1.85-2.25,0-.1,0-.19,0-.28a.79.79,0,0,0-.62-.84,32.35,32.35,0,0,0-13.07.53,16.58,16.58,0,0,0-3.71,1.5,16.53,16.53,0,0,1-2.22,1.28c-.93.34-1.86-.23-2.8-.32-4.25-.41-7.7.93-10.07,4.62a1.37,1.37,0,0,0-.26.51,1.85,1.85,0,0,0,.09.81c0,.12.35.21.51.18.85-.14,1.68-.36,2.53-.48a9.64,9.64,0,0,1,1.7-.06c.11,0,.24.22.33.36a.27.27,0,0,1,0,.26c-.38.42-.75.85-1.16,1.23a22,22,0,0,0-5.79,9.08,25.11,25.11,0,0,0-1.3,8.55c0,.38.06,1.14.11,1.88A19.37,19.37,0,0,0,150.18,512Z" transform="translate(0 0)"/>
    </g>
    <g>
      <path class="cls-2" d="M17,375.06a21.49,21.49,0,0,1-1.47,5.63,1.21,1.21,0,0,1-1.4.71,11,11,0,0,1-3.61-1.66c-1.46-1.06-1.76-2.12-1-3.7a11.94,11.94,0,0,1,1.16-2,2.35,2.35,0,0,0,.52-1.85c-.07-.47.53-.82,1-.69a9.64,9.64,0,0,1,4.36,2.59C16.84,374.37,16.89,374.81,17,375.06Zm-1.63.49a3.24,3.24,0,0,0-.43-.74,4.47,4.47,0,0,0-2-1.09.71.71,0,0,0-.53.09,4.51,4.51,0,0,0-1.81,2.77,1.56,1.56,0,0,0,.48,1.54,5.59,5.59,0,0,0,2.42,1.41.88.88,0,0,0,1-.44,12,12,0,0,0,.88-3.54Z" transform="translate(0 0)"/>
      <path class="cls-2" d="M3.08,384.21a5,5,0,0,0-2.24-2.13L0,381.64v1.92c.32.21.63.43,1,.63a8.91,8.91,0,0,0,1,.57,1.25,1.25,0,0,0,.54.15.77.77,0,0,0,.5-.18A.6.6,0,0,0,3.08,384.21Z" transform="translate(0 0)"/>
      <path class="cls-2" d="M24.41,371.64c-.31-.22-.63-.44-.95-.63-2.53-1.53-5.06-3.07-7.6-4.58-4.35-2.58-8.73-5.12-13.31-7.28-.84-.4-1.7-.78-2.55-1.16v2c3.87,1.84,7.64,3.87,11.37,6,2.9,1.65,5.82,3.27,8.72,4.92a9.83,9.83,0,0,1,1.65,1.13,2.62,2.62,0,0,1,.83,3.09c-.61,1.51-1.12,3.05-1.8,4.52-2.18,4.78-4.42,9.52-6.64,14.27a2.7,2.7,0,0,1-.5.7.69.69,0,0,1-.51.19,4.08,4.08,0,0,1-1.09-.29c-4-1.79-8-3.55-12-5.37v2L12.68,397c.35.15.71.28,1.08.4a1,1,0,0,0,1-.4c.2-.32.39-.64.56-1,.71-1.57,1.4-3.14,2.11-4.7,1.45-3.12,2.92-6.22,4.35-9.35a67.49,67.49,0,0,0,2.86-7.18c.15-.45.3-.9.41-1.37A1.51,1.51,0,0,0,24.41,371.64Z" transform="translate(0 0)"/>
    </g>
    <g>
      <path class="cls-2" d="M86.5,312.27a26.62,26.62,0,0,0-2.22-5.58,20.16,20.16,0,0,0-4-5.21c-4.18-3.93-12-5.1-16.26-2.38a1.67,1.67,0,0,1-.52.21.32.32,0,0,1-.27,0c-.12-.13-.3-.32-.27-.44.34-1.48.72-3,1.08-4.44.17-.74.35-1.48.48-2.23a1,1,0,0,0-.46-1,10.89,10.89,0,0,0-1.48-.85,69.71,69.71,0,0,0-11-4.12,166,166,0,0,0-19.62-4q-6.36-1-12.7-2.12c-2-.34-3.92-.81-5.88-1.21a1.09,1.09,0,0,0-1.16.64c-.33,1-.64,2-1,3q-1.77,5.14-3.53,10.29c-.38,1.08-.75,2.16-1.08,3.26a3.43,3.43,0,0,1-1.86,2,2.52,2.52,0,0,1-3.29-.87,5.31,5.31,0,0,1-.86-2.4,7.88,7.88,0,0,0-.33-1.66.7.7,0,0,0-.35-.29v6.42a12.57,12.57,0,0,0,2,.79,21.61,21.61,0,0,0,2.55.28A.64.64,0,0,1,5,301c-.26,1.2-.56,2.41-.79,3.62a5.51,5.51,0,0,0,2.4,6,32.69,32.69,0,0,0,4.15,2.54,43.78,43.78,0,0,0,6.63,2.68c3.64,1.14,7.28,2.28,11,3.31,7.8,2.2,15.72,4,23.48,6.34a3.94,3.94,0,0,0,1.13.14,1.12,1.12,0,0,0,1-.46,8.52,8.52,0,0,0,.72-1.24c.76-1.65,1.52-3.29,2.24-4.95s.81-1.9,2.79-1.46a22,22,0,0,0,2.45.26,13.12,13.12,0,0,0,3.35,2.84c1.07.55,1.78.56,2.33-.62a5,5,0,0,1,.59-1c.09-.11.32-.13.48-.15s.17.12.19.2c.23.83.46,1.65.66,2.49A37.41,37.41,0,0,0,71.43,327a20.82,20.82,0,0,0,3,5.21,12,12,0,0,0,3.38,3.06,5.31,5.31,0,0,0,2.15.71,7.3,7.3,0,0,0,7.83-5.34,16.86,16.86,0,0,0,.64-4.23A51.17,51.17,0,0,0,86.5,312.27Zm-71.2-31a21.39,21.39,0,0,1,2.26.25c5.52,1.11,11.1,1.87,16.64,2.78a130.81,130.81,0,0,1,18.15,4c2.08.67,4.13,1.46,6.19,2.21a5.76,5.76,0,0,1,1,.52.73.73,0,0,1,.34.43.59.59,0,0,1-.22.44,3.07,3.07,0,0,1-.75.42,24.5,24.5,0,0,0-4.9,2.92c-1.54,1.13-3.05,2.29-4.57,3.45-1.36,1.05-2.71,2.11-4.07,3.15a4.53,4.53,0,0,1-2,1.09c-.4.08-.62.4-.91.65a14.92,14.92,0,0,1-8.38,3.24h-.29a10.3,10.3,0,0,1-4.91-1.37,14.07,14.07,0,0,1-3-2.2,24.41,24.41,0,0,1-3.33-3.92,43,43,0,0,1-3.3-5.69,87.28,87.28,0,0,1-4.15-10.35c-.13-.45-.24-.92-.33-1.38C14.76,281.7,15.1,281.27,15.3,281.3Zm-9,24.9c-.22,0-.43-.31-.43-.64a6,6,0,0,1,0-.85,6.1,6.1,0,0,1,.19-1.12,47.72,47.72,0,0,1,1.64-5.75c.26-.6.27-1.3.48-1.93q2-6,4-11.89a.75.75,0,0,1,.33-.43.57.57,0,0,1,.51,0,3.51,3.51,0,0,1,.84,1.78,69.9,69.9,0,0,0,5.24,12,10.56,10.56,0,0,1,.49,1.21,5.58,5.58,0,0,1-.69.47c-2.38,1.39-4.76,2.78-7.16,4.14a46.46,46.46,0,0,0-4.9,2.91A1,1,0,0,1,6.32,306.2Zm45.57,16.68a4.05,4.05,0,0,1-.84.12,6.86,6.86,0,0,1-1.42-.21Q39,320,28.37,317.05a109.82,109.82,0,0,1-12-3.9c-1.85-.74-3.71-1.5-5.54-2.31a21.66,21.66,0,0,1-2.49-1.39c-1.05-.66-1.07-1.26-.05-1.92,1.92-1.24,3.85-2.48,5.83-3.63a62.73,62.73,0,0,0,5.34-3.34,7.9,7.9,0,0,1,.94-.54v0a2.17,2.17,0,0,1,1.11.94c.76.86,1.47,1.75,2.27,2.57a18,18,0,0,0,5.64,3.9,12.07,12.07,0,0,0,8.92.41A22.19,22.19,0,0,0,42,306.19a6.47,6.47,0,0,1,1.28-.59,1.06,1.06,0,0,1,.77.19,3.25,3.25,0,0,1,.75.86c.9,1.46,1.82,2.91,2.64,4.42,1.78,3.26,3.22,6.7,4.74,10.09a5,5,0,0,1,.22.82A.94.94,0,0,1,51.89,322.88Zm5-9.94c-.62,1.9-1.37,3.76-2.09,5.62a6,6,0,0,1-.57,1l0,0a.48.48,0,0,1-.69-.08c-.23-.41-.48-.82-.68-1.24-.75-1.55-1.45-3.11-2.22-4.65A49.1,49.1,0,0,0,46.05,306c-.22-.3-.43-.62-.64-.94a1,1,0,0,1,.12-1.07l.43-.37c1.83-1.53,3.64-3.08,5.51-4.56,1.49-1.19,3-2.33,4.56-3.44a14.1,14.1,0,0,1,3.82-1.91,6,6,0,0,1,1.68-.26c.2,0,.41.26.56.37a3.86,3.86,0,0,1,0,.68C60.39,300.66,58.91,306.87,56.9,312.94Zm29.94,12a17,17,0,0,1-.62,4.55,8.31,8.31,0,0,1-1.64,3.31,4.22,4.22,0,0,1-5.15,1.27,8.51,8.51,0,0,1-3.78-3,22.7,22.7,0,0,1-2-3.15,33.54,33.54,0,0,1-3-9.51c-.25-1.41-.42-2.83-.63-4.25a5.36,5.36,0,0,0-.14-.54.63.63,0,0,0-.65-.45.67.67,0,0,0-.49.21A9.75,9.75,0,0,0,68,315a17.09,17.09,0,0,1-1.39,3.44.94.94,0,0,1-1,.29,6.2,6.2,0,0,1-3.05-4.29c-.15-.64-.19-1.32-.3-2a1.25,1.25,0,0,0-.19-.53,1.07,1.07,0,0,0-.41-.32.63.63,0,0,0-.7.36,4.47,4.47,0,0,0-.25.81c-.12.75-.17,1.52-.3,2.27a.65.65,0,0,1-.53.59c-.5.09-1.15-.11-1.27-.43a1.4,1.4,0,0,1-.1-.54,7.21,7.21,0,0,1,.24-1.12c.7-2.38,1.47-4.74,2.09-7.13a10.88,10.88,0,0,1,3.31-5.25,7.55,7.55,0,0,1,4.64-2,13.32,13.32,0,0,1,6.15.95,15,15,0,0,1,7.76,6.9A25.14,25.14,0,0,1,85,312.82a53.16,53.16,0,0,1,1.36,7.31c.19,1.61.36,3.22.54,4.83Z" transform="translate(0 0)"/>
      <path class="cls-2" d="M0,276.4a4.26,4.26,0,0,1,1.46,1A9.91,9.91,0,0,1,3.25,280c.6,1.2,1.13,2.43,1.74,3.61a33.55,33.55,0,0,0,1.74,2.95,4.18,4.18,0,0,0,1.1.88c.07,0,.36-.13.44-.26a.78.78,0,0,0,.07-.54,20.38,20.38,0,0,0-5-9.53,9.67,9.67,0,0,0-2-1.62A8,8,0,0,0,0,274.78Z" transform="translate(0 0)"/>
    </g>
    <g>
      <path class="cls-2" d="M89.13,184A15.49,15.49,0,0,0,82,173.63a6.15,6.15,0,0,0-5.76-.6,19.69,19.69,0,0,0-2.33,1.08c-.6.29-1.15.68-1.72,1a.67.67,0,0,1-.92-.37c-.1-.66-.21-1.32-.27-2a13.61,13.61,0,0,0-1-3.87,7.52,7.52,0,0,0-6.55-4.84,7.26,7.26,0,0,0-1.14-.06c-2.29,0-4.59,0-6.87.19s-4.77.34-7.15.34c-7.46,0-14.9.53-22.34.71l-1.43.08c-4,.33-8,.62-12,1a70.8,70.8,0,0,0-7.93,1.16c-.41.09-.67.58-.4.84a4,4,0,0,1,1.12,2.56,1.56,1.56,0,0,1,0,.57,1,1,0,0,1-.32.4.3.3,0,0,1-.26,0,19.88,19.88,0,0,0-4.08-2.63,1.38,1.38,0,0,0-.72-.1v2.31a1.84,1.84,0,0,1,1.59,0A13,13,0,0,1,6,174.94a2,2,0,0,1,.39.75q.66,3.06,1.28,6.14c.1.52-.61,1-1.18.92A2,2,0,0,1,5.33,182c-.36-.43-.7-.89-1.06-1.31a.81.81,0,0,0-1,.2c-.17.54-.3,1.08-.46,1.63a6.94,6.94,0,0,1-1.53,3c-.2.21-.41.4-.62.59a1,1,0,0,1-.65.27v2.37a9.62,9.62,0,0,0,3.08-2.63c.4-.52.77-1.07,1.07-1.49.64-.24,1.09,0,1.56.06a13.36,13.36,0,0,0,1.42-.1,4.84,4.84,0,0,1,.85,0,.7.7,0,0,1,.48.26,5.27,5.27,0,0,1,.52,1c.81,2.11,1.1,2.13,3.19,1.92l.28,0a90.4,90.4,0,0,1,13.15-.68,142.66,142.66,0,0,1,19.69,1.56c6.61,1,13.17,2.22,19.71,3.59a22.65,22.65,0,0,0,2.83.39.91.91,0,0,0,.91-.57,5.11,5.11,0,0,0,.4-1.07c.26-1.3.5-2.62.77-3.93.14-.65.32-1.29.5-1.93a.93.93,0,0,1,.87-.62,5.5,5.5,0,0,0,3.33-.61.88.88,0,0,1,.77.17c.86.76,1.67,1.58,2.51,2.35a1.25,1.25,0,0,0,1.58.1c.17-.1.34-.18.51-.26.55.29.72.84,1,1.36a8.24,8.24,0,0,0,1.46,2.1,4,4,0,0,0,3.65,1.18,2.33,2.33,0,0,0,1.49-.77,7,7,0,0,0,1.09-1.66A7.77,7.77,0,0,0,89.13,184Zm-20.3-2.57c-.31,2.55-.84,5.08-1.3,7.61a3.33,3.33,0,0,1-.43,1,.66.66,0,0,1-.47.29,9.68,9.68,0,0,1-1.7-.15c-5.14-1-10.27-2.13-15.43-3a155,155,0,0,0-16.75-2.05,94,94,0,0,0-10.87-.26c-2.39.11-4.77.31-7.15.47-.57,0-1.14.09-1.71.08a2.75,2.75,0,0,1-2.64-1.85,26.27,26.27,0,0,1-1.2-4.42c-.49-2.53-1-5.05-1.56-7.57-.15-.74-.28-1.5-.4-2.25a.82.82,0,0,1,.67-.81c.19,0,.37-.07.56-.09,3.33-.2,6.67-.42,10-.6q8.86-.47,17.73-.89l2-.11v.09q10.73-.44,21.46-.83c1.14,0,2.29,0,3.43.05a5.42,5.42,0,0,1,4.76,3.17A11.51,11.51,0,0,1,69,173.09,34.84,34.84,0,0,1,68.83,181.38Zm18.42,5.9a2.91,2.91,0,0,1-.15.56,1.92,1.92,0,0,1-.41.72,2,2,0,0,1-2.84.17,4.54,4.54,0,0,1-1.34-1.83c-.43-1.15-.79-2.34-1.16-3.52-.18-.54-.3-1.1-.47-1.64-.12-.37-.57-.69-.87-.56a1.2,1.2,0,0,0-.64.49c-.27.6-.44,1.26-.67,1.88a.73.73,0,0,1-1.18.19,6.13,6.13,0,0,1-.79-.82,8.43,8.43,0,0,1-.77-1.2c-.69-1.34-1.51-1.44-2.23-.15a2.19,2.19,0,0,1-1.82,1.2.85.85,0,0,1-1-.77v-1.71H71q.08-1.14.18-2.28a1.92,1.92,0,0,1,.84-1.43,14.46,14.46,0,0,1,4-2.12,5.77,5.77,0,0,1,4.7.39,11.39,11.39,0,0,1,2.11,1.47,14.53,14.53,0,0,1,4.32,7.27A8.36,8.36,0,0,1,87.25,187.28Z" transform="translate(0 0)"/>
      <polygon class="cls-2" points="38.18 166.89 38.18 166.89 38.18 166.89 38.18 166.89"/>
    </g>
    <path class="cls-2" d="M151.89,143.34a34.41,34.41,0,0,1-4.79-1.05,7.61,7.61,0,0,1-.79-.31,3.57,3.57,0,0,1-2.44-3.52c0-.66,0-1.33,0-2l.36-16h.16v-2.38l-.89-3c-.05,1.82-.07,3.64-.11,5.47h0c-.07,1.53-.1,3.06-.23,4.58-.31,3.61-.38,7.24-.37,10.87,0,.86.06,1.72.08,2.58A4.41,4.41,0,0,0,146,142.9a34.45,34.45,0,0,0,3.56,1,20.86,20.86,0,0,0,2.61.42Z" transform="translate(0 0)"/>
    <g>
      <path class="cls-2" d="M127,198.28a11.32,11.32,0,0,0,11.85,1.31,16.8,16.8,0,0,0,4.88-3.42c.46-.46.81-1.07,1.48-1.29a.33.33,0,0,1,.38.26v0a1.14,1.14,0,0,1-.14.54,13.25,13.25,0,0,1-5.25,4.71,12.39,12.39,0,0,1-11.28,0,10.48,10.48,0,0,1-3.8-2.93.28.28,0,0,1,0-.25c0-.06.18-.12.22-.09C125.91,197.53,126.45,197.91,127,198.28Z" transform="translate(0 0)"/>
      <path class="cls-2" d="M145,185.4c.53-.55,1.1-1.19,1.73-1.76a1.22,1.22,0,0,1,.8-.15c.27,0,.64.57.64.87a5.84,5.84,0,0,1-1.14,3.47,3.13,3.13,0,0,1-2.23,1.14,1.12,1.12,0,0,1-.79-.25,8.86,8.86,0,0,1-2.15-3.31.89.89,0,0,1,.27-.74,1,1,0,0,1,.77-.2,3.59,3.59,0,0,1,1,.52C144.18,185.17,144.44,185.46,145,185.4Z" transform="translate(0 0)"/>
      <path class="cls-2" d="M124.2,184.25a7,7,0,0,1-.28,1.18c-.18.43-.55.78-.71,1.22A12,12,0,0,0,123,188a.92.92,0,0,1-1,.45,2,2,0,0,1-.73-.4,10.36,10.36,0,0,1-2.19-3.66,2.31,2.31,0,0,1,0-.83.9.9,0,0,1,1-.79,1.12,1.12,0,0,1,.31.1,4.65,4.65,0,0,1,.66.53.7.7,0,0,0,.78.09c.43-.2.82-.47,1.26-.64a.93.93,0,0,1,1.15.62,1.07,1.07,0,0,1,0,.25Z" transform="translate(0 0)"/>
      <path class="cls-2" d="M136.93,193.35a2.79,2.79,0,0,1-.31.68,1.81,1.81,0,0,1-2,.65c-.25-.07-.44-.51-.25-.68s.58-.46.86-.71a.58.58,0,0,0,0-.77c-.68-.51-1.37-1-2.05-1.52a.36.36,0,0,1,0-.27c0-.08.14-.19.2-.18a5.41,5.41,0,0,1,3,1.42A1.7,1.7,0,0,1,136.93,193.35Z" transform="translate(0 0)"/>
      <path class="cls-2" d="M160.11,174.85c-.07-.31.41-.7.76-.63l.19.05-.39-1.3-1-.31a3.44,3.44,0,0,0-.85,0,.64.64,0,0,0-.48.61,10.25,10.25,0,0,0,.28,1.09,44.44,44.44,0,0,1,2.27,9.45,49.19,49.19,0,0,1,.38,5.42c0,2.38,0,4.77-.11,7.16a25.1,25.1,0,0,1-2.86,10.11,10.46,10.46,0,0,1-4.08,4.31,1.36,1.36,0,0,1-1.8-.33,8.34,8.34,0,0,1-.74-1.21,21.91,21.91,0,0,1-1.67-5.16c-.21-1.05.14-1.35,1.28-1.05a7.09,7.09,0,0,0,2.55.26,3.56,3.56,0,0,0,2.46-1.3,2.26,2.26,0,0,0,.37-2.42,4.94,4.94,0,0,0-1.3-1.86c-.28-.26-.57-.5-.83-.79a.93.93,0,0,1-.2-1.05c.32-.69.65-1.38,1-2.07a23.39,23.39,0,0,0,2.14-12.55,20.47,20.47,0,0,0-6.91-13.43,1.68,1.68,0,0,0-.77-.34.71.71,0,0,0-.7.7,1.74,1.74,0,0,0,.35.77c.61.73,1.27,1.42,1.87,2.16a6.34,6.34,0,0,1,.54,1,.82.82,0,0,1-.31.74,4.78,4.78,0,0,1-.83.2,18.9,18.9,0,0,1-4.57-.17c-1.12-.2-2.25-.38-3.38-.54a.6.6,0,0,0-.49.21,1.1,1.1,0,0,0-.15.77c.4,1,.87,1.9,1.3,2.85.09.19-.28.61-.49.6a5.48,5.48,0,0,1-.57-.05c-.56-.12-1.12-.24-1.67-.4a58.66,58.66,0,0,1-9.33-3.53c-.69-.33-1.4-.61-2.1-.89a.68.68,0,0,0-.85.81c.09.46.22.92.32,1.39.19.83.38,1.67.54,2.51a.71.71,0,0,1-.7.72l-.28,0a21.85,21.85,0,0,1-7.62-3.85,10.24,10.24,0,0,1-3-3.77,1.68,1.68,0,0,1,0-1.37c.26-.66.13-.89-.36-1.07a2.14,2.14,0,0,0-1.39-.11,4.34,4.34,0,0,0-2.16,1.34,13,13,0,0,0-2,3.15A38,38,0,0,0,109,181.77a21.88,21.88,0,0,0,1.28,10.14,8.29,8.29,0,0,1,.82,2.52c-.37.47-.8,1-1.2,1.49a4.28,4.28,0,0,0-.7,4.06c.12.36.22.73.33,1.1a5,5,0,0,0,5.3.18,2.47,2.47,0,0,1,.52-.18,1,1,0,0,1,1,.41c.22.52.44,1,.61,1.56a2.55,2.55,0,0,0,.58,1.16,12,12,0,0,0,.27,1.33c.21.62.49,1.21.75,1.82a.28.28,0,0,1,0,.25,1.09,1.09,0,0,1-.48.24,1.5,1.5,0,0,1-.55-.08,15.52,15.52,0,0,1-7.34-5.1,2.58,2.58,0,0,1-.72-1.5,7,7,0,0,1-1.87-3.15,25.24,25.24,0,0,1-1.56-7.83c-.05-.76-.12-1.5-.19-2.27a.27.27,0,0,0-.2-.16c-.18,0-.41,0-.52.05a8.4,8.4,0,0,0-1.3,2.2,10,10,0,0,1-.81,1.15.51.51,0,0,1-.48-.06,3.09,3.09,0,0,1-.62-.93,21.23,21.23,0,0,1-1.57-9.8,24.56,24.56,0,0,1,1.71-7.51,18.92,18.92,0,0,1,7.2-9,6.83,6.83,0,0,0,.92-.68.6.6,0,0,0,.18-.49.57.57,0,0,0-.3-.39,7.87,7.87,0,0,0-3.08-.48c-.66,0-1.33.27-2-.05a.51.51,0,0,1-.23-.45,2,2,0,0,1,.49-.7,9.35,9.35,0,0,1,6.86-2.32,3.41,3.41,0,0,1,.85.09,6,6,0,0,0,4.9-.83,18.18,18.18,0,0,1,7.36-2.19,34.18,34.18,0,0,1,7.43,0l.14,0a.82.82,0,0,1,.61,1c0,.38-.15.75-.19,1.12a1,1,0,0,0,.56.92,4.84,4.84,0,0,0,.54.17,5,5,0,0,0,.56.08c2.47.22,4.95.42,7.42.67a68,68,0,0,1,10.44,1.67,22.5,22.5,0,0,1,4.95,1.9l-.52-1.75a27.12,27.12,0,0,0-3-1.05,50.34,50.34,0,0,0-10.42-1.76c-2.19-.15-4.38-.3-6.57-.48a7.08,7.08,0,0,1-1.12-.19,1.42,1.42,0,0,1-1-1.29c0-.37.05-.76.05-1.14a1,1,0,0,0-.69-.8l-.28-.05a48,48,0,0,0-9.44,0,18.26,18.26,0,0,0-8,2.76c-.39.26-.8.49-1.26.77-1.1-.16-2.23-.39-3.37-.48a9.76,9.76,0,0,0-9.72,5.23.48.48,0,0,0-.06.28,1.07,1.07,0,0,0,.14.52.7.7,0,0,0,.49.2,5.84,5.84,0,0,0,.83-.18c.94-.17,1.88-.34,2.82-.49.49-.08.89.12,1,.4a.7.7,0,0,1-.31.72c-.41.41-.84.78-1.25,1.18a20,20,0,0,0-3.64,4.75,24.69,24.69,0,0,0-2.85,15.5,18.44,18.44,0,0,0,2.48,7.27,9.69,9.69,0,0,0,.66.92.61.61,0,0,0,.15.12.59.59,0,0,0,.81-.2c.24-.52.46-1.05.73-1.54.06-.12.32-.14.49-.17s.14.14.15.22c.23,1.12.45,2.24.68,3.36a20.21,20.21,0,0,0,2.17,5.88,16,16,0,0,0,12.37,8.24c.49.07.92-.12,1-.37a.8.8,0,0,0-.26-.77,17.76,17.76,0,0,1-2.86-3.92,1.11,1.11,0,0,0-.34-.3c.51-1,.59-1,1.38-.47.62.44,1.23.9,1.88,1.31A22.6,22.6,0,0,0,139,208a23,23,0,0,0,7-3.11,6.69,6.69,0,0,1,2.19-1.3,1.59,1.59,0,0,1,.79,1.14,34.33,34.33,0,0,0,1.95,5.39c.31.69.71,1.35,1.08,2a1.17,1.17,0,0,0,1.29.39,7.61,7.61,0,0,0,.79-.31A12.93,12.93,0,0,0,159,207.9a18.17,18.17,0,0,0,2.48-5.13,29.14,29.14,0,0,0,1.25-6.74,55,55,0,0,0-2.07-19C160.47,176.33,160.3,175.59,160.11,174.85Zm-4.66,24.91a1.55,1.55,0,0,1-.42,1.8,3.44,3.44,0,0,1-2.33.77h0a2.6,2.6,0,0,1-1.88-.62,1,1,0,0,1-.16-.5.37.37,0,0,1,.08-.26c.71-.88,1.42-1.76,2.14-2.63a.85.85,0,0,1,1-.16A3.8,3.8,0,0,1,155.45,199.76Zm-41.89.47a2.08,2.08,0,0,1-3.26-1.49,3.21,3.21,0,0,1,1-3.07c.1-.09.34,0,.52,0a.38.38,0,0,1,.22.15c.71,1,1.41,2,2.09,3.07a1.42,1.42,0,0,1,.08.54,1.15,1.15,0,0,1-.69.82Zm24.23,6.33a18.64,18.64,0,0,1-12-1,24.23,24.23,0,0,1-8.9-6.55,29.11,29.11,0,0,1-4.6-7.2,18.94,18.94,0,0,1-1.54-6.36,31.55,31.55,0,0,1,1.06-10.77,12.38,12.38,0,0,1,1.76-3.9,5.34,5.34,0,0,1,2.31-2,.92.92,0,0,1,1,.29c.11.26.2.55.3.8a10.6,10.6,0,0,0,3.82,4.89,21.21,21.21,0,0,0,4.44,2.59c1.56.69,3.17,1.28,4.77,1.9a.79.79,0,0,0,.94-.79c-.23-1.21-.48-2.42-.71-3.63,0-.24.32-.58.54-.55a3.47,3.47,0,0,1,.55.08c.8.32,1.58.66,2.37,1a67.08,67.08,0,0,0,10.07,3.23,7.14,7.14,0,0,0,1.13.15.76.76,0,0,0,.84-1.08c-.34-.68-.7-1.35-1-2-.08-.18-.14-.36-.2-.54a.61.61,0,0,1,.49-.83c1,0,1.91.06,2.86.09h1.77c.52,0,1.66-.08,2.82-.11a1.15,1.15,0,0,1,1.15.69,25.08,25.08,0,0,1,1.11,2.62,20.22,20.22,0,0,1,0,13C152.06,198.83,146.47,204.38,137.79,206.56Z" transform="translate(0 0)"/>
    </g>
    <path class="cls-2" d="M182.55,246.71c-1.46-1.13-2.92-2.26-4.36-3.42-1.18-.95-2.32-2-3.46-3a1.12,1.12,0,0,1-.29-1.3c.3-.8.64-1.59,1-2.38.83-2.1,1.56-4.24,2.26-6.39l-.94-3.18a60.39,60.39,0,0,1-4.49,12c-.93,1.76-2.4,2.32-4.62,2.26a20.35,20.35,0,0,1-2.43-.56,42.83,42.83,0,0,1-4-1.64c-1.64-.78-3.23-1.66-4.84-2.5a7.8,7.8,0,0,1-.71-.46c-.24-.16-.3-.61-.11-.75a5.08,5.08,0,0,1,.69-.5c3.64-1.88,7.28-3.78,10.94-5.64a41.92,41.92,0,0,1,7.46-2.9,6,6,0,0,1,1.4-.12.71.71,0,0,1,.51.3l-.72-2.43-.65.09a22.18,22.18,0,0,0-5.13,1.74c-3.53,1.66-7,3.38-10.44,5.33-1.81,1-3.65,2.05-5.48,3.08-1.12.62-1.26.87-1,2a13.45,13.45,0,0,0,.31,1.4,98.53,98.53,0,0,0,3.84,11.07,34.07,34.07,0,0,0,1.76,3.59,14.26,14.26,0,0,0,1.86,2.52,5.92,5.92,0,0,0,4.62,2.05,12.23,12.23,0,0,0,3.33-.36c1.18-.37,2.38-.68,3.55-1.08A83.16,83.16,0,0,0,183,251.2a4.4,4.4,0,0,1,.83-.34Zm-20.23,5.82a.64.64,0,0,1-1,.06,13.52,13.52,0,0,1-1.08-1.32,22,22,0,0,1-2.26-4.62,53,53,0,0,1-2.36-7.92c0-.29.2-.66.42-.62a1.77,1.77,0,0,1,.56.09c.74.42,1.46.9,2.21,1.3,1.68.9,3.38,1.77,5.06,2.65.26.13.49.27.75.41a.91.91,0,0,1,.43,1q-1.24,4.25-2.5,8.49A3,3,0,0,1,162.32,252.53Zm19.54-3.15a4.82,4.82,0,0,1-.7.48,55.9,55.9,0,0,1-9.74,4,22.35,22.35,0,0,1-5.55,1h0l-1.44-.21a.92.92,0,0,1-.57-.88,2.66,2.66,0,0,1,.12-.56,52.77,52.77,0,0,0,2.56-8.15c.09-.37.21-.73.33-1.09a1.13,1.13,0,0,1,1.09-.77,5.43,5.43,0,0,1,.57,0,6,6,0,0,0,4.63-1.83.78.78,0,0,1,1,0c.22.18.44.36.65.55l6.29,5.81c.28.26.53.54.79.82A.66.66,0,0,1,181.86,249.38Z" transform="translate(0 0)"/>
    <g>
      <path class="cls-2" d="M172.88,280.5a4.39,4.39,0,0,0,1-.5,110.32,110.32,0,0,1,13.49-7.5l2.46-1.18-.4-1.35c-3,1.38-6,2.82-8.92,4.4a78.8,78.8,0,0,0-7.11,4.28,10.4,10.4,0,0,0-1.08.91h0a.52.52,0,0,0,0,.74C172.53,280.41,172.75,280.54,172.88,280.5Z" transform="translate(0 0)"/>
      <path class="cls-2" d="M195.71,291.08l-1.8,1.06a96.53,96.53,0,0,1-11,5.57c-1,.41-1.95.77-2.93,1.14a1,1,0,0,1-1.17-.57c-1.58-3.88-3.18-7.76-4.72-11.67a25.26,25.26,0,0,1-.73-2.75,4.55,4.55,0,0,0-.24-.82c-.06-.15-.27-.23-.41-.33l-.26.46a6.87,6.87,0,0,0,.26,2.55c.23.73.47,1.45.72,2.17q1.39,3.75,2.8,7.51c.57,1.51,1.14,3,1.73,4.54a1.12,1.12,0,0,0,1.41.64c1.18-.41,2.34-.82,3.49-1.3a105.76,105.76,0,0,0,13-6.64l.25-.15Z" transform="translate(0 0)"/>
    </g>
    <path class="cls-2" d="M216.36,374.05a4.78,4.78,0,0,1-.84-3c0-.57,0-1.14,0-1.71a60.47,60.47,0,0,0-.48-8.29c-.32-2.27-.66-4.53-1.11-6.77a4.45,4.45,0,0,1-.11-2l-1.08-3.64a3.4,3.4,0,0,1-.12-.34c0-.13-.07-.27-.1-.41l-5.26-17.71a53.07,53.07,0,0,0-2.68-5.9c-.63-1.19-1.3-2.32-1.93-3.5-.05-.09.11-.31.21-.44s.19,0,.27,0a3.28,3.28,0,0,1,.69.48c.32.32.65.65,1,1l-.62-2.09-.7-.55a13.71,13.71,0,0,0-3.8-2l-.19-.05a1.33,1.33,0,0,0-1.51,1.1,13.38,13.38,0,0,0-.13,1.42,114.72,114.72,0,0,0,1.23,23.12,66.94,66.94,0,0,0,4,14.31,40.8,40.8,0,0,0,9.6,14.44c1.18,1.12,2.42,2.16,2.68,3.91.39.54.76,1.11,1.16,1.62a1.86,1.86,0,0,0,.47.32c.16.11.68-.12.7-.32a1.73,1.73,0,0,0,0-.82C217.26,375.5,216.81,374.77,216.36,374.05Zm-16.28-33.54c-.59-4.81-1.11-9.63-1.28-14.48-.07-1.81-.24-3.61-.38-5.62,0-.17.08-.54.14-.91s.73-.56.94-.35a6,6,0,0,1,.8.8,35.23,35.23,0,0,1,3.34,5.3,62.74,62.74,0,0,1,3.89,9.5c.6,1.8,1.13,3.63,1.64,5.46a1.57,1.57,0,0,1-.77,2A6.11,6.11,0,0,1,205,343.4a10.81,10.81,0,0,1-2.27-.12C200.75,342.87,200.34,342.66,200.08,340.51ZM214.22,370c-.07.35-.64.61-.89.39a11.88,11.88,0,0,1-1.07-.93,38.77,38.77,0,0,1-7.16-10.62,56.11,56.11,0,0,1-4.28-13.88.81.81,0,0,1,0-.22.75.75,0,0,1,.85-.64c.19,0,.37.09.55.13s.56.11.85.15a9.44,9.44,0,0,0,5.84-.82c.61-.34,1-.09,1.29.61.07.18.15.35.21.53.21.73.43,1.46.62,2.2a120.07,120.07,0,0,1,2.72,13.43c.26,1.79.34,3.6.52,5.54h0A16.38,16.38,0,0,1,214.22,370Z" transform="translate(0 0)"/>
    <path class="cls-2" d="M232.4,414.79a39.47,39.47,0,0,1-3.84,1.47,46.6,46.6,0,0,1-4.66,1.3,18,18,0,0,1-3.11.26,3,3,0,0,1-.83-.18.87.87,0,0,1-.53-.9,3.39,3.39,0,0,1,.13-.55,58.46,58.46,0,0,0,2.56-8.16c.1-.36.2-.73.32-1.09a1,1,0,0,1,.84-.67,11.28,11.28,0,0,1,1.42-.09A4.91,4.91,0,0,0,228,404.8c.27-.26.57-.49.88-.75h0l.33.1-1-3.36c-.11.22-.21.45-.33.66s-.35.68-.55,1c-.74,1.27-1.91,1.8-3.7,1.92h0a27.29,27.29,0,0,1-3-.66,29,29,0,0,1-3.7-1.52,49.48,49.48,0,0,1-5.78-3.11.58.58,0,0,1-.06-.77c.08-.06.14-.13.21-.19a1.58,1.58,0,0,1,.24-.15c4.24-2.18,8.46-4.41,12.72-6.54.33-.17.68-.32,1-.48l-.53-1.77c-3.19,1.52-6.35,3.07-9.42,4.83-1.9,1.08-3.81,2.16-5.73,3.22-1,.56-1.23.84-1,2.05.07.37.16.74.26,1.11a94.55,94.55,0,0,0,4,11.6c.52,1.24,1.14,2.43,1.77,3.6a10,10,0,0,0,2.13,2.67,6.07,6.07,0,0,0,4.14,1.65,12.07,12.07,0,0,0,3.4-.36c1.09-.33,2.21-.6,3.28-1,1.79-.63,3.57-1.29,5.32-2Zm-14.78.82a.49.49,0,0,1-.48.08,1.79,1.79,0,0,1-.67-.52,19.82,19.82,0,0,1-1.55-2.38,43.35,43.35,0,0,1-3.74-11.06c0-.21.16-.47.24-.68h0a2,2,0,0,1,.65.07c.58.32,1.14.69,1.73,1,1.75.95,3.52,1.88,5.29,2.82.25.13.51.23.77.36a1.16,1.16,0,0,1,.71,1.39,2.8,2.8,0,0,0-.06.28c-.71,2.37-1.41,4.75-2.14,7.11A7.41,7.41,0,0,1,217.62,415.61Z" transform="translate(0 0)"/>
    <g>
      <path class="cls-2" d="M38.75.07a16.4,16.4,0,0,1-1,1.37,6.5,6.5,0,0,1-2.48,1.89,3.58,3.58,0,0,1-5-2.33,7.77,7.77,0,0,1-.21-.93H28.48a9.23,9.23,0,0,0,.54,2A5.36,5.36,0,0,0,37.31,4.4a10.12,10.12,0,0,0,2-2.05c.51-.74,1-1.51,1.42-2.28Z" transform="translate(0 0)"/>
      <path class="cls-2" d="M110.57,9.1c-.06.24-.12.48-.17.73-.1.56-.15,1.13-.28,1.68a.66.66,0,0,1-.36.39.94.94,0,0,1-1.06-.14,1.12,1.12,0,0,1-.4-.7,3.56,3.56,0,0,1,.19-1.12l.76-2.56c-.47-.56-1-1.09-1.47-1.6-.31,1-.62,2.06-1,3.08-.69,2.07-1.5,4.11-2.27,6.16a1.53,1.53,0,0,1-1,1.05,5,5,0,0,1-.65-.86c-.51-1-1-2.07-1.46-3.1A58.72,58.72,0,0,0,95.58,2a5.41,5.41,0,0,1-.45-.72.72.72,0,0,1,.1-.79,1.94,1.94,0,0,1,.34-.36l-.69,0H92.1c-.34.27-.69.54-1,.78A17.49,17.49,0,0,1,86.29,2.8a10.05,10.05,0,0,1-7-.67A14.66,14.66,0,0,1,76.22.07H73.85L74,.25a16.91,16.91,0,0,0,6,3.81,11.66,11.66,0,0,0,7.86.15,39.47,39.47,0,0,0,3.68-1.57,16.69,16.69,0,0,1,1.54-.73.94.94,0,0,1,.77.21,5.09,5.09,0,0,1,.9,1.11c1,1.63,2,3.24,2.87,4.95,1.54,3.08,2.92,6.22,4.36,9.34a5.91,5.91,0,0,1,.24.82.88.88,0,0,1-.56.89,2.4,2.4,0,0,1-.83.16,8.44,8.44,0,0,1-1.4-.27q-9.83-2.61-19.63-5.26A122.76,122.76,0,0,1,61.17,7.4a11.39,11.39,0,0,1-3.66-2.2.73.73,0,0,1,0-.79,3,3,0,0,1,.4-.4c.87-.59,1.73-1.18,2.62-1.74,1.22-.76,2.43-1.51,3.68-2.2H60.61C59.29.82,58,1.6,56.7,2.45l-.25.1a.63.63,0,0,1-.69-.33A4.23,4.23,0,0,1,55.85.07H54.13c-.05.25-.11.5-.16.75A5.53,5.53,0,0,0,56.49,7c1.27.85,2.56,1.66,3.9,2.38a39.39,39.39,0,0,0,6.33,2.65c5.07,1.67,10.21,3.15,15.37,4.53,6.35,1.71,12.75,3.22,19,5.13.37.11.75.19,1.12.27a1.34,1.34,0,0,0,1.64-.81c.79-1.62,1.56-3.27,2.33-4.91.33-.69.63-1.39,1-2.07a.94.94,0,0,1,1-.51,8.84,8.84,0,0,1,1.14.13l2.8.39a12.24,12.24,0,0,0,1.19,1.31c.29.24.59.46.89.68A29.64,29.64,0,0,0,110.57,9.1Z" transform="translate(0 0)"/>
    </g>
    <path class="cls-2" d="M244.38,455.19a113.08,113.08,0,0,0-11.76,4c-.71.29-1.4.61-2.13.86a2.83,2.83,0,0,1-3.33-1,20.28,20.28,0,0,1-1.77-2.61c-1.73-3.08-3.41-6.19-5.1-9.28l-.26-.52a.91.91,0,0,1,.36-1.22c.7-.31,1.4-.61,2.11-.87,4.66-1.72,9.3-3.48,14-5.13l2.93-1-.6-2c-3.79,1.35-7.55,2.74-11.27,4.27-3.36,1.37-6.69,2.82-9.91,4.47-1.06.54-1.12.81-.22,1.52A4.64,4.64,0,0,1,219,449c0,.08,0,.23,0,.27s-.34.27-.46.23c-1.37-.38-2.73-.84-4.11-1.2a1.63,1.63,0,0,0-2.13.95,62.7,62.7,0,0,0-3.06,6.47,34,34,0,0,0-2,7.15,15.71,15.71,0,0,0,.46,7.08,9.65,9.65,0,0,0,1.77,3.57,2.85,2.85,0,0,0,.47.45,2.49,2.49,0,0,0,3.49-.52,6.92,6.92,0,0,0,1.37-2.8c.28-1.3.5-2.62.74-3.93a.14.14,0,0,1,0-.06.49.49,0,0,1,.67-.2c.31.21.6.47.9.69a1.19,1.19,0,0,0,1.77,0,9.52,9.52,0,0,0,2.2-3.64c.18-.54.39-1.06.59-1.6a14.69,14.69,0,0,0,1.73-.34c.54-.18,1-.46,1.57-.69a.92.92,0,0,1,1,.22c.5.58,1,1.17,1.5,1.72a1,1,0,0,0,1,.32,14,14,0,0,0,1.88-.67,115.23,115.23,0,0,1,14.63-5.1ZM223.89,459a1.31,1.31,0,0,1-1.29.43,4.46,4.46,0,0,1-1-.52c-.39-.24-.77-.54-1.16-.79-.24-.16-.89.21-.89.51v1.7h0a6.35,6.35,0,0,1-.66,3.61c-.63,1.16-1.23,1.44-2.12.34-.48-.59-.87-1.25-1.32-1.87a3.31,3.31,0,0,0-.56-.62.69.69,0,0,0-.52-.16c-.23.11-.55.31-.59.52a6.81,6.81,0,0,0-.12,1.69,26.06,26.06,0,0,1-.44,4.83,8.78,8.78,0,0,1-1.09,3.22,1,1,0,0,1-.16.2.92.92,0,0,1-1.29,0,7.56,7.56,0,0,1-1.39-2.47,8.41,8.41,0,0,1-.57-5,45.11,45.11,0,0,1,2.31-8.23c.68-1.78,1.45-3.52,2.22-5.26a1.61,1.61,0,0,1,1.62-1,7.29,7.29,0,0,1,2,.31c1.07.39,2.1.9,3.12,1.39a3.12,3.12,0,0,1,1.39,1.39c.86,1.59,1.75,3.16,2.62,4.74A1,1,0,0,1,223.89,459Z" transform="translate(0 0)"/>
    <path class="cls-2" d="M237.31,506.35c.27-.5.52-1,.83-1.48a.64.64,0,0,1,.5-.21.89.89,0,0,1,.51.21,3.89,3.89,0,0,0,3,.73,3.71,3.71,0,0,0,2.44-1.35,1.49,1.49,0,0,1,1.1-.56,6.33,6.33,0,0,0,4.55,1c0,.15.12.3.17.43A19.88,19.88,0,0,0,255.3,492l-.12-.42q-1.27,3.69-2.53,7.38c-.19.54-.34,1.1-.55,1.63a3.55,3.55,0,0,1-2.51,2.16,2.08,2.08,0,0,1-1.89-.39,3.7,3.7,0,0,1-1.36-2.13c-.15-.65-.22-1.32-.35-2a2.46,2.46,0,0,0-.31-.79.81.81,0,0,0-.46-.25.61.61,0,0,0-.69.36,1.25,1.25,0,0,0-.19.53c0,.66,0,1.33-.09,2a5.08,5.08,0,0,1-1.52,3.31,3.75,3.75,0,0,1-.69.49,1.13,1.13,0,0,1-1.48-.43,3.5,3.5,0,0,1-.47-1.64c0-1,0-2.09,0-3.14,0-.38,0-.75-.08-1.13s-.67-.56-.93-.34a1.93,1.93,0,0,0-.54.63c-.45,1.25-.85,2.52-1.28,3.79a34.84,34.84,0,0,1-2.31,5.54,11.33,11.33,0,0,1-2.6,3.39,5,5,0,0,1-2.59,1.14,3.38,3.38,0,0,1-3.68-2.11,7.09,7.09,0,0,1-.43-1.94,14,14,0,0,1,.29-4,40,40,0,0,1,8.44-17.33,20,20,0,0,1,4-3.71,13.6,13.6,0,0,1,4.1-2,4.28,4.28,0,0,1,4.45,1.2,9.23,9.23,0,0,1,1.8,2.57c.55,1.1,1.06,2.24,1.62,3.35a27.59,27.59,0,0,0,1.35,2.51,6.29,6.29,0,0,0,1.13,1.28,1.09,1.09,0,0,0,.77.12c.08,0,.14-.32.19-.49a.71.71,0,0,0,0-.29,21,21,0,0,0-4.85-9.29,11.55,11.55,0,0,0-2.21-1.79,6.37,6.37,0,0,0-5.48-.75,13.61,13.61,0,0,0-4.09,2,19.3,19.3,0,0,0-3.37,3.08,46,46,0,0,0-8.66,15.36c-.24.73-.38,1.48-.58,2.22a19,19,0,0,0-.43,6,7.11,7.11,0,0,0,.73,2.75,5.47,5.47,0,0,0,1,1.48h7.71a9.83,9.83,0,0,0,1.78-2.13C236.08,508.73,236.67,507.53,237.31,506.35Z" transform="translate(0 0)"/>
  </g>
  <g id="Selected_Items" data-name="Selected Items">
    <g>
      <path class="cls-3" d="M61.12,257.72h-12a18.33,18.33,0,0,0,12,5.63Z" transform="translate(0 0)"/>
      <path class="cls-3" d="M61.12,227a18.33,18.33,0,0,0-12,5.63h12Z" transform="translate(0 0)"/>
      <path class="cls-3" d="M64.37,254.68v-19c0-.48-.13-.61-.6-.61H43.15c-.47,0-.6.13-.6.61v19c0,.47.13.6.59.6H63.76C64.25,255.3,64.37,255.18,64.37,254.68Zm-9.54-6.79a7.06,7.06,0,0,1-1.3.11c-.48,0-1,0-1.45,0-.19,0-.25.05-.25.24,0,.62,0,1.23,0,1.85a1.19,1.19,0,0,1-.93,1.12,1.17,1.17,0,0,1-1.33-.65,1.43,1.43,0,0,1-.12-.58c0-1.6,0-3.2,0-4.8v-4.75a1.18,1.18,0,0,1,1.28-1.28c1.13,0,2.27,0,3.41,0a4.42,4.42,0,0,1,.7,8.73Z" transform="translate(0 0)"/>
      <path class="cls-3" d="M54.14,241.58c-.68-.06-1.37,0-2-.05-.21,0-.26.08-.26.27,0,.59,0,1.18,0,1.77s0,1.21,0,1.81c0,.17.05.23.22.23h1.86a2.05,2.05,0,0,0,2-2A2,2,0,0,0,54.14,241.58Z" transform="translate(0 0)"/>
      <path class="cls-3" d="M61.53,220.18a25,25,0,1,0,25,25A25,25,0,0,0,61.53,220.18Zm16,38.86a19.66,19.66,0,0,1-11.69,6.41,20.12,20.12,0,0,1-17.7-5.36c-.74-.69-1.36-1.49-2-2.23a.47.47,0,0,0-.32-.16H43a2.79,2.79,0,0,1-2.86-2.88V235.56A2.79,2.79,0,0,1,43,232.68h2.68a.48.48,0,0,0,.43-.2,20.29,20.29,0,0,1,11.76-7.4,20.05,20.05,0,0,1,6.51-.38,20.56,20.56,0,0,1,18.06,16.37,20,20,0,0,1,.41,4.62A20.31,20.31,0,0,1,77.54,259Z" transform="translate(0 0)"/>
      <path class="cls-3" d="M74.41,231.62A17.91,17.91,0,0,0,63.55,227v5.64h.31a2.79,2.79,0,0,1,2.89,2.9v8.07c0,.35,0,.35.34.35H80.47A18.08,18.08,0,0,0,74.41,231.62Z" transform="translate(0 0)"/>
      <path class="cls-3" d="M67,246.38c-.15,0-.23.05-.22.21a1.92,1.92,0,0,1,0,.24v8.07a2.77,2.77,0,0,1-2.44,2.77c-.25,0-.51,0-.76.05v5.6a18.14,18.14,0,0,0,16.89-16.94H67Z" transform="translate(0 0)"/>
    </g>
    <path class="cls-3" d="M57.11,339.94a25,25,0,1,0,25,25A25,25,0,0,0,57.11,339.94Zm-3.56,45.28a6,6,0,1,1,6.09-6A6.06,6.06,0,0,1,53.55,385.22ZM66.1,346.78Q63.7,356,61.29,365.3a5.63,5.63,0,0,1-5.45,4.28c-1.71,0-3.42,0-5.13,0l-.26,0a2.14,2.14,0,0,1,.06-.31q2.52-9.71,5-19.39c.45-1.73.89-3.46,1.34-5.2h9.75C66.45,345.37,66.29,346.08,66.1,346.78Z" transform="translate(0 0)"/>
    <g>
      <path class="cls-3" d="M173.28,436.84c-.24-.5-.49-1-.74-1.49q-1.22-2.48-2.45-5c-.09-.19-.09-.13,0-.31l2.28-4.63c.28-.56.55-1.12.82-1.68l.06-.13s0,0,0,0h-.09l-.76,0-.74,0h0l-.83.06-.24,0a.06.06,0,0,0-.06.05c0,.09-.08.19-.13.29-.27.63-.54,1.27-.82,1.9s-.52,1.24-.75,1.88c-.08.22-.16.45-.23.67l-.05.11h0a.36.36,0,0,1,0-.09l-.42-1.24c-.4-1.09-.84-2.16-1.25-3.24,0,0,0,0,0-.06a.09.09,0,0,0,0,0h-.08l-.89.05-.72,0-.77,0-.14,0s0,0,0,0h0s0,0,0,.05l.09.19,1.39,3c.43.91.86,1.83,1.26,2.76.07.16.08.12,0,.28-.42.8-.83,1.6-1.24,2.41l-1.71,3.38-.06.13v0s0,0,0,0a.25.25,0,0,0,.12,0l1.18,0h.09c.37,0,.75,0,1.12,0h.09a.07.07,0,0,0,0,0,.61.61,0,0,0,.05-.12c.12-.29.24-.59.37-.88l.7-1.62c.28-.66.55-1.31.78-2l0-.05,0,0a.42.42,0,0,1,0,.1c.11.38.24.76.38,1.13.22.59.46,1.17.72,1.75s.56,1.27.82,1.92l0,.05a.08.08,0,0,0,.08.06l.44,0,.69,0h.05l.66,0,.92.06h.05a0,0,0,0,0,0-.06A.83.83,0,0,0,173.28,436.84Z" transform="translate(0 0)"/>
      <path class="cls-3" d="M176.38,405.44a25,25,0,1,0,25,25A25,25,0,0,0,176.38,405.44Zm17.59,38a.84.84,0,0,1-.27.46.87.87,0,0,1-.23.16,1.75,1.75,0,0,1-.32.12,3,3,0,0,1-.52.08l-.66,0H179.61s-.06,0-.06.05v3.59H177l-.06,0-.2,0-.75-.13-.92-.17-.79-.14-.76-.14-.77-.13L172,447l-.79-.13-.77-.14-.79-.14-.78-.13-.79-.14-.79-.14-.78-.13-.79-.14-.78-.13-.8-.14-.78-.13-.8-.14-.79-.14-.78-.13-.77-.14-.79-.14-.74-.12-.09,0,0,0a.22.22,0,0,1,0-.08V416.42a.08.08,0,0,1,.07-.07l.22,0,.77-.13.79-.14.78-.14.8-.14.78-.13.79-.14.8-.14.78-.13.77-.13.8-.14.79-.14.78-.14.77-.13.81-.14.79-.14.76-.13.77-.13.79-.14.94-.16,1-.17.94-.17,1-.17.32-.06a.15.15,0,0,0,.07,0h2.36l0,.07v3.13s0,0,0,.05h.18q5.61,0,11.24,0c.46,0,.93,0,1.39,0a3.68,3.68,0,0,1,.58.06,2.18,2.18,0,0,1,.51.17c.24.12.23.11.36.36a2.35,2.35,0,0,1,.21.73,5.4,5.4,0,0,1,0,.56c0,.11,0,.21,0,.32s0,.24,0,.36c0,.79,0,1.59,0,2.38q0,6.74,0,13.48v5.7c0,.36,0,.71,0,1.07s0,.84-.06,1.26C194,443,194,443.2,194,443.4Z" transform="translate(0 0)"/>
      <path class="cls-3" d="M192.91,417.9v-.27c0-.05,0-.08-.07-.08H179.62a.07.07,0,0,0-.07.07v2.31s0,.06.07.06h2.95c.24,0,.21,0,.21.22v2.52s0,.06-.05.06h-3.14a.08.08,0,0,0,0,0v1.54a.05.05,0,0,0,0,.05h3c.22,0,.2,0,.2.2v2.53c0,.05,0,.07-.07.07H179.6a.1.1,0,0,0,0,0v1.54s0,.05,0,.05h3c.23,0,.2,0,.2.21v2.51c0,.08,0,.09-.08.09h-3.09a.06.06,0,0,0-.06.05v1.53s0,0,0,0h3c.23,0,.2,0,.2.21q0,1.2,0,2.4v.12c0,.06,0,.08-.07.08h-3.1s-.06,0-.06.06v1.41c0,.18,0,.17.18.17h2.91c.15,0,.14,0,.14.15v2.61a0,0,0,0,1,0,0h-3.13s-.06,0-.06.06V443a.09.09,0,0,0,0,.05,0,0,0,0,0,0,0h13.23c.06,0,.08,0,.08-.07a1.48,1.48,0,0,0,0-.21q0-6.24,0-12.46Zm-8.49,2.47v-.27s0,0,0-.06,0,0,0,0H190s0,0,0,0a.13.13,0,0,0,0,.06v2.5s0,.11,0,.16,0,0,0,0h-5.55a0,0,0,0,1,0,0c0-.05,0-.11,0-.16Zm0,4.23s0-.08,0-.12,0,0,0,0H190s0,0,0,0v0a.45.45,0,0,1,0,.11v2.42c0,.05,0,.1,0,.15s0,0,0,0h-5.55a0,0,0,0,1,0,0s0-.07,0-.1Zm0,4.51a.86.86,0,0,1,0-.16,0,0,0,0,1,0-.05h5.41a.38.38,0,0,1,.15,0,.19.19,0,0,1,0,.07.57.57,0,0,1,0,.13v2.38c0,.05,0,.11,0,.17a0,0,0,0,1-.05,0H184.5c-.06,0-.08,0-.08-.08v-2.51Zm.19,4.23H190c.06,0,.08,0,.09.09V436a.49.49,0,0,1,0,.12s0,.05,0,.07h-5.57s0,0-.06-.06v-2.55C184.42,433.33,184.41,433.34,184.61,433.34Zm5.46,7.05c0,.06,0,.11,0,.17l0,0h-5.55a0,0,0,0,1,0,0c0-.06,0-.11,0-.17v-2.51s0,0,0,0a0,0,0,0,1,0,0H190s0,0,0,0a.06.06,0,0,0,0,0v2.51Z" transform="translate(0 0)"/>
    </g>
    <path class="cls-3" d="M112.59,73.76a25,25,0,1,0,25,25A25,25,0,0,0,112.59,73.76Zm.2,13.73,7.53-6.26a.66.66,0,0,0,.14-.15h0a1,1,0,0,0,.17.14l10.67,7,.2.13c-.07.11-7.46,6.14-7.67,6.27l-11.25-7A1.14,1.14,0,0,1,112.79,87.49Zm-8-6.39,7.78,6.53-11.18,7-7.78-6.26ZM93.62,100.72l7.78-6.08,11.15,6.87c-.08.12-7.52,6.38-7.77,6.54Zm30.09,9.14-7.27,4.37c-1.2.71-2.4,1.44-3.59,2.16a.27.27,0,0,1-.33,0l-10.86-6.51a.29.29,0,0,1-.17-.29c0-.69,0-1.39,0-2.08v-.17l0,0,3.26,2.2,7.88-6.54,7.8,6.54,3.38-2.22a1.56,1.56,0,0,1,0,.2c0,.7,0,1.4,0,2.1A.27.27,0,0,1,123.71,109.86Zm-3.23-1.81-7.87-6.52,11.27-6.89,7.69,6.17Z" transform="translate(0 0)"/>
    <g>
      <path class="cls-3" d="M69.58,32.55H56a13.17,13.17,0,0,1-.33,18.12h0a13.19,13.19,0,0,1-1.75,1.5L38.55,65.24a25,25,0,0,0,31-32.69Z" transform="translate(0 0)"/>
      <path class="cls-3" d="M46.21,50.35a8.82,8.82,0,0,0,5-1.54l1.48-1.26a8.89,8.89,0,0,0-6-15H46a8.92,8.92,0,0,0-8.67,8.9,8.8,8.8,0,0,0,.22,1.94l.56,1.67h0A8.93,8.93,0,0,0,46.21,50.35Z" transform="translate(0 0)"/>
      <path class="cls-3" d="M46.21,16.44a24.88,24.88,0,0,0-15.87,5.7L34.69,35a13.2,13.2,0,0,1,11.52-6.77H67.45A25,25,0,0,0,46.21,16.44Z" transform="translate(0 0)"/>
      <path class="cls-3" d="M34.17,63.34l10.34-8.82a13.23,13.23,0,0,1-11.12-10L27,25.51a25,25,0,0,0,7.21,37.83Z" transform="translate(0 0)"/>
    </g>
    <g>
      <polygon class="cls-3" points="139.2 298.33 134.06 289.35 128.9 298.32 139.2 298.33"/>
      <polygon class="cls-3" points="142.94 298.33 152.44 298.33 140.13 278.09 131.33 278.07 131.97 279.19 142.94 298.33"/>
      <polygon class="cls-3" points="128.54 279.71 116.21 301.49 119.68 307.84 132.2 286.1 128.54 279.71"/>
      <path class="cls-3" d="M134.34,270.53a25,25,0,1,0,25,25A25,25,0,0,0,134.34,270.53Zm15.31,42.27H118.71l-6.21-11.35,15.09-26.64,14.36,0,15.26,25.07Z" transform="translate(0 0)"/>
      <polygon class="cls-3" points="141.07 301.59 141.06 301.57 127.11 301.56 122.46 309.57 147.79 309.56 152.49 301.57 141.07 301.59"/>
    </g>
    <g>
      <path class="cls-3" d="M31.33,477.09a4.22,4.22,0,0,0-1.89-1.42,4.63,4.63,0,0,0-2-.22,4.12,4.12,0,0,0-2.06.72,5.26,5.26,0,0,0-1.65,2A7.56,7.56,0,0,0,23,481a10,10,0,0,0,.11,2.73,6.29,6.29,0,0,0,1,2.55,4.58,4.58,0,0,0,1.72,1.55,4.46,4.46,0,0,0,2.52.39,4,4,0,0,0,2.3-1,5.61,5.61,0,0,0,1.54-2.35,9.07,9.07,0,0,0,.49-3,10.32,10.32,0,0,0-.2-2.1A6.27,6.27,0,0,0,31.33,477.09Zm-1,4.8a6.74,6.74,0,0,1-.32,2.18,3,3,0,0,1-.85,1.3,2.07,2.07,0,0,1-2.9-.24,3.62,3.62,0,0,1-.78-1.67,7.28,7.28,0,0,1,.05-3.38,3.44,3.44,0,0,1,.83-1.59,2,2,0,0,1,1.69-.64,2,2,0,0,1,1.64,1.1,4.27,4.27,0,0,1,.53,1.59c.06.45.09.9.13,1.35Z" transform="translate(0 0)"/>
      <path class="cls-3" d="M35.19,456.83a25,25,0,1,0,25,25A25,25,0,0,0,35.19,456.83Zm3.25,43.26a.49.49,0,0,1,0,.12H37.9l-.06,0-1.66-.34-3.63-.77-3.9-.81-4-.84-3.89-.82-3.66-.76c-.15,0-.13,0-.13-.17v-28c0-.05,0-.07.07-.09l3.23-.62,3.47-.67,3.28-.64,3.79-.73,4-.78,3.13-.61.47-.08v36.64Zm14.85-10.25a1.7,1.7,0,0,1-1.36,1.09,2.63,2.63,0,0,1-.49,0H39.81v-9.79l.1.06,2.16,1.49a.68.68,0,0,0,.77,0l6.48-4.31,4-2.65.08,0v13.83A2.47,2.47,0,0,1,53.29,489.84Zm0-17L42.68,480a.36.36,0,0,1-.43,0l-2.36-1.49a.13.13,0,0,1-.08-.14v-7c0-.1,0-.12.11-.12H52.14a1.13,1.13,0,0,1,.77.35,1.55,1.55,0,0,1,.46.67l0,.05v.46Z" transform="translate(0 0)"/>
    </g>
  </g>
</svg>
