<?xml version="1.0" encoding="UTF-8"?><svg id="uuid-8ec720f2-215e-4858-a0f4-c38ade1504a4" xmlns="http://www.w3.org/2000/svg" viewBox="0 0 503.22 476.54"><defs><style>.uuid-db3b6aeb-cd65-4771-b4b2-feaa04580fd4{fill:#21365f;}.uuid-c4c0f6a2-5f3c-4d08-9e23-27d0b51623f5{fill:#e8ebec;}.uuid-99675c68-dfa8-493f-a51f-6b4d73f1cadb{fill:#b1d6e8;}</style></defs><circle class="uuid-c4c0f6a2-5f3c-4d08-9e23-27d0b51623f5" cx="409.16" cy="349.42" r="94.05"/><circle class="uuid-c4c0f6a2-5f3c-4d08-9e23-27d0b51623f5" cx="140.08" cy="336.46" r="140.08"/><circle class="uuid-c4c0f6a2-5f3c-4d08-9e23-27d0b51623f5" cx="257.83" cy="83.77" r="83.77"/><path class="uuid-99675c68-dfa8-493f-a51f-6b4d73f1cadb" d="m288.29,182.32h143.36v159.36c0,23.73-19.27,43-43,43h-159.36v-143.36c0-32.56,26.44-59,59-59Z"/><rect class="uuid-db3b6aeb-cd65-4771-b4b2-feaa04580fd4" x="200.72" y="47.02" width="9.26" height="18.6"/><rect class="uuid-db3b6aeb-cd65-4771-b4b2-feaa04580fd4" x="200.72" y="74.95" width="9.26" height="18.6"/><rect class="uuid-db3b6aeb-cd65-4771-b4b2-feaa04580fd4" x="186.75" y="60.97" width="9.26" height="18.6" transform="translate(121.11 261.65) rotate(-90)"/><rect class="uuid-db3b6aeb-cd65-4771-b4b2-feaa04580fd4" x="214.68" y="60.97" width="9.26" height="18.6" transform="translate(149.04 289.58) rotate(-90)"/><rect class="uuid-db3b6aeb-cd65-4771-b4b2-feaa04580fd4" x="135.25" y="397.14" width="9.31" height="18.7"/><rect class="uuid-db3b6aeb-cd65-4771-b4b2-feaa04580fd4" x="135.25" y="425.23" width="9.31" height="18.7"/><rect class="uuid-db3b6aeb-cd65-4771-b4b2-feaa04580fd4" x="121.21" y="411.17" width="9.31" height="18.7" transform="translate(-294.66 546.38) rotate(-90)"/><rect class="uuid-db3b6aeb-cd65-4771-b4b2-feaa04580fd4" x="149.29" y="411.17" width="9.31" height="18.7" transform="translate(-266.57 574.47) rotate(-90)"/><rect class="uuid-db3b6aeb-cd65-4771-b4b2-feaa04580fd4" x="466.86" y="149.6" width="9.31" height="18.7"/><rect class="uuid-db3b6aeb-cd65-4771-b4b2-feaa04580fd4" x="466.86" y="177.68" width="9.31" height="18.7"/><rect class="uuid-db3b6aeb-cd65-4771-b4b2-feaa04580fd4" x="452.82" y="163.63" width="9.31" height="18.7" transform="translate(284.5 630.45) rotate(-90)"/><rect class="uuid-db3b6aeb-cd65-4771-b4b2-feaa04580fd4" x="480.9" y="163.63" width="9.31" height="18.7" transform="translate(312.58 658.53) rotate(-90)"/><path class="uuid-db3b6aeb-cd65-4771-b4b2-feaa04580fd4" d="m263.38,376.28h123.32c4.78,0,9.57-.19,14.18-1.43,11.93-3.2,20.66-14.29,21.32-26.73.06-1.07.05-2.15.05-3.22v-209.55c0-13.22-6.21-22.47-17.95-28.09-4.61-2.2-9.67-2.49-14.69-2.52-12.87-.07-25.74-.02-38.6-.04-1.78,0-3.6.11-5.29-.6-2.1-.89-3.75-2.32-3.8-4.74-.04-2.35,1.31-4.03,3.44-5.02,1.88-.87,3.9-1.04,5.94-1.04,12.99,0,25.98-.19,38.96.04,25.59.46,43.36,18.74,43.37,44.4.01,68.78.02,137.55,0,206.33,0,21.24-13.38,37.84-34.1,42.29-4.54.97-9.2,1.31-13.85,1.31-81.5.01-163,.03-244.51-.01-10.61,0-21-1.42-29.99-7.72-12.2-8.56-18.37-20.5-18.5-35.34-.19-22.81-.06-45.61-.06-68.42v-138.63c0-9.84,2.6-18.83,8.38-26.88,6.79-9.47,16.21-14.49,27.42-16.54,3.64-.67,7.32-.88,11.03-.87,11.79.06,23.59.02,35.39.03,2.03,0,4.08-.04,5.95.92,2.14,1.09,3.82,2.67,3.61,5.26-.21,2.7-2,4.31-4.56,4.84-1.61.34-3.31.37-4.97.38-12.87.03-25.74-.05-38.6.05-7.39.06-14.43,1.41-20.48,6.16-7.51,5.9-11.47,13.54-11.74,23.1-.02.84-.01,1.67-.01,2.51,0,69.37.04,138.75-.04,208.12-.01,10.98,4.06,19.62,12.85,26.18,6.33,4.72,13.68,5.35,21.09,5.41,16.68.16,33.36.05,50.05.05h75.43,0Z"/><path class="uuid-db3b6aeb-cd65-4771-b4b2-feaa04580fd4" d="m257.78,146.57c0-36.3,0-72.59.01-108.89,0-1.91,0-3.84.32-5.7.43-2.48,2.02-4.08,4.58-4.32,2.57-.24,4.31,1.12,5.3,3.42,1.15,2.7,1.18,5.57,1.18,8.45v215.27c0,1.55-.05,3.11.08,4.66.34,3.99,3.46,5.47,6.84,3.28.49-.32.94-.73,1.38-1.14,9.59-9.11,19.16-18.25,28.77-27.33,7.44-7.04,14.93-14.04,22.44-21.01,2.94-2.74,5.94-2.92,8.25-.67,2.26,2.21,2.11,5.96-.7,8.62-8.39,7.95-16.85,15.82-25.36,23.64-4.92,4.51-9.56,9.31-14.52,13.78-9.11,8.22-17.88,16.82-26.8,25.26-5.07,4.81-7.7,4.81-12.78,0-13.41-12.7-26.79-25.44-40.23-38.1-8.5-8.01-17.09-15.92-25.61-23.9-.77-.72-1.52-1.54-2.07-2.44-1.53-2.51-1.14-5.45.94-7.14,2.29-1.86,4.69-1.67,6.85.14,2.74,2.29,5.4,4.69,7.99,7.15,10.2,9.67,20.3,19.47,30.59,29.05,4.54,4.23,9.06,8.45,13.49,12.8.92.9,2.01,1.73,3.16,2.3,3.09,1.53,5.42.19,5.8-3.26.16-1.53.11-3.1.11-4.65v-109.27Z"/></svg>